G04 EAGLE Gerber RS-274X export*
G75*
%MOMM*%
%FSLAX34Y34*%
%LPD*%
%INCopper Layer 2*%
%IPPOS*%
%AMOC8*
5,1,8,0,0,1.08239X$1,22.5*%
G01*
%ADD10C,3.327400*%
%ADD11C,2.355000*%
%ADD12C,1.408000*%
%ADD13C,1.508000*%
%ADD14C,1.524000*%
%ADD15C,1.016000*%
%ADD16C,0.908000*%
%ADD17C,0.808000*%
%ADD18C,1.108000*%
%ADD19C,0.858000*%

G36*
X996524Y2550D02*
X996524Y2550D01*
X996588Y2549D01*
X996663Y2570D01*
X996739Y2581D01*
X996798Y2607D01*
X996860Y2624D01*
X996926Y2665D01*
X996996Y2697D01*
X997045Y2739D01*
X997100Y2772D01*
X997152Y2830D01*
X997210Y2880D01*
X997246Y2934D01*
X997289Y2982D01*
X997322Y3051D01*
X997365Y3116D01*
X997384Y3178D01*
X997412Y3235D01*
X997423Y3305D01*
X997447Y3386D01*
X997448Y3471D01*
X997459Y3540D01*
X997459Y846460D01*
X997450Y846524D01*
X997451Y846588D01*
X997430Y846663D01*
X997419Y846739D01*
X997393Y846798D01*
X997376Y846860D01*
X997335Y846926D01*
X997303Y846996D01*
X997261Y847045D01*
X997228Y847100D01*
X997170Y847152D01*
X997120Y847210D01*
X997066Y847246D01*
X997018Y847289D01*
X996949Y847322D01*
X996884Y847365D01*
X996822Y847384D01*
X996765Y847412D01*
X996695Y847423D01*
X996614Y847447D01*
X996529Y847448D01*
X996460Y847459D01*
X3540Y847459D01*
X3476Y847450D01*
X3412Y847451D01*
X3337Y847430D01*
X3261Y847419D01*
X3202Y847393D01*
X3140Y847376D01*
X3074Y847335D01*
X3004Y847303D01*
X2955Y847261D01*
X2900Y847228D01*
X2848Y847170D01*
X2790Y847120D01*
X2754Y847066D01*
X2711Y847018D01*
X2678Y846949D01*
X2635Y846884D01*
X2616Y846822D01*
X2588Y846765D01*
X2577Y846695D01*
X2553Y846614D01*
X2552Y846529D01*
X2541Y846460D01*
X2541Y3540D01*
X2550Y3476D01*
X2549Y3412D01*
X2570Y3337D01*
X2581Y3261D01*
X2607Y3202D01*
X2624Y3140D01*
X2665Y3074D01*
X2697Y3004D01*
X2739Y2955D01*
X2772Y2900D01*
X2830Y2848D01*
X2880Y2790D01*
X2934Y2754D01*
X2982Y2711D01*
X3051Y2678D01*
X3116Y2635D01*
X3178Y2616D01*
X3235Y2588D01*
X3305Y2577D01*
X3386Y2553D01*
X3471Y2552D01*
X3540Y2541D01*
X996460Y2541D01*
X996524Y2550D01*
G37*
%LPC*%
G36*
X756374Y22459D02*
X756374Y22459D01*
X749370Y24336D01*
X743090Y27962D01*
X737962Y33090D01*
X734336Y39370D01*
X732459Y46374D01*
X732459Y53626D01*
X734336Y60630D01*
X737962Y66910D01*
X743090Y72038D01*
X749370Y75664D01*
X756374Y77541D01*
X763626Y77541D01*
X770630Y75664D01*
X776910Y72038D01*
X782038Y66910D01*
X785664Y60630D01*
X787541Y53626D01*
X787541Y46374D01*
X785664Y39370D01*
X782038Y33090D01*
X776910Y27962D01*
X770630Y24336D01*
X763626Y22459D01*
X756374Y22459D01*
G37*
%LPD*%
%LPC*%
G36*
X756374Y772459D02*
X756374Y772459D01*
X749370Y774336D01*
X743090Y777962D01*
X737962Y783090D01*
X734336Y789370D01*
X732459Y796374D01*
X732459Y803626D01*
X734336Y810630D01*
X737962Y816910D01*
X743090Y822038D01*
X749370Y825664D01*
X756374Y827541D01*
X763626Y827541D01*
X770630Y825664D01*
X776910Y822038D01*
X782038Y816910D01*
X785664Y810630D01*
X787541Y803626D01*
X787541Y796374D01*
X785664Y789370D01*
X782038Y783090D01*
X776910Y777962D01*
X770630Y774336D01*
X763626Y772459D01*
X756374Y772459D01*
G37*
%LPD*%
%LPC*%
G36*
X503718Y411054D02*
X503718Y411054D01*
X501349Y412036D01*
X499536Y413849D01*
X498554Y416218D01*
X498554Y418000D01*
X498538Y418117D01*
X498526Y418235D01*
X498518Y418257D01*
X498514Y418279D01*
X498466Y418387D01*
X498422Y418497D01*
X498408Y418515D01*
X498398Y418536D01*
X498321Y418626D01*
X498248Y418720D01*
X498230Y418733D01*
X498215Y418750D01*
X498115Y418815D01*
X498019Y418885D01*
X497998Y418892D01*
X497979Y418905D01*
X497865Y418940D01*
X497754Y418979D01*
X497731Y418981D01*
X497709Y418987D01*
X497591Y418989D01*
X497472Y418996D01*
X497451Y418991D01*
X497427Y418991D01*
X497248Y418941D01*
X497173Y418923D01*
X496282Y418554D01*
X493718Y418554D01*
X491349Y419536D01*
X489536Y421349D01*
X488554Y423718D01*
X488554Y426282D01*
X489536Y428651D01*
X491349Y430464D01*
X493718Y431446D01*
X496282Y431446D01*
X498651Y430464D01*
X500464Y428651D01*
X501446Y426282D01*
X501446Y424500D01*
X501462Y424383D01*
X501474Y424265D01*
X501482Y424243D01*
X501486Y424221D01*
X501534Y424113D01*
X501578Y424003D01*
X501592Y423985D01*
X501602Y423964D01*
X501679Y423874D01*
X501752Y423780D01*
X501770Y423767D01*
X501785Y423750D01*
X501885Y423685D01*
X501981Y423615D01*
X502002Y423608D01*
X502021Y423595D01*
X502135Y423560D01*
X502246Y423521D01*
X502269Y423519D01*
X502291Y423513D01*
X502409Y423511D01*
X502528Y423504D01*
X502549Y423509D01*
X502573Y423509D01*
X502752Y423559D01*
X502827Y423577D01*
X503718Y423946D01*
X506282Y423946D01*
X507173Y423577D01*
X507288Y423547D01*
X507401Y423513D01*
X507424Y423512D01*
X507446Y423507D01*
X507564Y423511D01*
X507683Y423509D01*
X507705Y423515D01*
X507728Y423516D01*
X507840Y423553D01*
X507955Y423584D01*
X507974Y423596D01*
X507996Y423603D01*
X508094Y423670D01*
X508195Y423732D01*
X508210Y423749D01*
X508229Y423762D01*
X508304Y423854D01*
X508384Y423942D01*
X508394Y423962D01*
X508408Y423980D01*
X508455Y424089D01*
X508507Y424195D01*
X508510Y424217D01*
X508520Y424239D01*
X508542Y424424D01*
X508554Y424500D01*
X508554Y426282D01*
X509536Y428651D01*
X511349Y430464D01*
X513718Y431446D01*
X516282Y431446D01*
X518651Y430464D01*
X520464Y428651D01*
X521446Y426282D01*
X521446Y424500D01*
X521462Y424383D01*
X521474Y424265D01*
X521482Y424243D01*
X521486Y424221D01*
X521534Y424113D01*
X521578Y424003D01*
X521592Y423985D01*
X521602Y423964D01*
X521679Y423874D01*
X521752Y423780D01*
X521770Y423767D01*
X521785Y423750D01*
X521885Y423685D01*
X521981Y423615D01*
X522002Y423608D01*
X522021Y423595D01*
X522135Y423560D01*
X522246Y423521D01*
X522269Y423519D01*
X522291Y423513D01*
X522409Y423511D01*
X522528Y423504D01*
X522549Y423509D01*
X522573Y423509D01*
X522752Y423559D01*
X522827Y423577D01*
X523718Y423946D01*
X526282Y423946D01*
X527173Y423577D01*
X527288Y423547D01*
X527401Y423513D01*
X527424Y423512D01*
X527446Y423507D01*
X527564Y423511D01*
X527683Y423509D01*
X527705Y423515D01*
X527728Y423516D01*
X527840Y423553D01*
X527955Y423584D01*
X527974Y423596D01*
X527996Y423603D01*
X528094Y423670D01*
X528195Y423732D01*
X528210Y423749D01*
X528229Y423762D01*
X528304Y423854D01*
X528384Y423942D01*
X528394Y423962D01*
X528408Y423980D01*
X528455Y424089D01*
X528507Y424195D01*
X528510Y424217D01*
X528520Y424239D01*
X528542Y424424D01*
X528554Y424500D01*
X528554Y426282D01*
X529536Y428651D01*
X531349Y430464D01*
X533718Y431446D01*
X536282Y431446D01*
X538651Y430464D01*
X540464Y428651D01*
X541446Y426282D01*
X541446Y424500D01*
X541462Y424383D01*
X541474Y424265D01*
X541482Y424243D01*
X541486Y424221D01*
X541534Y424113D01*
X541578Y424003D01*
X541592Y423985D01*
X541602Y423964D01*
X541679Y423874D01*
X541752Y423780D01*
X541770Y423767D01*
X541785Y423750D01*
X541885Y423685D01*
X541981Y423615D01*
X542002Y423608D01*
X542021Y423595D01*
X542135Y423561D01*
X542246Y423521D01*
X542269Y423519D01*
X542291Y423513D01*
X542409Y423511D01*
X542528Y423504D01*
X542549Y423509D01*
X542573Y423509D01*
X542752Y423559D01*
X542827Y423577D01*
X543718Y423946D01*
X546282Y423946D01*
X547173Y423577D01*
X547287Y423547D01*
X547401Y423513D01*
X547424Y423512D01*
X547446Y423507D01*
X547564Y423511D01*
X547683Y423509D01*
X547705Y423515D01*
X547728Y423516D01*
X547840Y423553D01*
X547955Y423584D01*
X547974Y423596D01*
X547996Y423603D01*
X548094Y423670D01*
X548195Y423732D01*
X548210Y423749D01*
X548229Y423762D01*
X548304Y423854D01*
X548384Y423942D01*
X548394Y423962D01*
X548408Y423980D01*
X548455Y424089D01*
X548507Y424195D01*
X548510Y424217D01*
X548520Y424239D01*
X548542Y424424D01*
X548554Y424500D01*
X548554Y426282D01*
X549536Y428651D01*
X551349Y430464D01*
X553718Y431446D01*
X556282Y431446D01*
X558651Y430464D01*
X560464Y428651D01*
X561446Y426282D01*
X561446Y424500D01*
X561462Y424383D01*
X561474Y424265D01*
X561482Y424243D01*
X561486Y424221D01*
X561534Y424113D01*
X561578Y424003D01*
X561592Y423985D01*
X561602Y423964D01*
X561679Y423874D01*
X561752Y423780D01*
X561770Y423767D01*
X561785Y423750D01*
X561885Y423685D01*
X561981Y423615D01*
X562002Y423608D01*
X562021Y423595D01*
X562135Y423561D01*
X562246Y423521D01*
X562269Y423519D01*
X562291Y423513D01*
X562409Y423511D01*
X562528Y423504D01*
X562549Y423509D01*
X562573Y423509D01*
X562752Y423559D01*
X562827Y423577D01*
X563718Y423946D01*
X566282Y423946D01*
X567173Y423577D01*
X567287Y423547D01*
X567401Y423513D01*
X567424Y423512D01*
X567446Y423507D01*
X567564Y423511D01*
X567683Y423509D01*
X567705Y423515D01*
X567728Y423516D01*
X567840Y423553D01*
X567955Y423584D01*
X567974Y423596D01*
X567996Y423603D01*
X568094Y423670D01*
X568195Y423732D01*
X568210Y423749D01*
X568229Y423762D01*
X568304Y423854D01*
X568384Y423942D01*
X568394Y423962D01*
X568408Y423980D01*
X568455Y424089D01*
X568507Y424195D01*
X568510Y424217D01*
X568520Y424239D01*
X568542Y424424D01*
X568554Y424500D01*
X568554Y426282D01*
X569536Y428651D01*
X571349Y430464D01*
X573718Y431446D01*
X576282Y431446D01*
X578651Y430464D01*
X580464Y428651D01*
X581446Y426282D01*
X581446Y424500D01*
X581462Y424383D01*
X581474Y424265D01*
X581482Y424243D01*
X581486Y424221D01*
X581534Y424113D01*
X581578Y424003D01*
X581592Y423985D01*
X581602Y423964D01*
X581679Y423874D01*
X581752Y423780D01*
X581770Y423767D01*
X581785Y423750D01*
X581885Y423685D01*
X581981Y423615D01*
X582002Y423608D01*
X582021Y423595D01*
X582135Y423561D01*
X582246Y423521D01*
X582269Y423519D01*
X582291Y423513D01*
X582409Y423511D01*
X582528Y423504D01*
X582549Y423509D01*
X582573Y423509D01*
X582752Y423559D01*
X582827Y423577D01*
X583718Y423946D01*
X586282Y423946D01*
X588651Y422964D01*
X590464Y421151D01*
X591446Y418782D01*
X591446Y416218D01*
X590464Y413849D01*
X588651Y412036D01*
X586282Y411054D01*
X583718Y411054D01*
X581349Y412036D01*
X579536Y413849D01*
X578554Y416218D01*
X578554Y418000D01*
X578538Y418117D01*
X578526Y418235D01*
X578518Y418257D01*
X578514Y418279D01*
X578466Y418387D01*
X578422Y418497D01*
X578408Y418515D01*
X578398Y418536D01*
X578321Y418626D01*
X578248Y418720D01*
X578230Y418733D01*
X578215Y418750D01*
X578115Y418815D01*
X578019Y418885D01*
X577998Y418892D01*
X577979Y418905D01*
X577865Y418939D01*
X577754Y418979D01*
X577731Y418981D01*
X577709Y418987D01*
X577591Y418989D01*
X577472Y418996D01*
X577451Y418991D01*
X577427Y418991D01*
X577248Y418941D01*
X577173Y418923D01*
X576282Y418554D01*
X573718Y418554D01*
X572827Y418923D01*
X572713Y418953D01*
X572599Y418987D01*
X572576Y418988D01*
X572554Y418993D01*
X572436Y418989D01*
X572317Y418991D01*
X572295Y418985D01*
X572272Y418984D01*
X572160Y418947D01*
X572045Y418916D01*
X572026Y418904D01*
X572004Y418897D01*
X571906Y418830D01*
X571805Y418768D01*
X571790Y418751D01*
X571771Y418738D01*
X571696Y418646D01*
X571616Y418558D01*
X571606Y418538D01*
X571592Y418520D01*
X571545Y418411D01*
X571493Y418305D01*
X571490Y418283D01*
X571480Y418261D01*
X571458Y418076D01*
X571446Y418000D01*
X571446Y416218D01*
X570464Y413849D01*
X568651Y412036D01*
X566282Y411054D01*
X563718Y411054D01*
X561349Y412036D01*
X559536Y413849D01*
X558554Y416218D01*
X558554Y418000D01*
X558538Y418117D01*
X558526Y418235D01*
X558518Y418257D01*
X558514Y418279D01*
X558466Y418387D01*
X558422Y418497D01*
X558408Y418515D01*
X558398Y418536D01*
X558321Y418626D01*
X558248Y418720D01*
X558230Y418733D01*
X558215Y418750D01*
X558115Y418815D01*
X558019Y418885D01*
X557998Y418892D01*
X557979Y418905D01*
X557865Y418939D01*
X557754Y418979D01*
X557731Y418981D01*
X557709Y418987D01*
X557591Y418989D01*
X557472Y418996D01*
X557451Y418991D01*
X557427Y418991D01*
X557248Y418941D01*
X557173Y418923D01*
X556282Y418554D01*
X553718Y418554D01*
X552827Y418923D01*
X552713Y418953D01*
X552599Y418987D01*
X552576Y418988D01*
X552554Y418993D01*
X552436Y418989D01*
X552317Y418991D01*
X552295Y418985D01*
X552272Y418984D01*
X552160Y418947D01*
X552045Y418916D01*
X552026Y418904D01*
X552004Y418897D01*
X551906Y418830D01*
X551805Y418768D01*
X551790Y418751D01*
X551771Y418738D01*
X551696Y418646D01*
X551616Y418558D01*
X551606Y418538D01*
X551592Y418520D01*
X551545Y418411D01*
X551493Y418305D01*
X551490Y418283D01*
X551480Y418261D01*
X551458Y418076D01*
X551446Y418000D01*
X551446Y416218D01*
X550464Y413849D01*
X548651Y412036D01*
X546282Y411054D01*
X543718Y411054D01*
X541349Y412036D01*
X539536Y413849D01*
X538554Y416218D01*
X538554Y418000D01*
X538538Y418117D01*
X538526Y418235D01*
X538518Y418257D01*
X538514Y418279D01*
X538466Y418387D01*
X538422Y418497D01*
X538408Y418515D01*
X538398Y418536D01*
X538321Y418626D01*
X538248Y418720D01*
X538230Y418733D01*
X538215Y418750D01*
X538115Y418815D01*
X538019Y418885D01*
X537998Y418892D01*
X537979Y418905D01*
X537865Y418939D01*
X537754Y418979D01*
X537731Y418981D01*
X537709Y418987D01*
X537591Y418989D01*
X537472Y418996D01*
X537451Y418991D01*
X537427Y418991D01*
X537248Y418941D01*
X537173Y418923D01*
X536282Y418554D01*
X533718Y418554D01*
X532827Y418923D01*
X532712Y418953D01*
X532599Y418987D01*
X532576Y418988D01*
X532554Y418993D01*
X532436Y418989D01*
X532317Y418991D01*
X532295Y418985D01*
X532272Y418984D01*
X532160Y418947D01*
X532045Y418916D01*
X532026Y418904D01*
X532004Y418897D01*
X531906Y418830D01*
X531805Y418768D01*
X531790Y418751D01*
X531771Y418738D01*
X531696Y418646D01*
X531616Y418558D01*
X531606Y418538D01*
X531592Y418520D01*
X531545Y418411D01*
X531493Y418305D01*
X531490Y418283D01*
X531480Y418261D01*
X531458Y418076D01*
X531446Y418000D01*
X531446Y416218D01*
X530464Y413849D01*
X528651Y412036D01*
X526282Y411054D01*
X523718Y411054D01*
X521349Y412036D01*
X519536Y413849D01*
X518554Y416218D01*
X518554Y418000D01*
X518538Y418117D01*
X518526Y418235D01*
X518518Y418257D01*
X518514Y418279D01*
X518466Y418387D01*
X518422Y418497D01*
X518408Y418515D01*
X518398Y418536D01*
X518321Y418626D01*
X518248Y418720D01*
X518230Y418733D01*
X518215Y418750D01*
X518115Y418815D01*
X518019Y418885D01*
X517998Y418892D01*
X517979Y418905D01*
X517865Y418940D01*
X517754Y418979D01*
X517731Y418981D01*
X517709Y418987D01*
X517591Y418989D01*
X517472Y418996D01*
X517451Y418991D01*
X517427Y418991D01*
X517248Y418941D01*
X517173Y418923D01*
X516282Y418554D01*
X513718Y418554D01*
X512827Y418923D01*
X512712Y418953D01*
X512599Y418987D01*
X512576Y418988D01*
X512554Y418993D01*
X512436Y418989D01*
X512317Y418991D01*
X512295Y418985D01*
X512272Y418984D01*
X512160Y418947D01*
X512045Y418916D01*
X512026Y418904D01*
X512004Y418897D01*
X511906Y418830D01*
X511805Y418768D01*
X511790Y418751D01*
X511771Y418738D01*
X511696Y418646D01*
X511616Y418558D01*
X511606Y418538D01*
X511592Y418520D01*
X511545Y418411D01*
X511493Y418305D01*
X511490Y418283D01*
X511480Y418261D01*
X511458Y418076D01*
X511446Y418000D01*
X511446Y416218D01*
X510464Y413849D01*
X508651Y412036D01*
X506282Y411054D01*
X503718Y411054D01*
G37*
%LPD*%
%LPC*%
G36*
X66262Y664059D02*
X66262Y664059D01*
X59356Y666920D01*
X54070Y672206D01*
X51209Y679112D01*
X51209Y686588D01*
X54070Y693494D01*
X59356Y698780D01*
X66262Y701641D01*
X73738Y701641D01*
X80644Y698780D01*
X85930Y693494D01*
X88791Y686588D01*
X88791Y679112D01*
X85930Y672206D01*
X80644Y666920D01*
X73738Y664059D01*
X66262Y664059D01*
G37*
%LPD*%
%LPC*%
G36*
X66262Y778359D02*
X66262Y778359D01*
X59356Y781220D01*
X54070Y786506D01*
X51209Y793412D01*
X51209Y800888D01*
X54070Y807794D01*
X59356Y813080D01*
X66262Y815941D01*
X73738Y815941D01*
X80644Y813080D01*
X85930Y807794D01*
X88791Y800888D01*
X88791Y793412D01*
X85930Y786506D01*
X80644Y781220D01*
X73738Y778359D01*
X66262Y778359D01*
G37*
%LPD*%
%LPC*%
G36*
X324643Y773013D02*
X324643Y773013D01*
X322075Y774077D01*
X320110Y776042D01*
X319801Y776787D01*
X319785Y776815D01*
X319775Y776846D01*
X319713Y776936D01*
X319658Y777030D01*
X319634Y777052D01*
X319616Y777079D01*
X319532Y777148D01*
X319452Y777223D01*
X319423Y777238D01*
X319398Y777258D01*
X319298Y777301D01*
X319201Y777351D01*
X319169Y777357D01*
X319139Y777370D01*
X319031Y777383D01*
X318923Y777403D01*
X318891Y777400D01*
X318859Y777404D01*
X318752Y777387D01*
X318643Y777376D01*
X318613Y777364D01*
X318581Y777359D01*
X318482Y777312D01*
X318381Y777272D01*
X318355Y777252D01*
X318326Y777238D01*
X318245Y777166D01*
X318158Y777098D01*
X318140Y777072D01*
X318115Y777051D01*
X318068Y776973D01*
X317993Y776870D01*
X317977Y776824D01*
X317955Y776788D01*
X317700Y776173D01*
X315735Y774208D01*
X313168Y773144D01*
X310389Y773144D01*
X307821Y774208D01*
X305856Y776173D01*
X305589Y776817D01*
X305573Y776844D01*
X305563Y776875D01*
X305501Y776965D01*
X305446Y777059D01*
X305422Y777081D01*
X305404Y777108D01*
X305320Y777177D01*
X305240Y777252D01*
X305211Y777267D01*
X305186Y777287D01*
X305086Y777331D01*
X304988Y777380D01*
X304957Y777386D01*
X304927Y777399D01*
X304819Y777412D01*
X304711Y777432D01*
X304679Y777429D01*
X304647Y777433D01*
X304539Y777416D01*
X304431Y777405D01*
X304401Y777393D01*
X304369Y777388D01*
X304270Y777341D01*
X304169Y777301D01*
X304143Y777281D01*
X304114Y777267D01*
X304032Y777195D01*
X303946Y777127D01*
X303927Y777101D01*
X303903Y777080D01*
X303856Y777003D01*
X303781Y776899D01*
X303765Y776853D01*
X303743Y776817D01*
X303422Y776043D01*
X301457Y774078D01*
X298890Y773014D01*
X296110Y773014D01*
X293543Y774078D01*
X291578Y776043D01*
X290923Y777623D01*
X290907Y777651D01*
X290897Y777682D01*
X290835Y777772D01*
X290780Y777866D01*
X290756Y777888D01*
X290738Y777915D01*
X290653Y777984D01*
X290574Y778059D01*
X290545Y778073D01*
X290520Y778094D01*
X290420Y778137D01*
X290322Y778187D01*
X290291Y778193D01*
X290261Y778205D01*
X290153Y778219D01*
X290045Y778239D01*
X290013Y778236D01*
X289981Y778240D01*
X289873Y778222D01*
X289765Y778212D01*
X289735Y778200D01*
X289703Y778195D01*
X289604Y778148D01*
X289503Y778107D01*
X289477Y778088D01*
X289448Y778074D01*
X289366Y778001D01*
X289280Y777934D01*
X289261Y777908D01*
X289237Y777886D01*
X289190Y777809D01*
X289115Y777705D01*
X289099Y777660D01*
X289077Y777623D01*
X288422Y776043D01*
X286457Y774078D01*
X283890Y773014D01*
X281110Y773014D01*
X278543Y774078D01*
X276578Y776043D01*
X275514Y778610D01*
X275514Y781390D01*
X276578Y783957D01*
X278543Y785922D01*
X281110Y786986D01*
X283890Y786986D01*
X286457Y785922D01*
X288422Y783957D01*
X289077Y782377D01*
X289093Y782349D01*
X289103Y782318D01*
X289165Y782228D01*
X289220Y782134D01*
X289244Y782112D01*
X289262Y782085D01*
X289346Y782016D01*
X289426Y781941D01*
X289455Y781927D01*
X289480Y781906D01*
X289580Y781863D01*
X289678Y781813D01*
X289709Y781807D01*
X289739Y781795D01*
X289847Y781781D01*
X289955Y781761D01*
X289987Y781764D01*
X290019Y781760D01*
X290127Y781778D01*
X290235Y781788D01*
X290265Y781800D01*
X290297Y781805D01*
X290396Y781852D01*
X290497Y781892D01*
X290523Y781912D01*
X290552Y781926D01*
X290634Y781999D01*
X290720Y782066D01*
X290739Y782092D01*
X290763Y782114D01*
X290810Y782191D01*
X290885Y782295D01*
X290901Y782340D01*
X290923Y782377D01*
X291578Y783957D01*
X293543Y785922D01*
X296110Y786986D01*
X298890Y786986D01*
X301457Y785922D01*
X303422Y783957D01*
X303689Y783313D01*
X303705Y783285D01*
X303715Y783255D01*
X303777Y783164D01*
X303833Y783070D01*
X303856Y783048D01*
X303874Y783022D01*
X303958Y782952D01*
X304038Y782878D01*
X304067Y782863D01*
X304092Y782842D01*
X304192Y782799D01*
X304290Y782750D01*
X304321Y782744D01*
X304351Y782731D01*
X304459Y782718D01*
X304567Y782697D01*
X304599Y782700D01*
X304631Y782696D01*
X304739Y782714D01*
X304848Y782724D01*
X304878Y782736D01*
X304909Y782742D01*
X305008Y782788D01*
X305110Y782829D01*
X305135Y782849D01*
X305164Y782863D01*
X305246Y782935D01*
X305332Y783002D01*
X305351Y783029D01*
X305375Y783050D01*
X305422Y783127D01*
X305497Y783231D01*
X305513Y783277D01*
X305535Y783313D01*
X305856Y784087D01*
X307821Y786052D01*
X310389Y787116D01*
X313168Y787116D01*
X315735Y786052D01*
X317700Y784087D01*
X318009Y783341D01*
X318026Y783313D01*
X318036Y783283D01*
X318097Y783192D01*
X318153Y783098D01*
X318176Y783076D01*
X318195Y783050D01*
X318279Y782980D01*
X318359Y782905D01*
X318387Y782891D01*
X318412Y782870D01*
X318513Y782827D01*
X318610Y782778D01*
X318642Y782772D01*
X318671Y782759D01*
X318780Y782746D01*
X318887Y782725D01*
X318919Y782728D01*
X318951Y782724D01*
X319059Y782742D01*
X319168Y782752D01*
X319198Y782764D01*
X319230Y782769D01*
X319328Y782816D01*
X319430Y782857D01*
X319455Y782877D01*
X319484Y782890D01*
X319566Y782963D01*
X319652Y783030D01*
X319671Y783056D01*
X319695Y783078D01*
X319742Y783155D01*
X319817Y783259D01*
X319833Y783305D01*
X319856Y783341D01*
X320110Y783956D01*
X322075Y785921D01*
X324643Y786985D01*
X327422Y786985D01*
X329990Y785921D01*
X331955Y783956D01*
X332093Y783622D01*
X332109Y783595D01*
X332119Y783564D01*
X332181Y783474D01*
X332236Y783380D01*
X332260Y783358D01*
X332278Y783331D01*
X332363Y783261D01*
X332442Y783187D01*
X332471Y783172D01*
X332496Y783152D01*
X332596Y783108D01*
X332694Y783059D01*
X332725Y783053D01*
X332755Y783040D01*
X332863Y783027D01*
X332971Y783007D01*
X333003Y783010D01*
X333035Y783006D01*
X333143Y783023D01*
X333251Y783034D01*
X333281Y783046D01*
X333313Y783051D01*
X333412Y783098D01*
X333513Y783138D01*
X333539Y783158D01*
X333568Y783172D01*
X333650Y783244D01*
X333736Y783312D01*
X333755Y783338D01*
X333779Y783359D01*
X333826Y783437D01*
X333901Y783540D01*
X333917Y783586D01*
X333939Y783622D01*
X334078Y783957D01*
X336043Y785922D01*
X338610Y786986D01*
X341390Y786986D01*
X343957Y785922D01*
X345922Y783957D01*
X346577Y782377D01*
X346593Y782349D01*
X346603Y782318D01*
X346665Y782228D01*
X346720Y782134D01*
X346744Y782112D01*
X346762Y782085D01*
X346846Y782016D01*
X346926Y781941D01*
X346955Y781926D01*
X346980Y781906D01*
X347080Y781863D01*
X347178Y781813D01*
X347209Y781807D01*
X347239Y781795D01*
X347347Y781781D01*
X347455Y781761D01*
X347487Y781764D01*
X347519Y781760D01*
X347627Y781778D01*
X347735Y781788D01*
X347765Y781800D01*
X347797Y781805D01*
X347896Y781852D01*
X347997Y781892D01*
X348023Y781912D01*
X348052Y781926D01*
X348134Y781999D01*
X348220Y782066D01*
X348239Y782092D01*
X348263Y782114D01*
X348310Y782191D01*
X348385Y782295D01*
X348401Y782340D01*
X348423Y782377D01*
X349078Y783957D01*
X351043Y785922D01*
X353610Y786986D01*
X356390Y786986D01*
X358957Y785922D01*
X360922Y783957D01*
X361986Y781390D01*
X361986Y778610D01*
X360922Y776043D01*
X358957Y774078D01*
X356390Y773014D01*
X353610Y773014D01*
X351043Y774078D01*
X349078Y776043D01*
X348423Y777623D01*
X348407Y777651D01*
X348397Y777682D01*
X348335Y777772D01*
X348280Y777866D01*
X348256Y777888D01*
X348238Y777915D01*
X348153Y777984D01*
X348074Y778059D01*
X348045Y778074D01*
X348020Y778094D01*
X347920Y778137D01*
X347822Y778187D01*
X347791Y778193D01*
X347761Y778205D01*
X347653Y778219D01*
X347545Y778239D01*
X347513Y778236D01*
X347481Y778240D01*
X347373Y778222D01*
X347265Y778212D01*
X347235Y778200D01*
X347203Y778195D01*
X347104Y778148D01*
X347003Y778108D01*
X346977Y778088D01*
X346948Y778074D01*
X346866Y778001D01*
X346780Y777934D01*
X346761Y777908D01*
X346737Y777886D01*
X346690Y777809D01*
X346615Y777705D01*
X346599Y777660D01*
X346577Y777623D01*
X345922Y776043D01*
X343957Y774078D01*
X341390Y773014D01*
X338610Y773014D01*
X336043Y774078D01*
X334078Y776043D01*
X333940Y776376D01*
X333923Y776404D01*
X333913Y776435D01*
X333852Y776525D01*
X333796Y776619D01*
X333773Y776641D01*
X333754Y776668D01*
X333670Y776737D01*
X333590Y776812D01*
X333562Y776827D01*
X333537Y776847D01*
X333436Y776890D01*
X333339Y776940D01*
X333307Y776946D01*
X333278Y776958D01*
X333169Y776972D01*
X333062Y776992D01*
X333030Y776989D01*
X332998Y776993D01*
X332890Y776976D01*
X332781Y776965D01*
X332751Y776953D01*
X332719Y776948D01*
X332621Y776901D01*
X332519Y776861D01*
X332494Y776841D01*
X332465Y776827D01*
X332383Y776754D01*
X332297Y776687D01*
X332278Y776661D01*
X332254Y776639D01*
X332207Y776562D01*
X332132Y776458D01*
X332115Y776413D01*
X332104Y776394D01*
X332098Y776384D01*
X332097Y776383D01*
X332093Y776376D01*
X331955Y776042D01*
X329990Y774077D01*
X327422Y773013D01*
X324643Y773013D01*
G37*
%LPD*%
%LPC*%
G36*
X493718Y463554D02*
X493718Y463554D01*
X491349Y464536D01*
X489536Y466349D01*
X488554Y468718D01*
X488554Y471282D01*
X489536Y473651D01*
X491349Y475464D01*
X493718Y476446D01*
X496282Y476446D01*
X497932Y475762D01*
X497963Y475754D01*
X497992Y475740D01*
X498100Y475719D01*
X498205Y475692D01*
X498238Y475693D01*
X498269Y475687D01*
X498378Y475698D01*
X498487Y475701D01*
X498518Y475711D01*
X498550Y475714D01*
X498652Y475755D01*
X498755Y475789D01*
X498782Y475807D01*
X498812Y475819D01*
X498898Y475886D01*
X498988Y475948D01*
X499009Y475972D01*
X499034Y475992D01*
X499098Y476081D01*
X499168Y476165D01*
X499180Y476195D01*
X499199Y476221D01*
X499236Y476324D01*
X499279Y476424D01*
X499283Y476456D01*
X499294Y476487D01*
X499300Y476596D01*
X499314Y476704D01*
X499308Y476736D01*
X499310Y476768D01*
X499289Y476856D01*
X499269Y476983D01*
X499248Y477026D01*
X499238Y477068D01*
X498554Y478718D01*
X498554Y481282D01*
X499238Y482932D01*
X499246Y482963D01*
X499260Y482992D01*
X499281Y483100D01*
X499308Y483205D01*
X499307Y483238D01*
X499313Y483269D01*
X499302Y483378D01*
X499299Y483487D01*
X499289Y483518D01*
X499286Y483550D01*
X499245Y483652D01*
X499211Y483755D01*
X499193Y483782D01*
X499181Y483812D01*
X499114Y483898D01*
X499052Y483988D01*
X499028Y484009D01*
X499008Y484034D01*
X498919Y484098D01*
X498835Y484168D01*
X498805Y484180D01*
X498779Y484199D01*
X498676Y484236D01*
X498576Y484279D01*
X498544Y484283D01*
X498513Y484294D01*
X498404Y484300D01*
X498296Y484314D01*
X498264Y484308D01*
X498232Y484310D01*
X498144Y484289D01*
X498017Y484269D01*
X497974Y484248D01*
X497932Y484238D01*
X496282Y483554D01*
X493718Y483554D01*
X491349Y484536D01*
X489536Y486349D01*
X488554Y488718D01*
X488554Y491282D01*
X489536Y493651D01*
X491349Y495464D01*
X493718Y496446D01*
X496282Y496446D01*
X497932Y495762D01*
X497963Y495754D01*
X497992Y495740D01*
X498100Y495719D01*
X498205Y495692D01*
X498238Y495693D01*
X498269Y495687D01*
X498378Y495698D01*
X498487Y495701D01*
X498518Y495711D01*
X498550Y495714D01*
X498652Y495755D01*
X498755Y495789D01*
X498782Y495807D01*
X498812Y495819D01*
X498898Y495886D01*
X498988Y495948D01*
X499009Y495972D01*
X499034Y495992D01*
X499098Y496081D01*
X499168Y496165D01*
X499180Y496195D01*
X499199Y496221D01*
X499236Y496324D01*
X499279Y496424D01*
X499283Y496456D01*
X499294Y496487D01*
X499300Y496596D01*
X499314Y496704D01*
X499308Y496736D01*
X499310Y496768D01*
X499289Y496856D01*
X499269Y496983D01*
X499248Y497026D01*
X499238Y497068D01*
X498554Y498718D01*
X498554Y501282D01*
X499508Y503585D01*
X499516Y503617D01*
X499531Y503645D01*
X499551Y503753D01*
X499578Y503859D01*
X499577Y503891D01*
X499583Y503923D01*
X499573Y504031D01*
X499569Y504140D01*
X499559Y504171D01*
X499556Y504203D01*
X499516Y504305D01*
X499482Y504409D01*
X499464Y504435D01*
X499452Y504465D01*
X499384Y504551D01*
X499323Y504642D01*
X499298Y504662D01*
X499278Y504688D01*
X499190Y504752D01*
X499105Y504821D01*
X499076Y504834D01*
X499050Y504853D01*
X498947Y504889D01*
X498846Y504932D01*
X498814Y504936D01*
X498784Y504947D01*
X498675Y504954D01*
X498566Y504967D01*
X498535Y504962D01*
X498502Y504964D01*
X498414Y504942D01*
X498288Y504922D01*
X498244Y504901D01*
X498203Y504891D01*
X496183Y504054D01*
X493817Y504054D01*
X491632Y504959D01*
X489959Y506632D01*
X489054Y508817D01*
X489054Y511183D01*
X489959Y513368D01*
X491632Y515041D01*
X493817Y515946D01*
X496183Y515946D01*
X498368Y515041D01*
X500041Y513368D01*
X500946Y511183D01*
X500946Y508817D01*
X500109Y506797D01*
X500101Y506766D01*
X500086Y506737D01*
X500066Y506630D01*
X500039Y506524D01*
X500040Y506492D01*
X500034Y506460D01*
X500044Y506351D01*
X500048Y506242D01*
X500058Y506212D01*
X500061Y506179D01*
X500102Y506078D01*
X500135Y505974D01*
X500154Y505947D01*
X500166Y505917D01*
X500233Y505831D01*
X500294Y505741D01*
X500319Y505721D01*
X500339Y505695D01*
X500428Y505631D01*
X500512Y505562D01*
X500542Y505549D01*
X500568Y505530D01*
X500671Y505494D01*
X500771Y505450D01*
X500803Y505446D01*
X500833Y505436D01*
X500943Y505429D01*
X501051Y505416D01*
X501083Y505421D01*
X501115Y505419D01*
X501203Y505440D01*
X501329Y505461D01*
X501373Y505482D01*
X501415Y505492D01*
X503718Y506446D01*
X506282Y506446D01*
X508585Y505492D01*
X508617Y505484D01*
X508645Y505469D01*
X508753Y505449D01*
X508859Y505422D01*
X508891Y505423D01*
X508923Y505417D01*
X509031Y505427D01*
X509140Y505431D01*
X509171Y505441D01*
X509203Y505444D01*
X509305Y505484D01*
X509409Y505518D01*
X509435Y505536D01*
X509465Y505548D01*
X509551Y505616D01*
X509642Y505677D01*
X509662Y505702D01*
X509688Y505722D01*
X509752Y505810D01*
X509821Y505895D01*
X509834Y505924D01*
X509853Y505950D01*
X509889Y506053D01*
X509932Y506154D01*
X509936Y506186D01*
X509947Y506216D01*
X509954Y506325D01*
X509967Y506434D01*
X509962Y506465D01*
X509964Y506498D01*
X509942Y506586D01*
X509922Y506712D01*
X509901Y506756D01*
X509891Y506797D01*
X509054Y508817D01*
X509054Y511183D01*
X509959Y513368D01*
X511632Y515041D01*
X513817Y515946D01*
X516183Y515946D01*
X518368Y515041D01*
X520041Y513368D01*
X520946Y511183D01*
X520946Y508817D01*
X520041Y506632D01*
X518368Y504959D01*
X516183Y504054D01*
X513817Y504054D01*
X511797Y504891D01*
X511766Y504899D01*
X511737Y504914D01*
X511630Y504934D01*
X511524Y504961D01*
X511492Y504960D01*
X511460Y504966D01*
X511351Y504956D01*
X511242Y504952D01*
X511212Y504942D01*
X511179Y504939D01*
X511078Y504898D01*
X510974Y504865D01*
X510947Y504846D01*
X510917Y504834D01*
X510831Y504767D01*
X510741Y504706D01*
X510721Y504681D01*
X510695Y504661D01*
X510631Y504572D01*
X510562Y504488D01*
X510549Y504458D01*
X510530Y504432D01*
X510494Y504329D01*
X510450Y504229D01*
X510446Y504197D01*
X510436Y504167D01*
X510429Y504057D01*
X510416Y503949D01*
X510421Y503917D01*
X510419Y503885D01*
X510440Y503797D01*
X510461Y503671D01*
X510482Y503627D01*
X510492Y503585D01*
X511446Y501282D01*
X511446Y498718D01*
X510464Y496349D01*
X508651Y494536D01*
X506282Y493554D01*
X503718Y493554D01*
X502068Y494238D01*
X502037Y494246D01*
X502008Y494260D01*
X501900Y494281D01*
X501795Y494308D01*
X501762Y494307D01*
X501731Y494313D01*
X501622Y494302D01*
X501513Y494299D01*
X501482Y494289D01*
X501450Y494286D01*
X501348Y494245D01*
X501245Y494211D01*
X501218Y494193D01*
X501188Y494181D01*
X501102Y494114D01*
X501012Y494052D01*
X500991Y494028D01*
X500966Y494008D01*
X500902Y493919D01*
X500832Y493835D01*
X500820Y493805D01*
X500801Y493779D01*
X500764Y493676D01*
X500721Y493576D01*
X500717Y493544D01*
X500706Y493513D01*
X500700Y493404D01*
X500686Y493296D01*
X500692Y493264D01*
X500690Y493232D01*
X500711Y493144D01*
X500731Y493017D01*
X500752Y492974D01*
X500762Y492932D01*
X501446Y491282D01*
X501446Y488718D01*
X500762Y487068D01*
X500754Y487037D01*
X500740Y487008D01*
X500719Y486900D01*
X500692Y486795D01*
X500693Y486762D01*
X500687Y486731D01*
X500698Y486622D01*
X500701Y486513D01*
X500711Y486482D01*
X500714Y486450D01*
X500755Y486348D01*
X500789Y486245D01*
X500807Y486218D01*
X500819Y486188D01*
X500886Y486102D01*
X500948Y486012D01*
X500972Y485991D01*
X500992Y485966D01*
X501081Y485902D01*
X501165Y485832D01*
X501195Y485820D01*
X501221Y485801D01*
X501324Y485764D01*
X501424Y485721D01*
X501456Y485717D01*
X501487Y485706D01*
X501596Y485700D01*
X501704Y485686D01*
X501736Y485692D01*
X501768Y485690D01*
X501856Y485711D01*
X501983Y485731D01*
X502026Y485752D01*
X502068Y485762D01*
X503718Y486446D01*
X506282Y486446D01*
X508651Y485464D01*
X510464Y483651D01*
X511446Y481282D01*
X511446Y478718D01*
X510464Y476349D01*
X508651Y474536D01*
X506282Y473554D01*
X503718Y473554D01*
X502068Y474238D01*
X502037Y474246D01*
X502008Y474260D01*
X501900Y474281D01*
X501795Y474308D01*
X501762Y474307D01*
X501731Y474313D01*
X501622Y474302D01*
X501513Y474299D01*
X501482Y474289D01*
X501450Y474286D01*
X501348Y474245D01*
X501245Y474211D01*
X501218Y474193D01*
X501188Y474181D01*
X501102Y474114D01*
X501012Y474052D01*
X500991Y474028D01*
X500966Y474008D01*
X500902Y473919D01*
X500832Y473835D01*
X500820Y473805D01*
X500801Y473779D01*
X500764Y473676D01*
X500721Y473576D01*
X500717Y473544D01*
X500706Y473513D01*
X500700Y473404D01*
X500686Y473296D01*
X500692Y473264D01*
X500690Y473232D01*
X500711Y473144D01*
X500731Y473017D01*
X500752Y472974D01*
X500762Y472932D01*
X501446Y471282D01*
X501446Y468718D01*
X500464Y466349D01*
X498651Y464536D01*
X496282Y463554D01*
X493718Y463554D01*
G37*
%LPD*%
%LPC*%
G36*
X641218Y358554D02*
X641218Y358554D01*
X638849Y359536D01*
X637036Y361349D01*
X636054Y363718D01*
X636054Y366282D01*
X636738Y367932D01*
X636746Y367963D01*
X636760Y367992D01*
X636781Y368100D01*
X636808Y368205D01*
X636807Y368238D01*
X636813Y368269D01*
X636802Y368378D01*
X636799Y368487D01*
X636789Y368518D01*
X636786Y368550D01*
X636745Y368652D01*
X636711Y368755D01*
X636693Y368782D01*
X636681Y368812D01*
X636614Y368898D01*
X636552Y368988D01*
X636528Y369009D01*
X636508Y369034D01*
X636419Y369098D01*
X636335Y369168D01*
X636305Y369180D01*
X636279Y369199D01*
X636176Y369236D01*
X636076Y369279D01*
X636044Y369283D01*
X636013Y369294D01*
X635904Y369300D01*
X635796Y369314D01*
X635764Y369308D01*
X635732Y369310D01*
X635644Y369289D01*
X635517Y369269D01*
X635474Y369248D01*
X635432Y369238D01*
X633782Y368554D01*
X631218Y368554D01*
X628849Y369536D01*
X627036Y371349D01*
X626054Y373718D01*
X626054Y376282D01*
X627036Y378651D01*
X628849Y380464D01*
X631218Y381446D01*
X633782Y381446D01*
X636151Y380464D01*
X637964Y378651D01*
X638946Y376282D01*
X638946Y373718D01*
X638262Y372068D01*
X638254Y372037D01*
X638240Y372008D01*
X638219Y371900D01*
X638192Y371795D01*
X638193Y371762D01*
X638187Y371731D01*
X638198Y371622D01*
X638201Y371513D01*
X638211Y371482D01*
X638214Y371450D01*
X638255Y371348D01*
X638289Y371245D01*
X638307Y371218D01*
X638319Y371188D01*
X638386Y371102D01*
X638448Y371012D01*
X638472Y370991D01*
X638492Y370966D01*
X638581Y370902D01*
X638665Y370832D01*
X638695Y370820D01*
X638721Y370801D01*
X638824Y370764D01*
X638924Y370721D01*
X638956Y370717D01*
X638987Y370706D01*
X639096Y370700D01*
X639204Y370686D01*
X639236Y370692D01*
X639268Y370690D01*
X639356Y370711D01*
X639483Y370731D01*
X639526Y370752D01*
X639568Y370762D01*
X641218Y371446D01*
X643782Y371446D01*
X645432Y370762D01*
X645463Y370754D01*
X645492Y370740D01*
X645600Y370719D01*
X645705Y370692D01*
X645738Y370693D01*
X645769Y370687D01*
X645878Y370698D01*
X645987Y370701D01*
X646018Y370711D01*
X646050Y370714D01*
X646152Y370755D01*
X646255Y370789D01*
X646282Y370807D01*
X646312Y370819D01*
X646398Y370886D01*
X646488Y370948D01*
X646509Y370972D01*
X646534Y370992D01*
X646598Y371081D01*
X646668Y371165D01*
X646680Y371195D01*
X646699Y371221D01*
X646736Y371324D01*
X646779Y371424D01*
X646783Y371456D01*
X646794Y371487D01*
X646800Y371596D01*
X646814Y371704D01*
X646808Y371736D01*
X646810Y371768D01*
X646789Y371856D01*
X646769Y371983D01*
X646748Y372026D01*
X646738Y372068D01*
X646054Y373718D01*
X646054Y376282D01*
X647036Y378651D01*
X648849Y380464D01*
X651218Y381446D01*
X653782Y381446D01*
X656151Y380464D01*
X657964Y378651D01*
X658946Y376282D01*
X658946Y373718D01*
X658262Y372068D01*
X658254Y372037D01*
X658240Y372008D01*
X658219Y371900D01*
X658192Y371795D01*
X658193Y371762D01*
X658187Y371731D01*
X658198Y371622D01*
X658201Y371513D01*
X658211Y371482D01*
X658214Y371450D01*
X658255Y371348D01*
X658289Y371245D01*
X658307Y371218D01*
X658319Y371188D01*
X658386Y371102D01*
X658448Y371012D01*
X658472Y370991D01*
X658492Y370966D01*
X658581Y370902D01*
X658665Y370832D01*
X658695Y370820D01*
X658721Y370801D01*
X658824Y370764D01*
X658924Y370721D01*
X658956Y370717D01*
X658987Y370706D01*
X659096Y370700D01*
X659204Y370686D01*
X659236Y370692D01*
X659268Y370690D01*
X659356Y370711D01*
X659483Y370731D01*
X659526Y370752D01*
X659568Y370762D01*
X661218Y371446D01*
X663782Y371446D01*
X665432Y370762D01*
X665463Y370754D01*
X665492Y370740D01*
X665600Y370719D01*
X665705Y370692D01*
X665738Y370693D01*
X665769Y370687D01*
X665878Y370698D01*
X665987Y370701D01*
X666018Y370711D01*
X666050Y370714D01*
X666152Y370755D01*
X666255Y370789D01*
X666282Y370807D01*
X666312Y370819D01*
X666398Y370886D01*
X666488Y370948D01*
X666509Y370972D01*
X666534Y370992D01*
X666598Y371081D01*
X666668Y371165D01*
X666680Y371195D01*
X666699Y371221D01*
X666736Y371324D01*
X666779Y371424D01*
X666783Y371456D01*
X666794Y371487D01*
X666800Y371596D01*
X666814Y371704D01*
X666808Y371736D01*
X666810Y371768D01*
X666789Y371856D01*
X666769Y371983D01*
X666748Y372026D01*
X666738Y372068D01*
X666054Y373718D01*
X666054Y376282D01*
X667036Y378651D01*
X668849Y380464D01*
X671218Y381446D01*
X673782Y381446D01*
X676151Y380464D01*
X677964Y378651D01*
X678946Y376282D01*
X678946Y373718D01*
X677964Y371349D01*
X676151Y369536D01*
X673782Y368554D01*
X671218Y368554D01*
X669568Y369238D01*
X669537Y369246D01*
X669508Y369260D01*
X669400Y369281D01*
X669295Y369308D01*
X669262Y369307D01*
X669231Y369313D01*
X669122Y369302D01*
X669013Y369299D01*
X668982Y369289D01*
X668950Y369286D01*
X668848Y369245D01*
X668745Y369211D01*
X668718Y369193D01*
X668688Y369181D01*
X668602Y369114D01*
X668512Y369052D01*
X668491Y369028D01*
X668466Y369008D01*
X668402Y368919D01*
X668332Y368835D01*
X668320Y368805D01*
X668301Y368779D01*
X668264Y368676D01*
X668221Y368576D01*
X668217Y368544D01*
X668206Y368513D01*
X668200Y368404D01*
X668186Y368296D01*
X668192Y368264D01*
X668190Y368232D01*
X668211Y368144D01*
X668231Y368017D01*
X668252Y367974D01*
X668262Y367932D01*
X668946Y366282D01*
X668946Y363718D01*
X667964Y361349D01*
X666151Y359536D01*
X663782Y358554D01*
X661218Y358554D01*
X658849Y359536D01*
X657036Y361349D01*
X656054Y363718D01*
X656054Y366282D01*
X656738Y367932D01*
X656746Y367963D01*
X656760Y367992D01*
X656781Y368100D01*
X656808Y368205D01*
X656807Y368238D01*
X656813Y368269D01*
X656802Y368378D01*
X656799Y368487D01*
X656789Y368518D01*
X656786Y368550D01*
X656745Y368652D01*
X656711Y368755D01*
X656693Y368782D01*
X656681Y368812D01*
X656614Y368898D01*
X656552Y368988D01*
X656528Y369009D01*
X656508Y369034D01*
X656419Y369098D01*
X656335Y369168D01*
X656305Y369180D01*
X656279Y369199D01*
X656176Y369236D01*
X656076Y369279D01*
X656044Y369283D01*
X656013Y369294D01*
X655904Y369300D01*
X655796Y369314D01*
X655764Y369308D01*
X655732Y369310D01*
X655644Y369289D01*
X655517Y369269D01*
X655474Y369248D01*
X655432Y369238D01*
X653782Y368554D01*
X651218Y368554D01*
X649568Y369238D01*
X649537Y369246D01*
X649508Y369260D01*
X649400Y369281D01*
X649295Y369308D01*
X649262Y369307D01*
X649231Y369313D01*
X649122Y369302D01*
X649013Y369299D01*
X648982Y369289D01*
X648950Y369286D01*
X648848Y369245D01*
X648745Y369211D01*
X648718Y369193D01*
X648688Y369181D01*
X648602Y369114D01*
X648512Y369052D01*
X648491Y369028D01*
X648466Y369008D01*
X648402Y368919D01*
X648332Y368835D01*
X648320Y368805D01*
X648301Y368779D01*
X648264Y368676D01*
X648221Y368576D01*
X648217Y368544D01*
X648206Y368513D01*
X648200Y368404D01*
X648186Y368296D01*
X648192Y368264D01*
X648190Y368232D01*
X648211Y368144D01*
X648231Y368017D01*
X648252Y367974D01*
X648262Y367932D01*
X648946Y366282D01*
X648946Y363718D01*
X647964Y361349D01*
X646151Y359536D01*
X643782Y358554D01*
X641218Y358554D01*
G37*
%LPD*%
%LPC*%
G36*
X97779Y648769D02*
X97779Y648769D01*
X92750Y650852D01*
X88902Y654700D01*
X86819Y659729D01*
X86819Y665171D01*
X88902Y670200D01*
X92750Y674048D01*
X97779Y676131D01*
X103221Y676131D01*
X108250Y674048D01*
X112098Y670200D01*
X114181Y665171D01*
X114181Y659729D01*
X112098Y654700D01*
X108250Y650852D01*
X103221Y648769D01*
X97779Y648769D01*
G37*
%LPD*%
%LPC*%
G36*
X97779Y803869D02*
X97779Y803869D01*
X92750Y805952D01*
X88902Y809800D01*
X86819Y814829D01*
X86819Y820271D01*
X88902Y825300D01*
X92750Y829148D01*
X97779Y831231D01*
X103221Y831231D01*
X108250Y829148D01*
X112098Y825300D01*
X114181Y820271D01*
X114181Y814829D01*
X112098Y809800D01*
X108250Y805952D01*
X103221Y803869D01*
X97779Y803869D01*
G37*
%LPD*%
%LPC*%
G36*
X598610Y573014D02*
X598610Y573014D01*
X596043Y574078D01*
X594078Y576043D01*
X593014Y578610D01*
X593014Y581390D01*
X594078Y583957D01*
X596043Y585922D01*
X598610Y586986D01*
X601390Y586986D01*
X603957Y585922D01*
X605922Y583957D01*
X606577Y582377D01*
X606593Y582349D01*
X606603Y582318D01*
X606665Y582228D01*
X606720Y582134D01*
X606744Y582112D01*
X606762Y582085D01*
X606847Y582016D01*
X606926Y581941D01*
X606955Y581927D01*
X606980Y581906D01*
X607080Y581863D01*
X607178Y581813D01*
X607209Y581807D01*
X607239Y581795D01*
X607347Y581781D01*
X607455Y581761D01*
X607487Y581764D01*
X607519Y581760D01*
X607627Y581778D01*
X607735Y581788D01*
X607765Y581800D01*
X607797Y581805D01*
X607896Y581852D01*
X607997Y581893D01*
X608023Y581912D01*
X608052Y581926D01*
X608134Y581999D01*
X608220Y582066D01*
X608239Y582092D01*
X608263Y582114D01*
X608310Y582191D01*
X608385Y582295D01*
X608401Y582340D01*
X608423Y582377D01*
X609078Y583957D01*
X611043Y585922D01*
X613610Y586986D01*
X616390Y586986D01*
X618957Y585922D01*
X620922Y583957D01*
X621577Y582377D01*
X621593Y582349D01*
X621603Y582318D01*
X621665Y582228D01*
X621720Y582134D01*
X621744Y582112D01*
X621762Y582085D01*
X621847Y582016D01*
X621926Y581941D01*
X621955Y581927D01*
X621980Y581906D01*
X622080Y581863D01*
X622178Y581813D01*
X622209Y581807D01*
X622239Y581795D01*
X622347Y581781D01*
X622455Y581761D01*
X622487Y581764D01*
X622519Y581760D01*
X622627Y581778D01*
X622735Y581788D01*
X622765Y581800D01*
X622797Y581805D01*
X622896Y581852D01*
X622997Y581893D01*
X623023Y581912D01*
X623052Y581926D01*
X623134Y581999D01*
X623220Y582066D01*
X623239Y582092D01*
X623263Y582114D01*
X623310Y582191D01*
X623385Y582295D01*
X623401Y582340D01*
X623423Y582377D01*
X624078Y583957D01*
X626043Y585922D01*
X628610Y586986D01*
X631390Y586986D01*
X633957Y585922D01*
X635922Y583957D01*
X636986Y581390D01*
X636986Y578610D01*
X635922Y576043D01*
X633957Y574078D01*
X631390Y573014D01*
X628610Y573014D01*
X626043Y574078D01*
X624078Y576043D01*
X623423Y577623D01*
X623407Y577651D01*
X623397Y577682D01*
X623335Y577772D01*
X623280Y577866D01*
X623256Y577888D01*
X623238Y577915D01*
X623154Y577984D01*
X623074Y578059D01*
X623045Y578073D01*
X623020Y578094D01*
X622920Y578137D01*
X622822Y578187D01*
X622791Y578193D01*
X622761Y578205D01*
X622653Y578219D01*
X622545Y578239D01*
X622513Y578236D01*
X622481Y578240D01*
X622373Y578222D01*
X622265Y578212D01*
X622235Y578200D01*
X622203Y578195D01*
X622104Y578148D01*
X622003Y578108D01*
X621977Y578088D01*
X621948Y578074D01*
X621866Y578001D01*
X621780Y577934D01*
X621761Y577908D01*
X621737Y577886D01*
X621690Y577809D01*
X621615Y577705D01*
X621599Y577660D01*
X621577Y577623D01*
X620922Y576043D01*
X618957Y574078D01*
X616390Y573014D01*
X613610Y573014D01*
X611043Y574078D01*
X609078Y576043D01*
X608423Y577623D01*
X608407Y577651D01*
X608397Y577682D01*
X608335Y577772D01*
X608280Y577866D01*
X608256Y577888D01*
X608238Y577915D01*
X608154Y577984D01*
X608074Y578059D01*
X608045Y578073D01*
X608020Y578094D01*
X607920Y578137D01*
X607822Y578187D01*
X607791Y578193D01*
X607761Y578205D01*
X607653Y578219D01*
X607545Y578239D01*
X607513Y578236D01*
X607481Y578240D01*
X607373Y578222D01*
X607265Y578212D01*
X607235Y578200D01*
X607203Y578195D01*
X607104Y578148D01*
X607003Y578108D01*
X606977Y578088D01*
X606948Y578074D01*
X606866Y578001D01*
X606780Y577934D01*
X606761Y577908D01*
X606737Y577886D01*
X606690Y577809D01*
X606615Y577705D01*
X606599Y577660D01*
X606577Y577623D01*
X605922Y576043D01*
X603957Y574078D01*
X601390Y573014D01*
X598610Y573014D01*
G37*
%LPD*%
%LPC*%
G36*
X493610Y668014D02*
X493610Y668014D01*
X491043Y669078D01*
X489078Y671043D01*
X488014Y673610D01*
X488014Y676390D01*
X489078Y678957D01*
X491043Y680922D01*
X492623Y681577D01*
X492651Y681593D01*
X492682Y681603D01*
X492772Y681665D01*
X492866Y681720D01*
X492888Y681744D01*
X492915Y681762D01*
X492984Y681847D01*
X493059Y681926D01*
X493073Y681955D01*
X493094Y681980D01*
X493137Y682080D01*
X493187Y682178D01*
X493193Y682209D01*
X493205Y682239D01*
X493219Y682347D01*
X493239Y682455D01*
X493236Y682487D01*
X493240Y682519D01*
X493222Y682627D01*
X493212Y682735D01*
X493200Y682765D01*
X493195Y682797D01*
X493148Y682896D01*
X493107Y682997D01*
X493088Y683023D01*
X493074Y683052D01*
X493001Y683134D01*
X492934Y683220D01*
X492908Y683239D01*
X492886Y683263D01*
X492809Y683310D01*
X492705Y683385D01*
X492660Y683401D01*
X492623Y683423D01*
X491043Y684078D01*
X489078Y686043D01*
X488014Y688610D01*
X488014Y691390D01*
X489078Y693957D01*
X491043Y695922D01*
X493610Y696986D01*
X496390Y696986D01*
X498957Y695922D01*
X500922Y693957D01*
X501986Y691390D01*
X501986Y688610D01*
X500922Y686043D01*
X498957Y684078D01*
X497377Y683423D01*
X497349Y683407D01*
X497318Y683397D01*
X497228Y683335D01*
X497134Y683280D01*
X497112Y683256D01*
X497085Y683238D01*
X497016Y683154D01*
X496941Y683074D01*
X496927Y683045D01*
X496906Y683020D01*
X496863Y682920D01*
X496813Y682822D01*
X496807Y682791D01*
X496795Y682761D01*
X496781Y682653D01*
X496761Y682545D01*
X496764Y682513D01*
X496760Y682481D01*
X496778Y682373D01*
X496788Y682265D01*
X496800Y682235D01*
X496805Y682203D01*
X496852Y682104D01*
X496892Y682003D01*
X496912Y681977D01*
X496926Y681948D01*
X496999Y681866D01*
X497066Y681780D01*
X497092Y681761D01*
X497114Y681737D01*
X497191Y681690D01*
X497295Y681615D01*
X497340Y681599D01*
X497377Y681577D01*
X498957Y680922D01*
X500922Y678957D01*
X501986Y676390D01*
X501986Y673610D01*
X500922Y671043D01*
X498957Y669078D01*
X496390Y668014D01*
X493610Y668014D01*
G37*
%LPD*%
%LPC*%
G36*
X88610Y71982D02*
X88610Y71982D01*
X86043Y73045D01*
X84078Y75010D01*
X83014Y77578D01*
X83014Y80357D01*
X84078Y82925D01*
X85447Y84293D01*
X85485Y84345D01*
X85531Y84390D01*
X85569Y84457D01*
X85616Y84519D01*
X85638Y84579D01*
X85670Y84635D01*
X85688Y84710D01*
X85715Y84783D01*
X85720Y84847D01*
X85735Y84909D01*
X85731Y84987D01*
X85737Y85064D01*
X85724Y85127D01*
X85721Y85191D01*
X85695Y85264D01*
X85680Y85340D01*
X85649Y85397D01*
X85628Y85458D01*
X85587Y85514D01*
X85547Y85589D01*
X85488Y85650D01*
X85447Y85707D01*
X84078Y87075D01*
X83014Y89643D01*
X83014Y92422D01*
X84078Y94990D01*
X86043Y96955D01*
X88610Y98018D01*
X91390Y98018D01*
X93957Y96955D01*
X95922Y94990D01*
X96986Y92422D01*
X96986Y89643D01*
X95922Y87075D01*
X94553Y85707D01*
X94515Y85655D01*
X94469Y85610D01*
X94431Y85543D01*
X94384Y85481D01*
X94361Y85421D01*
X94330Y85365D01*
X94312Y85290D01*
X94285Y85217D01*
X94280Y85153D01*
X94265Y85090D01*
X94269Y85013D01*
X94263Y84936D01*
X94276Y84873D01*
X94279Y84809D01*
X94305Y84736D01*
X94320Y84660D01*
X94351Y84603D01*
X94372Y84542D01*
X94413Y84486D01*
X94453Y84411D01*
X94512Y84350D01*
X94553Y84293D01*
X95922Y82925D01*
X96986Y80357D01*
X96986Y77578D01*
X95922Y75010D01*
X93957Y73045D01*
X91390Y71982D01*
X88610Y71982D01*
G37*
%LPD*%
%LPC*%
G36*
X327578Y695514D02*
X327578Y695514D01*
X325010Y696578D01*
X323045Y698543D01*
X321982Y701110D01*
X321982Y703890D01*
X323045Y706457D01*
X325010Y708422D01*
X327578Y709486D01*
X330357Y709486D01*
X332925Y708422D01*
X334293Y707053D01*
X334345Y707015D01*
X334390Y706969D01*
X334457Y706931D01*
X334519Y706884D01*
X334579Y706861D01*
X334635Y706830D01*
X334710Y706812D01*
X334783Y706785D01*
X334847Y706780D01*
X334910Y706765D01*
X334987Y706769D01*
X335064Y706763D01*
X335127Y706776D01*
X335191Y706779D01*
X335264Y706805D01*
X335340Y706820D01*
X335397Y706851D01*
X335458Y706872D01*
X335514Y706913D01*
X335589Y706953D01*
X335650Y707012D01*
X335707Y707053D01*
X337075Y708422D01*
X339643Y709486D01*
X342422Y709486D01*
X344990Y708422D01*
X346955Y706457D01*
X348018Y703890D01*
X348018Y701110D01*
X346955Y698543D01*
X344990Y696578D01*
X342422Y695514D01*
X339643Y695514D01*
X337075Y696578D01*
X335707Y697947D01*
X335655Y697985D01*
X335610Y698031D01*
X335543Y698069D01*
X335481Y698116D01*
X335421Y698138D01*
X335365Y698170D01*
X335290Y698188D01*
X335217Y698215D01*
X335153Y698220D01*
X335091Y698235D01*
X335013Y698231D01*
X334936Y698237D01*
X334873Y698224D01*
X334809Y698221D01*
X334736Y698195D01*
X334660Y698180D01*
X334603Y698149D01*
X334542Y698128D01*
X334486Y698087D01*
X334411Y698047D01*
X334350Y697988D01*
X334293Y697947D01*
X332925Y696578D01*
X330357Y695514D01*
X327578Y695514D01*
G37*
%LPD*%
%LPC*%
G36*
X315078Y565514D02*
X315078Y565514D01*
X312510Y566578D01*
X310545Y568543D01*
X309482Y571110D01*
X309482Y573890D01*
X310545Y576457D01*
X312510Y578422D01*
X315078Y579486D01*
X317857Y579486D01*
X320425Y578422D01*
X321793Y577053D01*
X321845Y577015D01*
X321890Y576969D01*
X321957Y576931D01*
X322019Y576884D01*
X322079Y576862D01*
X322135Y576830D01*
X322210Y576812D01*
X322283Y576785D01*
X322347Y576780D01*
X322409Y576765D01*
X322487Y576769D01*
X322564Y576763D01*
X322627Y576776D01*
X322691Y576779D01*
X322764Y576805D01*
X322840Y576820D01*
X322897Y576851D01*
X322958Y576872D01*
X323014Y576913D01*
X323089Y576953D01*
X323150Y577012D01*
X323207Y577053D01*
X324575Y578422D01*
X327143Y579486D01*
X329922Y579486D01*
X332490Y578422D01*
X334455Y576457D01*
X335518Y573890D01*
X335518Y571110D01*
X334455Y568543D01*
X332490Y566578D01*
X329922Y565514D01*
X327143Y565514D01*
X324575Y566578D01*
X323207Y567947D01*
X323155Y567985D01*
X323110Y568031D01*
X323043Y568069D01*
X322981Y568116D01*
X322921Y568139D01*
X322865Y568170D01*
X322790Y568188D01*
X322717Y568215D01*
X322653Y568220D01*
X322590Y568235D01*
X322513Y568231D01*
X322436Y568237D01*
X322373Y568224D01*
X322309Y568221D01*
X322236Y568195D01*
X322160Y568180D01*
X322103Y568149D01*
X322042Y568128D01*
X321986Y568087D01*
X321911Y568047D01*
X321850Y567988D01*
X321793Y567947D01*
X320425Y566578D01*
X317857Y565514D01*
X315078Y565514D01*
G37*
%LPD*%
%LPC*%
G36*
X327578Y665514D02*
X327578Y665514D01*
X325010Y666578D01*
X323045Y668543D01*
X321982Y671110D01*
X321982Y673890D01*
X323045Y676457D01*
X325010Y678422D01*
X327578Y679486D01*
X330357Y679486D01*
X332925Y678422D01*
X334293Y677053D01*
X334345Y677015D01*
X334390Y676969D01*
X334457Y676931D01*
X334519Y676884D01*
X334579Y676862D01*
X334635Y676830D01*
X334710Y676812D01*
X334783Y676785D01*
X334847Y676780D01*
X334909Y676765D01*
X334987Y676769D01*
X335064Y676763D01*
X335127Y676776D01*
X335191Y676779D01*
X335264Y676805D01*
X335340Y676820D01*
X335397Y676851D01*
X335458Y676872D01*
X335514Y676913D01*
X335589Y676953D01*
X335650Y677012D01*
X335707Y677053D01*
X337075Y678422D01*
X339643Y679486D01*
X342422Y679486D01*
X344990Y678422D01*
X346955Y676457D01*
X348018Y673890D01*
X348018Y671110D01*
X346955Y668543D01*
X344990Y666578D01*
X342422Y665514D01*
X339643Y665514D01*
X337075Y666578D01*
X335707Y667947D01*
X335655Y667985D01*
X335610Y668031D01*
X335543Y668069D01*
X335481Y668116D01*
X335421Y668139D01*
X335365Y668170D01*
X335290Y668188D01*
X335217Y668215D01*
X335153Y668220D01*
X335090Y668235D01*
X335013Y668231D01*
X334936Y668237D01*
X334873Y668224D01*
X334809Y668221D01*
X334736Y668195D01*
X334660Y668180D01*
X334603Y668149D01*
X334542Y668128D01*
X334486Y668087D01*
X334411Y668047D01*
X334350Y667988D01*
X334293Y667947D01*
X332925Y666578D01*
X330357Y665514D01*
X327578Y665514D01*
G37*
%LPD*%
%LPC*%
G36*
X57578Y8014D02*
X57578Y8014D01*
X55010Y9078D01*
X53045Y11043D01*
X51982Y13610D01*
X51982Y16390D01*
X53045Y18957D01*
X55010Y20922D01*
X57578Y21986D01*
X60357Y21986D01*
X62925Y20922D01*
X64293Y19553D01*
X64345Y19515D01*
X64390Y19469D01*
X64457Y19431D01*
X64519Y19384D01*
X64579Y19361D01*
X64635Y19330D01*
X64710Y19312D01*
X64783Y19285D01*
X64847Y19280D01*
X64910Y19265D01*
X64987Y19269D01*
X65064Y19263D01*
X65127Y19276D01*
X65191Y19279D01*
X65264Y19305D01*
X65340Y19320D01*
X65397Y19351D01*
X65458Y19372D01*
X65514Y19413D01*
X65589Y19453D01*
X65650Y19512D01*
X65707Y19553D01*
X67075Y20922D01*
X69643Y21986D01*
X72422Y21986D01*
X74990Y20922D01*
X76955Y18957D01*
X78018Y16390D01*
X78018Y13610D01*
X76955Y11043D01*
X74990Y9078D01*
X72422Y8014D01*
X69643Y8014D01*
X67075Y9078D01*
X65707Y10447D01*
X65655Y10485D01*
X65610Y10531D01*
X65543Y10569D01*
X65481Y10616D01*
X65421Y10638D01*
X65365Y10670D01*
X65290Y10688D01*
X65217Y10715D01*
X65153Y10720D01*
X65091Y10735D01*
X65013Y10731D01*
X64936Y10737D01*
X64873Y10724D01*
X64809Y10721D01*
X64736Y10695D01*
X64660Y10680D01*
X64603Y10649D01*
X64542Y10628D01*
X64486Y10587D01*
X64411Y10547D01*
X64350Y10488D01*
X64293Y10447D01*
X62925Y9078D01*
X60357Y8014D01*
X57578Y8014D01*
G37*
%LPD*%
%LPC*%
G36*
X398718Y713554D02*
X398718Y713554D01*
X396349Y714536D01*
X394536Y716349D01*
X393554Y718718D01*
X393554Y721282D01*
X394536Y723651D01*
X396349Y725464D01*
X398329Y726285D01*
X398357Y726301D01*
X398387Y726311D01*
X398477Y726372D01*
X398572Y726428D01*
X398594Y726452D01*
X398620Y726470D01*
X398690Y726554D01*
X398764Y726634D01*
X398779Y726663D01*
X398800Y726688D01*
X398843Y726788D01*
X398892Y726885D01*
X398898Y726917D01*
X398911Y726947D01*
X398924Y727055D01*
X398945Y727162D01*
X398942Y727195D01*
X398945Y727227D01*
X398928Y727334D01*
X398918Y727443D01*
X398906Y727473D01*
X398900Y727505D01*
X398853Y727604D01*
X398813Y727705D01*
X398793Y727731D01*
X398779Y727760D01*
X398707Y727841D01*
X398640Y727928D01*
X398613Y727946D01*
X398592Y727970D01*
X398515Y728018D01*
X398411Y728093D01*
X398365Y728109D01*
X398329Y728131D01*
X396043Y729078D01*
X394078Y731043D01*
X393014Y733610D01*
X393014Y736390D01*
X394078Y738957D01*
X396043Y740922D01*
X398610Y741986D01*
X401390Y741986D01*
X403957Y740922D01*
X405922Y738957D01*
X406986Y736390D01*
X406986Y733610D01*
X405922Y731043D01*
X403957Y729078D01*
X401671Y728131D01*
X401644Y728115D01*
X401613Y728105D01*
X401522Y728043D01*
X401429Y727987D01*
X401406Y727964D01*
X401380Y727946D01*
X401310Y727861D01*
X401236Y727782D01*
X401221Y727753D01*
X401200Y727728D01*
X401157Y727628D01*
X401108Y727530D01*
X401102Y727498D01*
X401089Y727469D01*
X401076Y727361D01*
X401055Y727253D01*
X401058Y727221D01*
X401055Y727189D01*
X401072Y727081D01*
X401082Y726972D01*
X401094Y726942D01*
X401100Y726911D01*
X401147Y726812D01*
X401187Y726710D01*
X401207Y726685D01*
X401221Y726656D01*
X401293Y726574D01*
X401360Y726488D01*
X401387Y726469D01*
X401408Y726445D01*
X401485Y726398D01*
X401589Y726323D01*
X401635Y726307D01*
X401671Y726285D01*
X403651Y725464D01*
X405464Y723651D01*
X406446Y721282D01*
X406446Y718718D01*
X405464Y716349D01*
X403651Y714536D01*
X401282Y713554D01*
X398718Y713554D01*
G37*
%LPD*%
%LPC*%
G36*
X323610Y458014D02*
X323610Y458014D01*
X321043Y459078D01*
X319078Y461043D01*
X318014Y463610D01*
X318014Y466390D01*
X319078Y468957D01*
X321043Y470922D01*
X323610Y471986D01*
X326390Y471986D01*
X328957Y470922D01*
X330922Y468957D01*
X331869Y466671D01*
X331885Y466644D01*
X331895Y466613D01*
X331957Y466522D01*
X332013Y466429D01*
X332036Y466406D01*
X332054Y466380D01*
X332139Y466310D01*
X332218Y466236D01*
X332247Y466221D01*
X332272Y466200D01*
X332372Y466157D01*
X332470Y466108D01*
X332502Y466102D01*
X332531Y466089D01*
X332639Y466076D01*
X332747Y466055D01*
X332779Y466058D01*
X332811Y466055D01*
X332919Y466072D01*
X333028Y466082D01*
X333058Y466094D01*
X333089Y466100D01*
X333188Y466147D01*
X333290Y466187D01*
X333315Y466207D01*
X333344Y466221D01*
X333426Y466293D01*
X333512Y466360D01*
X333531Y466387D01*
X333555Y466408D01*
X333602Y466485D01*
X333677Y466589D01*
X333693Y466635D01*
X333715Y466671D01*
X334536Y468651D01*
X336349Y470464D01*
X338718Y471446D01*
X341282Y471446D01*
X343651Y470464D01*
X345464Y468651D01*
X346446Y466282D01*
X346446Y463718D01*
X345464Y461349D01*
X343651Y459536D01*
X341282Y458554D01*
X338718Y458554D01*
X336349Y459536D01*
X334536Y461349D01*
X333715Y463329D01*
X333699Y463357D01*
X333689Y463387D01*
X333628Y463477D01*
X333572Y463572D01*
X333548Y463594D01*
X333530Y463620D01*
X333446Y463690D01*
X333366Y463764D01*
X333337Y463779D01*
X333312Y463800D01*
X333212Y463843D01*
X333115Y463892D01*
X333083Y463898D01*
X333053Y463911D01*
X332945Y463924D01*
X332838Y463945D01*
X332805Y463942D01*
X332773Y463945D01*
X332666Y463928D01*
X332557Y463918D01*
X332527Y463906D01*
X332495Y463900D01*
X332396Y463853D01*
X332295Y463813D01*
X332269Y463793D01*
X332240Y463779D01*
X332159Y463707D01*
X332072Y463640D01*
X332054Y463613D01*
X332030Y463592D01*
X331982Y463514D01*
X331907Y463411D01*
X331891Y463365D01*
X331869Y463329D01*
X330922Y461043D01*
X328957Y459078D01*
X326390Y458014D01*
X323610Y458014D01*
G37*
%LPD*%
%LPC*%
G36*
X880405Y364674D02*
X880405Y364674D01*
X876904Y366125D01*
X874225Y368804D01*
X872774Y372305D01*
X872774Y376095D01*
X874225Y379596D01*
X876904Y382275D01*
X880405Y383726D01*
X884195Y383726D01*
X887696Y382275D01*
X890375Y379596D01*
X891826Y376095D01*
X891826Y372305D01*
X890375Y368804D01*
X887696Y366125D01*
X884195Y364674D01*
X880405Y364674D01*
G37*
%LPD*%
%LPC*%
G36*
X880405Y440874D02*
X880405Y440874D01*
X876904Y442325D01*
X874225Y445004D01*
X872774Y448505D01*
X872774Y452295D01*
X874225Y455796D01*
X876904Y458475D01*
X880405Y459926D01*
X884195Y459926D01*
X887696Y458475D01*
X890375Y455796D01*
X891826Y452295D01*
X891826Y448505D01*
X890375Y445004D01*
X887696Y442325D01*
X884195Y440874D01*
X880405Y440874D01*
G37*
%LPD*%
%LPC*%
G36*
X905805Y212274D02*
X905805Y212274D01*
X902304Y213725D01*
X899625Y216404D01*
X898174Y219905D01*
X898174Y223695D01*
X899625Y227196D01*
X902304Y229875D01*
X905805Y231326D01*
X909595Y231326D01*
X913096Y229875D01*
X915775Y227196D01*
X917226Y223695D01*
X917226Y219905D01*
X915775Y216404D01*
X913096Y213725D01*
X909595Y212274D01*
X905805Y212274D01*
G37*
%LPD*%
%LPC*%
G36*
X499805Y815474D02*
X499805Y815474D01*
X496304Y816925D01*
X493625Y819604D01*
X492174Y823105D01*
X492174Y826895D01*
X493625Y830396D01*
X496304Y833075D01*
X499805Y834526D01*
X503595Y834526D01*
X507096Y833075D01*
X509775Y830396D01*
X511226Y826895D01*
X511226Y823105D01*
X509775Y819604D01*
X507096Y816925D01*
X503595Y815474D01*
X499805Y815474D01*
G37*
%LPD*%
%LPC*%
G36*
X474405Y815474D02*
X474405Y815474D01*
X470904Y816925D01*
X468225Y819604D01*
X466774Y823105D01*
X466774Y826895D01*
X468225Y830396D01*
X470904Y833075D01*
X474405Y834526D01*
X478195Y834526D01*
X481696Y833075D01*
X484375Y830396D01*
X485826Y826895D01*
X485826Y823105D01*
X484375Y819604D01*
X481696Y816925D01*
X478195Y815474D01*
X474405Y815474D01*
G37*
%LPD*%
%LPC*%
G36*
X601405Y815474D02*
X601405Y815474D01*
X597904Y816925D01*
X595225Y819604D01*
X593774Y823105D01*
X593774Y826895D01*
X595225Y830396D01*
X597904Y833075D01*
X601405Y834526D01*
X605195Y834526D01*
X608696Y833075D01*
X611375Y830396D01*
X612826Y826895D01*
X612826Y823105D01*
X611375Y819604D01*
X608696Y816925D01*
X605195Y815474D01*
X601405Y815474D01*
G37*
%LPD*%
%LPC*%
G36*
X576005Y815474D02*
X576005Y815474D01*
X572504Y816925D01*
X569825Y819604D01*
X568374Y823105D01*
X568374Y826895D01*
X569825Y830396D01*
X572504Y833075D01*
X576005Y834526D01*
X579795Y834526D01*
X583296Y833075D01*
X585975Y830396D01*
X587426Y826895D01*
X587426Y823105D01*
X585975Y819604D01*
X583296Y816925D01*
X579795Y815474D01*
X576005Y815474D01*
G37*
%LPD*%
%LPC*%
G36*
X550605Y815474D02*
X550605Y815474D01*
X547104Y816925D01*
X544425Y819604D01*
X542974Y823105D01*
X542974Y826895D01*
X544425Y830396D01*
X547104Y833075D01*
X550605Y834526D01*
X554395Y834526D01*
X557896Y833075D01*
X560575Y830396D01*
X562026Y826895D01*
X562026Y823105D01*
X560575Y819604D01*
X557896Y816925D01*
X554395Y815474D01*
X550605Y815474D01*
G37*
%LPD*%
%LPC*%
G36*
X525205Y815474D02*
X525205Y815474D01*
X521704Y816925D01*
X519025Y819604D01*
X517574Y823105D01*
X517574Y826895D01*
X519025Y830396D01*
X521704Y833075D01*
X525205Y834526D01*
X528995Y834526D01*
X532496Y833075D01*
X535175Y830396D01*
X536626Y826895D01*
X536626Y823105D01*
X535175Y819604D01*
X532496Y816925D01*
X528995Y815474D01*
X525205Y815474D01*
G37*
%LPD*%
%LPC*%
G36*
X517305Y232774D02*
X517305Y232774D01*
X513804Y234225D01*
X511125Y236904D01*
X509674Y240405D01*
X509674Y244195D01*
X511125Y247696D01*
X513804Y250375D01*
X517305Y251826D01*
X521095Y251826D01*
X524596Y250375D01*
X527275Y247696D01*
X528726Y244195D01*
X528726Y240405D01*
X527275Y236904D01*
X524596Y234225D01*
X521095Y232774D01*
X517305Y232774D01*
G37*
%LPD*%
%LPC*%
G36*
X542705Y232774D02*
X542705Y232774D01*
X539204Y234225D01*
X536525Y236904D01*
X535074Y240405D01*
X535074Y244195D01*
X536525Y247696D01*
X539204Y250375D01*
X542705Y251826D01*
X546495Y251826D01*
X549996Y250375D01*
X552675Y247696D01*
X554126Y244195D01*
X554126Y240405D01*
X552675Y236904D01*
X549996Y234225D01*
X546495Y232774D01*
X542705Y232774D01*
G37*
%LPD*%
%LPC*%
G36*
X568105Y232774D02*
X568105Y232774D01*
X564604Y234225D01*
X561925Y236904D01*
X560474Y240405D01*
X560474Y244195D01*
X561925Y247696D01*
X564604Y250375D01*
X568105Y251826D01*
X571895Y251826D01*
X575396Y250375D01*
X578075Y247696D01*
X579526Y244195D01*
X579526Y240405D01*
X578075Y236904D01*
X575396Y234225D01*
X571895Y232774D01*
X568105Y232774D01*
G37*
%LPD*%
%LPC*%
G36*
X905805Y186874D02*
X905805Y186874D01*
X902304Y188325D01*
X899625Y191004D01*
X898174Y194505D01*
X898174Y198295D01*
X899625Y201796D01*
X902304Y204475D01*
X905805Y205926D01*
X909595Y205926D01*
X913096Y204475D01*
X915775Y201796D01*
X917226Y198295D01*
X917226Y194505D01*
X915775Y191004D01*
X913096Y188325D01*
X909595Y186874D01*
X905805Y186874D01*
G37*
%LPD*%
%LPC*%
G36*
X905805Y796474D02*
X905805Y796474D01*
X902304Y797925D01*
X899625Y800604D01*
X898174Y804105D01*
X898174Y807895D01*
X899625Y811396D01*
X902304Y814075D01*
X905805Y815526D01*
X909595Y815526D01*
X913096Y814075D01*
X915775Y811396D01*
X917226Y807895D01*
X917226Y804105D01*
X915775Y800604D01*
X913096Y797925D01*
X909595Y796474D01*
X905805Y796474D01*
G37*
%LPD*%
%LPC*%
G36*
X880405Y796474D02*
X880405Y796474D01*
X876904Y797925D01*
X874225Y800604D01*
X872774Y804105D01*
X872774Y807895D01*
X874225Y811396D01*
X876904Y814075D01*
X880405Y815526D01*
X884195Y815526D01*
X887696Y814075D01*
X890375Y811396D01*
X891826Y807895D01*
X891826Y804105D01*
X890375Y800604D01*
X887696Y797925D01*
X884195Y796474D01*
X880405Y796474D01*
G37*
%LPD*%
%LPC*%
G36*
X148105Y185874D02*
X148105Y185874D01*
X144604Y187325D01*
X141925Y190004D01*
X140474Y193505D01*
X140474Y197295D01*
X141925Y200796D01*
X144604Y203475D01*
X148105Y204926D01*
X151895Y204926D01*
X155396Y203475D01*
X158075Y200796D01*
X159526Y197295D01*
X159526Y193505D01*
X158075Y190004D01*
X155396Y187325D01*
X151895Y185874D01*
X148105Y185874D01*
G37*
%LPD*%
%LPC*%
G36*
X905805Y161474D02*
X905805Y161474D01*
X902304Y162925D01*
X899625Y165604D01*
X898174Y169105D01*
X898174Y172895D01*
X899625Y176396D01*
X902304Y179075D01*
X905805Y180526D01*
X909595Y180526D01*
X913096Y179075D01*
X915775Y176396D01*
X917226Y172895D01*
X917226Y169105D01*
X915775Y165604D01*
X913096Y162925D01*
X909595Y161474D01*
X905805Y161474D01*
G37*
%LPD*%
%LPC*%
G36*
X905805Y771074D02*
X905805Y771074D01*
X902304Y772525D01*
X899625Y775204D01*
X898174Y778705D01*
X898174Y782495D01*
X899625Y785996D01*
X902304Y788675D01*
X905805Y790126D01*
X909595Y790126D01*
X913096Y788675D01*
X915775Y785996D01*
X917226Y782495D01*
X917226Y778705D01*
X915775Y775204D01*
X913096Y772525D01*
X909595Y771074D01*
X905805Y771074D01*
G37*
%LPD*%
%LPC*%
G36*
X880405Y771074D02*
X880405Y771074D01*
X876904Y772525D01*
X874225Y775204D01*
X872774Y778705D01*
X872774Y782495D01*
X874225Y785996D01*
X876904Y788675D01*
X880405Y790126D01*
X884195Y790126D01*
X887696Y788675D01*
X890375Y785996D01*
X891826Y782495D01*
X891826Y778705D01*
X890375Y775204D01*
X887696Y772525D01*
X884195Y771074D01*
X880405Y771074D01*
G37*
%LPD*%
%LPC*%
G36*
X148105Y160474D02*
X148105Y160474D01*
X144604Y161925D01*
X141925Y164604D01*
X140474Y168105D01*
X140474Y171895D01*
X141925Y175396D01*
X144604Y178075D01*
X148105Y179526D01*
X151895Y179526D01*
X155396Y178075D01*
X158075Y175396D01*
X159526Y171895D01*
X159526Y168105D01*
X158075Y164604D01*
X155396Y161925D01*
X151895Y160474D01*
X148105Y160474D01*
G37*
%LPD*%
%LPC*%
G36*
X880405Y136074D02*
X880405Y136074D01*
X876904Y137525D01*
X874225Y140204D01*
X872774Y143705D01*
X872774Y147495D01*
X874225Y150996D01*
X876904Y153675D01*
X880405Y155126D01*
X884195Y155126D01*
X887696Y153675D01*
X890375Y150996D01*
X891826Y147495D01*
X891826Y143705D01*
X890375Y140204D01*
X887696Y137525D01*
X884195Y136074D01*
X880405Y136074D01*
G37*
%LPD*%
%LPC*%
G36*
X905805Y364674D02*
X905805Y364674D01*
X902304Y366125D01*
X899625Y368804D01*
X898174Y372305D01*
X898174Y376095D01*
X899625Y379596D01*
X902304Y382275D01*
X905805Y383726D01*
X909595Y383726D01*
X913096Y382275D01*
X915775Y379596D01*
X917226Y376095D01*
X917226Y372305D01*
X915775Y368804D01*
X913096Y366125D01*
X909595Y364674D01*
X905805Y364674D01*
G37*
%LPD*%
%LPC*%
G36*
X148105Y135074D02*
X148105Y135074D01*
X144604Y136525D01*
X141925Y139204D01*
X140474Y142705D01*
X140474Y146495D01*
X141925Y149996D01*
X144604Y152675D01*
X148105Y154126D01*
X151895Y154126D01*
X155396Y152675D01*
X158075Y149996D01*
X159526Y146495D01*
X159526Y142705D01*
X158075Y139204D01*
X155396Y136525D01*
X151895Y135074D01*
X148105Y135074D01*
G37*
%LPD*%
%LPC*%
G36*
X593505Y232774D02*
X593505Y232774D01*
X590004Y234225D01*
X587325Y236904D01*
X585874Y240405D01*
X585874Y244195D01*
X587325Y247696D01*
X590004Y250375D01*
X593505Y251826D01*
X597295Y251826D01*
X600796Y250375D01*
X603475Y247696D01*
X604926Y244195D01*
X604926Y240405D01*
X603475Y236904D01*
X600796Y234225D01*
X597295Y232774D01*
X593505Y232774D01*
G37*
%LPD*%
%LPC*%
G36*
X618905Y232774D02*
X618905Y232774D01*
X615404Y234225D01*
X612725Y236904D01*
X611274Y240405D01*
X611274Y244195D01*
X612725Y247696D01*
X615404Y250375D01*
X618905Y251826D01*
X622695Y251826D01*
X626196Y250375D01*
X628875Y247696D01*
X630326Y244195D01*
X630326Y240405D01*
X628875Y236904D01*
X626196Y234225D01*
X622695Y232774D01*
X618905Y232774D01*
G37*
%LPD*%
%LPC*%
G36*
X880405Y745674D02*
X880405Y745674D01*
X876904Y747125D01*
X874225Y749804D01*
X872774Y753305D01*
X872774Y757095D01*
X874225Y760596D01*
X876904Y763275D01*
X880405Y764726D01*
X884195Y764726D01*
X887696Y763275D01*
X890375Y760596D01*
X891826Y757095D01*
X891826Y753305D01*
X890375Y749804D01*
X887696Y747125D01*
X884195Y745674D01*
X880405Y745674D01*
G37*
%LPD*%
%LPC*%
G36*
X905805Y110674D02*
X905805Y110674D01*
X902304Y112125D01*
X899625Y114804D01*
X898174Y118305D01*
X898174Y122095D01*
X899625Y125596D01*
X902304Y128275D01*
X905805Y129726D01*
X909595Y129726D01*
X913096Y128275D01*
X915775Y125596D01*
X917226Y122095D01*
X917226Y118305D01*
X915775Y114804D01*
X913096Y112125D01*
X909595Y110674D01*
X905805Y110674D01*
G37*
%LPD*%
%LPC*%
G36*
X880405Y186874D02*
X880405Y186874D01*
X876904Y188325D01*
X874225Y191004D01*
X872774Y194505D01*
X872774Y198295D01*
X874225Y201796D01*
X876904Y204475D01*
X880405Y205926D01*
X884195Y205926D01*
X887696Y204475D01*
X890375Y201796D01*
X891826Y198295D01*
X891826Y194505D01*
X890375Y191004D01*
X887696Y188325D01*
X884195Y186874D01*
X880405Y186874D01*
G37*
%LPD*%
%LPC*%
G36*
X880405Y237674D02*
X880405Y237674D01*
X876904Y239125D01*
X874225Y241804D01*
X872774Y245305D01*
X872774Y249095D01*
X874225Y252596D01*
X876904Y255275D01*
X880405Y256726D01*
X884195Y256726D01*
X887696Y255275D01*
X890375Y252596D01*
X891826Y249095D01*
X891826Y245305D01*
X890375Y241804D01*
X887696Y239125D01*
X884195Y237674D01*
X880405Y237674D01*
G37*
%LPD*%
%LPC*%
G36*
X905805Y85274D02*
X905805Y85274D01*
X902304Y86725D01*
X899625Y89404D01*
X898174Y92905D01*
X898174Y96695D01*
X899625Y100196D01*
X902304Y102875D01*
X905805Y104326D01*
X909595Y104326D01*
X913096Y102875D01*
X915775Y100196D01*
X917226Y96695D01*
X917226Y92905D01*
X915775Y89404D01*
X913096Y86725D01*
X909595Y85274D01*
X905805Y85274D01*
G37*
%LPD*%
%LPC*%
G36*
X880405Y85274D02*
X880405Y85274D01*
X876904Y86725D01*
X874225Y89404D01*
X872774Y92905D01*
X872774Y96695D01*
X874225Y100196D01*
X876904Y102875D01*
X880405Y104326D01*
X884195Y104326D01*
X887696Y102875D01*
X890375Y100196D01*
X891826Y96695D01*
X891826Y92905D01*
X890375Y89404D01*
X887696Y86725D01*
X884195Y85274D01*
X880405Y85274D01*
G37*
%LPD*%
%LPC*%
G36*
X905805Y59874D02*
X905805Y59874D01*
X902304Y61325D01*
X899625Y64004D01*
X898174Y67505D01*
X898174Y71295D01*
X899625Y74796D01*
X902304Y77475D01*
X905805Y78926D01*
X909595Y78926D01*
X913096Y77475D01*
X915775Y74796D01*
X917226Y71295D01*
X917226Y67505D01*
X915775Y64004D01*
X913096Y61325D01*
X909595Y59874D01*
X905805Y59874D01*
G37*
%LPD*%
%LPC*%
G36*
X905805Y720274D02*
X905805Y720274D01*
X902304Y721725D01*
X899625Y724404D01*
X898174Y727905D01*
X898174Y731695D01*
X899625Y735196D01*
X902304Y737875D01*
X905805Y739326D01*
X909595Y739326D01*
X913096Y737875D01*
X915775Y735196D01*
X917226Y731695D01*
X917226Y727905D01*
X915775Y724404D01*
X913096Y721725D01*
X909595Y720274D01*
X905805Y720274D01*
G37*
%LPD*%
%LPC*%
G36*
X880405Y59874D02*
X880405Y59874D01*
X876904Y61325D01*
X874225Y64004D01*
X872774Y67505D01*
X872774Y71295D01*
X874225Y74796D01*
X876904Y77475D01*
X880405Y78926D01*
X884195Y78926D01*
X887696Y77475D01*
X890375Y74796D01*
X891826Y71295D01*
X891826Y67505D01*
X890375Y64004D01*
X887696Y61325D01*
X884195Y59874D01*
X880405Y59874D01*
G37*
%LPD*%
%LPC*%
G36*
X618905Y258174D02*
X618905Y258174D01*
X615404Y259625D01*
X612725Y262304D01*
X611274Y265805D01*
X611274Y269595D01*
X612725Y273096D01*
X615404Y275775D01*
X618905Y277226D01*
X622695Y277226D01*
X626196Y275775D01*
X628875Y273096D01*
X630326Y269595D01*
X630326Y265805D01*
X628875Y262304D01*
X626196Y259625D01*
X622695Y258174D01*
X618905Y258174D01*
G37*
%LPD*%
%LPC*%
G36*
X517305Y258174D02*
X517305Y258174D01*
X513804Y259625D01*
X511125Y262304D01*
X509674Y265805D01*
X509674Y269595D01*
X511125Y273096D01*
X513804Y275775D01*
X517305Y277226D01*
X521095Y277226D01*
X524596Y275775D01*
X527275Y273096D01*
X528726Y269595D01*
X528726Y265805D01*
X527275Y262304D01*
X524596Y259625D01*
X521095Y258174D01*
X517305Y258174D01*
G37*
%LPD*%
%LPC*%
G36*
X880405Y694874D02*
X880405Y694874D01*
X876904Y696325D01*
X874225Y699004D01*
X872774Y702505D01*
X872774Y706295D01*
X874225Y709796D01*
X876904Y712475D01*
X880405Y713926D01*
X884195Y713926D01*
X887696Y712475D01*
X890375Y709796D01*
X891826Y706295D01*
X891826Y702505D01*
X890375Y699004D01*
X887696Y696325D01*
X884195Y694874D01*
X880405Y694874D01*
G37*
%LPD*%
%LPC*%
G36*
X905805Y694874D02*
X905805Y694874D01*
X902304Y696325D01*
X899625Y699004D01*
X898174Y702505D01*
X898174Y706295D01*
X899625Y709796D01*
X902304Y712475D01*
X905805Y713926D01*
X909595Y713926D01*
X913096Y712475D01*
X915775Y709796D01*
X917226Y706295D01*
X917226Y702505D01*
X915775Y699004D01*
X913096Y696325D01*
X909595Y694874D01*
X905805Y694874D01*
G37*
%LPD*%
%LPC*%
G36*
X880405Y390074D02*
X880405Y390074D01*
X876904Y391525D01*
X874225Y394204D01*
X872774Y397705D01*
X872774Y401495D01*
X874225Y404996D01*
X876904Y407675D01*
X880405Y409126D01*
X884195Y409126D01*
X887696Y407675D01*
X890375Y404996D01*
X891826Y401495D01*
X891826Y397705D01*
X890375Y394204D01*
X887696Y391525D01*
X884195Y390074D01*
X880405Y390074D01*
G37*
%LPD*%
%LPC*%
G36*
X542705Y258174D02*
X542705Y258174D01*
X539204Y259625D01*
X536525Y262304D01*
X535074Y265805D01*
X535074Y269595D01*
X536525Y273096D01*
X539204Y275775D01*
X542705Y277226D01*
X546495Y277226D01*
X549996Y275775D01*
X552675Y273096D01*
X554126Y269595D01*
X554126Y265805D01*
X552675Y262304D01*
X549996Y259625D01*
X546495Y258174D01*
X542705Y258174D01*
G37*
%LPD*%
%LPC*%
G36*
X905805Y669474D02*
X905805Y669474D01*
X902304Y670925D01*
X899625Y673604D01*
X898174Y677105D01*
X898174Y680895D01*
X899625Y684396D01*
X902304Y687075D01*
X905805Y688526D01*
X909595Y688526D01*
X913096Y687075D01*
X915775Y684396D01*
X917226Y680895D01*
X917226Y677105D01*
X915775Y673604D01*
X913096Y670925D01*
X909595Y669474D01*
X905805Y669474D01*
G37*
%LPD*%
%LPC*%
G36*
X880405Y669474D02*
X880405Y669474D01*
X876904Y670925D01*
X874225Y673604D01*
X872774Y677105D01*
X872774Y680895D01*
X874225Y684396D01*
X876904Y687075D01*
X880405Y688526D01*
X884195Y688526D01*
X887696Y687075D01*
X890375Y684396D01*
X891826Y680895D01*
X891826Y677105D01*
X890375Y673604D01*
X887696Y670925D01*
X884195Y669474D01*
X880405Y669474D01*
G37*
%LPD*%
%LPC*%
G36*
X880405Y263074D02*
X880405Y263074D01*
X876904Y264525D01*
X874225Y267204D01*
X872774Y270705D01*
X872774Y274495D01*
X874225Y277996D01*
X876904Y280675D01*
X880405Y282126D01*
X884195Y282126D01*
X887696Y280675D01*
X890375Y277996D01*
X891826Y274495D01*
X891826Y270705D01*
X890375Y267204D01*
X887696Y264525D01*
X884195Y263074D01*
X880405Y263074D01*
G37*
%LPD*%
%LPC*%
G36*
X905805Y263074D02*
X905805Y263074D01*
X902304Y264525D01*
X899625Y267204D01*
X898174Y270705D01*
X898174Y274495D01*
X899625Y277996D01*
X902304Y280675D01*
X905805Y282126D01*
X909595Y282126D01*
X913096Y280675D01*
X915775Y277996D01*
X917226Y274495D01*
X917226Y270705D01*
X915775Y267204D01*
X913096Y264525D01*
X909595Y263074D01*
X905805Y263074D01*
G37*
%LPD*%
%LPC*%
G36*
X880405Y644074D02*
X880405Y644074D01*
X876904Y645525D01*
X874225Y648204D01*
X872774Y651705D01*
X872774Y655495D01*
X874225Y658996D01*
X876904Y661675D01*
X880405Y663126D01*
X884195Y663126D01*
X887696Y661675D01*
X890375Y658996D01*
X891826Y655495D01*
X891826Y651705D01*
X890375Y648204D01*
X887696Y645525D01*
X884195Y644074D01*
X880405Y644074D01*
G37*
%LPD*%
%LPC*%
G36*
X905805Y491674D02*
X905805Y491674D01*
X902304Y493125D01*
X899625Y495804D01*
X898174Y499305D01*
X898174Y503095D01*
X899625Y506596D01*
X902304Y509275D01*
X905805Y510726D01*
X909595Y510726D01*
X913096Y509275D01*
X915775Y506596D01*
X917226Y503095D01*
X917226Y499305D01*
X915775Y495804D01*
X913096Y493125D01*
X909595Y491674D01*
X905805Y491674D01*
G37*
%LPD*%
%LPC*%
G36*
X880405Y161474D02*
X880405Y161474D01*
X876904Y162925D01*
X874225Y165604D01*
X872774Y169105D01*
X872774Y172895D01*
X874225Y176396D01*
X876904Y179075D01*
X880405Y180526D01*
X884195Y180526D01*
X887696Y179075D01*
X890375Y176396D01*
X891826Y172895D01*
X891826Y169105D01*
X890375Y165604D01*
X887696Y162925D01*
X884195Y161474D01*
X880405Y161474D01*
G37*
%LPD*%
%LPC*%
G36*
X905805Y517074D02*
X905805Y517074D01*
X902304Y518525D01*
X899625Y521204D01*
X898174Y524705D01*
X898174Y528495D01*
X899625Y531996D01*
X902304Y534675D01*
X905805Y536126D01*
X909595Y536126D01*
X913096Y534675D01*
X915775Y531996D01*
X917226Y528495D01*
X917226Y524705D01*
X915775Y521204D01*
X913096Y518525D01*
X909595Y517074D01*
X905805Y517074D01*
G37*
%LPD*%
%LPC*%
G36*
X905805Y618674D02*
X905805Y618674D01*
X902304Y620125D01*
X899625Y622804D01*
X898174Y626305D01*
X898174Y630095D01*
X899625Y633596D01*
X902304Y636275D01*
X905805Y637726D01*
X909595Y637726D01*
X913096Y636275D01*
X915775Y633596D01*
X917226Y630095D01*
X917226Y626305D01*
X915775Y622804D01*
X913096Y620125D01*
X909595Y618674D01*
X905805Y618674D01*
G37*
%LPD*%
%LPC*%
G36*
X880405Y288474D02*
X880405Y288474D01*
X876904Y289925D01*
X874225Y292604D01*
X872774Y296105D01*
X872774Y299895D01*
X874225Y303396D01*
X876904Y306075D01*
X880405Y307526D01*
X884195Y307526D01*
X887696Y306075D01*
X890375Y303396D01*
X891826Y299895D01*
X891826Y296105D01*
X890375Y292604D01*
X887696Y289925D01*
X884195Y288474D01*
X880405Y288474D01*
G37*
%LPD*%
%LPC*%
G36*
X880405Y491674D02*
X880405Y491674D01*
X876904Y493125D01*
X874225Y495804D01*
X872774Y499305D01*
X872774Y503095D01*
X874225Y506596D01*
X876904Y509275D01*
X880405Y510726D01*
X884195Y510726D01*
X887696Y509275D01*
X890375Y506596D01*
X891826Y503095D01*
X891826Y499305D01*
X890375Y495804D01*
X887696Y493125D01*
X884195Y491674D01*
X880405Y491674D01*
G37*
%LPD*%
%LPC*%
G36*
X905805Y593274D02*
X905805Y593274D01*
X902304Y594725D01*
X899625Y597404D01*
X898174Y600905D01*
X898174Y604695D01*
X899625Y608196D01*
X902304Y610875D01*
X905805Y612326D01*
X909595Y612326D01*
X913096Y610875D01*
X915775Y608196D01*
X917226Y604695D01*
X917226Y600905D01*
X915775Y597404D01*
X913096Y594725D01*
X909595Y593274D01*
X905805Y593274D01*
G37*
%LPD*%
%LPC*%
G36*
X880405Y593274D02*
X880405Y593274D01*
X876904Y594725D01*
X874225Y597404D01*
X872774Y600905D01*
X872774Y604695D01*
X874225Y608196D01*
X876904Y610875D01*
X880405Y612326D01*
X884195Y612326D01*
X887696Y610875D01*
X890375Y608196D01*
X891826Y604695D01*
X891826Y600905D01*
X890375Y597404D01*
X887696Y594725D01*
X884195Y593274D01*
X880405Y593274D01*
G37*
%LPD*%
%LPC*%
G36*
X880405Y466274D02*
X880405Y466274D01*
X876904Y467725D01*
X874225Y470404D01*
X872774Y473905D01*
X872774Y477695D01*
X874225Y481196D01*
X876904Y483875D01*
X880405Y485326D01*
X884195Y485326D01*
X887696Y483875D01*
X890375Y481196D01*
X891826Y477695D01*
X891826Y473905D01*
X890375Y470404D01*
X887696Y467725D01*
X884195Y466274D01*
X880405Y466274D01*
G37*
%LPD*%
%LPC*%
G36*
X905805Y567874D02*
X905805Y567874D01*
X902304Y569325D01*
X899625Y572004D01*
X898174Y575505D01*
X898174Y579295D01*
X899625Y582796D01*
X902304Y585475D01*
X905805Y586926D01*
X909595Y586926D01*
X913096Y585475D01*
X915775Y582796D01*
X917226Y579295D01*
X917226Y575505D01*
X915775Y572004D01*
X913096Y569325D01*
X909595Y567874D01*
X905805Y567874D01*
G37*
%LPD*%
%LPC*%
G36*
X880405Y567874D02*
X880405Y567874D01*
X876904Y569325D01*
X874225Y572004D01*
X872774Y575505D01*
X872774Y579295D01*
X874225Y582796D01*
X876904Y585475D01*
X880405Y586926D01*
X884195Y586926D01*
X887696Y585475D01*
X890375Y582796D01*
X891826Y579295D01*
X891826Y575505D01*
X890375Y572004D01*
X887696Y569325D01*
X884195Y567874D01*
X880405Y567874D01*
G37*
%LPD*%
%LPC*%
G36*
X905805Y390074D02*
X905805Y390074D01*
X902304Y391525D01*
X899625Y394204D01*
X898174Y397705D01*
X898174Y401495D01*
X899625Y404996D01*
X902304Y407675D01*
X905805Y409126D01*
X909595Y409126D01*
X913096Y407675D01*
X915775Y404996D01*
X917226Y401495D01*
X917226Y397705D01*
X915775Y394204D01*
X913096Y391525D01*
X909595Y390074D01*
X905805Y390074D01*
G37*
%LPD*%
%LPC*%
G36*
X905805Y288474D02*
X905805Y288474D01*
X902304Y289925D01*
X899625Y292604D01*
X898174Y296105D01*
X898174Y299895D01*
X899625Y303396D01*
X902304Y306075D01*
X905805Y307526D01*
X909595Y307526D01*
X913096Y306075D01*
X915775Y303396D01*
X917226Y299895D01*
X917226Y296105D01*
X915775Y292604D01*
X913096Y289925D01*
X909595Y288474D01*
X905805Y288474D01*
G37*
%LPD*%
%LPC*%
G36*
X905805Y313874D02*
X905805Y313874D01*
X902304Y315325D01*
X899625Y318004D01*
X898174Y321505D01*
X898174Y325295D01*
X899625Y328796D01*
X902304Y331475D01*
X905805Y332926D01*
X909595Y332926D01*
X913096Y331475D01*
X915775Y328796D01*
X917226Y325295D01*
X917226Y321505D01*
X915775Y318004D01*
X913096Y315325D01*
X909595Y313874D01*
X905805Y313874D01*
G37*
%LPD*%
%LPC*%
G36*
X880405Y542474D02*
X880405Y542474D01*
X876904Y543925D01*
X874225Y546604D01*
X872774Y550105D01*
X872774Y553895D01*
X874225Y557396D01*
X876904Y560075D01*
X880405Y561526D01*
X884195Y561526D01*
X887696Y560075D01*
X890375Y557396D01*
X891826Y553895D01*
X891826Y550105D01*
X890375Y546604D01*
X887696Y543925D01*
X884195Y542474D01*
X880405Y542474D01*
G37*
%LPD*%
%LPC*%
G36*
X880405Y339274D02*
X880405Y339274D01*
X876904Y340725D01*
X874225Y343404D01*
X872774Y346905D01*
X872774Y350695D01*
X874225Y354196D01*
X876904Y356875D01*
X880405Y358326D01*
X884195Y358326D01*
X887696Y356875D01*
X890375Y354196D01*
X891826Y350695D01*
X891826Y346905D01*
X890375Y343404D01*
X887696Y340725D01*
X884195Y339274D01*
X880405Y339274D01*
G37*
%LPD*%
%LPC*%
G36*
X905805Y415474D02*
X905805Y415474D01*
X902304Y416925D01*
X899625Y419604D01*
X898174Y423105D01*
X898174Y426895D01*
X899625Y430396D01*
X902304Y433075D01*
X905805Y434526D01*
X909595Y434526D01*
X913096Y433075D01*
X915775Y430396D01*
X917226Y426895D01*
X917226Y423105D01*
X915775Y419604D01*
X913096Y416925D01*
X909595Y415474D01*
X905805Y415474D01*
G37*
%LPD*%
%LPC*%
G36*
X905805Y466274D02*
X905805Y466274D01*
X902304Y467725D01*
X899625Y470404D01*
X898174Y473905D01*
X898174Y477695D01*
X899625Y481196D01*
X902304Y483875D01*
X905805Y485326D01*
X909595Y485326D01*
X913096Y483875D01*
X915775Y481196D01*
X917226Y477695D01*
X917226Y473905D01*
X915775Y470404D01*
X913096Y467725D01*
X909595Y466274D01*
X905805Y466274D01*
G37*
%LPD*%
%LPC*%
G36*
X205321Y675904D02*
X205321Y675904D01*
X201849Y677342D01*
X199192Y679999D01*
X197754Y683471D01*
X197754Y687229D01*
X199192Y690701D01*
X201849Y693358D01*
X205321Y694796D01*
X209079Y694796D01*
X212551Y693358D01*
X215208Y690701D01*
X216646Y687229D01*
X216646Y683471D01*
X215208Y679999D01*
X212551Y677342D01*
X209079Y675904D01*
X205321Y675904D01*
G37*
%LPD*%
%LPC*%
G36*
X205321Y787704D02*
X205321Y787704D01*
X201849Y789142D01*
X199192Y791799D01*
X197754Y795271D01*
X197754Y799029D01*
X199192Y802501D01*
X201849Y805158D01*
X205321Y806596D01*
X209079Y806596D01*
X212551Y805158D01*
X215208Y802501D01*
X216646Y799029D01*
X216646Y795271D01*
X215208Y791799D01*
X212551Y789142D01*
X209079Y787704D01*
X205321Y787704D01*
G37*
%LPD*%
%LPC*%
G36*
X205321Y762304D02*
X205321Y762304D01*
X201849Y763742D01*
X199192Y766399D01*
X197754Y769871D01*
X197754Y773629D01*
X199192Y777101D01*
X201849Y779758D01*
X205321Y781196D01*
X209079Y781196D01*
X212551Y779758D01*
X215208Y777101D01*
X216646Y773629D01*
X216646Y769871D01*
X215208Y766399D01*
X212551Y763742D01*
X209079Y762304D01*
X205321Y762304D01*
G37*
%LPD*%
%LPC*%
G36*
X205321Y701304D02*
X205321Y701304D01*
X201849Y702742D01*
X199192Y705399D01*
X197754Y708871D01*
X197754Y712629D01*
X199192Y716101D01*
X201849Y718758D01*
X205321Y720196D01*
X209079Y720196D01*
X212551Y718758D01*
X215208Y716101D01*
X216646Y712629D01*
X216646Y708871D01*
X215208Y705399D01*
X212551Y702742D01*
X209079Y701304D01*
X205321Y701304D01*
G37*
%LPD*%
%LPC*%
G36*
X157121Y762804D02*
X157121Y762804D01*
X153833Y764166D01*
X151316Y766683D01*
X149954Y769971D01*
X149954Y773529D01*
X151316Y776817D01*
X153833Y779334D01*
X157121Y780696D01*
X160679Y780696D01*
X163967Y779334D01*
X166484Y776817D01*
X167846Y773529D01*
X167846Y769971D01*
X166484Y766683D01*
X163967Y764166D01*
X160679Y762804D01*
X157121Y762804D01*
G37*
%LPD*%
%LPC*%
G36*
X131721Y699304D02*
X131721Y699304D01*
X128433Y700666D01*
X125916Y703183D01*
X124554Y706471D01*
X124554Y710029D01*
X125916Y713317D01*
X128433Y715834D01*
X131721Y717196D01*
X135279Y717196D01*
X138567Y715834D01*
X141084Y713317D01*
X142446Y710029D01*
X142446Y706471D01*
X141084Y703183D01*
X138567Y700666D01*
X135279Y699304D01*
X131721Y699304D01*
G37*
%LPD*%
%LPC*%
G36*
X131721Y775504D02*
X131721Y775504D01*
X128433Y776866D01*
X125916Y779383D01*
X124554Y782671D01*
X124554Y786229D01*
X125916Y789517D01*
X128433Y792034D01*
X131721Y793396D01*
X135279Y793396D01*
X138567Y792034D01*
X141084Y789517D01*
X142446Y786229D01*
X142446Y782671D01*
X141084Y779383D01*
X138567Y776866D01*
X135279Y775504D01*
X131721Y775504D01*
G37*
%LPD*%
%LPC*%
G36*
X157121Y712004D02*
X157121Y712004D01*
X153833Y713366D01*
X151316Y715883D01*
X149954Y719171D01*
X149954Y722729D01*
X151316Y726017D01*
X153833Y728534D01*
X157121Y729896D01*
X160679Y729896D01*
X163967Y728534D01*
X166484Y726017D01*
X167846Y722729D01*
X167846Y719171D01*
X166484Y715883D01*
X163967Y713366D01*
X160679Y712004D01*
X157121Y712004D01*
G37*
%LPD*%
%LPC*%
G36*
X131721Y750104D02*
X131721Y750104D01*
X128433Y751466D01*
X125916Y753983D01*
X124554Y757271D01*
X124554Y760829D01*
X125916Y764117D01*
X128433Y766634D01*
X131721Y767996D01*
X135279Y767996D01*
X138567Y766634D01*
X141084Y764117D01*
X142446Y760829D01*
X142446Y757271D01*
X141084Y753983D01*
X138567Y751466D01*
X135279Y750104D01*
X131721Y750104D01*
G37*
%LPD*%
%LPC*%
G36*
X157121Y737404D02*
X157121Y737404D01*
X153833Y738766D01*
X151316Y741283D01*
X149954Y744571D01*
X149954Y748129D01*
X151316Y751417D01*
X153833Y753934D01*
X157121Y755296D01*
X160679Y755296D01*
X163967Y753934D01*
X166484Y751417D01*
X167846Y748129D01*
X167846Y744571D01*
X166484Y741283D01*
X163967Y738766D01*
X160679Y737404D01*
X157121Y737404D01*
G37*
%LPD*%
%LPC*%
G36*
X131721Y724704D02*
X131721Y724704D01*
X128433Y726066D01*
X125916Y728583D01*
X124554Y731871D01*
X124554Y735429D01*
X125916Y738717D01*
X128433Y741234D01*
X131721Y742596D01*
X135279Y742596D01*
X138567Y741234D01*
X141084Y738717D01*
X142446Y735429D01*
X142446Y731871D01*
X141084Y728583D01*
X138567Y726066D01*
X135279Y724704D01*
X131721Y724704D01*
G37*
%LPD*%
%LPC*%
G36*
X157121Y686604D02*
X157121Y686604D01*
X153833Y687966D01*
X151316Y690483D01*
X149954Y693771D01*
X149954Y697329D01*
X151316Y700617D01*
X153833Y703134D01*
X157121Y704496D01*
X160679Y704496D01*
X163967Y703134D01*
X166484Y700617D01*
X167846Y697329D01*
X167846Y693771D01*
X166484Y690483D01*
X163967Y687966D01*
X160679Y686604D01*
X157121Y686604D01*
G37*
%LPD*%
%LPC*%
G36*
X101999Y417658D02*
X101999Y417658D01*
X101999Y434739D01*
X103749Y434509D01*
X106178Y433858D01*
X108500Y432896D01*
X110677Y431639D01*
X112672Y430108D01*
X114449Y428331D01*
X115980Y426336D01*
X117237Y424159D01*
X118199Y421837D01*
X118850Y419408D01*
X119080Y417658D01*
X101999Y417658D01*
G37*
%LPD*%
%LPC*%
G36*
X101999Y286340D02*
X101999Y286340D01*
X101999Y303421D01*
X103749Y303191D01*
X106178Y302540D01*
X108500Y301578D01*
X110677Y300321D01*
X112672Y298790D01*
X114449Y297013D01*
X115980Y295018D01*
X117237Y292841D01*
X118199Y290519D01*
X118850Y288090D01*
X119080Y286340D01*
X101999Y286340D01*
G37*
%LPD*%
%LPC*%
G36*
X80920Y417658D02*
X80920Y417658D01*
X81150Y419408D01*
X81801Y421837D01*
X82763Y424159D01*
X84020Y426336D01*
X85551Y428331D01*
X87328Y430108D01*
X89323Y431639D01*
X91500Y432896D01*
X93822Y433858D01*
X96251Y434509D01*
X98001Y434739D01*
X98001Y417658D01*
X80920Y417658D01*
G37*
%LPD*%
%LPC*%
G36*
X101999Y282342D02*
X101999Y282342D01*
X119080Y282342D01*
X118850Y280592D01*
X118199Y278163D01*
X117237Y275841D01*
X115980Y273664D01*
X114449Y271669D01*
X112672Y269892D01*
X110677Y268361D01*
X108500Y267104D01*
X106178Y266142D01*
X103749Y265491D01*
X101999Y265261D01*
X101999Y282342D01*
G37*
%LPD*%
%LPC*%
G36*
X101999Y413660D02*
X101999Y413660D01*
X119080Y413660D01*
X118850Y411910D01*
X118199Y409481D01*
X117237Y407159D01*
X115980Y404982D01*
X114449Y402987D01*
X112672Y401210D01*
X110677Y399679D01*
X108500Y398422D01*
X106178Y397460D01*
X103749Y396809D01*
X101999Y396579D01*
X101999Y413660D01*
G37*
%LPD*%
%LPC*%
G36*
X80920Y286340D02*
X80920Y286340D01*
X81150Y288090D01*
X81801Y290519D01*
X82763Y292841D01*
X84020Y295018D01*
X85551Y297013D01*
X87328Y298790D01*
X89323Y300321D01*
X91500Y301578D01*
X93822Y302540D01*
X96251Y303191D01*
X98001Y303421D01*
X98001Y286340D01*
X80920Y286340D01*
G37*
%LPD*%
%LPC*%
G36*
X96251Y265491D02*
X96251Y265491D01*
X93822Y266142D01*
X91500Y267104D01*
X89323Y268361D01*
X87328Y269892D01*
X85551Y271669D01*
X84020Y273664D01*
X82763Y275841D01*
X81801Y278163D01*
X81150Y280592D01*
X80920Y282342D01*
X98001Y282342D01*
X98001Y265261D01*
X96251Y265491D01*
G37*
%LPD*%
%LPC*%
G36*
X96251Y396809D02*
X96251Y396809D01*
X93822Y397460D01*
X91500Y398422D01*
X89323Y399679D01*
X87328Y401210D01*
X85551Y402987D01*
X84020Y404982D01*
X82763Y407159D01*
X81801Y409481D01*
X81150Y411910D01*
X80920Y413660D01*
X98001Y413660D01*
X98001Y396579D01*
X96251Y396809D01*
G37*
%LPD*%
%LPC*%
G36*
X96317Y339062D02*
X96317Y339062D01*
X94132Y339967D01*
X92459Y341639D01*
X91554Y343825D01*
X91554Y346190D01*
X92459Y348376D01*
X93377Y349293D01*
X93416Y349345D01*
X93462Y349390D01*
X93500Y349457D01*
X93547Y349519D01*
X93569Y349579D01*
X93601Y349635D01*
X93619Y349710D01*
X93646Y349783D01*
X93651Y349847D01*
X93666Y349910D01*
X93662Y349987D01*
X93668Y350064D01*
X93655Y350127D01*
X93652Y350191D01*
X93626Y350264D01*
X93610Y350340D01*
X93580Y350397D01*
X93559Y350458D01*
X93518Y350514D01*
X93478Y350589D01*
X93419Y350650D01*
X93377Y350707D01*
X92459Y351625D01*
X91554Y353810D01*
X91554Y356175D01*
X92459Y358361D01*
X94132Y360033D01*
X96317Y360938D01*
X98683Y360938D01*
X100868Y360033D01*
X102541Y358361D01*
X103446Y356175D01*
X103446Y353810D01*
X102541Y351625D01*
X101623Y350707D01*
X101584Y350655D01*
X101538Y350610D01*
X101500Y350543D01*
X101453Y350481D01*
X101431Y350421D01*
X101399Y350365D01*
X101381Y350290D01*
X101354Y350217D01*
X101349Y350153D01*
X101334Y350091D01*
X101338Y350013D01*
X101332Y349936D01*
X101345Y349873D01*
X101348Y349809D01*
X101374Y349736D01*
X101390Y349660D01*
X101420Y349603D01*
X101441Y349542D01*
X101482Y349486D01*
X101522Y349411D01*
X101581Y349350D01*
X101623Y349293D01*
X102541Y348376D01*
X103446Y346190D01*
X103446Y343825D01*
X102541Y341639D01*
X100868Y339967D01*
X98683Y339062D01*
X96317Y339062D01*
G37*
%LPD*%
%LPC*%
G36*
X248519Y252554D02*
X248519Y252554D01*
X245782Y253688D01*
X243688Y255782D01*
X242554Y258519D01*
X242554Y261481D01*
X243688Y264218D01*
X245782Y266312D01*
X248519Y267446D01*
X251481Y267446D01*
X254218Y266312D01*
X256312Y264218D01*
X257446Y261481D01*
X257446Y258519D01*
X256312Y255782D01*
X254218Y253688D01*
X251481Y252554D01*
X248519Y252554D01*
G37*
%LPD*%
%LPC*%
G36*
X308519Y252554D02*
X308519Y252554D01*
X305782Y253688D01*
X303688Y255782D01*
X302554Y258519D01*
X302554Y261481D01*
X303688Y264218D01*
X305782Y266312D01*
X308519Y267446D01*
X311481Y267446D01*
X314218Y266312D01*
X316312Y264218D01*
X317446Y261481D01*
X317446Y258519D01*
X316312Y255782D01*
X314218Y253688D01*
X311481Y252554D01*
X308519Y252554D01*
G37*
%LPD*%
%LPC*%
G36*
X338519Y222554D02*
X338519Y222554D01*
X335782Y223688D01*
X333688Y225782D01*
X332554Y228519D01*
X332554Y231481D01*
X333688Y234218D01*
X335782Y236312D01*
X338519Y237446D01*
X341481Y237446D01*
X344218Y236312D01*
X346312Y234218D01*
X347446Y231481D01*
X347446Y228519D01*
X346312Y225782D01*
X344218Y223688D01*
X341481Y222554D01*
X338519Y222554D01*
G37*
%LPD*%
%LPC*%
G36*
X278519Y282554D02*
X278519Y282554D01*
X275782Y283688D01*
X273688Y285782D01*
X272554Y288519D01*
X272554Y291481D01*
X273688Y294218D01*
X275782Y296312D01*
X278519Y297446D01*
X281481Y297446D01*
X284218Y296312D01*
X286312Y294218D01*
X287446Y291481D01*
X287446Y288519D01*
X286312Y285782D01*
X284218Y283688D01*
X281481Y282554D01*
X278519Y282554D01*
G37*
%LPD*%
%LPC*%
G36*
X308519Y192554D02*
X308519Y192554D01*
X305782Y193688D01*
X303688Y195782D01*
X302554Y198519D01*
X302554Y201481D01*
X303688Y204218D01*
X305782Y206312D01*
X308519Y207446D01*
X311481Y207446D01*
X314218Y206312D01*
X316312Y204218D01*
X317446Y201481D01*
X317446Y198519D01*
X316312Y195782D01*
X314218Y193688D01*
X311481Y192554D01*
X308519Y192554D01*
G37*
%LPD*%
%LPC*%
G36*
X338519Y282554D02*
X338519Y282554D01*
X335782Y283688D01*
X333688Y285782D01*
X332554Y288519D01*
X332554Y291481D01*
X333688Y294218D01*
X335782Y296312D01*
X338519Y297446D01*
X341481Y297446D01*
X344218Y296312D01*
X346312Y294218D01*
X347446Y291481D01*
X347446Y288519D01*
X346312Y285782D01*
X344218Y283688D01*
X341481Y282554D01*
X338519Y282554D01*
G37*
%LPD*%
%LPC*%
G36*
X278519Y162554D02*
X278519Y162554D01*
X275782Y163688D01*
X273688Y165782D01*
X272554Y168519D01*
X272554Y171481D01*
X273688Y174218D01*
X275782Y176312D01*
X278519Y177446D01*
X281481Y177446D01*
X284218Y176312D01*
X286312Y174218D01*
X287446Y171481D01*
X287446Y168519D01*
X286312Y165782D01*
X284218Y163688D01*
X281481Y162554D01*
X278519Y162554D01*
G37*
%LPD*%
%LPC*%
G36*
X278519Y222554D02*
X278519Y222554D01*
X275782Y223688D01*
X273688Y225782D01*
X272554Y228519D01*
X272554Y231481D01*
X273688Y234218D01*
X275782Y236312D01*
X278519Y237446D01*
X281481Y237446D01*
X284218Y236312D01*
X286312Y234218D01*
X287446Y231481D01*
X287446Y228519D01*
X286312Y225782D01*
X284218Y223688D01*
X281481Y222554D01*
X278519Y222554D01*
G37*
%LPD*%
%LPC*%
G36*
X368519Y252554D02*
X368519Y252554D01*
X365782Y253688D01*
X363688Y255782D01*
X362554Y258519D01*
X362554Y261481D01*
X363688Y264218D01*
X365782Y266312D01*
X368519Y267446D01*
X371481Y267446D01*
X374218Y266312D01*
X376312Y264218D01*
X377446Y261481D01*
X377446Y258519D01*
X376312Y255782D01*
X374218Y253688D01*
X371481Y252554D01*
X368519Y252554D01*
G37*
%LPD*%
%LPC*%
G36*
X58610Y233014D02*
X58610Y233014D01*
X56043Y234078D01*
X54078Y236043D01*
X53014Y238610D01*
X53014Y241390D01*
X54078Y243957D01*
X56043Y245922D01*
X58610Y246986D01*
X61390Y246986D01*
X63957Y245922D01*
X65922Y243957D01*
X66986Y241390D01*
X66986Y238610D01*
X65922Y236043D01*
X63957Y234078D01*
X61390Y233014D01*
X58610Y233014D01*
G37*
%LPD*%
%LPC*%
G36*
X223610Y803014D02*
X223610Y803014D01*
X221043Y804078D01*
X219078Y806043D01*
X218014Y808610D01*
X218014Y811390D01*
X219078Y813957D01*
X221043Y815922D01*
X223610Y816986D01*
X226390Y816986D01*
X228957Y815922D01*
X230922Y813957D01*
X231986Y811390D01*
X231986Y808610D01*
X230922Y806043D01*
X228957Y804078D01*
X226390Y803014D01*
X223610Y803014D01*
G37*
%LPD*%
%LPC*%
G36*
X453610Y538014D02*
X453610Y538014D01*
X451043Y539078D01*
X449078Y541043D01*
X448014Y543610D01*
X448014Y546390D01*
X449078Y548957D01*
X451043Y550922D01*
X453610Y551986D01*
X456390Y551986D01*
X458957Y550922D01*
X460922Y548957D01*
X461986Y546390D01*
X461986Y543610D01*
X460922Y541043D01*
X458957Y539078D01*
X456390Y538014D01*
X453610Y538014D01*
G37*
%LPD*%
%LPC*%
G36*
X463610Y273014D02*
X463610Y273014D01*
X461043Y274078D01*
X459078Y276043D01*
X458014Y278610D01*
X458014Y281390D01*
X459078Y283957D01*
X461043Y285922D01*
X463610Y286986D01*
X466390Y286986D01*
X468957Y285922D01*
X470922Y283957D01*
X471986Y281390D01*
X471986Y278610D01*
X470922Y276043D01*
X468957Y274078D01*
X466390Y273014D01*
X463610Y273014D01*
G37*
%LPD*%
%LPC*%
G36*
X346110Y565514D02*
X346110Y565514D01*
X343543Y566578D01*
X341578Y568543D01*
X340514Y571110D01*
X340514Y573890D01*
X341578Y576457D01*
X343543Y578422D01*
X346110Y579486D01*
X348890Y579486D01*
X351457Y578422D01*
X353422Y576457D01*
X354486Y573890D01*
X354486Y571110D01*
X353422Y568543D01*
X351457Y566578D01*
X348890Y565514D01*
X346110Y565514D01*
G37*
%LPD*%
%LPC*%
G36*
X348610Y483014D02*
X348610Y483014D01*
X346043Y484078D01*
X344078Y486043D01*
X343014Y488610D01*
X343014Y491390D01*
X344078Y493957D01*
X346043Y495922D01*
X348610Y496986D01*
X351390Y496986D01*
X353957Y495922D01*
X355922Y493957D01*
X356986Y491390D01*
X356986Y488610D01*
X355922Y486043D01*
X353957Y484078D01*
X351390Y483014D01*
X348610Y483014D01*
G37*
%LPD*%
%LPC*%
G36*
X583610Y653014D02*
X583610Y653014D01*
X581043Y654078D01*
X579078Y656043D01*
X578014Y658610D01*
X578014Y661390D01*
X579078Y663957D01*
X581043Y665922D01*
X583610Y666986D01*
X586390Y666986D01*
X588957Y665922D01*
X590922Y663957D01*
X591986Y661390D01*
X591986Y658610D01*
X590922Y656043D01*
X588957Y654078D01*
X586390Y653014D01*
X583610Y653014D01*
G37*
%LPD*%
%LPC*%
G36*
X293610Y565514D02*
X293610Y565514D01*
X291043Y566578D01*
X289078Y568543D01*
X288014Y571110D01*
X288014Y573890D01*
X289078Y576457D01*
X291043Y578422D01*
X293610Y579486D01*
X296390Y579486D01*
X298957Y578422D01*
X300922Y576457D01*
X301986Y573890D01*
X301986Y571110D01*
X300922Y568543D01*
X298957Y566578D01*
X296390Y565514D01*
X293610Y565514D01*
G37*
%LPD*%
%LPC*%
G36*
X438610Y598014D02*
X438610Y598014D01*
X436043Y599078D01*
X434078Y601043D01*
X433014Y603610D01*
X433014Y606390D01*
X434078Y608957D01*
X436043Y610922D01*
X438610Y611986D01*
X441390Y611986D01*
X443957Y610922D01*
X445922Y608957D01*
X446986Y606390D01*
X446986Y603610D01*
X445922Y601043D01*
X443957Y599078D01*
X441390Y598014D01*
X438610Y598014D01*
G37*
%LPD*%
%LPC*%
G36*
X408610Y598014D02*
X408610Y598014D01*
X406043Y599078D01*
X404078Y601043D01*
X403014Y603610D01*
X403014Y606390D01*
X404078Y608957D01*
X406043Y610922D01*
X408610Y611986D01*
X411390Y611986D01*
X413957Y610922D01*
X415922Y608957D01*
X416986Y606390D01*
X416986Y603610D01*
X415922Y601043D01*
X413957Y599078D01*
X411390Y598014D01*
X408610Y598014D01*
G37*
%LPD*%
%LPC*%
G36*
X141110Y583014D02*
X141110Y583014D01*
X138543Y584078D01*
X136578Y586043D01*
X135514Y588610D01*
X135514Y591390D01*
X136578Y593957D01*
X138543Y595922D01*
X141110Y596986D01*
X143890Y596986D01*
X146457Y595922D01*
X148422Y593957D01*
X149486Y591390D01*
X149486Y588610D01*
X148422Y586043D01*
X146457Y584078D01*
X143890Y583014D01*
X141110Y583014D01*
G37*
%LPD*%
%LPC*%
G36*
X463610Y253014D02*
X463610Y253014D01*
X461043Y254078D01*
X459078Y256043D01*
X458014Y258610D01*
X458014Y261390D01*
X459078Y263957D01*
X461043Y265922D01*
X463610Y266986D01*
X466390Y266986D01*
X468957Y265922D01*
X470922Y263957D01*
X471986Y261390D01*
X471986Y258610D01*
X470922Y256043D01*
X468957Y254078D01*
X466390Y253014D01*
X463610Y253014D01*
G37*
%LPD*%
%LPC*%
G36*
X436110Y543014D02*
X436110Y543014D01*
X433543Y544078D01*
X431578Y546043D01*
X430514Y548610D01*
X430514Y551390D01*
X431578Y553957D01*
X433543Y555922D01*
X436110Y556986D01*
X438890Y556986D01*
X441457Y555922D01*
X443422Y553957D01*
X444486Y551390D01*
X444486Y548610D01*
X443422Y546043D01*
X441457Y544078D01*
X438890Y543014D01*
X436110Y543014D01*
G37*
%LPD*%
%LPC*%
G36*
X598610Y663014D02*
X598610Y663014D01*
X596043Y664078D01*
X594078Y666043D01*
X593014Y668610D01*
X593014Y671390D01*
X594078Y673957D01*
X596043Y675922D01*
X598610Y676986D01*
X601390Y676986D01*
X603957Y675922D01*
X605922Y673957D01*
X606986Y671390D01*
X606986Y668610D01*
X605922Y666043D01*
X603957Y664078D01*
X601390Y663014D01*
X598610Y663014D01*
G37*
%LPD*%
%LPC*%
G36*
X153610Y33014D02*
X153610Y33014D01*
X151043Y34078D01*
X149078Y36043D01*
X148014Y38610D01*
X148014Y41390D01*
X149078Y43957D01*
X151043Y45922D01*
X153610Y46986D01*
X156390Y46986D01*
X158957Y45922D01*
X160922Y43957D01*
X161986Y41390D01*
X161986Y38610D01*
X160922Y36043D01*
X158957Y34078D01*
X156390Y33014D01*
X153610Y33014D01*
G37*
%LPD*%
%LPC*%
G36*
X40549Y197509D02*
X40549Y197509D01*
X38053Y198543D01*
X36143Y200453D01*
X35109Y202949D01*
X35109Y205651D01*
X36143Y208147D01*
X38053Y210057D01*
X40549Y211091D01*
X43251Y211091D01*
X45747Y210057D01*
X47657Y208147D01*
X48691Y205651D01*
X48691Y202949D01*
X47657Y200453D01*
X45747Y198543D01*
X43251Y197509D01*
X40549Y197509D01*
G37*
%LPD*%
%LPC*%
G36*
X40549Y159509D02*
X40549Y159509D01*
X38053Y160543D01*
X36143Y162453D01*
X35109Y164949D01*
X35109Y167651D01*
X36143Y170147D01*
X38053Y172057D01*
X40549Y173091D01*
X43251Y173091D01*
X45747Y172057D01*
X47657Y170147D01*
X48691Y167651D01*
X48691Y164949D01*
X47657Y162453D01*
X45747Y160543D01*
X43251Y159509D01*
X40549Y159509D01*
G37*
%LPD*%
%LPC*%
G36*
X40649Y34209D02*
X40649Y34209D01*
X38153Y35243D01*
X36243Y37153D01*
X35209Y39649D01*
X35209Y42351D01*
X36243Y44847D01*
X38153Y46757D01*
X40649Y47791D01*
X43351Y47791D01*
X45847Y46757D01*
X47757Y44847D01*
X48791Y42351D01*
X48791Y39649D01*
X47757Y37153D01*
X45847Y35243D01*
X43351Y34209D01*
X40649Y34209D01*
G37*
%LPD*%
%LPC*%
G36*
X40649Y72209D02*
X40649Y72209D01*
X38153Y73243D01*
X36243Y75153D01*
X35209Y77649D01*
X35209Y80351D01*
X36243Y82847D01*
X38153Y84757D01*
X40649Y85791D01*
X43351Y85791D01*
X45847Y84757D01*
X47757Y82847D01*
X48791Y80351D01*
X48791Y77649D01*
X47757Y75153D01*
X45847Y73243D01*
X43351Y72209D01*
X40649Y72209D01*
G37*
%LPD*%
%LPC*%
G36*
X213718Y493554D02*
X213718Y493554D01*
X211349Y494536D01*
X209536Y496349D01*
X208554Y498718D01*
X208554Y501282D01*
X209536Y503651D01*
X211349Y505464D01*
X213718Y506446D01*
X216282Y506446D01*
X218651Y505464D01*
X220464Y503651D01*
X221446Y501282D01*
X221446Y498718D01*
X220464Y496349D01*
X218651Y494536D01*
X216282Y493554D01*
X213718Y493554D01*
G37*
%LPD*%
%LPC*%
G36*
X38718Y488554D02*
X38718Y488554D01*
X36349Y489536D01*
X34536Y491349D01*
X33554Y493718D01*
X33554Y496282D01*
X34536Y498651D01*
X36349Y500464D01*
X38718Y501446D01*
X41282Y501446D01*
X43651Y500464D01*
X45464Y498651D01*
X46446Y496282D01*
X46446Y493718D01*
X45464Y491349D01*
X43651Y489536D01*
X41282Y488554D01*
X38718Y488554D01*
G37*
%LPD*%
%LPC*%
G36*
X178718Y483554D02*
X178718Y483554D01*
X176349Y484536D01*
X174536Y486349D01*
X173554Y488718D01*
X173554Y491282D01*
X174536Y493651D01*
X176349Y495464D01*
X178718Y496446D01*
X181282Y496446D01*
X183651Y495464D01*
X185464Y493651D01*
X186446Y491282D01*
X186446Y488718D01*
X185464Y486349D01*
X183651Y484536D01*
X181282Y483554D01*
X178718Y483554D01*
G37*
%LPD*%
%LPC*%
G36*
X178718Y533554D02*
X178718Y533554D01*
X176349Y534536D01*
X174536Y536349D01*
X173554Y538718D01*
X173554Y541282D01*
X174536Y543651D01*
X176349Y545464D01*
X178718Y546446D01*
X181282Y546446D01*
X183651Y545464D01*
X185464Y543651D01*
X186446Y541282D01*
X186446Y538718D01*
X185464Y536349D01*
X183651Y534536D01*
X181282Y533554D01*
X178718Y533554D01*
G37*
%LPD*%
%LPC*%
G36*
X468718Y448554D02*
X468718Y448554D01*
X466349Y449536D01*
X464536Y451349D01*
X463554Y453718D01*
X463554Y456282D01*
X464536Y458651D01*
X466349Y460464D01*
X468718Y461446D01*
X471282Y461446D01*
X473651Y460464D01*
X475464Y458651D01*
X476446Y456282D01*
X476446Y453718D01*
X475464Y451349D01*
X473651Y449536D01*
X471282Y448554D01*
X468718Y448554D01*
G37*
%LPD*%
%LPC*%
G36*
X158718Y416054D02*
X158718Y416054D01*
X156349Y417036D01*
X154536Y418849D01*
X153554Y421218D01*
X153554Y423782D01*
X154536Y426151D01*
X156349Y427964D01*
X158718Y428946D01*
X161282Y428946D01*
X163651Y427964D01*
X165464Y426151D01*
X166446Y423782D01*
X166446Y421218D01*
X165464Y418849D01*
X163651Y417036D01*
X161282Y416054D01*
X158718Y416054D01*
G37*
%LPD*%
%LPC*%
G36*
X711218Y413554D02*
X711218Y413554D01*
X708849Y414536D01*
X707036Y416349D01*
X706054Y418718D01*
X706054Y421282D01*
X707036Y423651D01*
X708849Y425464D01*
X711218Y426446D01*
X713782Y426446D01*
X716151Y425464D01*
X717964Y423651D01*
X718946Y421282D01*
X718946Y418718D01*
X717964Y416349D01*
X716151Y414536D01*
X713782Y413554D01*
X711218Y413554D01*
G37*
%LPD*%
%LPC*%
G36*
X248718Y370452D02*
X248718Y370452D01*
X246349Y371434D01*
X244536Y373247D01*
X243554Y375616D01*
X243554Y378180D01*
X244536Y380549D01*
X246349Y382362D01*
X248718Y383344D01*
X251282Y383344D01*
X253651Y382362D01*
X255464Y380549D01*
X256446Y378180D01*
X256446Y375616D01*
X255464Y373247D01*
X253651Y371434D01*
X251282Y370452D01*
X248718Y370452D01*
G37*
%LPD*%
%LPC*%
G36*
X431218Y323554D02*
X431218Y323554D01*
X428849Y324536D01*
X427036Y326349D01*
X426054Y328718D01*
X426054Y331282D01*
X427036Y333651D01*
X428849Y335464D01*
X431218Y336446D01*
X433782Y336446D01*
X436151Y335464D01*
X437964Y333651D01*
X438946Y331282D01*
X438946Y328718D01*
X437964Y326349D01*
X436151Y324536D01*
X433782Y323554D01*
X431218Y323554D01*
G37*
%LPD*%
%LPC*%
G36*
X571218Y293554D02*
X571218Y293554D01*
X568849Y294536D01*
X567036Y296349D01*
X566054Y298718D01*
X566054Y301282D01*
X567036Y303651D01*
X568849Y305464D01*
X571218Y306446D01*
X573782Y306446D01*
X576151Y305464D01*
X577964Y303651D01*
X578946Y301282D01*
X578946Y298718D01*
X577964Y296349D01*
X576151Y294536D01*
X573782Y293554D01*
X571218Y293554D01*
G37*
%LPD*%
%LPC*%
G36*
X103718Y233554D02*
X103718Y233554D01*
X101349Y234536D01*
X99536Y236349D01*
X98554Y238718D01*
X98554Y241282D01*
X99536Y243651D01*
X101349Y245464D01*
X103718Y246446D01*
X106282Y246446D01*
X108651Y245464D01*
X110464Y243651D01*
X111446Y241282D01*
X111446Y238718D01*
X110464Y236349D01*
X108651Y234536D01*
X106282Y233554D01*
X103718Y233554D01*
G37*
%LPD*%
%LPC*%
G36*
X358718Y823554D02*
X358718Y823554D01*
X356349Y824536D01*
X354536Y826349D01*
X353554Y828718D01*
X353554Y831282D01*
X354536Y833651D01*
X356349Y835464D01*
X358718Y836446D01*
X361282Y836446D01*
X363651Y835464D01*
X365464Y833651D01*
X366446Y831282D01*
X366446Y828718D01*
X365464Y826349D01*
X363651Y824536D01*
X361282Y823554D01*
X358718Y823554D01*
G37*
%LPD*%
%LPC*%
G36*
X586218Y761054D02*
X586218Y761054D01*
X583849Y762036D01*
X582036Y763849D01*
X581054Y766218D01*
X581054Y768782D01*
X582036Y771151D01*
X583849Y772964D01*
X586218Y773946D01*
X588782Y773946D01*
X591151Y772964D01*
X592964Y771151D01*
X593946Y768782D01*
X593946Y766218D01*
X592964Y763849D01*
X591151Y762036D01*
X588782Y761054D01*
X586218Y761054D01*
G37*
%LPD*%
%LPC*%
G36*
X571218Y211054D02*
X571218Y211054D01*
X568849Y212036D01*
X567036Y213849D01*
X566054Y216218D01*
X566054Y218782D01*
X567036Y221151D01*
X568849Y222964D01*
X571218Y223946D01*
X573782Y223946D01*
X576151Y222964D01*
X577964Y221151D01*
X578946Y218782D01*
X578946Y216218D01*
X577964Y213849D01*
X576151Y212036D01*
X573782Y211054D01*
X571218Y211054D01*
G37*
%LPD*%
%LPC*%
G36*
X506218Y211054D02*
X506218Y211054D01*
X503849Y212036D01*
X502036Y213849D01*
X501054Y216218D01*
X501054Y218782D01*
X502036Y221151D01*
X503849Y222964D01*
X506218Y223946D01*
X508782Y223946D01*
X511151Y222964D01*
X512964Y221151D01*
X513946Y218782D01*
X513946Y216218D01*
X512964Y213849D01*
X511151Y212036D01*
X508782Y211054D01*
X506218Y211054D01*
G37*
%LPD*%
%LPC*%
G36*
X636218Y198554D02*
X636218Y198554D01*
X633849Y199536D01*
X632036Y201349D01*
X631054Y203718D01*
X631054Y206282D01*
X632036Y208651D01*
X633849Y210464D01*
X636218Y211446D01*
X638782Y211446D01*
X641151Y210464D01*
X642964Y208651D01*
X643946Y206282D01*
X643946Y203718D01*
X642964Y201349D01*
X641151Y199536D01*
X638782Y198554D01*
X636218Y198554D01*
G37*
%LPD*%
%LPC*%
G36*
X251218Y751054D02*
X251218Y751054D01*
X248849Y752036D01*
X247036Y753849D01*
X246054Y756218D01*
X246054Y758782D01*
X247036Y761151D01*
X248849Y762964D01*
X251218Y763946D01*
X253782Y763946D01*
X256151Y762964D01*
X257964Y761151D01*
X258946Y758782D01*
X258946Y756218D01*
X257964Y753849D01*
X256151Y752036D01*
X253782Y751054D01*
X251218Y751054D01*
G37*
%LPD*%
%LPC*%
G36*
X176218Y196054D02*
X176218Y196054D01*
X173849Y197036D01*
X172036Y198849D01*
X171054Y201218D01*
X171054Y203782D01*
X172036Y206151D01*
X173849Y207964D01*
X176218Y208946D01*
X178782Y208946D01*
X181151Y207964D01*
X182964Y206151D01*
X183946Y203782D01*
X183946Y201218D01*
X182964Y198849D01*
X181151Y197036D01*
X178782Y196054D01*
X176218Y196054D01*
G37*
%LPD*%
%LPC*%
G36*
X241218Y641054D02*
X241218Y641054D01*
X238849Y642036D01*
X237036Y643849D01*
X236054Y646218D01*
X236054Y648782D01*
X237036Y651151D01*
X238849Y652964D01*
X241218Y653946D01*
X243782Y653946D01*
X246151Y652964D01*
X247964Y651151D01*
X248946Y648782D01*
X248946Y646218D01*
X247964Y643849D01*
X246151Y642036D01*
X243782Y641054D01*
X241218Y641054D01*
G37*
%LPD*%
%LPC*%
G36*
X518718Y626054D02*
X518718Y626054D01*
X516349Y627036D01*
X514536Y628849D01*
X513554Y631218D01*
X513554Y633782D01*
X514536Y636151D01*
X516349Y637964D01*
X518718Y638946D01*
X521282Y638946D01*
X523651Y637964D01*
X525464Y636151D01*
X526446Y633782D01*
X526446Y631218D01*
X525464Y628849D01*
X523651Y627036D01*
X521282Y626054D01*
X518718Y626054D01*
G37*
%LPD*%
%LPC*%
G36*
X178718Y608554D02*
X178718Y608554D01*
X176349Y609536D01*
X174536Y611349D01*
X173554Y613718D01*
X173554Y616282D01*
X174536Y618651D01*
X176349Y620464D01*
X178718Y621446D01*
X181282Y621446D01*
X183651Y620464D01*
X185464Y618651D01*
X186446Y616282D01*
X186446Y613718D01*
X185464Y611349D01*
X183651Y609536D01*
X181282Y608554D01*
X178718Y608554D01*
G37*
%LPD*%
%LPC*%
G36*
X233718Y588554D02*
X233718Y588554D01*
X231349Y589536D01*
X229536Y591349D01*
X228554Y593718D01*
X228554Y596282D01*
X229536Y598651D01*
X231349Y600464D01*
X233718Y601446D01*
X236282Y601446D01*
X238651Y600464D01*
X240464Y598651D01*
X241446Y596282D01*
X241446Y593718D01*
X240464Y591349D01*
X238651Y589536D01*
X236282Y588554D01*
X233718Y588554D01*
G37*
%LPD*%
%LPC*%
G36*
X178718Y583554D02*
X178718Y583554D01*
X176349Y584536D01*
X174536Y586349D01*
X173554Y588718D01*
X173554Y591282D01*
X174536Y593651D01*
X176349Y595464D01*
X178718Y596446D01*
X181282Y596446D01*
X183651Y595464D01*
X185464Y593651D01*
X186446Y591282D01*
X186446Y588718D01*
X185464Y586349D01*
X183651Y584536D01*
X181282Y583554D01*
X178718Y583554D01*
G37*
%LPD*%
%LPC*%
G36*
X573718Y573554D02*
X573718Y573554D01*
X571349Y574536D01*
X569536Y576349D01*
X568554Y578718D01*
X568554Y581282D01*
X569536Y583651D01*
X571349Y585464D01*
X573718Y586446D01*
X576282Y586446D01*
X578651Y585464D01*
X580464Y583651D01*
X581446Y581282D01*
X581446Y578718D01*
X580464Y576349D01*
X578651Y574536D01*
X576282Y573554D01*
X573718Y573554D01*
G37*
%LPD*%
%LPC*%
G36*
X178718Y558554D02*
X178718Y558554D01*
X176349Y559536D01*
X174536Y561349D01*
X173554Y563718D01*
X173554Y566282D01*
X174536Y568651D01*
X176349Y570464D01*
X178718Y571446D01*
X181282Y571446D01*
X183651Y570464D01*
X185464Y568651D01*
X186446Y566282D01*
X186446Y563718D01*
X185464Y561349D01*
X183651Y559536D01*
X181282Y558554D01*
X178718Y558554D01*
G37*
%LPD*%
%LPC*%
G36*
X213718Y538554D02*
X213718Y538554D01*
X211349Y539536D01*
X209536Y541349D01*
X208554Y543718D01*
X208554Y546282D01*
X209536Y548651D01*
X211349Y550464D01*
X213718Y551446D01*
X216282Y551446D01*
X218651Y550464D01*
X220464Y548651D01*
X221446Y546282D01*
X221446Y543718D01*
X220464Y541349D01*
X218651Y539536D01*
X216282Y538554D01*
X213718Y538554D01*
G37*
%LPD*%
%LPC*%
G36*
X38718Y538554D02*
X38718Y538554D01*
X36349Y539536D01*
X34536Y541349D01*
X33554Y543718D01*
X33554Y546282D01*
X34536Y548651D01*
X36349Y550464D01*
X38718Y551446D01*
X41282Y551446D01*
X43651Y550464D01*
X45464Y548651D01*
X46446Y546282D01*
X46446Y543718D01*
X45464Y541349D01*
X43651Y539536D01*
X41282Y538554D01*
X38718Y538554D01*
G37*
%LPD*%
%LPC*%
G36*
X243718Y538554D02*
X243718Y538554D01*
X241349Y539536D01*
X239536Y541349D01*
X238554Y543718D01*
X238554Y546282D01*
X239536Y548651D01*
X241349Y550464D01*
X243718Y551446D01*
X246282Y551446D01*
X248651Y550464D01*
X250464Y548651D01*
X251446Y546282D01*
X251446Y543718D01*
X250464Y541349D01*
X248651Y539536D01*
X246282Y538554D01*
X243718Y538554D01*
G37*
%LPD*%
%LPC*%
G36*
X551218Y131054D02*
X551218Y131054D01*
X548849Y132036D01*
X547036Y133849D01*
X546054Y136218D01*
X546054Y138782D01*
X547036Y141151D01*
X548849Y142964D01*
X551218Y143946D01*
X553782Y143946D01*
X556151Y142964D01*
X557964Y141151D01*
X558946Y138782D01*
X558946Y136218D01*
X557964Y133849D01*
X556151Y132036D01*
X553782Y131054D01*
X551218Y131054D01*
G37*
%LPD*%
%LPC*%
G36*
X456218Y131054D02*
X456218Y131054D01*
X453849Y132036D01*
X452036Y133849D01*
X451054Y136218D01*
X451054Y138782D01*
X452036Y141151D01*
X453849Y142964D01*
X456218Y143946D01*
X458782Y143946D01*
X461151Y142964D01*
X462964Y141151D01*
X463946Y138782D01*
X463946Y136218D01*
X462964Y133849D01*
X461151Y132036D01*
X458782Y131054D01*
X456218Y131054D01*
G37*
%LPD*%
%LPC*%
G36*
X651218Y131054D02*
X651218Y131054D01*
X648849Y132036D01*
X647036Y133849D01*
X646054Y136218D01*
X646054Y138782D01*
X647036Y141151D01*
X648849Y142964D01*
X651218Y143946D01*
X653782Y143946D01*
X656151Y142964D01*
X657964Y141151D01*
X658946Y138782D01*
X658946Y136218D01*
X657964Y133849D01*
X656151Y132036D01*
X653782Y131054D01*
X651218Y131054D01*
G37*
%LPD*%
%LPC*%
G36*
X791218Y531054D02*
X791218Y531054D01*
X788849Y532036D01*
X787036Y533849D01*
X786054Y536218D01*
X786054Y538782D01*
X787036Y541151D01*
X788849Y542964D01*
X791218Y543946D01*
X793782Y543946D01*
X796151Y542964D01*
X797964Y541151D01*
X798946Y538782D01*
X798946Y536218D01*
X797964Y533849D01*
X796151Y532036D01*
X793782Y531054D01*
X791218Y531054D01*
G37*
%LPD*%
%LPC*%
G36*
X308718Y103554D02*
X308718Y103554D01*
X306349Y104536D01*
X304536Y106349D01*
X303554Y108718D01*
X303554Y111282D01*
X304536Y113651D01*
X306349Y115464D01*
X308718Y116446D01*
X311282Y116446D01*
X313651Y115464D01*
X315464Y113651D01*
X316446Y111282D01*
X316446Y108718D01*
X315464Y106349D01*
X313651Y104536D01*
X311282Y103554D01*
X308718Y103554D01*
G37*
%LPD*%
%LPC*%
G36*
X773718Y531054D02*
X773718Y531054D01*
X771349Y532036D01*
X769536Y533849D01*
X768554Y536218D01*
X768554Y538782D01*
X769536Y541151D01*
X771349Y542964D01*
X773718Y543946D01*
X776282Y543946D01*
X778651Y542964D01*
X780464Y541151D01*
X781446Y538782D01*
X781446Y536218D01*
X780464Y533849D01*
X778651Y532036D01*
X776282Y531054D01*
X773718Y531054D01*
G37*
%LPD*%
%LPC*%
G36*
X756218Y531054D02*
X756218Y531054D01*
X753849Y532036D01*
X752036Y533849D01*
X751054Y536218D01*
X751054Y538782D01*
X752036Y541151D01*
X753849Y542964D01*
X756218Y543946D01*
X758782Y543946D01*
X761151Y542964D01*
X762964Y541151D01*
X763946Y538782D01*
X763946Y536218D01*
X762964Y533849D01*
X761151Y532036D01*
X758782Y531054D01*
X756218Y531054D01*
G37*
%LPD*%
%LPC*%
G36*
X738718Y531054D02*
X738718Y531054D01*
X736349Y532036D01*
X734536Y533849D01*
X733554Y536218D01*
X733554Y538782D01*
X734536Y541151D01*
X736349Y542964D01*
X738718Y543946D01*
X741282Y543946D01*
X743651Y542964D01*
X745464Y541151D01*
X746446Y538782D01*
X746446Y536218D01*
X745464Y533849D01*
X743651Y532036D01*
X741282Y531054D01*
X738718Y531054D01*
G37*
%LPD*%
%LPC*%
G36*
X721218Y531054D02*
X721218Y531054D01*
X718849Y532036D01*
X717036Y533849D01*
X716054Y536218D01*
X716054Y538782D01*
X717036Y541151D01*
X718849Y542964D01*
X721218Y543946D01*
X723782Y543946D01*
X726151Y542964D01*
X727964Y541151D01*
X728946Y538782D01*
X728946Y536218D01*
X727964Y533849D01*
X726151Y532036D01*
X723782Y531054D01*
X721218Y531054D01*
G37*
%LPD*%
%LPC*%
G36*
X258718Y523554D02*
X258718Y523554D01*
X256349Y524536D01*
X254536Y526349D01*
X253554Y528718D01*
X253554Y531282D01*
X254536Y533651D01*
X256349Y535464D01*
X258718Y536446D01*
X261282Y536446D01*
X263651Y535464D01*
X265464Y533651D01*
X266446Y531282D01*
X266446Y528718D01*
X265464Y526349D01*
X263651Y524536D01*
X261282Y523554D01*
X258718Y523554D01*
G37*
%LPD*%
%LPC*%
G36*
X213718Y523554D02*
X213718Y523554D01*
X211349Y524536D01*
X209536Y526349D01*
X208554Y528718D01*
X208554Y531282D01*
X209536Y533651D01*
X211349Y535464D01*
X213718Y536446D01*
X216282Y536446D01*
X218651Y535464D01*
X220464Y533651D01*
X221446Y531282D01*
X221446Y528718D01*
X220464Y526349D01*
X218651Y524536D01*
X216282Y523554D01*
X213718Y523554D01*
G37*
%LPD*%
%LPC*%
G36*
X683718Y518554D02*
X683718Y518554D01*
X681349Y519536D01*
X679536Y521349D01*
X678554Y523718D01*
X678554Y526282D01*
X679536Y528651D01*
X681349Y530464D01*
X683718Y531446D01*
X686282Y531446D01*
X688651Y530464D01*
X690464Y528651D01*
X691446Y526282D01*
X691446Y523718D01*
X690464Y521349D01*
X688651Y519536D01*
X686282Y518554D01*
X683718Y518554D01*
G37*
%LPD*%
%LPC*%
G36*
X376218Y518554D02*
X376218Y518554D01*
X373849Y519536D01*
X372036Y521349D01*
X371054Y523718D01*
X371054Y526282D01*
X372036Y528651D01*
X373849Y530464D01*
X376218Y531446D01*
X378782Y531446D01*
X381151Y530464D01*
X382964Y528651D01*
X383946Y526282D01*
X383946Y523718D01*
X382964Y521349D01*
X381151Y519536D01*
X378782Y518554D01*
X376218Y518554D01*
G37*
%LPD*%
%LPC*%
G36*
X243718Y508554D02*
X243718Y508554D01*
X241349Y509536D01*
X239536Y511349D01*
X238554Y513718D01*
X238554Y516282D01*
X239536Y518651D01*
X241349Y520464D01*
X243718Y521446D01*
X246282Y521446D01*
X248651Y520464D01*
X250464Y518651D01*
X251446Y516282D01*
X251446Y513718D01*
X250464Y511349D01*
X248651Y509536D01*
X246282Y508554D01*
X243718Y508554D01*
G37*
%LPD*%
%LPC*%
G36*
X178718Y508554D02*
X178718Y508554D01*
X176349Y509536D01*
X174536Y511349D01*
X173554Y513718D01*
X173554Y516282D01*
X174536Y518651D01*
X176349Y520464D01*
X178718Y521446D01*
X181282Y521446D01*
X183651Y520464D01*
X185464Y518651D01*
X186446Y516282D01*
X186446Y513718D01*
X185464Y511349D01*
X183651Y509536D01*
X181282Y508554D01*
X178718Y508554D01*
G37*
%LPD*%
%LPC*%
G36*
X446268Y676304D02*
X446268Y676304D01*
X443990Y677248D01*
X442248Y678990D01*
X441304Y681268D01*
X441304Y683732D01*
X442248Y686010D01*
X443990Y687752D01*
X446268Y688696D01*
X448732Y688696D01*
X451010Y687752D01*
X452752Y686010D01*
X453696Y683732D01*
X453696Y681268D01*
X452752Y678990D01*
X451010Y677248D01*
X448732Y676304D01*
X446268Y676304D01*
G37*
%LPD*%
%LPC*%
G36*
X543817Y514054D02*
X543817Y514054D01*
X541632Y514959D01*
X539959Y516632D01*
X539054Y518817D01*
X539054Y521183D01*
X539959Y523368D01*
X541632Y525041D01*
X543817Y525946D01*
X546183Y525946D01*
X548368Y525041D01*
X550041Y523368D01*
X550946Y521183D01*
X550946Y518817D01*
X550041Y516632D01*
X548368Y514959D01*
X546183Y514054D01*
X543817Y514054D01*
G37*
%LPD*%
%LPC*%
G36*
X148967Y334156D02*
X148967Y334156D01*
X146782Y335062D01*
X145109Y336734D01*
X144204Y338919D01*
X144204Y341285D01*
X145109Y343470D01*
X146782Y345143D01*
X148967Y346048D01*
X151332Y346048D01*
X153518Y345143D01*
X155190Y343470D01*
X156095Y341285D01*
X156095Y338919D01*
X155190Y336734D01*
X153518Y335062D01*
X151332Y334156D01*
X148967Y334156D01*
G37*
%LPD*%
%LPC*%
G36*
X553817Y504054D02*
X553817Y504054D01*
X551632Y504959D01*
X549959Y506632D01*
X549054Y508817D01*
X549054Y511183D01*
X549959Y513368D01*
X551632Y515041D01*
X553817Y515946D01*
X556183Y515946D01*
X558368Y515041D01*
X560041Y513368D01*
X560946Y511183D01*
X560946Y508817D01*
X560041Y506632D01*
X558368Y504959D01*
X556183Y504054D01*
X553817Y504054D01*
G37*
%LPD*%
%LPC*%
G36*
X503817Y514054D02*
X503817Y514054D01*
X501632Y514959D01*
X499959Y516632D01*
X499054Y518817D01*
X499054Y521183D01*
X499959Y523368D01*
X501632Y525041D01*
X503817Y525946D01*
X506183Y525946D01*
X508368Y525041D01*
X510041Y523368D01*
X510946Y521183D01*
X510946Y518817D01*
X510041Y516632D01*
X508368Y514959D01*
X506183Y514054D01*
X503817Y514054D01*
G37*
%LPD*%
%LPC*%
G36*
X148967Y353952D02*
X148967Y353952D01*
X146782Y354857D01*
X145109Y356530D01*
X144204Y358715D01*
X144204Y361081D01*
X145109Y363266D01*
X146782Y364938D01*
X148967Y365844D01*
X151332Y365844D01*
X153518Y364938D01*
X155190Y363266D01*
X156095Y361081D01*
X156095Y358715D01*
X155190Y356530D01*
X153518Y354857D01*
X151332Y353952D01*
X148967Y353952D01*
G37*
%LPD*%
%LPC*%
G36*
X483817Y514054D02*
X483817Y514054D01*
X481632Y514959D01*
X479959Y516632D01*
X479054Y518817D01*
X479054Y521183D01*
X479959Y523368D01*
X481632Y525041D01*
X483817Y525946D01*
X486183Y525946D01*
X488368Y525041D01*
X490041Y523368D01*
X490946Y521183D01*
X490946Y518817D01*
X490041Y516632D01*
X488368Y514959D01*
X486183Y514054D01*
X483817Y514054D01*
G37*
%LPD*%
%LPC*%
G36*
X533817Y504054D02*
X533817Y504054D01*
X531632Y504959D01*
X529959Y506632D01*
X529054Y508817D01*
X529054Y511183D01*
X529959Y513368D01*
X531632Y515041D01*
X533817Y515946D01*
X536183Y515946D01*
X538368Y515041D01*
X540041Y513368D01*
X540946Y511183D01*
X540946Y508817D01*
X540041Y506632D01*
X538368Y504959D01*
X536183Y504054D01*
X533817Y504054D01*
G37*
%LPD*%
%LPC*%
G36*
X563817Y514054D02*
X563817Y514054D01*
X561632Y514959D01*
X559959Y516632D01*
X559054Y518817D01*
X559054Y521183D01*
X559959Y523368D01*
X561632Y525041D01*
X563817Y525946D01*
X566183Y525946D01*
X568368Y525041D01*
X570041Y523368D01*
X570946Y521183D01*
X570946Y518817D01*
X570041Y516632D01*
X568368Y514959D01*
X566183Y514054D01*
X563817Y514054D01*
G37*
%LPD*%
%LPC*%
G36*
X909699Y553999D02*
X909699Y553999D01*
X909699Y561971D01*
X910079Y561911D01*
X911600Y561416D01*
X913025Y560690D01*
X914319Y559750D01*
X915450Y558619D01*
X916390Y557325D01*
X917116Y555900D01*
X917611Y554379D01*
X917671Y553999D01*
X909699Y553999D01*
G37*
%LPD*%
%LPC*%
G36*
X909699Y350799D02*
X909699Y350799D01*
X909699Y358771D01*
X910079Y358711D01*
X911600Y358216D01*
X913025Y357490D01*
X914319Y356550D01*
X915450Y355419D01*
X916390Y354125D01*
X917116Y352700D01*
X917611Y351179D01*
X917671Y350799D01*
X909699Y350799D01*
G37*
%LPD*%
%LPC*%
G36*
X884299Y223799D02*
X884299Y223799D01*
X884299Y231771D01*
X884679Y231711D01*
X886200Y231216D01*
X887625Y230490D01*
X888919Y229550D01*
X890050Y228419D01*
X890990Y227125D01*
X891716Y225700D01*
X892211Y224179D01*
X892271Y223799D01*
X884299Y223799D01*
G37*
%LPD*%
%LPC*%
G36*
X909699Y249199D02*
X909699Y249199D01*
X909699Y257171D01*
X910079Y257111D01*
X911600Y256616D01*
X913025Y255890D01*
X914319Y254950D01*
X915450Y253819D01*
X916390Y252525D01*
X917116Y251100D01*
X917611Y249579D01*
X917671Y249199D01*
X909699Y249199D01*
G37*
%LPD*%
%LPC*%
G36*
X884299Y630199D02*
X884299Y630199D01*
X884299Y638171D01*
X884679Y638111D01*
X886200Y637616D01*
X887625Y636890D01*
X888919Y635950D01*
X890050Y634819D01*
X890990Y633525D01*
X891716Y632100D01*
X892211Y630579D01*
X892271Y630199D01*
X884299Y630199D01*
G37*
%LPD*%
%LPC*%
G36*
X909699Y452399D02*
X909699Y452399D01*
X909699Y460371D01*
X910079Y460311D01*
X911600Y459816D01*
X913025Y459090D01*
X914319Y458150D01*
X915450Y457019D01*
X916390Y455725D01*
X917116Y454300D01*
X917611Y452779D01*
X917671Y452399D01*
X909699Y452399D01*
G37*
%LPD*%
%LPC*%
G36*
X884299Y122199D02*
X884299Y122199D01*
X884299Y130171D01*
X884679Y130111D01*
X886200Y129616D01*
X887625Y128890D01*
X888919Y127950D01*
X890050Y126819D01*
X890990Y125525D01*
X891716Y124100D01*
X892211Y122579D01*
X892271Y122199D01*
X884299Y122199D01*
G37*
%LPD*%
%LPC*%
G36*
X909699Y655599D02*
X909699Y655599D01*
X909699Y663571D01*
X910079Y663511D01*
X911600Y663016D01*
X913025Y662290D01*
X914319Y661350D01*
X915450Y660219D01*
X916390Y658925D01*
X917116Y657500D01*
X917611Y655979D01*
X917671Y655599D01*
X909699Y655599D01*
G37*
%LPD*%
%LPC*%
G36*
X909699Y757199D02*
X909699Y757199D01*
X909699Y765171D01*
X910079Y765111D01*
X911600Y764616D01*
X913025Y763890D01*
X914319Y762950D01*
X915450Y761819D01*
X916390Y760525D01*
X917116Y759100D01*
X917611Y757579D01*
X917671Y757199D01*
X909699Y757199D01*
G37*
%LPD*%
%LPC*%
G36*
X571999Y269699D02*
X571999Y269699D01*
X571999Y277671D01*
X572379Y277611D01*
X573900Y277116D01*
X575325Y276390D01*
X576619Y275450D01*
X577750Y274319D01*
X578690Y273025D01*
X579416Y271600D01*
X579911Y270079D01*
X579971Y269699D01*
X571999Y269699D01*
G37*
%LPD*%
%LPC*%
G36*
X884299Y426999D02*
X884299Y426999D01*
X884299Y434971D01*
X884679Y434911D01*
X886200Y434416D01*
X887625Y433690D01*
X888919Y432750D01*
X890050Y431619D01*
X890990Y430325D01*
X891716Y428900D01*
X892211Y427379D01*
X892271Y426999D01*
X884299Y426999D01*
G37*
%LPD*%
%LPC*%
G36*
X597399Y269699D02*
X597399Y269699D01*
X597399Y277671D01*
X597779Y277611D01*
X599300Y277116D01*
X600725Y276390D01*
X602019Y275450D01*
X603150Y274319D01*
X604090Y273025D01*
X604816Y271600D01*
X605311Y270079D01*
X605371Y269699D01*
X597399Y269699D01*
G37*
%LPD*%
%LPC*%
G36*
X884299Y528599D02*
X884299Y528599D01*
X884299Y536571D01*
X884679Y536511D01*
X886200Y536016D01*
X887625Y535290D01*
X888919Y534350D01*
X890050Y533219D01*
X890990Y531925D01*
X891716Y530500D01*
X892211Y528979D01*
X892271Y528599D01*
X884299Y528599D01*
G37*
%LPD*%
%LPC*%
G36*
X909699Y147599D02*
X909699Y147599D01*
X909699Y155571D01*
X910079Y155511D01*
X911600Y155016D01*
X913025Y154290D01*
X914319Y153350D01*
X915450Y152219D01*
X916390Y150925D01*
X917116Y149500D01*
X917611Y147979D01*
X917671Y147599D01*
X909699Y147599D01*
G37*
%LPD*%
%LPC*%
G36*
X884299Y731799D02*
X884299Y731799D01*
X884299Y739771D01*
X884679Y739711D01*
X886200Y739216D01*
X887625Y738490D01*
X888919Y737550D01*
X890050Y736419D01*
X890990Y735125D01*
X891716Y733700D01*
X892211Y732179D01*
X892271Y731799D01*
X884299Y731799D01*
G37*
%LPD*%
%LPC*%
G36*
X630699Y826999D02*
X630699Y826999D01*
X630699Y834971D01*
X631079Y834911D01*
X632600Y834416D01*
X634025Y833690D01*
X635319Y832750D01*
X636450Y831619D01*
X637390Y830325D01*
X638116Y828900D01*
X638611Y827379D01*
X638671Y826999D01*
X630699Y826999D01*
G37*
%LPD*%
%LPC*%
G36*
X884299Y325399D02*
X884299Y325399D01*
X884299Y333371D01*
X884679Y333311D01*
X886200Y332816D01*
X887625Y332090D01*
X888919Y331150D01*
X890050Y330019D01*
X890990Y328725D01*
X891716Y327300D01*
X892211Y325779D01*
X892271Y325399D01*
X884299Y325399D01*
G37*
%LPD*%
%LPC*%
G36*
X909699Y346801D02*
X909699Y346801D01*
X917671Y346801D01*
X917613Y346437D01*
X917611Y346421D01*
X917116Y344900D01*
X916390Y343475D01*
X915450Y342181D01*
X914319Y341050D01*
X913025Y340110D01*
X911600Y339384D01*
X910079Y338889D01*
X909699Y338829D01*
X909699Y346801D01*
G37*
%LPD*%
%LPC*%
G36*
X897729Y350799D02*
X897729Y350799D01*
X897781Y351125D01*
X897789Y351179D01*
X898284Y352700D01*
X899010Y354125D01*
X899950Y355419D01*
X901081Y356550D01*
X902375Y357490D01*
X903800Y358216D01*
X905321Y358711D01*
X905701Y358771D01*
X905701Y350799D01*
X897729Y350799D01*
G37*
%LPD*%
%LPC*%
G36*
X884299Y524601D02*
X884299Y524601D01*
X892271Y524601D01*
X892224Y524304D01*
X892224Y524303D01*
X892211Y524221D01*
X891716Y522700D01*
X890990Y521275D01*
X890050Y519981D01*
X888919Y518850D01*
X887625Y517910D01*
X886200Y517184D01*
X884679Y516689D01*
X884299Y516629D01*
X884299Y524601D01*
G37*
%LPD*%
%LPC*%
G36*
X897729Y655599D02*
X897729Y655599D01*
X897776Y655896D01*
X897789Y655979D01*
X898284Y657500D01*
X899010Y658925D01*
X899950Y660219D01*
X901081Y661350D01*
X902375Y662290D01*
X903800Y663016D01*
X905321Y663511D01*
X905701Y663571D01*
X905701Y655599D01*
X897729Y655599D01*
G37*
%LPD*%
%LPC*%
G36*
X872329Y122199D02*
X872329Y122199D01*
X872345Y122296D01*
X872345Y122297D01*
X872389Y122579D01*
X872884Y124100D01*
X873610Y125525D01*
X874550Y126819D01*
X875681Y127950D01*
X876975Y128890D01*
X878400Y129616D01*
X879921Y130111D01*
X880301Y130171D01*
X880301Y122199D01*
X872329Y122199D01*
G37*
%LPD*%
%LPC*%
G36*
X909699Y143601D02*
X909699Y143601D01*
X917671Y143601D01*
X917669Y143589D01*
X917611Y143221D01*
X917116Y141700D01*
X916390Y140275D01*
X915450Y138981D01*
X914319Y137850D01*
X913025Y136910D01*
X911600Y136184D01*
X910079Y135689D01*
X909699Y135629D01*
X909699Y143601D01*
G37*
%LPD*%
%LPC*%
G36*
X884299Y321401D02*
X884299Y321401D01*
X892271Y321401D01*
X892211Y321021D01*
X891716Y319500D01*
X890990Y318075D01*
X890050Y316781D01*
X888919Y315650D01*
X887625Y314710D01*
X886200Y313984D01*
X884679Y313489D01*
X884299Y313429D01*
X884299Y321401D01*
G37*
%LPD*%
%LPC*%
G36*
X909699Y448401D02*
X909699Y448401D01*
X917671Y448401D01*
X917611Y448021D01*
X917116Y446500D01*
X916390Y445075D01*
X915450Y443781D01*
X914319Y442650D01*
X913025Y441710D01*
X911600Y440984D01*
X910079Y440489D01*
X909699Y440429D01*
X909699Y448401D01*
G37*
%LPD*%
%LPC*%
G36*
X884299Y626201D02*
X884299Y626201D01*
X892271Y626201D01*
X892211Y625821D01*
X891716Y624300D01*
X890990Y622875D01*
X890050Y621581D01*
X888919Y620450D01*
X887625Y619510D01*
X886200Y618784D01*
X884679Y618289D01*
X884299Y618229D01*
X884299Y626201D01*
G37*
%LPD*%
%LPC*%
G36*
X872329Y630199D02*
X872329Y630199D01*
X872389Y630579D01*
X872884Y632100D01*
X873610Y633525D01*
X874550Y634819D01*
X875681Y635950D01*
X876975Y636890D01*
X878400Y637616D01*
X879921Y638111D01*
X880301Y638171D01*
X880301Y630199D01*
X872329Y630199D01*
G37*
%LPD*%
%LPC*%
G36*
X909699Y753201D02*
X909699Y753201D01*
X917671Y753201D01*
X917611Y752821D01*
X917116Y751300D01*
X916390Y749875D01*
X915450Y748581D01*
X914319Y747450D01*
X913025Y746510D01*
X911600Y745784D01*
X910079Y745289D01*
X909699Y745229D01*
X909699Y753201D01*
G37*
%LPD*%
%LPC*%
G36*
X560029Y269699D02*
X560029Y269699D01*
X560089Y270079D01*
X560584Y271600D01*
X561310Y273025D01*
X562250Y274319D01*
X563381Y275450D01*
X564675Y276390D01*
X566100Y277116D01*
X567621Y277611D01*
X568001Y277671D01*
X568001Y269699D01*
X560029Y269699D01*
G37*
%LPD*%
%LPC*%
G36*
X585429Y269699D02*
X585429Y269699D01*
X585489Y270079D01*
X585984Y271600D01*
X586710Y273025D01*
X587650Y274319D01*
X588781Y275450D01*
X590075Y276390D01*
X591500Y277116D01*
X593021Y277611D01*
X593401Y277671D01*
X593401Y269699D01*
X585429Y269699D01*
G37*
%LPD*%
%LPC*%
G36*
X884299Y727801D02*
X884299Y727801D01*
X892271Y727801D01*
X892211Y727421D01*
X891716Y725900D01*
X890990Y724475D01*
X890050Y723181D01*
X888919Y722050D01*
X887625Y721110D01*
X886200Y720384D01*
X884679Y719889D01*
X884299Y719829D01*
X884299Y727801D01*
G37*
%LPD*%
%LPC*%
G36*
X872329Y731799D02*
X872329Y731799D01*
X872389Y732179D01*
X872884Y733700D01*
X873610Y735125D01*
X874550Y736419D01*
X875681Y737550D01*
X876975Y738490D01*
X878400Y739216D01*
X879921Y739711D01*
X880301Y739771D01*
X880301Y731799D01*
X872329Y731799D01*
G37*
%LPD*%
%LPC*%
G36*
X597399Y265701D02*
X597399Y265701D01*
X605371Y265701D01*
X605311Y265321D01*
X604816Y263800D01*
X604090Y262375D01*
X603150Y261081D01*
X602019Y259950D01*
X600725Y259010D01*
X599300Y258284D01*
X597779Y257789D01*
X597399Y257729D01*
X597399Y265701D01*
G37*
%LPD*%
%LPC*%
G36*
X571999Y265701D02*
X571999Y265701D01*
X579971Y265701D01*
X579911Y265321D01*
X579416Y263800D01*
X578690Y262375D01*
X577750Y261081D01*
X576619Y259950D01*
X575325Y259010D01*
X573900Y258284D01*
X572379Y257789D01*
X571999Y257729D01*
X571999Y265701D01*
G37*
%LPD*%
%LPC*%
G36*
X897729Y249199D02*
X897729Y249199D01*
X897789Y249579D01*
X898284Y251100D01*
X899010Y252525D01*
X899950Y253819D01*
X901081Y254950D01*
X902375Y255890D01*
X903800Y256616D01*
X905321Y257111D01*
X905701Y257171D01*
X905701Y249199D01*
X897729Y249199D01*
G37*
%LPD*%
%LPC*%
G36*
X897729Y757199D02*
X897729Y757199D01*
X897789Y757579D01*
X898284Y759100D01*
X899010Y760525D01*
X899950Y761819D01*
X901081Y762950D01*
X902375Y763890D01*
X903800Y764616D01*
X905321Y765111D01*
X905701Y765171D01*
X905701Y757199D01*
X897729Y757199D01*
G37*
%LPD*%
%LPC*%
G36*
X630699Y823001D02*
X630699Y823001D01*
X638671Y823001D01*
X638611Y822621D01*
X638116Y821100D01*
X637390Y819675D01*
X636450Y818381D01*
X635319Y817250D01*
X634025Y816310D01*
X632600Y815584D01*
X631079Y815089D01*
X630699Y815029D01*
X630699Y823001D01*
G37*
%LPD*%
%LPC*%
G36*
X618729Y826999D02*
X618729Y826999D01*
X618789Y827379D01*
X619284Y828900D01*
X620010Y830325D01*
X620950Y831619D01*
X622081Y832750D01*
X623375Y833690D01*
X624800Y834416D01*
X626321Y834911D01*
X626701Y834971D01*
X626701Y826999D01*
X618729Y826999D01*
G37*
%LPD*%
%LPC*%
G36*
X909699Y245201D02*
X909699Y245201D01*
X917671Y245201D01*
X917611Y244821D01*
X917116Y243300D01*
X916390Y241875D01*
X915450Y240581D01*
X914319Y239450D01*
X913025Y238510D01*
X911600Y237784D01*
X910079Y237289D01*
X909699Y237229D01*
X909699Y245201D01*
G37*
%LPD*%
%LPC*%
G36*
X872329Y325399D02*
X872329Y325399D01*
X872389Y325779D01*
X872884Y327300D01*
X873610Y328725D01*
X874550Y330019D01*
X875681Y331150D01*
X876975Y332090D01*
X878400Y332816D01*
X879921Y333311D01*
X880301Y333371D01*
X880301Y325399D01*
X872329Y325399D01*
G37*
%LPD*%
%LPC*%
G36*
X872329Y223799D02*
X872329Y223799D01*
X872389Y224179D01*
X872884Y225700D01*
X873610Y227125D01*
X874550Y228419D01*
X875681Y229550D01*
X876975Y230490D01*
X878400Y231216D01*
X879921Y231711D01*
X880301Y231771D01*
X880301Y223799D01*
X872329Y223799D01*
G37*
%LPD*%
%LPC*%
G36*
X884299Y219801D02*
X884299Y219801D01*
X892271Y219801D01*
X892211Y219421D01*
X891716Y217900D01*
X890990Y216475D01*
X890050Y215181D01*
X888919Y214050D01*
X887625Y213110D01*
X886200Y212384D01*
X884679Y211889D01*
X884299Y211829D01*
X884299Y219801D01*
G37*
%LPD*%
%LPC*%
G36*
X897729Y452399D02*
X897729Y452399D01*
X897789Y452779D01*
X898284Y454300D01*
X899010Y455725D01*
X899950Y457019D01*
X901081Y458150D01*
X902375Y459090D01*
X903800Y459816D01*
X905321Y460311D01*
X905701Y460371D01*
X905701Y452399D01*
X897729Y452399D01*
G37*
%LPD*%
%LPC*%
G36*
X872329Y426999D02*
X872329Y426999D01*
X872389Y427379D01*
X872884Y428900D01*
X873610Y430325D01*
X874550Y431619D01*
X875681Y432750D01*
X876975Y433690D01*
X878400Y434416D01*
X879921Y434911D01*
X880301Y434971D01*
X880301Y426999D01*
X872329Y426999D01*
G37*
%LPD*%
%LPC*%
G36*
X909699Y651601D02*
X909699Y651601D01*
X917671Y651601D01*
X917611Y651221D01*
X917116Y649700D01*
X916390Y648275D01*
X915450Y646981D01*
X914319Y645850D01*
X913025Y644910D01*
X911600Y644184D01*
X910079Y643689D01*
X909699Y643629D01*
X909699Y651601D01*
G37*
%LPD*%
%LPC*%
G36*
X884299Y423001D02*
X884299Y423001D01*
X892271Y423001D01*
X892211Y422621D01*
X891716Y421100D01*
X890990Y419675D01*
X890050Y418381D01*
X888919Y417250D01*
X887625Y416310D01*
X886200Y415584D01*
X884679Y415089D01*
X884299Y415029D01*
X884299Y423001D01*
G37*
%LPD*%
%LPC*%
G36*
X897729Y147599D02*
X897729Y147599D01*
X897789Y147979D01*
X898284Y149500D01*
X899010Y150925D01*
X899950Y152219D01*
X901081Y153350D01*
X902375Y154290D01*
X903800Y155016D01*
X905321Y155511D01*
X905701Y155571D01*
X905701Y147599D01*
X897729Y147599D01*
G37*
%LPD*%
%LPC*%
G36*
X884299Y118201D02*
X884299Y118201D01*
X892271Y118201D01*
X892211Y117821D01*
X891716Y116300D01*
X890990Y114875D01*
X890050Y113581D01*
X888919Y112450D01*
X887625Y111510D01*
X886200Y110784D01*
X884679Y110289D01*
X884299Y110229D01*
X884299Y118201D01*
G37*
%LPD*%
%LPC*%
G36*
X872329Y528599D02*
X872329Y528599D01*
X872389Y528979D01*
X872884Y530500D01*
X873610Y531925D01*
X874550Y533219D01*
X875681Y534350D01*
X876975Y535290D01*
X878400Y536016D01*
X879921Y536511D01*
X880301Y536571D01*
X880301Y528599D01*
X872329Y528599D01*
G37*
%LPD*%
%LPC*%
G36*
X909699Y550001D02*
X909699Y550001D01*
X917671Y550001D01*
X917611Y549621D01*
X917116Y548100D01*
X916390Y546675D01*
X915450Y545381D01*
X914319Y544250D01*
X913025Y543310D01*
X911600Y542584D01*
X910079Y542089D01*
X909699Y542029D01*
X909699Y550001D01*
G37*
%LPD*%
%LPC*%
G36*
X897729Y553999D02*
X897729Y553999D01*
X897789Y554379D01*
X898284Y555900D01*
X899010Y557325D01*
X899950Y558619D01*
X901081Y559750D01*
X902375Y560690D01*
X903800Y561416D01*
X905321Y561911D01*
X905701Y561971D01*
X905701Y553999D01*
X897729Y553999D01*
G37*
%LPD*%
%LPC*%
G36*
X905321Y135689D02*
X905321Y135689D01*
X903800Y136184D01*
X902375Y136910D01*
X901081Y137850D01*
X899950Y138981D01*
X899010Y140275D01*
X898284Y141700D01*
X897789Y143221D01*
X897729Y143601D01*
X905701Y143601D01*
X905701Y135629D01*
X905321Y135689D01*
G37*
%LPD*%
%LPC*%
G36*
X905321Y237289D02*
X905321Y237289D01*
X903800Y237784D01*
X902375Y238510D01*
X901081Y239450D01*
X899950Y240581D01*
X899010Y241875D01*
X898284Y243300D01*
X897789Y244821D01*
X897729Y245201D01*
X905701Y245201D01*
X905701Y237229D01*
X905321Y237289D01*
G37*
%LPD*%
%LPC*%
G36*
X879921Y516689D02*
X879921Y516689D01*
X878400Y517184D01*
X876975Y517910D01*
X875681Y518850D01*
X874550Y519981D01*
X873610Y521275D01*
X872884Y522700D01*
X872389Y524221D01*
X872329Y524601D01*
X880301Y524601D01*
X880301Y516629D01*
X879921Y516689D01*
G37*
%LPD*%
%LPC*%
G36*
X879921Y415089D02*
X879921Y415089D01*
X878400Y415584D01*
X876975Y416310D01*
X875681Y417250D01*
X874550Y418381D01*
X873610Y419675D01*
X872884Y421100D01*
X872389Y422621D01*
X872329Y423001D01*
X880301Y423001D01*
X880301Y415029D01*
X879921Y415089D01*
G37*
%LPD*%
%LPC*%
G36*
X879921Y211889D02*
X879921Y211889D01*
X878400Y212384D01*
X876975Y213110D01*
X875681Y214050D01*
X874550Y215181D01*
X873610Y216475D01*
X872884Y217900D01*
X872389Y219421D01*
X872329Y219801D01*
X880301Y219801D01*
X880301Y211829D01*
X879921Y211889D01*
G37*
%LPD*%
%LPC*%
G36*
X905321Y542089D02*
X905321Y542089D01*
X903800Y542584D01*
X902375Y543310D01*
X901081Y544250D01*
X899950Y545381D01*
X899010Y546675D01*
X898284Y548100D01*
X897789Y549621D01*
X897729Y550001D01*
X905701Y550001D01*
X905701Y542029D01*
X905321Y542089D01*
G37*
%LPD*%
%LPC*%
G36*
X567621Y257789D02*
X567621Y257789D01*
X566100Y258284D01*
X564675Y259010D01*
X563381Y259950D01*
X562250Y261081D01*
X561310Y262375D01*
X560584Y263800D01*
X560089Y265321D01*
X560029Y265701D01*
X568001Y265701D01*
X568001Y257729D01*
X567621Y257789D01*
G37*
%LPD*%
%LPC*%
G36*
X593021Y257789D02*
X593021Y257789D01*
X591500Y258284D01*
X590075Y259010D01*
X588781Y259950D01*
X587650Y261081D01*
X586710Y262375D01*
X585984Y263800D01*
X585489Y265321D01*
X585429Y265701D01*
X593401Y265701D01*
X593401Y257729D01*
X593021Y257789D01*
G37*
%LPD*%
%LPC*%
G36*
X905321Y745289D02*
X905321Y745289D01*
X903800Y745784D01*
X902375Y746510D01*
X901081Y747450D01*
X899950Y748581D01*
X899010Y749875D01*
X898284Y751300D01*
X897789Y752821D01*
X897729Y753201D01*
X905701Y753201D01*
X905701Y745229D01*
X905321Y745289D01*
G37*
%LPD*%
%LPC*%
G36*
X879921Y719889D02*
X879921Y719889D01*
X878400Y720384D01*
X876975Y721110D01*
X875681Y722050D01*
X874550Y723181D01*
X873610Y724475D01*
X872884Y725900D01*
X872389Y727421D01*
X872329Y727801D01*
X880301Y727801D01*
X880301Y719829D01*
X879921Y719889D01*
G37*
%LPD*%
%LPC*%
G36*
X905321Y643689D02*
X905321Y643689D01*
X903800Y644184D01*
X902375Y644910D01*
X901081Y645850D01*
X899950Y646981D01*
X899010Y648275D01*
X898284Y649700D01*
X897789Y651221D01*
X897729Y651601D01*
X905701Y651601D01*
X905701Y643629D01*
X905321Y643689D01*
G37*
%LPD*%
%LPC*%
G36*
X879921Y110289D02*
X879921Y110289D01*
X878400Y110784D01*
X876975Y111510D01*
X875681Y112450D01*
X874550Y113581D01*
X873610Y114875D01*
X872884Y116300D01*
X872389Y117821D01*
X872329Y118201D01*
X880301Y118201D01*
X880301Y110229D01*
X879921Y110289D01*
G37*
%LPD*%
%LPC*%
G36*
X626321Y815089D02*
X626321Y815089D01*
X624800Y815584D01*
X623375Y816310D01*
X622081Y817250D01*
X620950Y818381D01*
X620010Y819675D01*
X619284Y821100D01*
X618789Y822621D01*
X618729Y823001D01*
X626701Y823001D01*
X626701Y815029D01*
X626321Y815089D01*
G37*
%LPD*%
%LPC*%
G36*
X879921Y618289D02*
X879921Y618289D01*
X878400Y618784D01*
X876975Y619510D01*
X875681Y620450D01*
X874550Y621581D01*
X873610Y622875D01*
X872884Y624300D01*
X872389Y625821D01*
X872329Y626201D01*
X880301Y626201D01*
X880301Y618229D01*
X879921Y618289D01*
G37*
%LPD*%
%LPC*%
G36*
X879921Y313489D02*
X879921Y313489D01*
X878400Y313984D01*
X876975Y314710D01*
X875681Y315650D01*
X874550Y316781D01*
X873610Y318075D01*
X872884Y319500D01*
X872389Y321021D01*
X872329Y321401D01*
X880301Y321401D01*
X880301Y313429D01*
X879921Y313489D01*
G37*
%LPD*%
%LPC*%
G36*
X905321Y338889D02*
X905321Y338889D01*
X903800Y339384D01*
X902375Y340110D01*
X901081Y341050D01*
X899950Y342181D01*
X899010Y343475D01*
X898284Y344900D01*
X897789Y346421D01*
X897729Y346801D01*
X905701Y346801D01*
X905701Y338829D01*
X905321Y338889D01*
G37*
%LPD*%
%LPC*%
G36*
X905321Y440489D02*
X905321Y440489D01*
X903800Y440984D01*
X902375Y441710D01*
X901081Y442650D01*
X899950Y443781D01*
X899010Y445075D01*
X898284Y446500D01*
X897789Y448021D01*
X897729Y448401D01*
X905701Y448401D01*
X905701Y440429D01*
X905321Y440489D01*
G37*
%LPD*%
%LPC*%
G36*
X595399Y267699D02*
X595399Y267699D01*
X595399Y267701D01*
X595401Y267701D01*
X595401Y267699D01*
X595399Y267699D01*
G37*
%LPD*%
%LPC*%
G36*
X907699Y247199D02*
X907699Y247199D01*
X907699Y247201D01*
X907701Y247201D01*
X907701Y247199D01*
X907699Y247199D01*
G37*
%LPD*%
%LPC*%
G36*
X907699Y653599D02*
X907699Y653599D01*
X907699Y653601D01*
X907701Y653601D01*
X907701Y653599D01*
X907699Y653599D01*
G37*
%LPD*%
%LPC*%
G36*
X907699Y755199D02*
X907699Y755199D01*
X907699Y755201D01*
X907701Y755201D01*
X907701Y755199D01*
X907699Y755199D01*
G37*
%LPD*%
%LPC*%
G36*
X882299Y424999D02*
X882299Y424999D01*
X882299Y425001D01*
X882301Y425001D01*
X882301Y424999D01*
X882299Y424999D01*
G37*
%LPD*%
%LPC*%
G36*
X882299Y120199D02*
X882299Y120199D01*
X882299Y120201D01*
X882301Y120201D01*
X882301Y120199D01*
X882299Y120199D01*
G37*
%LPD*%
%LPC*%
G36*
X99999Y284340D02*
X99999Y284340D01*
X99999Y284342D01*
X100001Y284342D01*
X100001Y284340D01*
X99999Y284340D01*
G37*
%LPD*%
%LPC*%
G36*
X882299Y221799D02*
X882299Y221799D01*
X882299Y221801D01*
X882301Y221801D01*
X882301Y221799D01*
X882299Y221799D01*
G37*
%LPD*%
%LPC*%
G36*
X99999Y415658D02*
X99999Y415658D01*
X99999Y415660D01*
X100001Y415660D01*
X100001Y415658D01*
X99999Y415658D01*
G37*
%LPD*%
%LPC*%
G36*
X882299Y628199D02*
X882299Y628199D01*
X882299Y628201D01*
X882301Y628201D01*
X882301Y628199D01*
X882299Y628199D01*
G37*
%LPD*%
%LPC*%
G36*
X882299Y729799D02*
X882299Y729799D01*
X882299Y729801D01*
X882301Y729801D01*
X882301Y729799D01*
X882299Y729799D01*
G37*
%LPD*%
%LPC*%
G36*
X907699Y551999D02*
X907699Y551999D01*
X907699Y552001D01*
X907701Y552001D01*
X907701Y551999D01*
X907699Y551999D01*
G37*
%LPD*%
%LPC*%
G36*
X907699Y348799D02*
X907699Y348799D01*
X907699Y348801D01*
X907701Y348801D01*
X907701Y348799D01*
X907699Y348799D01*
G37*
%LPD*%
%LPC*%
G36*
X569999Y267699D02*
X569999Y267699D01*
X569999Y267701D01*
X570001Y267701D01*
X570001Y267699D01*
X569999Y267699D01*
G37*
%LPD*%
%LPC*%
G36*
X907699Y145599D02*
X907699Y145599D01*
X907699Y145601D01*
X907701Y145601D01*
X907701Y145599D01*
X907699Y145599D01*
G37*
%LPD*%
%LPC*%
G36*
X882299Y323399D02*
X882299Y323399D01*
X882299Y323401D01*
X882301Y323401D01*
X882301Y323399D01*
X882299Y323399D01*
G37*
%LPD*%
%LPC*%
G36*
X907699Y450399D02*
X907699Y450399D01*
X907699Y450401D01*
X907701Y450401D01*
X907701Y450399D01*
X907699Y450399D01*
G37*
%LPD*%
%LPC*%
G36*
X628699Y824999D02*
X628699Y824999D01*
X628699Y825001D01*
X628701Y825001D01*
X628701Y824999D01*
X628699Y824999D01*
G37*
%LPD*%
%LPC*%
G36*
X882299Y526599D02*
X882299Y526599D01*
X882299Y526601D01*
X882301Y526601D01*
X882301Y526599D01*
X882299Y526599D01*
G37*
%LPD*%
D10*
X100000Y284341D03*
X100000Y415659D03*
D11*
X100500Y817550D03*
X100500Y662450D03*
D12*
X133500Y784450D03*
X158900Y771750D03*
X133500Y759050D03*
X158900Y746350D03*
X133500Y733650D03*
X158900Y720950D03*
X158900Y695550D03*
X133500Y708250D03*
D13*
X207200Y797150D03*
X207200Y771750D03*
X207200Y710750D03*
X207200Y685350D03*
D14*
X150000Y144600D03*
X150000Y170000D03*
X150000Y195400D03*
X476300Y825000D03*
X501700Y825000D03*
X527100Y825000D03*
X552500Y825000D03*
X577900Y825000D03*
X603300Y825000D03*
X628700Y825000D03*
X620800Y267700D03*
X620800Y242300D03*
X595400Y267700D03*
X595400Y242300D03*
X570000Y267700D03*
X570000Y242300D03*
X544600Y267700D03*
X544600Y242300D03*
X519200Y267700D03*
X519200Y242300D03*
X882300Y806000D03*
X907700Y806000D03*
X882300Y780600D03*
X907700Y780600D03*
X882300Y755200D03*
X907700Y755200D03*
X882300Y729800D03*
X907700Y729800D03*
X882300Y704400D03*
X907700Y704400D03*
X882300Y679000D03*
X907700Y679000D03*
X882300Y653600D03*
X907700Y653600D03*
X882300Y628200D03*
X907700Y628200D03*
X882300Y602800D03*
X907700Y602800D03*
X882300Y577400D03*
X907700Y577400D03*
X882300Y552000D03*
X907700Y552000D03*
X882300Y526600D03*
X907700Y526600D03*
X882300Y501200D03*
X907700Y501200D03*
X882300Y475800D03*
X907700Y475800D03*
X882300Y450400D03*
X907700Y450400D03*
X882300Y425000D03*
X907700Y425000D03*
X882300Y399600D03*
X907700Y399600D03*
X882300Y374200D03*
X907700Y374200D03*
X882300Y348800D03*
X907700Y348800D03*
X882300Y323400D03*
X907700Y323400D03*
X882300Y298000D03*
X907700Y298000D03*
X882300Y272600D03*
X907700Y272600D03*
X882300Y247200D03*
X907700Y247200D03*
X882300Y221800D03*
X907700Y221800D03*
X882300Y196400D03*
X907700Y196400D03*
X882300Y171000D03*
X907700Y171000D03*
X882300Y145600D03*
X907700Y145600D03*
X882300Y120200D03*
X907700Y120200D03*
X882300Y94800D03*
X907700Y94800D03*
X882300Y69400D03*
X907700Y69400D03*
D15*
X437500Y550000D03*
X410000Y605000D03*
X455000Y545000D03*
X440000Y605000D03*
X400000Y735000D03*
X350000Y490000D03*
X282500Y780000D03*
X295000Y572500D03*
X355000Y780000D03*
X325000Y465000D03*
X630000Y580000D03*
X585000Y660000D03*
X495000Y690000D03*
X615000Y580000D03*
X495000Y675000D03*
X600000Y580000D03*
D16*
X245000Y545000D03*
X215000Y545000D03*
D15*
X142500Y590000D03*
D16*
X235000Y595000D03*
X260000Y530000D03*
X215000Y500000D03*
X245000Y515000D03*
X215000Y530000D03*
D15*
X600000Y670000D03*
D16*
X167500Y332500D03*
X280000Y822500D03*
X330000Y820000D03*
X400000Y700000D03*
X240000Y670000D03*
X255000Y647500D03*
X180000Y422500D03*
D17*
X302500Y732500D03*
D16*
X562500Y767500D03*
X620000Y305000D03*
X695000Y420000D03*
X697500Y525000D03*
X340000Y452500D03*
X382500Y562500D03*
X412500Y330000D03*
X260000Y130000D03*
X190000Y130000D03*
X177500Y227500D03*
X177500Y215000D03*
X165000Y227500D03*
X110000Y37500D03*
X110000Y10000D03*
X102500Y72500D03*
X40000Y27500D03*
X30000Y40000D03*
X40000Y155000D03*
X30000Y165000D03*
X275000Y40000D03*
X320000Y40000D03*
X360000Y40000D03*
X400000Y40000D03*
X182500Y72500D03*
X197500Y57500D03*
X477500Y137500D03*
X535000Y137500D03*
X607500Y140000D03*
X167500Y275000D03*
X210000Y405000D03*
X500000Y632500D03*
X497500Y660000D03*
X564700Y689600D03*
X574900Y620000D03*
X422100Y490300D03*
X312500Y792500D03*
X325000Y792500D03*
X340000Y792500D03*
X355000Y792500D03*
X370000Y780000D03*
X370000Y792500D03*
X252500Y798750D03*
X295000Y792500D03*
X340000Y722500D03*
X370000Y695000D03*
X347500Y660000D03*
X307500Y563750D03*
X335000Y562500D03*
X355000Y332500D03*
X315000Y332500D03*
X275000Y332500D03*
X245000Y332500D03*
X335000Y352500D03*
X295000Y352500D03*
X230000Y485000D03*
X215000Y485000D03*
X215000Y515000D03*
X245000Y530000D03*
X260000Y545000D03*
X245000Y560000D03*
X215000Y560000D03*
X235000Y610000D03*
X250000Y595000D03*
X142500Y577500D03*
X40000Y567500D03*
X70000Y567500D03*
X100000Y567500D03*
X130000Y567500D03*
X565000Y655000D03*
X645000Y580000D03*
X630000Y565000D03*
X587500Y620000D03*
X572500Y315000D03*
X85000Y475000D03*
X15000Y472500D03*
X15000Y617500D03*
X90000Y617500D03*
X397500Y455000D03*
X467100Y470300D03*
X465000Y530000D03*
X585000Y520000D03*
X475000Y642500D03*
X575000Y510000D03*
X525000Y520000D03*
X385000Y292500D03*
X95000Y545000D03*
X127500Y545000D03*
X60000Y527500D03*
X50000Y587500D03*
X425000Y605000D03*
X455000Y605000D03*
X437500Y535000D03*
X150000Y327500D03*
X85000Y337500D03*
X97500Y330000D03*
X107500Y337500D03*
X107500Y362500D03*
X97500Y370000D03*
X85000Y362500D03*
X150000Y372500D03*
X40000Y495000D03*
X40000Y545000D03*
D18*
X280000Y170000D03*
X310000Y200000D03*
X280000Y230000D03*
X340000Y230000D03*
X370000Y260000D03*
X340000Y290000D03*
X280000Y290000D03*
X310000Y260000D03*
X250000Y260000D03*
D16*
X360000Y830000D03*
X400000Y720000D03*
X252500Y757500D03*
X242500Y647500D03*
X160000Y422500D03*
X587500Y767500D03*
X572500Y300000D03*
X712500Y420000D03*
X685000Y525000D03*
X340000Y465000D03*
X377500Y525000D03*
X432500Y330000D03*
X310000Y110000D03*
X457500Y137500D03*
X552500Y137500D03*
X652500Y137500D03*
X507500Y217500D03*
X572500Y217500D03*
X637500Y205000D03*
X180000Y490000D03*
X180000Y515000D03*
X180000Y540000D03*
X180000Y565000D03*
X180000Y590000D03*
X180000Y615000D03*
X520000Y632500D03*
X575000Y580000D03*
X177500Y202500D03*
D19*
X447500Y682500D03*
D15*
X225000Y810000D03*
X297500Y780000D03*
D17*
X150150Y359898D03*
X150150Y340102D03*
D16*
X250000Y376898D03*
D15*
X60000Y240000D03*
D16*
X105000Y240000D03*
D15*
X155000Y40000D03*
X316468Y572500D03*
X311778Y780130D03*
X328533Y572500D03*
X326032Y779999D03*
X340000Y780000D03*
X347500Y572500D03*
X328968Y672500D03*
X341033Y702500D03*
X341033Y672500D03*
X328968Y702500D03*
X71033Y15000D03*
X90000Y78968D03*
X58968Y15000D03*
X90000Y91033D03*
X465000Y280000D03*
X465000Y260000D03*
D17*
X505000Y520000D03*
X495000Y510000D03*
X485000Y520000D03*
X515000Y510000D03*
X535000Y510000D03*
X545000Y520000D03*
X555000Y510000D03*
X565000Y520000D03*
D16*
X585000Y417500D03*
X575000Y425000D03*
X565000Y417500D03*
X555000Y425000D03*
X545000Y417500D03*
X535000Y425000D03*
X672500Y375000D03*
X652500Y375000D03*
X662500Y365000D03*
X642500Y365000D03*
X632500Y375000D03*
X525000Y417500D03*
X515000Y425000D03*
X505000Y417500D03*
X495000Y425000D03*
X470000Y455000D03*
X792500Y537500D03*
X495000Y470000D03*
X775000Y537500D03*
X505000Y480000D03*
X757500Y537500D03*
X495000Y490000D03*
X740000Y537500D03*
X505000Y500000D03*
X722500Y537500D03*
D17*
X97500Y354993D03*
X97500Y345008D03*
M02*
