G04 EAGLE Gerber RS-274X export*
G75*
%MOMM*%
%FSLAX34Y34*%
%LPD*%
%INCopper Layer 15*%
%IPPOS*%
%AMOC8*
5,1,8,0,0,1.08239X$1,22.5*%
G01*
%ADD10C,3.327400*%
%ADD11C,2.355000*%
%ADD12C,1.408000*%
%ADD13C,1.508000*%
%ADD14C,1.524000*%
%ADD15C,1.016000*%
%ADD16C,0.908000*%
%ADD17C,0.808000*%
%ADD18C,1.108000*%
%ADD19C,0.858000*%
%ADD20C,0.800000*%
%ADD21C,0.600000*%

G36*
X106227Y2553D02*
X106227Y2553D01*
X106314Y2556D01*
X106366Y2573D01*
X106420Y2581D01*
X106499Y2616D01*
X106582Y2643D01*
X106627Y2674D01*
X106677Y2697D01*
X106743Y2753D01*
X106815Y2802D01*
X106850Y2845D01*
X106892Y2880D01*
X106939Y2953D01*
X106994Y3020D01*
X107016Y3070D01*
X107046Y3116D01*
X107072Y3199D01*
X107106Y3279D01*
X107112Y3333D01*
X107129Y3386D01*
X107130Y3473D01*
X107140Y3559D01*
X107132Y3613D01*
X107132Y3668D01*
X107109Y3752D01*
X107095Y3837D01*
X107072Y3887D01*
X107057Y3940D01*
X107011Y4014D01*
X106974Y4092D01*
X106938Y4133D01*
X106909Y4180D01*
X106845Y4238D01*
X106787Y4303D01*
X106743Y4329D01*
X106700Y4369D01*
X106597Y4418D01*
X106524Y4463D01*
X106349Y4536D01*
X104536Y6349D01*
X103554Y8718D01*
X103554Y11282D01*
X104536Y13651D01*
X106349Y15464D01*
X108718Y16446D01*
X111282Y16446D01*
X113651Y15464D01*
X115464Y13651D01*
X116446Y11282D01*
X116446Y8718D01*
X115464Y6349D01*
X113651Y4536D01*
X113476Y4463D01*
X113402Y4419D01*
X113323Y4383D01*
X113281Y4348D01*
X113234Y4320D01*
X113174Y4256D01*
X113108Y4200D01*
X113078Y4154D01*
X113041Y4114D01*
X113001Y4037D01*
X112954Y3964D01*
X112938Y3911D01*
X112913Y3862D01*
X112897Y3777D01*
X112871Y3694D01*
X112871Y3639D01*
X112861Y3585D01*
X112869Y3499D01*
X112868Y3412D01*
X112882Y3359D01*
X112888Y3305D01*
X112920Y3224D01*
X112943Y3140D01*
X112972Y3094D01*
X112992Y3043D01*
X113045Y2974D01*
X113091Y2900D01*
X113132Y2864D01*
X113166Y2820D01*
X113236Y2770D01*
X113300Y2711D01*
X113350Y2687D01*
X113394Y2655D01*
X113476Y2626D01*
X113554Y2588D01*
X113605Y2580D01*
X113660Y2561D01*
X113774Y2554D01*
X113859Y2541D01*
X996460Y2541D01*
X996524Y2550D01*
X996588Y2549D01*
X996663Y2570D01*
X996739Y2581D01*
X996798Y2607D01*
X996860Y2624D01*
X996926Y2665D01*
X996996Y2697D01*
X997045Y2739D01*
X997100Y2772D01*
X997152Y2830D01*
X997210Y2880D01*
X997246Y2934D01*
X997289Y2982D01*
X997322Y3051D01*
X997365Y3116D01*
X997384Y3178D01*
X997412Y3235D01*
X997423Y3305D01*
X997447Y3386D01*
X997448Y3471D01*
X997459Y3540D01*
X997459Y846460D01*
X997450Y846524D01*
X997451Y846588D01*
X997430Y846663D01*
X997419Y846739D01*
X997393Y846798D01*
X997376Y846860D01*
X997335Y846926D01*
X997303Y846996D01*
X997261Y847045D01*
X997228Y847100D01*
X997170Y847152D01*
X997120Y847210D01*
X997066Y847246D01*
X997018Y847289D01*
X996949Y847322D01*
X996884Y847365D01*
X996822Y847384D01*
X996765Y847412D01*
X996695Y847423D01*
X996614Y847447D01*
X996529Y847448D01*
X996460Y847459D01*
X3540Y847459D01*
X3476Y847450D01*
X3412Y847451D01*
X3337Y847430D01*
X3261Y847419D01*
X3202Y847393D01*
X3140Y847376D01*
X3074Y847335D01*
X3004Y847303D01*
X2955Y847261D01*
X2900Y847228D01*
X2848Y847170D01*
X2790Y847120D01*
X2754Y847066D01*
X2711Y847018D01*
X2678Y846949D01*
X2635Y846884D01*
X2616Y846822D01*
X2588Y846765D01*
X2577Y846695D01*
X2553Y846614D01*
X2552Y846529D01*
X2541Y846460D01*
X2541Y3540D01*
X2550Y3476D01*
X2549Y3412D01*
X2570Y3337D01*
X2581Y3261D01*
X2607Y3202D01*
X2624Y3140D01*
X2665Y3074D01*
X2697Y3004D01*
X2739Y2955D01*
X2772Y2900D01*
X2830Y2848D01*
X2880Y2790D01*
X2934Y2754D01*
X2982Y2711D01*
X3051Y2678D01*
X3116Y2635D01*
X3178Y2616D01*
X3235Y2588D01*
X3305Y2577D01*
X3386Y2553D01*
X3471Y2552D01*
X3540Y2541D01*
X106141Y2541D01*
X106227Y2553D01*
G37*
%LPC*%
G36*
X255468Y10094D02*
X255468Y10094D01*
X240094Y25468D01*
X240094Y145054D01*
X240081Y145149D01*
X240076Y145245D01*
X240061Y145288D01*
X240054Y145333D01*
X240015Y145421D01*
X239983Y145512D01*
X239958Y145546D01*
X239938Y145590D01*
X239855Y145688D01*
X239802Y145761D01*
X225761Y159802D01*
X225684Y159859D01*
X225612Y159924D01*
X225571Y159944D01*
X225535Y159971D01*
X225445Y160005D01*
X225359Y160047D01*
X225317Y160053D01*
X225271Y160070D01*
X225144Y160080D01*
X225054Y160094D01*
X203788Y160094D01*
X203746Y160088D01*
X203705Y160091D01*
X203621Y160071D01*
X203508Y160054D01*
X203455Y160030D01*
X203405Y160018D01*
X201175Y159094D01*
X198825Y159094D01*
X196655Y159993D01*
X194993Y161655D01*
X194238Y163477D01*
X194234Y163486D01*
X194231Y163495D01*
X194162Y163607D01*
X194095Y163720D01*
X194088Y163727D01*
X194083Y163735D01*
X193985Y163823D01*
X193889Y163913D01*
X193881Y163917D01*
X193874Y163924D01*
X193755Y163981D01*
X193638Y164041D01*
X193628Y164043D01*
X193620Y164047D01*
X193544Y164059D01*
X193360Y164093D01*
X193337Y164091D01*
X193315Y164094D01*
X157980Y164094D01*
X157884Y164081D01*
X157788Y164076D01*
X157745Y164061D01*
X157700Y164054D01*
X157613Y164015D01*
X157522Y163983D01*
X157488Y163958D01*
X157443Y163938D01*
X157346Y163855D01*
X157273Y163802D01*
X155396Y161924D01*
X151895Y160474D01*
X148105Y160474D01*
X144604Y161925D01*
X141925Y164604D01*
X140474Y168105D01*
X140474Y171895D01*
X141925Y175396D01*
X144604Y178075D01*
X148105Y179526D01*
X151895Y179526D01*
X155396Y178076D01*
X157273Y176198D01*
X157350Y176141D01*
X157421Y176076D01*
X157462Y176056D01*
X157499Y176029D01*
X157588Y175995D01*
X157675Y175953D01*
X157717Y175947D01*
X157762Y175930D01*
X157890Y175920D01*
X157980Y175906D01*
X193095Y175906D01*
X193159Y175915D01*
X193223Y175914D01*
X193298Y175935D01*
X193374Y175946D01*
X193433Y175972D01*
X193495Y175989D01*
X193561Y176030D01*
X193631Y176062D01*
X193680Y176104D01*
X193735Y176137D01*
X193787Y176195D01*
X193845Y176245D01*
X193881Y176299D01*
X193924Y176347D01*
X193957Y176416D01*
X194000Y176481D01*
X194019Y176543D01*
X194047Y176600D01*
X194058Y176670D01*
X194082Y176751D01*
X194083Y176836D01*
X194094Y176905D01*
X194094Y328073D01*
X194993Y330243D01*
X196795Y332045D01*
X243855Y379105D01*
X243880Y379138D01*
X243911Y379166D01*
X243956Y379240D01*
X244024Y379331D01*
X244045Y379386D01*
X244072Y379429D01*
X244536Y380549D01*
X246349Y382362D01*
X248718Y383344D01*
X251282Y383344D01*
X253651Y382362D01*
X255464Y380549D01*
X256446Y378180D01*
X256446Y375616D01*
X255464Y373247D01*
X253651Y371434D01*
X252531Y370970D01*
X252495Y370948D01*
X252456Y370935D01*
X252386Y370884D01*
X252288Y370826D01*
X252248Y370783D01*
X252207Y370753D01*
X206198Y324744D01*
X206141Y324668D01*
X206076Y324596D01*
X206056Y324555D01*
X206029Y324519D01*
X205995Y324429D01*
X205953Y324342D01*
X205947Y324300D01*
X205930Y324255D01*
X205920Y324127D01*
X205906Y324038D01*
X205906Y170905D01*
X205915Y170841D01*
X205914Y170777D01*
X205935Y170702D01*
X205946Y170626D01*
X205972Y170567D01*
X205989Y170505D01*
X206030Y170439D01*
X206062Y170369D01*
X206104Y170320D01*
X206137Y170265D01*
X206195Y170213D01*
X206245Y170155D01*
X206299Y170119D01*
X206347Y170076D01*
X206416Y170043D01*
X206481Y170000D01*
X206543Y169981D01*
X206600Y169953D01*
X206670Y169942D01*
X206751Y169918D01*
X206836Y169917D01*
X206905Y169906D01*
X229532Y169906D01*
X249906Y149532D01*
X249906Y29946D01*
X249919Y29851D01*
X249924Y29755D01*
X249939Y29712D01*
X249946Y29667D01*
X249985Y29579D01*
X250017Y29488D01*
X250042Y29454D01*
X250062Y29410D01*
X250145Y29312D01*
X250198Y29239D01*
X259239Y20198D01*
X259316Y20141D01*
X259388Y20076D01*
X259429Y20056D01*
X259465Y20029D01*
X259555Y19995D01*
X259641Y19953D01*
X259683Y19947D01*
X259729Y19930D01*
X259856Y19920D01*
X259946Y19906D01*
X862354Y19906D01*
X862449Y19919D01*
X862545Y19924D01*
X862588Y19939D01*
X862633Y19946D01*
X862721Y19985D01*
X862812Y20017D01*
X862846Y20042D01*
X862890Y20062D01*
X862988Y20145D01*
X863061Y20198D01*
X902502Y59639D01*
X902559Y59716D01*
X902624Y59788D01*
X902644Y59829D01*
X902671Y59865D01*
X902705Y59955D01*
X902747Y60041D01*
X902753Y60083D01*
X902770Y60129D01*
X902780Y60256D01*
X902794Y60346D01*
X902794Y60454D01*
X902793Y60463D01*
X902794Y60473D01*
X902773Y60603D01*
X902754Y60733D01*
X902750Y60742D01*
X902749Y60751D01*
X902692Y60870D01*
X902638Y60990D01*
X902632Y60997D01*
X902628Y61006D01*
X902540Y61104D01*
X902455Y61204D01*
X902447Y61210D01*
X902440Y61217D01*
X902374Y61257D01*
X902366Y61262D01*
X899625Y64004D01*
X898174Y67505D01*
X898174Y71295D01*
X899625Y74796D01*
X902304Y77475D01*
X905805Y78926D01*
X909595Y78926D01*
X913096Y77475D01*
X915775Y74796D01*
X917226Y71295D01*
X917226Y67505D01*
X915775Y64004D01*
X913041Y61270D01*
X912980Y61234D01*
X912973Y61227D01*
X912965Y61221D01*
X912877Y61124D01*
X912787Y61028D01*
X912783Y61019D01*
X912776Y61012D01*
X912719Y60893D01*
X912659Y60777D01*
X912658Y60767D01*
X912653Y60758D01*
X912641Y60682D01*
X912607Y60499D01*
X912609Y60475D01*
X912606Y60454D01*
X912606Y55868D01*
X866832Y10094D01*
X255468Y10094D01*
G37*
%LPD*%
%LPC*%
G36*
X756374Y772459D02*
X756374Y772459D01*
X749370Y774336D01*
X743090Y777962D01*
X737962Y783090D01*
X734336Y789370D01*
X732459Y796374D01*
X732459Y803626D01*
X734336Y810630D01*
X737962Y816910D01*
X743090Y822038D01*
X749370Y825664D01*
X756374Y827541D01*
X763626Y827541D01*
X770630Y825664D01*
X776910Y822038D01*
X782038Y816910D01*
X785664Y810630D01*
X787541Y803626D01*
X787541Y796374D01*
X785664Y789370D01*
X782038Y783090D01*
X776910Y777962D01*
X770630Y774336D01*
X763626Y772459D01*
X756374Y772459D01*
G37*
%LPD*%
%LPC*%
G36*
X756374Y22459D02*
X756374Y22459D01*
X749370Y24336D01*
X743090Y27962D01*
X737962Y33090D01*
X734336Y39370D01*
X732459Y46374D01*
X732459Y53626D01*
X734336Y60630D01*
X737962Y66910D01*
X743090Y72038D01*
X749370Y75664D01*
X756374Y77541D01*
X763626Y77541D01*
X770630Y75664D01*
X776910Y72038D01*
X782038Y66910D01*
X785664Y60630D01*
X787541Y53626D01*
X787541Y46374D01*
X785664Y39370D01*
X782038Y33090D01*
X776910Y27962D01*
X770630Y24336D01*
X763626Y22459D01*
X756374Y22459D01*
G37*
%LPD*%
%LPC*%
G36*
X324643Y773013D02*
X324643Y773013D01*
X322075Y774077D01*
X320110Y776042D01*
X319801Y776787D01*
X319785Y776815D01*
X319775Y776846D01*
X319713Y776936D01*
X319658Y777030D01*
X319634Y777052D01*
X319616Y777079D01*
X319532Y777148D01*
X319452Y777223D01*
X319423Y777238D01*
X319398Y777258D01*
X319298Y777301D01*
X319201Y777351D01*
X319169Y777357D01*
X319139Y777370D01*
X319031Y777383D01*
X318923Y777403D01*
X318891Y777400D01*
X318859Y777404D01*
X318752Y777387D01*
X318643Y777376D01*
X318613Y777364D01*
X318581Y777359D01*
X318482Y777312D01*
X318381Y777272D01*
X318355Y777252D01*
X318326Y777238D01*
X318245Y777166D01*
X318158Y777098D01*
X318140Y777072D01*
X318115Y777051D01*
X318068Y776973D01*
X317993Y776870D01*
X317977Y776824D01*
X317955Y776788D01*
X317700Y776173D01*
X315735Y774208D01*
X313168Y773144D01*
X310389Y773144D01*
X307821Y774208D01*
X305856Y776173D01*
X305589Y776817D01*
X305573Y776844D01*
X305563Y776875D01*
X305501Y776965D01*
X305446Y777059D01*
X305422Y777081D01*
X305404Y777108D01*
X305320Y777177D01*
X305240Y777252D01*
X305211Y777267D01*
X305186Y777287D01*
X305086Y777331D01*
X304988Y777380D01*
X304957Y777386D01*
X304927Y777399D01*
X304819Y777412D01*
X304711Y777432D01*
X304679Y777429D01*
X304647Y777433D01*
X304539Y777416D01*
X304431Y777405D01*
X304401Y777393D01*
X304369Y777388D01*
X304270Y777341D01*
X304169Y777301D01*
X304143Y777281D01*
X304114Y777267D01*
X304032Y777195D01*
X303946Y777127D01*
X303927Y777101D01*
X303903Y777080D01*
X303856Y777003D01*
X303781Y776899D01*
X303765Y776853D01*
X303743Y776817D01*
X303422Y776043D01*
X301457Y774078D01*
X298890Y773014D01*
X296110Y773014D01*
X293543Y774078D01*
X291578Y776043D01*
X290923Y777623D01*
X290907Y777651D01*
X290897Y777682D01*
X290835Y777772D01*
X290780Y777866D01*
X290756Y777888D01*
X290738Y777915D01*
X290654Y777984D01*
X290574Y778059D01*
X290545Y778073D01*
X290520Y778094D01*
X290420Y778137D01*
X290322Y778187D01*
X290291Y778193D01*
X290261Y778205D01*
X290153Y778219D01*
X290045Y778239D01*
X290013Y778236D01*
X289981Y778240D01*
X289873Y778222D01*
X289765Y778212D01*
X289735Y778200D01*
X289703Y778195D01*
X289604Y778148D01*
X289503Y778108D01*
X289477Y778088D01*
X289448Y778074D01*
X289366Y778001D01*
X289280Y777934D01*
X289261Y777908D01*
X289237Y777886D01*
X289190Y777809D01*
X289115Y777705D01*
X289099Y777660D01*
X289077Y777623D01*
X288422Y776043D01*
X286457Y774078D01*
X283890Y773014D01*
X281110Y773014D01*
X278543Y774078D01*
X276578Y776043D01*
X275514Y778610D01*
X275514Y781390D01*
X276578Y783957D01*
X278543Y785922D01*
X281110Y786986D01*
X283890Y786986D01*
X286457Y785922D01*
X288422Y783957D01*
X289077Y782377D01*
X289093Y782349D01*
X289103Y782318D01*
X289165Y782228D01*
X289220Y782134D01*
X289244Y782112D01*
X289262Y782085D01*
X289347Y782016D01*
X289426Y781941D01*
X289455Y781927D01*
X289480Y781906D01*
X289580Y781863D01*
X289678Y781813D01*
X289709Y781807D01*
X289739Y781795D01*
X289847Y781781D01*
X289955Y781761D01*
X289987Y781764D01*
X290019Y781760D01*
X290127Y781778D01*
X290235Y781788D01*
X290265Y781800D01*
X290297Y781805D01*
X290396Y781852D01*
X290497Y781893D01*
X290523Y781912D01*
X290552Y781926D01*
X290634Y781999D01*
X290720Y782066D01*
X290739Y782092D01*
X290763Y782114D01*
X290810Y782191D01*
X290885Y782295D01*
X290901Y782340D01*
X290923Y782377D01*
X291578Y783957D01*
X292630Y785009D01*
X292701Y785104D01*
X292777Y785196D01*
X292786Y785217D01*
X292799Y785235D01*
X292841Y785346D01*
X292888Y785455D01*
X292891Y785477D01*
X292899Y785499D01*
X292908Y785617D01*
X292923Y785735D01*
X292919Y785757D01*
X292921Y785780D01*
X292896Y785896D01*
X292878Y786013D01*
X292868Y786034D01*
X292863Y786056D01*
X292807Y786161D01*
X292756Y786268D01*
X292741Y786285D01*
X292731Y786305D01*
X292648Y786390D01*
X292569Y786479D01*
X292551Y786490D01*
X292534Y786507D01*
X292372Y786599D01*
X292306Y786639D01*
X291349Y787036D01*
X289536Y788849D01*
X288554Y791218D01*
X288554Y793782D01*
X289536Y796151D01*
X291349Y797964D01*
X293718Y798946D01*
X296282Y798946D01*
X298651Y797964D01*
X300464Y796151D01*
X301446Y793782D01*
X301446Y791218D01*
X300464Y788849D01*
X299743Y788128D01*
X299672Y788033D01*
X299597Y787941D01*
X299588Y787920D01*
X299574Y787902D01*
X299532Y787791D01*
X299485Y787682D01*
X299483Y787660D01*
X299474Y787638D01*
X299465Y787520D01*
X299451Y787402D01*
X299454Y787380D01*
X299453Y787357D01*
X299477Y787241D01*
X299496Y787124D01*
X299506Y787103D01*
X299510Y787081D01*
X299566Y786976D01*
X299617Y786869D01*
X299632Y786852D01*
X299643Y786832D01*
X299725Y786747D01*
X299804Y786658D01*
X299823Y786647D01*
X299839Y786630D01*
X300002Y786538D01*
X300067Y786498D01*
X301457Y785922D01*
X303422Y783957D01*
X303689Y783313D01*
X303705Y783285D01*
X303715Y783255D01*
X303777Y783164D01*
X303833Y783070D01*
X303856Y783048D01*
X303874Y783022D01*
X303958Y782952D01*
X304038Y782878D01*
X304067Y782863D01*
X304092Y782842D01*
X304192Y782799D01*
X304290Y782750D01*
X304321Y782744D01*
X304351Y782731D01*
X304459Y782718D01*
X304567Y782697D01*
X304599Y782700D01*
X304631Y782696D01*
X304739Y782714D01*
X304848Y782724D01*
X304878Y782736D01*
X304909Y782742D01*
X305008Y782788D01*
X305110Y782829D01*
X305135Y782849D01*
X305164Y782863D01*
X305246Y782935D01*
X305332Y783002D01*
X305351Y783029D01*
X305375Y783050D01*
X305422Y783127D01*
X305497Y783231D01*
X305513Y783277D01*
X305535Y783313D01*
X305856Y784087D01*
X307821Y786052D01*
X307862Y786069D01*
X307964Y786129D01*
X308068Y786185D01*
X308085Y786201D01*
X308104Y786212D01*
X308186Y786299D01*
X308270Y786382D01*
X308282Y786402D01*
X308297Y786418D01*
X308351Y786524D01*
X308409Y786627D01*
X308415Y786649D01*
X308425Y786670D01*
X308447Y786786D01*
X308474Y786902D01*
X308473Y786924D01*
X308477Y786947D01*
X308466Y787065D01*
X308460Y787183D01*
X308452Y787205D01*
X308450Y787227D01*
X308406Y787338D01*
X308367Y787450D01*
X308355Y787467D01*
X308346Y787489D01*
X308231Y787636D01*
X308186Y787699D01*
X307036Y788849D01*
X306054Y791218D01*
X306054Y793782D01*
X307036Y796151D01*
X308849Y797964D01*
X311218Y798946D01*
X313782Y798946D01*
X316151Y797964D01*
X318043Y796072D01*
X318095Y796034D01*
X318140Y795988D01*
X318207Y795949D01*
X318269Y795903D01*
X318329Y795880D01*
X318385Y795849D01*
X318460Y795831D01*
X318533Y795803D01*
X318597Y795798D01*
X318659Y795784D01*
X318737Y795788D01*
X318814Y795782D01*
X318877Y795795D01*
X318941Y795798D01*
X319014Y795823D01*
X319090Y795839D01*
X319147Y795869D01*
X319208Y795890D01*
X319264Y795932D01*
X319339Y795972D01*
X319400Y796031D01*
X319457Y796072D01*
X321349Y797964D01*
X323718Y798946D01*
X326282Y798946D01*
X328651Y797964D01*
X330464Y796151D01*
X331446Y793782D01*
X331446Y791218D01*
X330464Y788849D01*
X329313Y787697D01*
X329241Y787602D01*
X329166Y787511D01*
X329157Y787490D01*
X329143Y787471D01*
X329102Y787361D01*
X329055Y787251D01*
X329052Y787229D01*
X329044Y787207D01*
X329035Y787089D01*
X329020Y786972D01*
X329024Y786949D01*
X329022Y786926D01*
X329046Y786810D01*
X329065Y786693D01*
X329075Y786673D01*
X329080Y786650D01*
X329135Y786545D01*
X329186Y786438D01*
X329201Y786421D01*
X329212Y786401D01*
X329295Y786316D01*
X329374Y786228D01*
X329392Y786216D01*
X329409Y786199D01*
X329571Y786107D01*
X329637Y786067D01*
X329990Y785921D01*
X331955Y783956D01*
X332093Y783623D01*
X332109Y783595D01*
X332119Y783564D01*
X332181Y783474D01*
X332236Y783380D01*
X332260Y783358D01*
X332278Y783331D01*
X332362Y783262D01*
X332442Y783187D01*
X332471Y783172D01*
X332496Y783152D01*
X332596Y783109D01*
X332694Y783059D01*
X332725Y783053D01*
X332755Y783040D01*
X332863Y783027D01*
X332971Y783007D01*
X333003Y783010D01*
X333035Y783006D01*
X333143Y783023D01*
X333251Y783034D01*
X333281Y783046D01*
X333313Y783051D01*
X333412Y783098D01*
X333513Y783138D01*
X333539Y783158D01*
X333568Y783172D01*
X333650Y783245D01*
X333736Y783312D01*
X333755Y783338D01*
X333779Y783359D01*
X333826Y783437D01*
X333901Y783540D01*
X333917Y783586D01*
X333939Y783623D01*
X334078Y783957D01*
X336046Y785925D01*
X336084Y785977D01*
X336131Y786022D01*
X336169Y786089D01*
X336215Y786151D01*
X336238Y786211D01*
X336270Y786267D01*
X336287Y786342D01*
X336315Y786415D01*
X336320Y786479D01*
X336335Y786541D01*
X336331Y786619D01*
X336337Y786696D01*
X336323Y786759D01*
X336320Y786823D01*
X336295Y786896D01*
X336279Y786972D01*
X336249Y787029D01*
X336228Y787089D01*
X336186Y787146D01*
X336146Y787221D01*
X336087Y787282D01*
X336046Y787338D01*
X334536Y788849D01*
X333554Y791218D01*
X333554Y793782D01*
X334536Y796151D01*
X336349Y797964D01*
X338718Y798946D01*
X341282Y798946D01*
X343651Y797964D01*
X345464Y796151D01*
X346446Y793782D01*
X346446Y791218D01*
X345464Y788849D01*
X343954Y787338D01*
X343916Y787287D01*
X343869Y787242D01*
X343831Y787175D01*
X343785Y787113D01*
X343762Y787053D01*
X343730Y786997D01*
X343713Y786921D01*
X343685Y786849D01*
X343680Y786785D01*
X343665Y786722D01*
X343669Y786645D01*
X343663Y786568D01*
X343677Y786505D01*
X343680Y786441D01*
X343705Y786368D01*
X343721Y786292D01*
X343751Y786235D01*
X343772Y786174D01*
X343814Y786118D01*
X343854Y786043D01*
X343913Y785982D01*
X343954Y785925D01*
X345922Y783957D01*
X346577Y782377D01*
X346593Y782349D01*
X346603Y782318D01*
X346665Y782228D01*
X346720Y782134D01*
X346744Y782112D01*
X346762Y782085D01*
X346847Y782016D01*
X346926Y781941D01*
X346955Y781927D01*
X346980Y781906D01*
X347080Y781863D01*
X347178Y781813D01*
X347209Y781807D01*
X347239Y781795D01*
X347347Y781781D01*
X347455Y781761D01*
X347487Y781764D01*
X347519Y781760D01*
X347627Y781778D01*
X347735Y781788D01*
X347765Y781800D01*
X347797Y781805D01*
X347896Y781852D01*
X347997Y781893D01*
X348023Y781912D01*
X348052Y781926D01*
X348134Y781999D01*
X348220Y782066D01*
X348239Y782092D01*
X348263Y782114D01*
X348310Y782191D01*
X348385Y782295D01*
X348401Y782340D01*
X348423Y782377D01*
X349078Y783957D01*
X351046Y785925D01*
X351084Y785977D01*
X351131Y786022D01*
X351169Y786089D01*
X351215Y786151D01*
X351238Y786211D01*
X351270Y786267D01*
X351287Y786342D01*
X351315Y786415D01*
X351320Y786479D01*
X351335Y786541D01*
X351331Y786619D01*
X351337Y786696D01*
X351323Y786759D01*
X351320Y786823D01*
X351295Y786896D01*
X351279Y786972D01*
X351249Y787029D01*
X351228Y787089D01*
X351186Y787146D01*
X351146Y787221D01*
X351087Y787282D01*
X351046Y787338D01*
X349536Y788849D01*
X348554Y791218D01*
X348554Y793782D01*
X349536Y796151D01*
X351349Y797964D01*
X353718Y798946D01*
X356282Y798946D01*
X358651Y797964D01*
X360464Y796151D01*
X361446Y793782D01*
X361446Y791218D01*
X360464Y788849D01*
X358954Y787338D01*
X358916Y787287D01*
X358869Y787242D01*
X358831Y787175D01*
X358785Y787113D01*
X358762Y787053D01*
X358730Y786997D01*
X358713Y786921D01*
X358685Y786849D01*
X358680Y786785D01*
X358665Y786722D01*
X358669Y786645D01*
X358663Y786568D01*
X358677Y786505D01*
X358680Y786441D01*
X358705Y786368D01*
X358721Y786292D01*
X358751Y786235D01*
X358772Y786174D01*
X358814Y786118D01*
X358854Y786043D01*
X358913Y785982D01*
X358954Y785925D01*
X360922Y783957D01*
X361869Y781671D01*
X361885Y781644D01*
X361895Y781613D01*
X361957Y781522D01*
X362013Y781429D01*
X362036Y781406D01*
X362054Y781380D01*
X362139Y781310D01*
X362218Y781236D01*
X362247Y781221D01*
X362272Y781200D01*
X362372Y781157D01*
X362470Y781108D01*
X362502Y781102D01*
X362531Y781089D01*
X362639Y781076D01*
X362747Y781055D01*
X362779Y781058D01*
X362811Y781055D01*
X362919Y781072D01*
X363028Y781082D01*
X363058Y781094D01*
X363089Y781100D01*
X363188Y781147D01*
X363290Y781187D01*
X363315Y781207D01*
X363344Y781221D01*
X363426Y781293D01*
X363512Y781360D01*
X363531Y781387D01*
X363555Y781408D01*
X363602Y781485D01*
X363677Y781589D01*
X363693Y781635D01*
X363715Y781671D01*
X364536Y783651D01*
X366428Y785543D01*
X366466Y785595D01*
X366512Y785640D01*
X366551Y785707D01*
X366597Y785769D01*
X366620Y785829D01*
X366651Y785885D01*
X366669Y785960D01*
X366697Y786033D01*
X366702Y786097D01*
X366716Y786159D01*
X366712Y786237D01*
X366718Y786314D01*
X366705Y786377D01*
X366702Y786441D01*
X366677Y786514D01*
X366661Y786590D01*
X366631Y786647D01*
X366610Y786708D01*
X366568Y786764D01*
X366528Y786839D01*
X366469Y786900D01*
X366428Y786957D01*
X364536Y788849D01*
X363554Y791218D01*
X363554Y793782D01*
X364536Y796151D01*
X366349Y797964D01*
X368718Y798946D01*
X371282Y798946D01*
X373651Y797964D01*
X375464Y796151D01*
X376446Y793782D01*
X376446Y791218D01*
X375464Y788849D01*
X373572Y786957D01*
X373534Y786905D01*
X373488Y786860D01*
X373449Y786793D01*
X373403Y786731D01*
X373380Y786671D01*
X373349Y786615D01*
X373331Y786540D01*
X373303Y786467D01*
X373298Y786403D01*
X373284Y786340D01*
X373288Y786263D01*
X373282Y786186D01*
X373295Y786123D01*
X373298Y786059D01*
X373323Y785986D01*
X373339Y785910D01*
X373369Y785853D01*
X373390Y785792D01*
X373432Y785736D01*
X373472Y785661D01*
X373531Y785600D01*
X373572Y785543D01*
X375464Y783651D01*
X376446Y781282D01*
X376446Y778718D01*
X375464Y776349D01*
X373651Y774536D01*
X371282Y773554D01*
X368718Y773554D01*
X366349Y774536D01*
X364536Y776349D01*
X363715Y778329D01*
X363699Y778357D01*
X363689Y778387D01*
X363628Y778477D01*
X363572Y778572D01*
X363548Y778594D01*
X363530Y778620D01*
X363446Y778690D01*
X363366Y778764D01*
X363337Y778779D01*
X363312Y778800D01*
X363212Y778843D01*
X363115Y778892D01*
X363083Y778898D01*
X363053Y778911D01*
X362945Y778924D01*
X362838Y778945D01*
X362805Y778942D01*
X362773Y778945D01*
X362666Y778928D01*
X362557Y778918D01*
X362527Y778906D01*
X362495Y778900D01*
X362396Y778853D01*
X362295Y778813D01*
X362269Y778793D01*
X362240Y778779D01*
X362159Y778707D01*
X362072Y778640D01*
X362054Y778613D01*
X362030Y778592D01*
X361982Y778515D01*
X361907Y778411D01*
X361891Y778365D01*
X361869Y778329D01*
X360922Y776043D01*
X358957Y774078D01*
X356390Y773014D01*
X353610Y773014D01*
X351043Y774078D01*
X349078Y776043D01*
X348423Y777623D01*
X348407Y777651D01*
X348397Y777682D01*
X348335Y777772D01*
X348280Y777866D01*
X348256Y777888D01*
X348238Y777915D01*
X348154Y777984D01*
X348074Y778059D01*
X348045Y778073D01*
X348020Y778094D01*
X347920Y778137D01*
X347822Y778187D01*
X347791Y778193D01*
X347761Y778205D01*
X347653Y778219D01*
X347545Y778239D01*
X347513Y778236D01*
X347481Y778240D01*
X347373Y778222D01*
X347265Y778212D01*
X347235Y778200D01*
X347203Y778195D01*
X347104Y778148D01*
X347003Y778108D01*
X346977Y778088D01*
X346948Y778074D01*
X346866Y778001D01*
X346780Y777934D01*
X346761Y777908D01*
X346737Y777886D01*
X346690Y777809D01*
X346615Y777705D01*
X346599Y777660D01*
X346577Y777623D01*
X345922Y776043D01*
X343957Y774078D01*
X341390Y773014D01*
X338610Y773014D01*
X336043Y774078D01*
X334078Y776043D01*
X333940Y776376D01*
X333923Y776404D01*
X333913Y776435D01*
X333852Y776525D01*
X333796Y776619D01*
X333773Y776641D01*
X333754Y776668D01*
X333670Y776737D01*
X333590Y776812D01*
X333562Y776827D01*
X333537Y776847D01*
X333436Y776890D01*
X333339Y776940D01*
X333307Y776946D01*
X333278Y776958D01*
X333169Y776972D01*
X333062Y776992D01*
X333030Y776989D01*
X332998Y776993D01*
X332890Y776976D01*
X332781Y776965D01*
X332751Y776953D01*
X332719Y776948D01*
X332620Y776901D01*
X332519Y776861D01*
X332494Y776841D01*
X332465Y776827D01*
X332383Y776754D01*
X332297Y776687D01*
X332278Y776661D01*
X332254Y776639D01*
X332207Y776562D01*
X332132Y776458D01*
X332115Y776413D01*
X332104Y776395D01*
X332098Y776384D01*
X332097Y776383D01*
X332093Y776376D01*
X331955Y776042D01*
X329990Y774077D01*
X327422Y773013D01*
X324643Y773013D01*
G37*
%LPD*%
%LPC*%
G36*
X153610Y33014D02*
X153610Y33014D01*
X151043Y34078D01*
X149078Y36043D01*
X148014Y38610D01*
X148014Y39634D01*
X148001Y39729D01*
X147996Y39825D01*
X147981Y39868D01*
X147974Y39913D01*
X147935Y40001D01*
X147903Y40092D01*
X147878Y40126D01*
X147858Y40170D01*
X147775Y40268D01*
X147722Y40341D01*
X145094Y42968D01*
X145094Y135654D01*
X145093Y135663D01*
X145094Y135672D01*
X145073Y135801D01*
X145054Y135933D01*
X145051Y135942D01*
X145049Y135951D01*
X144993Y136070D01*
X144938Y136190D01*
X144932Y136197D01*
X144928Y136206D01*
X144840Y136304D01*
X144755Y136404D01*
X144747Y136409D01*
X144741Y136416D01*
X144675Y136456D01*
X144667Y136462D01*
X141925Y139204D01*
X140474Y142705D01*
X140474Y146495D01*
X141925Y149996D01*
X144604Y152675D01*
X148105Y154126D01*
X151895Y154126D01*
X155396Y152675D01*
X158075Y149996D01*
X159526Y146495D01*
X159526Y142705D01*
X158075Y139204D01*
X155341Y136469D01*
X155280Y136433D01*
X155273Y136426D01*
X155265Y136421D01*
X155177Y136324D01*
X155087Y136228D01*
X155083Y136219D01*
X155076Y136212D01*
X155019Y136094D01*
X154959Y135976D01*
X154957Y135967D01*
X154953Y135958D01*
X154941Y135882D01*
X154907Y135699D01*
X154909Y135675D01*
X154906Y135654D01*
X154906Y47985D01*
X154915Y47921D01*
X154914Y47857D01*
X154935Y47782D01*
X154946Y47706D01*
X154972Y47647D01*
X154989Y47585D01*
X155030Y47519D01*
X155062Y47449D01*
X155104Y47400D01*
X155137Y47345D01*
X155195Y47293D01*
X155245Y47235D01*
X155299Y47199D01*
X155347Y47156D01*
X155416Y47123D01*
X155481Y47080D01*
X155543Y47061D01*
X155600Y47033D01*
X155670Y47022D01*
X155751Y46998D01*
X155836Y46997D01*
X155905Y46986D01*
X156390Y46986D01*
X158957Y45922D01*
X160922Y43957D01*
X161986Y41390D01*
X161986Y38610D01*
X160922Y36043D01*
X158957Y34078D01*
X156390Y33014D01*
X153610Y33014D01*
G37*
%LPD*%
%LPC*%
G36*
X503718Y411054D02*
X503718Y411054D01*
X501349Y412036D01*
X499536Y413849D01*
X498554Y416218D01*
X498554Y418000D01*
X498538Y418117D01*
X498526Y418235D01*
X498518Y418257D01*
X498514Y418279D01*
X498466Y418387D01*
X498422Y418497D01*
X498408Y418515D01*
X498398Y418536D01*
X498321Y418626D01*
X498248Y418720D01*
X498230Y418733D01*
X498215Y418750D01*
X498115Y418815D01*
X498019Y418885D01*
X497998Y418892D01*
X497979Y418905D01*
X497865Y418939D01*
X497754Y418979D01*
X497731Y418981D01*
X497709Y418987D01*
X497591Y418989D01*
X497472Y418996D01*
X497451Y418991D01*
X497427Y418991D01*
X497248Y418941D01*
X497173Y418923D01*
X496282Y418554D01*
X493718Y418554D01*
X491349Y419536D01*
X489536Y421349D01*
X488554Y423718D01*
X488554Y426282D01*
X489536Y428651D01*
X491349Y430464D01*
X493718Y431446D01*
X496282Y431446D01*
X498651Y430464D01*
X500464Y428651D01*
X501446Y426282D01*
X501446Y424500D01*
X501462Y424383D01*
X501474Y424265D01*
X501482Y424243D01*
X501486Y424221D01*
X501534Y424113D01*
X501578Y424003D01*
X501592Y423985D01*
X501602Y423964D01*
X501679Y423874D01*
X501752Y423780D01*
X501770Y423767D01*
X501785Y423750D01*
X501885Y423685D01*
X501981Y423615D01*
X502002Y423608D01*
X502021Y423595D01*
X502135Y423561D01*
X502246Y423521D01*
X502269Y423519D01*
X502291Y423513D01*
X502409Y423511D01*
X502528Y423504D01*
X502549Y423509D01*
X502573Y423509D01*
X502752Y423559D01*
X502827Y423577D01*
X503718Y423946D01*
X506282Y423946D01*
X507173Y423577D01*
X507287Y423547D01*
X507401Y423513D01*
X507424Y423512D01*
X507446Y423507D01*
X507564Y423511D01*
X507683Y423509D01*
X507705Y423515D01*
X507728Y423516D01*
X507840Y423553D01*
X507955Y423584D01*
X507974Y423596D01*
X507996Y423603D01*
X508094Y423670D01*
X508195Y423732D01*
X508210Y423749D01*
X508229Y423762D01*
X508304Y423854D01*
X508384Y423942D01*
X508394Y423962D01*
X508408Y423980D01*
X508455Y424089D01*
X508507Y424195D01*
X508510Y424217D01*
X508520Y424239D01*
X508542Y424424D01*
X508554Y424500D01*
X508554Y426282D01*
X509536Y428651D01*
X511349Y430464D01*
X513718Y431446D01*
X516282Y431446D01*
X518651Y430464D01*
X520464Y428651D01*
X521446Y426282D01*
X521446Y424500D01*
X521462Y424383D01*
X521474Y424265D01*
X521482Y424243D01*
X521486Y424221D01*
X521534Y424113D01*
X521578Y424003D01*
X521592Y423985D01*
X521602Y423964D01*
X521679Y423874D01*
X521752Y423780D01*
X521770Y423767D01*
X521785Y423750D01*
X521885Y423685D01*
X521981Y423615D01*
X522002Y423608D01*
X522021Y423595D01*
X522135Y423561D01*
X522246Y423521D01*
X522269Y423519D01*
X522291Y423513D01*
X522409Y423511D01*
X522528Y423504D01*
X522549Y423509D01*
X522573Y423509D01*
X522752Y423559D01*
X522827Y423577D01*
X523718Y423946D01*
X526282Y423946D01*
X527173Y423577D01*
X527287Y423547D01*
X527401Y423513D01*
X527424Y423512D01*
X527446Y423507D01*
X527564Y423511D01*
X527683Y423509D01*
X527705Y423515D01*
X527728Y423516D01*
X527840Y423553D01*
X527955Y423584D01*
X527974Y423596D01*
X527996Y423603D01*
X528094Y423670D01*
X528195Y423732D01*
X528210Y423749D01*
X528229Y423762D01*
X528304Y423854D01*
X528384Y423942D01*
X528394Y423962D01*
X528408Y423980D01*
X528455Y424089D01*
X528507Y424195D01*
X528510Y424217D01*
X528520Y424239D01*
X528542Y424424D01*
X528554Y424500D01*
X528554Y426282D01*
X529536Y428651D01*
X531349Y430464D01*
X533718Y431446D01*
X536282Y431446D01*
X538651Y430464D01*
X540464Y428651D01*
X541446Y426282D01*
X541446Y424500D01*
X541462Y424383D01*
X541474Y424265D01*
X541482Y424243D01*
X541486Y424221D01*
X541534Y424113D01*
X541578Y424003D01*
X541592Y423985D01*
X541602Y423964D01*
X541679Y423874D01*
X541752Y423780D01*
X541770Y423767D01*
X541785Y423750D01*
X541885Y423685D01*
X541981Y423615D01*
X542002Y423608D01*
X542021Y423595D01*
X542135Y423560D01*
X542246Y423521D01*
X542269Y423519D01*
X542291Y423513D01*
X542409Y423511D01*
X542528Y423504D01*
X542549Y423509D01*
X542573Y423509D01*
X542752Y423559D01*
X542827Y423577D01*
X543718Y423946D01*
X546282Y423946D01*
X547173Y423577D01*
X547288Y423547D01*
X547401Y423513D01*
X547424Y423512D01*
X547446Y423507D01*
X547564Y423511D01*
X547683Y423509D01*
X547705Y423515D01*
X547728Y423516D01*
X547840Y423553D01*
X547955Y423584D01*
X547974Y423596D01*
X547996Y423603D01*
X548094Y423670D01*
X548195Y423732D01*
X548210Y423749D01*
X548229Y423762D01*
X548304Y423854D01*
X548384Y423942D01*
X548394Y423962D01*
X548408Y423980D01*
X548455Y424089D01*
X548507Y424195D01*
X548510Y424217D01*
X548520Y424239D01*
X548542Y424424D01*
X548554Y424500D01*
X548554Y426282D01*
X549536Y428651D01*
X551349Y430464D01*
X553718Y431446D01*
X556282Y431446D01*
X558651Y430464D01*
X560464Y428651D01*
X561446Y426282D01*
X561446Y424500D01*
X561462Y424383D01*
X561474Y424265D01*
X561482Y424243D01*
X561486Y424221D01*
X561534Y424113D01*
X561578Y424003D01*
X561592Y423985D01*
X561602Y423964D01*
X561679Y423874D01*
X561752Y423780D01*
X561770Y423767D01*
X561785Y423750D01*
X561885Y423685D01*
X561981Y423615D01*
X562002Y423608D01*
X562021Y423595D01*
X562135Y423560D01*
X562246Y423521D01*
X562269Y423519D01*
X562291Y423513D01*
X562409Y423511D01*
X562528Y423504D01*
X562549Y423509D01*
X562573Y423509D01*
X562752Y423559D01*
X562827Y423577D01*
X563718Y423946D01*
X566282Y423946D01*
X567173Y423577D01*
X567288Y423547D01*
X567401Y423513D01*
X567424Y423512D01*
X567446Y423507D01*
X567564Y423511D01*
X567683Y423509D01*
X567705Y423515D01*
X567728Y423516D01*
X567840Y423553D01*
X567955Y423584D01*
X567974Y423596D01*
X567996Y423603D01*
X568094Y423670D01*
X568195Y423732D01*
X568210Y423749D01*
X568229Y423762D01*
X568304Y423854D01*
X568384Y423942D01*
X568394Y423962D01*
X568408Y423980D01*
X568455Y424089D01*
X568507Y424195D01*
X568510Y424217D01*
X568520Y424239D01*
X568542Y424424D01*
X568554Y424500D01*
X568554Y426282D01*
X569536Y428651D01*
X571349Y430464D01*
X573718Y431446D01*
X576282Y431446D01*
X578651Y430464D01*
X580464Y428651D01*
X581446Y426282D01*
X581446Y424500D01*
X581462Y424383D01*
X581474Y424265D01*
X581482Y424243D01*
X581486Y424221D01*
X581534Y424113D01*
X581578Y424003D01*
X581592Y423985D01*
X581602Y423964D01*
X581679Y423874D01*
X581752Y423780D01*
X581770Y423767D01*
X581785Y423750D01*
X581885Y423685D01*
X581981Y423615D01*
X582002Y423608D01*
X582021Y423595D01*
X582135Y423560D01*
X582246Y423521D01*
X582269Y423519D01*
X582291Y423513D01*
X582409Y423511D01*
X582528Y423504D01*
X582549Y423509D01*
X582573Y423509D01*
X582752Y423559D01*
X582827Y423577D01*
X583718Y423946D01*
X586282Y423946D01*
X588651Y422964D01*
X590464Y421151D01*
X591446Y418782D01*
X591446Y416218D01*
X590464Y413849D01*
X588651Y412036D01*
X586282Y411054D01*
X583718Y411054D01*
X581349Y412036D01*
X579536Y413849D01*
X578554Y416218D01*
X578554Y418000D01*
X578538Y418117D01*
X578526Y418235D01*
X578518Y418257D01*
X578514Y418279D01*
X578466Y418387D01*
X578422Y418497D01*
X578408Y418515D01*
X578398Y418536D01*
X578321Y418626D01*
X578248Y418720D01*
X578230Y418733D01*
X578215Y418750D01*
X578115Y418815D01*
X578019Y418885D01*
X577998Y418892D01*
X577979Y418905D01*
X577865Y418940D01*
X577754Y418979D01*
X577731Y418981D01*
X577709Y418987D01*
X577591Y418989D01*
X577472Y418996D01*
X577451Y418991D01*
X577427Y418991D01*
X577248Y418941D01*
X577173Y418923D01*
X576282Y418554D01*
X573718Y418554D01*
X572827Y418923D01*
X572712Y418953D01*
X572599Y418987D01*
X572576Y418988D01*
X572554Y418993D01*
X572436Y418989D01*
X572317Y418991D01*
X572295Y418985D01*
X572272Y418984D01*
X572160Y418947D01*
X572045Y418916D01*
X572026Y418904D01*
X572004Y418897D01*
X571906Y418830D01*
X571805Y418768D01*
X571790Y418751D01*
X571771Y418738D01*
X571696Y418646D01*
X571616Y418558D01*
X571606Y418538D01*
X571592Y418520D01*
X571545Y418411D01*
X571493Y418305D01*
X571490Y418283D01*
X571480Y418261D01*
X571458Y418076D01*
X571446Y418000D01*
X571446Y416218D01*
X570464Y413849D01*
X568651Y412036D01*
X566282Y411054D01*
X563718Y411054D01*
X561349Y412036D01*
X559536Y413849D01*
X558554Y416218D01*
X558554Y418000D01*
X558538Y418117D01*
X558526Y418235D01*
X558518Y418257D01*
X558514Y418279D01*
X558466Y418387D01*
X558422Y418497D01*
X558408Y418515D01*
X558398Y418536D01*
X558321Y418626D01*
X558248Y418720D01*
X558230Y418733D01*
X558215Y418750D01*
X558115Y418815D01*
X558019Y418885D01*
X557998Y418892D01*
X557979Y418905D01*
X557865Y418940D01*
X557754Y418979D01*
X557731Y418981D01*
X557709Y418987D01*
X557591Y418989D01*
X557472Y418996D01*
X557451Y418991D01*
X557427Y418991D01*
X557248Y418941D01*
X557173Y418923D01*
X556282Y418554D01*
X553718Y418554D01*
X552827Y418923D01*
X552712Y418953D01*
X552599Y418987D01*
X552576Y418988D01*
X552554Y418993D01*
X552436Y418989D01*
X552317Y418991D01*
X552295Y418985D01*
X552272Y418984D01*
X552160Y418947D01*
X552045Y418916D01*
X552026Y418904D01*
X552004Y418897D01*
X551906Y418830D01*
X551805Y418768D01*
X551790Y418751D01*
X551771Y418738D01*
X551696Y418646D01*
X551616Y418558D01*
X551606Y418538D01*
X551592Y418520D01*
X551545Y418411D01*
X551493Y418305D01*
X551490Y418283D01*
X551480Y418261D01*
X551458Y418076D01*
X551446Y418000D01*
X551446Y416218D01*
X550464Y413849D01*
X548651Y412036D01*
X546282Y411054D01*
X543718Y411054D01*
X541349Y412036D01*
X539536Y413849D01*
X538554Y416218D01*
X538554Y418000D01*
X538538Y418117D01*
X538526Y418235D01*
X538518Y418257D01*
X538514Y418279D01*
X538466Y418387D01*
X538422Y418497D01*
X538408Y418515D01*
X538398Y418536D01*
X538321Y418626D01*
X538248Y418720D01*
X538230Y418733D01*
X538215Y418750D01*
X538115Y418815D01*
X538019Y418885D01*
X537998Y418892D01*
X537979Y418905D01*
X537865Y418940D01*
X537754Y418979D01*
X537731Y418981D01*
X537709Y418987D01*
X537591Y418989D01*
X537472Y418996D01*
X537451Y418991D01*
X537427Y418991D01*
X537248Y418941D01*
X537173Y418923D01*
X536282Y418554D01*
X533718Y418554D01*
X532827Y418923D01*
X532712Y418953D01*
X532599Y418987D01*
X532576Y418988D01*
X532554Y418993D01*
X532436Y418989D01*
X532317Y418991D01*
X532295Y418985D01*
X532272Y418984D01*
X532160Y418947D01*
X532045Y418916D01*
X532026Y418904D01*
X532004Y418897D01*
X531906Y418830D01*
X531805Y418768D01*
X531790Y418751D01*
X531771Y418738D01*
X531696Y418646D01*
X531616Y418558D01*
X531606Y418538D01*
X531592Y418520D01*
X531545Y418411D01*
X531493Y418305D01*
X531490Y418283D01*
X531480Y418261D01*
X531458Y418076D01*
X531446Y418000D01*
X531446Y416218D01*
X530464Y413849D01*
X528651Y412036D01*
X526282Y411054D01*
X523718Y411054D01*
X521349Y412036D01*
X519536Y413849D01*
X518554Y416218D01*
X518554Y418000D01*
X518538Y418117D01*
X518526Y418235D01*
X518518Y418257D01*
X518514Y418279D01*
X518466Y418387D01*
X518422Y418497D01*
X518408Y418515D01*
X518398Y418536D01*
X518321Y418626D01*
X518248Y418720D01*
X518230Y418733D01*
X518215Y418750D01*
X518115Y418815D01*
X518019Y418885D01*
X517998Y418892D01*
X517979Y418905D01*
X517865Y418939D01*
X517754Y418979D01*
X517731Y418981D01*
X517709Y418987D01*
X517591Y418989D01*
X517472Y418996D01*
X517451Y418991D01*
X517427Y418991D01*
X517248Y418941D01*
X517173Y418923D01*
X516282Y418554D01*
X513718Y418554D01*
X512827Y418923D01*
X512713Y418953D01*
X512599Y418987D01*
X512576Y418988D01*
X512554Y418993D01*
X512436Y418989D01*
X512317Y418991D01*
X512295Y418985D01*
X512272Y418984D01*
X512160Y418947D01*
X512045Y418916D01*
X512026Y418904D01*
X512004Y418897D01*
X511906Y418830D01*
X511805Y418768D01*
X511790Y418751D01*
X511771Y418738D01*
X511696Y418646D01*
X511616Y418558D01*
X511606Y418538D01*
X511592Y418520D01*
X511545Y418411D01*
X511493Y418305D01*
X511490Y418283D01*
X511480Y418261D01*
X511458Y418076D01*
X511446Y418000D01*
X511446Y416218D01*
X510464Y413849D01*
X508651Y412036D01*
X506282Y411054D01*
X503718Y411054D01*
G37*
%LPD*%
%LPC*%
G36*
X66262Y778359D02*
X66262Y778359D01*
X59356Y781220D01*
X54070Y786506D01*
X51209Y793412D01*
X51209Y800888D01*
X54070Y807794D01*
X59356Y813080D01*
X66262Y815941D01*
X73738Y815941D01*
X80644Y813080D01*
X85930Y807794D01*
X88791Y800888D01*
X88791Y793412D01*
X85930Y786506D01*
X80644Y781220D01*
X73738Y778359D01*
X66262Y778359D01*
G37*
%LPD*%
%LPC*%
G36*
X66262Y664059D02*
X66262Y664059D01*
X59356Y666920D01*
X54070Y672206D01*
X51209Y679112D01*
X51209Y686588D01*
X54070Y693494D01*
X59356Y698780D01*
X66262Y701641D01*
X73738Y701641D01*
X80644Y698780D01*
X85930Y693494D01*
X88791Y686588D01*
X88791Y679112D01*
X85930Y672206D01*
X80644Y666920D01*
X73738Y664059D01*
X66262Y664059D01*
G37*
%LPD*%
%LPC*%
G36*
X96312Y265798D02*
X96312Y265798D01*
X89496Y268621D01*
X84280Y273837D01*
X81457Y280653D01*
X81457Y288029D01*
X84280Y294845D01*
X89496Y300061D01*
X96312Y302884D01*
X103688Y302884D01*
X110504Y300061D01*
X115720Y294845D01*
X118543Y288029D01*
X118543Y280653D01*
X115720Y273837D01*
X110504Y268621D01*
X103688Y265798D01*
X96312Y265798D01*
G37*
%LPD*%
%LPC*%
G36*
X96312Y397116D02*
X96312Y397116D01*
X89496Y399939D01*
X84280Y405155D01*
X81457Y411971D01*
X81457Y419347D01*
X84280Y426163D01*
X89496Y431379D01*
X96312Y434202D01*
X103688Y434202D01*
X110504Y431379D01*
X115720Y426163D01*
X118543Y419347D01*
X118543Y411971D01*
X115720Y405155D01*
X110504Y399939D01*
X103688Y397116D01*
X96312Y397116D01*
G37*
%LPD*%
%LPC*%
G36*
X493718Y463554D02*
X493718Y463554D01*
X491349Y464536D01*
X489536Y466349D01*
X488554Y468718D01*
X488554Y471282D01*
X489536Y473651D01*
X491349Y475464D01*
X493718Y476446D01*
X496282Y476446D01*
X497932Y475762D01*
X497963Y475754D01*
X497992Y475740D01*
X498100Y475719D01*
X498205Y475692D01*
X498238Y475693D01*
X498269Y475687D01*
X498378Y475698D01*
X498487Y475701D01*
X498518Y475711D01*
X498550Y475714D01*
X498652Y475755D01*
X498755Y475789D01*
X498782Y475807D01*
X498812Y475819D01*
X498898Y475886D01*
X498988Y475948D01*
X499009Y475972D01*
X499034Y475992D01*
X499098Y476081D01*
X499168Y476165D01*
X499180Y476195D01*
X499199Y476221D01*
X499236Y476324D01*
X499279Y476424D01*
X499283Y476456D01*
X499294Y476487D01*
X499300Y476596D01*
X499314Y476704D01*
X499308Y476736D01*
X499310Y476768D01*
X499289Y476856D01*
X499269Y476983D01*
X499248Y477026D01*
X499238Y477068D01*
X498554Y478718D01*
X498554Y481282D01*
X499238Y482932D01*
X499246Y482963D01*
X499260Y482992D01*
X499281Y483100D01*
X499308Y483205D01*
X499307Y483238D01*
X499313Y483269D01*
X499302Y483378D01*
X499299Y483487D01*
X499289Y483518D01*
X499286Y483550D01*
X499245Y483652D01*
X499211Y483755D01*
X499193Y483782D01*
X499181Y483812D01*
X499114Y483898D01*
X499052Y483988D01*
X499028Y484009D01*
X499008Y484034D01*
X498919Y484098D01*
X498835Y484168D01*
X498805Y484180D01*
X498779Y484199D01*
X498676Y484236D01*
X498576Y484279D01*
X498544Y484283D01*
X498513Y484294D01*
X498404Y484300D01*
X498296Y484314D01*
X498264Y484308D01*
X498232Y484310D01*
X498144Y484289D01*
X498017Y484269D01*
X497974Y484248D01*
X497932Y484238D01*
X496282Y483554D01*
X493718Y483554D01*
X491349Y484536D01*
X489536Y486349D01*
X488554Y488718D01*
X488554Y491282D01*
X489536Y493651D01*
X491349Y495464D01*
X493718Y496446D01*
X496282Y496446D01*
X497932Y495762D01*
X497963Y495754D01*
X497992Y495740D01*
X498100Y495719D01*
X498205Y495692D01*
X498238Y495693D01*
X498269Y495687D01*
X498378Y495698D01*
X498487Y495701D01*
X498518Y495711D01*
X498550Y495714D01*
X498652Y495755D01*
X498755Y495789D01*
X498782Y495807D01*
X498812Y495819D01*
X498898Y495886D01*
X498988Y495948D01*
X499009Y495972D01*
X499034Y495992D01*
X499098Y496081D01*
X499168Y496165D01*
X499180Y496195D01*
X499199Y496221D01*
X499236Y496324D01*
X499279Y496424D01*
X499283Y496456D01*
X499294Y496487D01*
X499300Y496596D01*
X499314Y496704D01*
X499308Y496736D01*
X499310Y496768D01*
X499289Y496856D01*
X499269Y496983D01*
X499248Y497026D01*
X499238Y497068D01*
X498554Y498718D01*
X498554Y501282D01*
X499508Y503585D01*
X499516Y503617D01*
X499531Y503645D01*
X499551Y503753D01*
X499578Y503859D01*
X499577Y503891D01*
X499583Y503923D01*
X499573Y504031D01*
X499569Y504141D01*
X499559Y504171D01*
X499556Y504203D01*
X499516Y504305D01*
X499482Y504409D01*
X499464Y504435D01*
X499452Y504465D01*
X499385Y504551D01*
X499323Y504642D01*
X499298Y504662D01*
X499278Y504688D01*
X499190Y504751D01*
X499105Y504821D01*
X499076Y504834D01*
X499050Y504853D01*
X498947Y504889D01*
X498846Y504932D01*
X498814Y504936D01*
X498784Y504947D01*
X498675Y504954D01*
X498566Y504967D01*
X498535Y504962D01*
X498502Y504964D01*
X498414Y504942D01*
X498288Y504922D01*
X498244Y504901D01*
X498203Y504891D01*
X496183Y504054D01*
X493817Y504054D01*
X491632Y504959D01*
X489959Y506632D01*
X489054Y508817D01*
X489054Y511183D01*
X489959Y513368D01*
X491632Y515041D01*
X493817Y515946D01*
X496183Y515946D01*
X498368Y515041D01*
X500041Y513368D01*
X500946Y511183D01*
X500946Y508817D01*
X500109Y506797D01*
X500101Y506766D01*
X500086Y506737D01*
X500066Y506630D01*
X500039Y506524D01*
X500040Y506492D01*
X500034Y506460D01*
X500044Y506351D01*
X500048Y506242D01*
X500058Y506212D01*
X500061Y506179D01*
X500102Y506078D01*
X500135Y505974D01*
X500154Y505947D01*
X500165Y505917D01*
X500233Y505831D01*
X500294Y505741D01*
X500319Y505720D01*
X500339Y505695D01*
X500428Y505631D01*
X500512Y505562D01*
X500542Y505549D01*
X500568Y505530D01*
X500670Y505494D01*
X500771Y505450D01*
X500803Y505446D01*
X500833Y505436D01*
X500942Y505429D01*
X501051Y505416D01*
X501083Y505421D01*
X501115Y505419D01*
X501203Y505440D01*
X501329Y505461D01*
X501373Y505482D01*
X501415Y505492D01*
X503718Y506446D01*
X506282Y506446D01*
X508585Y505492D01*
X508617Y505484D01*
X508645Y505469D01*
X508753Y505449D01*
X508859Y505422D01*
X508891Y505423D01*
X508923Y505417D01*
X509031Y505427D01*
X509140Y505431D01*
X509171Y505441D01*
X509203Y505444D01*
X509305Y505484D01*
X509409Y505518D01*
X509435Y505536D01*
X509465Y505548D01*
X509551Y505615D01*
X509642Y505677D01*
X509662Y505702D01*
X509688Y505722D01*
X509751Y505810D01*
X509821Y505895D01*
X509834Y505924D01*
X509853Y505950D01*
X509889Y506053D01*
X509932Y506154D01*
X509936Y506186D01*
X509947Y506216D01*
X509954Y506325D01*
X509967Y506434D01*
X509962Y506465D01*
X509964Y506498D01*
X509942Y506586D01*
X509922Y506712D01*
X509901Y506756D01*
X509891Y506797D01*
X509054Y508817D01*
X509054Y511183D01*
X509959Y513368D01*
X511632Y515041D01*
X513817Y515946D01*
X516183Y515946D01*
X518203Y515109D01*
X518234Y515101D01*
X518263Y515086D01*
X518370Y515066D01*
X518476Y515039D01*
X518508Y515040D01*
X518540Y515034D01*
X518649Y515044D01*
X518758Y515048D01*
X518788Y515058D01*
X518821Y515061D01*
X518922Y515102D01*
X519026Y515135D01*
X519053Y515154D01*
X519083Y515166D01*
X519169Y515233D01*
X519259Y515294D01*
X519279Y515319D01*
X519305Y515339D01*
X519369Y515428D01*
X519438Y515512D01*
X519451Y515542D01*
X519470Y515568D01*
X519506Y515671D01*
X519550Y515771D01*
X519554Y515803D01*
X519564Y515833D01*
X519571Y515943D01*
X519584Y516051D01*
X519579Y516083D01*
X519581Y516115D01*
X519560Y516203D01*
X519539Y516329D01*
X519518Y516373D01*
X519508Y516415D01*
X518554Y518718D01*
X518554Y521282D01*
X519536Y523651D01*
X521349Y525464D01*
X523718Y526446D01*
X526282Y526446D01*
X528651Y525464D01*
X530464Y523651D01*
X531446Y521282D01*
X531446Y518718D01*
X530492Y516415D01*
X530484Y516383D01*
X530469Y516355D01*
X530449Y516247D01*
X530422Y516141D01*
X530423Y516109D01*
X530417Y516077D01*
X530427Y515969D01*
X530431Y515860D01*
X530441Y515829D01*
X530444Y515797D01*
X530484Y515695D01*
X530518Y515591D01*
X530536Y515565D01*
X530548Y515535D01*
X530616Y515449D01*
X530677Y515358D01*
X530702Y515338D01*
X530722Y515312D01*
X530810Y515248D01*
X530895Y515179D01*
X530924Y515166D01*
X530950Y515147D01*
X531053Y515111D01*
X531154Y515068D01*
X531186Y515064D01*
X531216Y515053D01*
X531325Y515046D01*
X531434Y515033D01*
X531465Y515038D01*
X531498Y515036D01*
X531586Y515058D01*
X531712Y515078D01*
X531756Y515099D01*
X531797Y515109D01*
X533817Y515946D01*
X536183Y515946D01*
X538368Y515041D01*
X540041Y513368D01*
X540946Y511183D01*
X540946Y508817D01*
X540041Y506632D01*
X538368Y504959D01*
X536183Y504054D01*
X533817Y504054D01*
X531632Y504959D01*
X529959Y506632D01*
X529054Y508817D01*
X529054Y511183D01*
X529891Y513203D01*
X529899Y513234D01*
X529914Y513263D01*
X529934Y513370D01*
X529961Y513476D01*
X529960Y513508D01*
X529966Y513540D01*
X529956Y513649D01*
X529952Y513758D01*
X529942Y513788D01*
X529939Y513821D01*
X529898Y513922D01*
X529865Y514026D01*
X529846Y514053D01*
X529834Y514083D01*
X529767Y514169D01*
X529706Y514259D01*
X529681Y514279D01*
X529661Y514305D01*
X529572Y514369D01*
X529488Y514438D01*
X529458Y514451D01*
X529432Y514470D01*
X529329Y514506D01*
X529229Y514550D01*
X529197Y514554D01*
X529167Y514564D01*
X529057Y514571D01*
X528949Y514584D01*
X528917Y514579D01*
X528885Y514581D01*
X528797Y514560D01*
X528671Y514539D01*
X528627Y514518D01*
X528585Y514508D01*
X526282Y513554D01*
X523718Y513554D01*
X521415Y514508D01*
X521383Y514516D01*
X521355Y514531D01*
X521247Y514551D01*
X521141Y514578D01*
X521109Y514577D01*
X521077Y514583D01*
X520969Y514573D01*
X520860Y514569D01*
X520829Y514559D01*
X520797Y514556D01*
X520695Y514516D01*
X520591Y514482D01*
X520565Y514464D01*
X520535Y514452D01*
X520449Y514384D01*
X520358Y514323D01*
X520338Y514298D01*
X520312Y514278D01*
X520248Y514190D01*
X520179Y514105D01*
X520166Y514076D01*
X520147Y514050D01*
X520111Y513947D01*
X520068Y513846D01*
X520064Y513814D01*
X520053Y513784D01*
X520046Y513675D01*
X520033Y513566D01*
X520038Y513535D01*
X520036Y513502D01*
X520058Y513414D01*
X520078Y513288D01*
X520099Y513244D01*
X520109Y513203D01*
X520946Y511183D01*
X520946Y508817D01*
X520041Y506632D01*
X518368Y504959D01*
X516183Y504054D01*
X513817Y504054D01*
X511797Y504891D01*
X511766Y504899D01*
X511737Y504914D01*
X511630Y504934D01*
X511524Y504961D01*
X511492Y504960D01*
X511460Y504966D01*
X511351Y504956D01*
X511242Y504952D01*
X511212Y504942D01*
X511179Y504939D01*
X511078Y504898D01*
X510974Y504865D01*
X510947Y504846D01*
X510917Y504834D01*
X510831Y504767D01*
X510741Y504706D01*
X510721Y504681D01*
X510695Y504661D01*
X510631Y504572D01*
X510562Y504488D01*
X510549Y504458D01*
X510530Y504432D01*
X510494Y504330D01*
X510450Y504229D01*
X510446Y504197D01*
X510436Y504167D01*
X510429Y504057D01*
X510416Y503949D01*
X510421Y503917D01*
X510419Y503885D01*
X510440Y503797D01*
X510461Y503671D01*
X510482Y503627D01*
X510492Y503585D01*
X511446Y501282D01*
X511446Y498718D01*
X510464Y496349D01*
X508651Y494536D01*
X506282Y493554D01*
X503718Y493554D01*
X502068Y494238D01*
X502037Y494246D01*
X502008Y494260D01*
X501900Y494281D01*
X501795Y494308D01*
X501762Y494307D01*
X501731Y494313D01*
X501622Y494302D01*
X501513Y494299D01*
X501482Y494289D01*
X501450Y494286D01*
X501348Y494245D01*
X501245Y494211D01*
X501218Y494193D01*
X501188Y494181D01*
X501102Y494114D01*
X501012Y494052D01*
X500991Y494028D01*
X500966Y494008D01*
X500902Y493919D01*
X500832Y493835D01*
X500820Y493805D01*
X500801Y493779D01*
X500764Y493676D01*
X500721Y493576D01*
X500717Y493544D01*
X500706Y493513D01*
X500700Y493404D01*
X500686Y493296D01*
X500692Y493264D01*
X500690Y493232D01*
X500711Y493144D01*
X500731Y493017D01*
X500752Y492974D01*
X500762Y492932D01*
X501446Y491282D01*
X501446Y488718D01*
X500762Y487068D01*
X500754Y487037D01*
X500740Y487008D01*
X500719Y486900D01*
X500692Y486795D01*
X500693Y486762D01*
X500687Y486731D01*
X500698Y486622D01*
X500701Y486513D01*
X500711Y486482D01*
X500714Y486450D01*
X500755Y486348D01*
X500789Y486245D01*
X500807Y486218D01*
X500819Y486188D01*
X500886Y486102D01*
X500948Y486012D01*
X500972Y485991D01*
X500992Y485966D01*
X501081Y485902D01*
X501165Y485832D01*
X501195Y485820D01*
X501221Y485801D01*
X501324Y485764D01*
X501424Y485721D01*
X501456Y485717D01*
X501487Y485706D01*
X501596Y485700D01*
X501704Y485686D01*
X501736Y485692D01*
X501768Y485690D01*
X501856Y485711D01*
X501983Y485731D01*
X502026Y485752D01*
X502068Y485762D01*
X503718Y486446D01*
X506282Y486446D01*
X508651Y485464D01*
X510464Y483651D01*
X511446Y481282D01*
X511446Y478718D01*
X510464Y476349D01*
X508651Y474536D01*
X506282Y473554D01*
X503718Y473554D01*
X502068Y474238D01*
X502037Y474246D01*
X502008Y474260D01*
X501900Y474281D01*
X501795Y474308D01*
X501762Y474307D01*
X501731Y474313D01*
X501622Y474302D01*
X501513Y474299D01*
X501482Y474289D01*
X501450Y474286D01*
X501348Y474245D01*
X501245Y474211D01*
X501218Y474193D01*
X501188Y474181D01*
X501102Y474114D01*
X501012Y474052D01*
X500991Y474028D01*
X500966Y474008D01*
X500902Y473919D01*
X500832Y473835D01*
X500820Y473805D01*
X500801Y473779D01*
X500764Y473676D01*
X500721Y473576D01*
X500717Y473544D01*
X500706Y473513D01*
X500700Y473404D01*
X500686Y473296D01*
X500692Y473264D01*
X500690Y473232D01*
X500711Y473144D01*
X500731Y473017D01*
X500752Y472974D01*
X500762Y472932D01*
X501446Y471282D01*
X501446Y468718D01*
X500464Y466349D01*
X498651Y464536D01*
X496282Y463554D01*
X493718Y463554D01*
G37*
%LPD*%
%LPC*%
G36*
X96218Y323554D02*
X96218Y323554D01*
X93849Y324536D01*
X92036Y326349D01*
X91054Y328718D01*
X91054Y331282D01*
X91364Y332029D01*
X91385Y332114D01*
X91416Y332195D01*
X91420Y332249D01*
X91434Y332303D01*
X91431Y332389D01*
X91438Y332476D01*
X91427Y332530D01*
X91425Y332585D01*
X91398Y332667D01*
X91380Y332752D01*
X91354Y332800D01*
X91337Y332853D01*
X91288Y332925D01*
X91248Y333001D01*
X91210Y333040D01*
X91179Y333086D01*
X91111Y333141D01*
X91051Y333203D01*
X91003Y333230D01*
X90961Y333265D01*
X90881Y333299D01*
X90806Y333342D01*
X90752Y333355D01*
X90702Y333376D01*
X90616Y333387D01*
X90531Y333407D01*
X90476Y333404D01*
X90422Y333411D01*
X90336Y333397D01*
X90249Y333393D01*
X90198Y333375D01*
X90143Y333366D01*
X90065Y333329D01*
X89983Y333300D01*
X89942Y333270D01*
X89889Y333245D01*
X89804Y333169D01*
X89734Y333118D01*
X88651Y332036D01*
X86282Y331054D01*
X83718Y331054D01*
X81349Y332036D01*
X79536Y333849D01*
X78554Y336218D01*
X78554Y338782D01*
X79536Y341151D01*
X81349Y342964D01*
X83718Y343946D01*
X86282Y343946D01*
X88651Y342964D01*
X90464Y341151D01*
X91446Y338782D01*
X91446Y336218D01*
X91136Y335471D01*
X91115Y335386D01*
X91084Y335305D01*
X91080Y335251D01*
X91066Y335197D01*
X91069Y335111D01*
X91062Y335024D01*
X91073Y334970D01*
X91075Y334915D01*
X91102Y334833D01*
X91120Y334748D01*
X91146Y334700D01*
X91163Y334647D01*
X91212Y334575D01*
X91252Y334499D01*
X91290Y334460D01*
X91321Y334414D01*
X91389Y334359D01*
X91449Y334297D01*
X91497Y334270D01*
X91539Y334235D01*
X91619Y334201D01*
X91694Y334158D01*
X91748Y334145D01*
X91798Y334124D01*
X91884Y334113D01*
X91969Y334093D01*
X92024Y334096D01*
X92078Y334089D01*
X92164Y334103D01*
X92251Y334107D01*
X92302Y334125D01*
X92357Y334134D01*
X92435Y334171D01*
X92517Y334200D01*
X92558Y334230D01*
X92611Y334255D01*
X92696Y334331D01*
X92766Y334382D01*
X93849Y335464D01*
X96218Y336446D01*
X98782Y336446D01*
X99673Y336077D01*
X99788Y336047D01*
X99901Y336013D01*
X99924Y336012D01*
X99946Y336007D01*
X100064Y336011D01*
X100183Y336009D01*
X100205Y336015D01*
X100228Y336016D01*
X100340Y336053D01*
X100455Y336084D01*
X100474Y336096D01*
X100496Y336103D01*
X100594Y336170D01*
X100695Y336232D01*
X100710Y336249D01*
X100729Y336262D01*
X100804Y336354D01*
X100884Y336442D01*
X100894Y336462D01*
X100908Y336480D01*
X100955Y336589D01*
X101007Y336695D01*
X101010Y336717D01*
X101020Y336739D01*
X101042Y336924D01*
X101054Y337000D01*
X101054Y338549D01*
X101038Y338666D01*
X101026Y338784D01*
X101018Y338805D01*
X101014Y338828D01*
X100966Y338936D01*
X100922Y339046D01*
X100908Y339064D01*
X100898Y339085D01*
X100821Y339175D01*
X100748Y339268D01*
X100730Y339282D01*
X100715Y339299D01*
X100615Y339364D01*
X100519Y339433D01*
X100498Y339441D01*
X100479Y339454D01*
X100365Y339488D01*
X100254Y339528D01*
X100231Y339529D01*
X100209Y339536D01*
X100091Y339537D01*
X99972Y339544D01*
X99951Y339539D01*
X99927Y339540D01*
X99748Y339490D01*
X99673Y339472D01*
X98683Y339062D01*
X96317Y339062D01*
X94132Y339967D01*
X92459Y341639D01*
X91554Y343825D01*
X91554Y346190D01*
X92459Y348376D01*
X93377Y349293D01*
X93416Y349345D01*
X93462Y349390D01*
X93500Y349457D01*
X93547Y349519D01*
X93569Y349579D01*
X93601Y349635D01*
X93619Y349710D01*
X93646Y349783D01*
X93651Y349847D01*
X93666Y349910D01*
X93662Y349987D01*
X93668Y350064D01*
X93655Y350127D01*
X93652Y350191D01*
X93626Y350264D01*
X93610Y350340D01*
X93580Y350397D01*
X93559Y350458D01*
X93518Y350514D01*
X93478Y350589D01*
X93419Y350650D01*
X93377Y350707D01*
X92459Y351625D01*
X91554Y353810D01*
X91554Y356175D01*
X92459Y358361D01*
X94132Y360033D01*
X96317Y360938D01*
X98683Y360938D01*
X99673Y360528D01*
X99787Y360499D01*
X99901Y360464D01*
X99924Y360464D01*
X99946Y360458D01*
X100064Y360462D01*
X100183Y360460D01*
X100205Y360466D01*
X100228Y360467D01*
X100340Y360504D01*
X100455Y360536D01*
X100474Y360548D01*
X100496Y360555D01*
X100594Y360621D01*
X100695Y360684D01*
X100710Y360701D01*
X100729Y360713D01*
X100804Y360805D01*
X100884Y360893D01*
X100894Y360913D01*
X100908Y360931D01*
X100955Y361040D01*
X101007Y361147D01*
X101010Y361168D01*
X101020Y361190D01*
X101042Y361375D01*
X101054Y361451D01*
X101054Y363000D01*
X101038Y363117D01*
X101026Y363235D01*
X101018Y363257D01*
X101014Y363279D01*
X100966Y363387D01*
X100922Y363497D01*
X100908Y363515D01*
X100898Y363536D01*
X100821Y363626D01*
X100748Y363720D01*
X100730Y363733D01*
X100715Y363750D01*
X100615Y363815D01*
X100519Y363885D01*
X100498Y363892D01*
X100479Y363905D01*
X100365Y363940D01*
X100254Y363979D01*
X100231Y363981D01*
X100209Y363987D01*
X100091Y363989D01*
X99972Y363996D01*
X99951Y363991D01*
X99927Y363991D01*
X99748Y363941D01*
X99673Y363923D01*
X98782Y363554D01*
X96218Y363554D01*
X93849Y364536D01*
X92766Y365618D01*
X92697Y365670D01*
X92633Y365730D01*
X92584Y365755D01*
X92540Y365788D01*
X92459Y365818D01*
X92382Y365858D01*
X92328Y365868D01*
X92276Y365887D01*
X92190Y365894D01*
X92105Y365910D01*
X92050Y365905D01*
X91995Y365909D01*
X91910Y365891D01*
X91824Y365883D01*
X91773Y365863D01*
X91719Y365851D01*
X91643Y365811D01*
X91562Y365779D01*
X91519Y365745D01*
X91470Y365719D01*
X91408Y365658D01*
X91340Y365605D01*
X91308Y365561D01*
X91268Y365522D01*
X91225Y365447D01*
X91175Y365376D01*
X91156Y365325D01*
X91129Y365277D01*
X91109Y365192D01*
X91080Y365111D01*
X91077Y365056D01*
X91064Y365002D01*
X91069Y364916D01*
X91064Y364829D01*
X91076Y364779D01*
X91079Y364721D01*
X91116Y364613D01*
X91136Y364529D01*
X91446Y363782D01*
X91446Y361218D01*
X90464Y358849D01*
X88651Y357036D01*
X86282Y356054D01*
X83718Y356054D01*
X81349Y357036D01*
X79536Y358849D01*
X78554Y361218D01*
X78554Y363782D01*
X79536Y366151D01*
X81349Y367964D01*
X83718Y368946D01*
X86282Y368946D01*
X88651Y367964D01*
X89734Y366882D01*
X89803Y366830D01*
X89867Y366770D01*
X89916Y366745D01*
X89960Y366712D01*
X90041Y366682D01*
X90118Y366642D01*
X90172Y366632D01*
X90224Y366613D01*
X90310Y366606D01*
X90395Y366590D01*
X90450Y366595D01*
X90505Y366591D01*
X90590Y366609D01*
X90676Y366617D01*
X90727Y366637D01*
X90781Y366649D01*
X90857Y366689D01*
X90938Y366721D01*
X90981Y366755D01*
X91030Y366781D01*
X91092Y366842D01*
X91160Y366895D01*
X91192Y366939D01*
X91232Y366978D01*
X91275Y367053D01*
X91325Y367124D01*
X91344Y367175D01*
X91371Y367223D01*
X91391Y367308D01*
X91420Y367389D01*
X91423Y367444D01*
X91436Y367498D01*
X91431Y367584D01*
X91436Y367671D01*
X91424Y367721D01*
X91421Y367779D01*
X91384Y367887D01*
X91364Y367971D01*
X91054Y368718D01*
X91054Y371282D01*
X92036Y373651D01*
X93849Y375464D01*
X96218Y376446D01*
X98782Y376446D01*
X101151Y375464D01*
X102964Y373651D01*
X103946Y371282D01*
X103946Y369500D01*
X103962Y369383D01*
X103974Y369265D01*
X103982Y369243D01*
X103986Y369221D01*
X104034Y369113D01*
X104078Y369003D01*
X104092Y368985D01*
X104102Y368964D01*
X104179Y368874D01*
X104252Y368780D01*
X104270Y368767D01*
X104285Y368750D01*
X104385Y368685D01*
X104481Y368615D01*
X104502Y368608D01*
X104521Y368595D01*
X104635Y368560D01*
X104746Y368521D01*
X104769Y368519D01*
X104791Y368513D01*
X104909Y368511D01*
X105028Y368504D01*
X105049Y368509D01*
X105073Y368509D01*
X105252Y368559D01*
X105327Y368577D01*
X106218Y368946D01*
X108782Y368946D01*
X111151Y367964D01*
X112964Y366151D01*
X113946Y363782D01*
X113946Y361218D01*
X112964Y358849D01*
X111151Y357036D01*
X108782Y356054D01*
X106218Y356054D01*
X104827Y356630D01*
X104713Y356660D01*
X104599Y356694D01*
X104576Y356695D01*
X104554Y356700D01*
X104436Y356697D01*
X104317Y356698D01*
X104295Y356692D01*
X104272Y356691D01*
X104160Y356655D01*
X104045Y356623D01*
X104026Y356611D01*
X104004Y356604D01*
X103906Y356537D01*
X103805Y356475D01*
X103790Y356458D01*
X103771Y356445D01*
X103696Y356353D01*
X103616Y356265D01*
X103606Y356245D01*
X103592Y356227D01*
X103545Y356118D01*
X103493Y356012D01*
X103490Y355990D01*
X103480Y355968D01*
X103458Y355783D01*
X103446Y355707D01*
X103446Y353810D01*
X102541Y351625D01*
X101623Y350707D01*
X101584Y350655D01*
X101538Y350610D01*
X101500Y350543D01*
X101453Y350481D01*
X101431Y350421D01*
X101399Y350365D01*
X101381Y350290D01*
X101354Y350217D01*
X101349Y350153D01*
X101334Y350091D01*
X101338Y350013D01*
X101332Y349936D01*
X101345Y349873D01*
X101348Y349809D01*
X101374Y349736D01*
X101390Y349660D01*
X101420Y349603D01*
X101441Y349542D01*
X101482Y349486D01*
X101522Y349411D01*
X101581Y349350D01*
X101623Y349293D01*
X102541Y348376D01*
X103446Y346190D01*
X103446Y344293D01*
X103462Y344176D01*
X103474Y344058D01*
X103482Y344036D01*
X103486Y344014D01*
X103534Y343906D01*
X103578Y343796D01*
X103592Y343778D01*
X103602Y343757D01*
X103679Y343667D01*
X103752Y343573D01*
X103770Y343560D01*
X103785Y343543D01*
X103885Y343477D01*
X103981Y343408D01*
X104002Y343401D01*
X104021Y343388D01*
X104135Y343353D01*
X104246Y343314D01*
X104269Y343312D01*
X104291Y343306D01*
X104409Y343304D01*
X104528Y343297D01*
X104549Y343302D01*
X104573Y343302D01*
X104752Y343352D01*
X104827Y343370D01*
X106218Y343946D01*
X108782Y343946D01*
X111151Y342964D01*
X112964Y341151D01*
X113946Y338782D01*
X113946Y336218D01*
X112964Y333849D01*
X111151Y332036D01*
X108782Y331054D01*
X106218Y331054D01*
X105327Y331423D01*
X105212Y331453D01*
X105099Y331487D01*
X105076Y331488D01*
X105054Y331493D01*
X104936Y331489D01*
X104817Y331491D01*
X104795Y331485D01*
X104772Y331484D01*
X104660Y331447D01*
X104545Y331416D01*
X104526Y331404D01*
X104504Y331397D01*
X104406Y331330D01*
X104305Y331268D01*
X104290Y331251D01*
X104271Y331238D01*
X104196Y331146D01*
X104116Y331058D01*
X104106Y331038D01*
X104092Y331020D01*
X104045Y330911D01*
X103993Y330805D01*
X103990Y330783D01*
X103980Y330761D01*
X103958Y330576D01*
X103946Y330500D01*
X103946Y328718D01*
X102964Y326349D01*
X101151Y324536D01*
X98782Y323554D01*
X96218Y323554D01*
G37*
%LPD*%
%LPC*%
G36*
X628718Y558554D02*
X628718Y558554D01*
X626349Y559536D01*
X624536Y561349D01*
X623554Y563718D01*
X623554Y566282D01*
X624536Y568651D01*
X626349Y570464D01*
X628329Y571285D01*
X628357Y571301D01*
X628387Y571311D01*
X628477Y571372D01*
X628572Y571428D01*
X628594Y571452D01*
X628620Y571470D01*
X628690Y571554D01*
X628764Y571634D01*
X628779Y571663D01*
X628800Y571688D01*
X628843Y571788D01*
X628892Y571885D01*
X628898Y571917D01*
X628911Y571947D01*
X628924Y572055D01*
X628945Y572162D01*
X628942Y572195D01*
X628945Y572227D01*
X628928Y572334D01*
X628918Y572443D01*
X628906Y572473D01*
X628900Y572505D01*
X628853Y572604D01*
X628813Y572705D01*
X628793Y572731D01*
X628779Y572760D01*
X628707Y572841D01*
X628640Y572928D01*
X628613Y572946D01*
X628592Y572970D01*
X628515Y573018D01*
X628411Y573093D01*
X628365Y573109D01*
X628329Y573131D01*
X626043Y574078D01*
X624078Y576043D01*
X623423Y577623D01*
X623407Y577651D01*
X623397Y577682D01*
X623335Y577772D01*
X623280Y577866D01*
X623256Y577888D01*
X623238Y577915D01*
X623154Y577984D01*
X623074Y578059D01*
X623045Y578073D01*
X623020Y578094D01*
X622920Y578137D01*
X622822Y578187D01*
X622791Y578193D01*
X622761Y578205D01*
X622653Y578219D01*
X622545Y578239D01*
X622513Y578236D01*
X622481Y578240D01*
X622373Y578222D01*
X622265Y578212D01*
X622235Y578200D01*
X622203Y578195D01*
X622104Y578148D01*
X622003Y578108D01*
X621977Y578088D01*
X621948Y578074D01*
X621866Y578001D01*
X621780Y577934D01*
X621761Y577908D01*
X621737Y577886D01*
X621690Y577809D01*
X621615Y577705D01*
X621599Y577660D01*
X621577Y577623D01*
X620922Y576043D01*
X618957Y574078D01*
X616390Y573014D01*
X613610Y573014D01*
X611043Y574078D01*
X609078Y576043D01*
X608423Y577623D01*
X608407Y577651D01*
X608397Y577682D01*
X608335Y577772D01*
X608280Y577866D01*
X608256Y577888D01*
X608238Y577915D01*
X608154Y577984D01*
X608074Y578059D01*
X608045Y578073D01*
X608020Y578094D01*
X607920Y578137D01*
X607822Y578187D01*
X607791Y578193D01*
X607761Y578205D01*
X607653Y578219D01*
X607545Y578239D01*
X607513Y578236D01*
X607481Y578240D01*
X607373Y578222D01*
X607265Y578212D01*
X607235Y578200D01*
X607203Y578195D01*
X607104Y578148D01*
X607003Y578108D01*
X606977Y578088D01*
X606948Y578074D01*
X606866Y578001D01*
X606780Y577934D01*
X606761Y577908D01*
X606737Y577886D01*
X606690Y577809D01*
X606615Y577705D01*
X606599Y577660D01*
X606577Y577623D01*
X605922Y576043D01*
X603957Y574078D01*
X601390Y573014D01*
X598610Y573014D01*
X596043Y574078D01*
X594078Y576043D01*
X593014Y578610D01*
X593014Y581390D01*
X594078Y583957D01*
X596043Y585922D01*
X598610Y586986D01*
X601390Y586986D01*
X603957Y585922D01*
X605922Y583957D01*
X606577Y582377D01*
X606593Y582349D01*
X606603Y582318D01*
X606665Y582228D01*
X606720Y582134D01*
X606744Y582112D01*
X606762Y582085D01*
X606847Y582016D01*
X606926Y581941D01*
X606955Y581927D01*
X606980Y581906D01*
X607080Y581863D01*
X607178Y581813D01*
X607209Y581807D01*
X607239Y581795D01*
X607347Y581781D01*
X607455Y581761D01*
X607487Y581764D01*
X607519Y581760D01*
X607627Y581778D01*
X607735Y581788D01*
X607765Y581800D01*
X607797Y581805D01*
X607896Y581852D01*
X607997Y581893D01*
X608023Y581912D01*
X608052Y581926D01*
X608134Y581999D01*
X608220Y582066D01*
X608239Y582092D01*
X608263Y582114D01*
X608310Y582191D01*
X608385Y582295D01*
X608401Y582340D01*
X608423Y582377D01*
X609078Y583957D01*
X611043Y585922D01*
X613610Y586986D01*
X616390Y586986D01*
X618957Y585922D01*
X620922Y583957D01*
X621577Y582377D01*
X621593Y582349D01*
X621603Y582318D01*
X621665Y582228D01*
X621720Y582134D01*
X621744Y582112D01*
X621762Y582085D01*
X621847Y582016D01*
X621926Y581941D01*
X621955Y581927D01*
X621980Y581906D01*
X622080Y581863D01*
X622178Y581813D01*
X622209Y581807D01*
X622239Y581795D01*
X622347Y581781D01*
X622455Y581761D01*
X622487Y581764D01*
X622519Y581760D01*
X622627Y581778D01*
X622735Y581788D01*
X622765Y581800D01*
X622797Y581805D01*
X622896Y581852D01*
X622997Y581893D01*
X623023Y581912D01*
X623052Y581926D01*
X623134Y581999D01*
X623220Y582066D01*
X623239Y582092D01*
X623263Y582114D01*
X623310Y582191D01*
X623385Y582295D01*
X623401Y582340D01*
X623423Y582377D01*
X624078Y583957D01*
X626043Y585922D01*
X628610Y586986D01*
X631390Y586986D01*
X633957Y585922D01*
X635922Y583957D01*
X636869Y581671D01*
X636885Y581644D01*
X636895Y581613D01*
X636957Y581522D01*
X637013Y581429D01*
X637036Y581406D01*
X637054Y581380D01*
X637139Y581310D01*
X637218Y581236D01*
X637247Y581221D01*
X637272Y581200D01*
X637372Y581157D01*
X637470Y581108D01*
X637502Y581102D01*
X637531Y581089D01*
X637639Y581076D01*
X637747Y581055D01*
X637779Y581058D01*
X637811Y581055D01*
X637919Y581072D01*
X638028Y581082D01*
X638058Y581094D01*
X638089Y581100D01*
X638188Y581147D01*
X638290Y581187D01*
X638315Y581207D01*
X638344Y581221D01*
X638426Y581293D01*
X638512Y581360D01*
X638531Y581387D01*
X638555Y581408D01*
X638602Y581485D01*
X638677Y581589D01*
X638693Y581635D01*
X638715Y581671D01*
X639536Y583651D01*
X641349Y585464D01*
X643718Y586446D01*
X646282Y586446D01*
X648651Y585464D01*
X650464Y583651D01*
X651446Y581282D01*
X651446Y578718D01*
X650464Y576349D01*
X648651Y574536D01*
X646282Y573554D01*
X643718Y573554D01*
X641349Y574536D01*
X639536Y576349D01*
X638715Y578329D01*
X638699Y578357D01*
X638689Y578387D01*
X638628Y578477D01*
X638572Y578572D01*
X638548Y578594D01*
X638530Y578620D01*
X638446Y578690D01*
X638366Y578764D01*
X638337Y578779D01*
X638312Y578800D01*
X638212Y578843D01*
X638115Y578892D01*
X638083Y578898D01*
X638053Y578911D01*
X637945Y578924D01*
X637838Y578945D01*
X637805Y578942D01*
X637773Y578945D01*
X637666Y578928D01*
X637557Y578918D01*
X637527Y578906D01*
X637495Y578900D01*
X637396Y578853D01*
X637295Y578813D01*
X637269Y578793D01*
X637240Y578779D01*
X637159Y578707D01*
X637072Y578640D01*
X637054Y578613D01*
X637030Y578592D01*
X636982Y578515D01*
X636907Y578411D01*
X636891Y578365D01*
X636869Y578329D01*
X635922Y576043D01*
X633957Y574078D01*
X631671Y573131D01*
X631644Y573115D01*
X631613Y573105D01*
X631522Y573043D01*
X631429Y572987D01*
X631406Y572964D01*
X631380Y572946D01*
X631310Y572861D01*
X631236Y572782D01*
X631221Y572753D01*
X631200Y572728D01*
X631157Y572628D01*
X631108Y572530D01*
X631102Y572498D01*
X631089Y572469D01*
X631076Y572361D01*
X631055Y572253D01*
X631058Y572221D01*
X631055Y572189D01*
X631072Y572081D01*
X631082Y571972D01*
X631094Y571942D01*
X631100Y571911D01*
X631147Y571812D01*
X631187Y571710D01*
X631207Y571685D01*
X631221Y571656D01*
X631293Y571574D01*
X631360Y571488D01*
X631387Y571469D01*
X631408Y571445D01*
X631485Y571398D01*
X631589Y571323D01*
X631635Y571307D01*
X631671Y571285D01*
X633651Y570464D01*
X635464Y568651D01*
X636446Y566282D01*
X636446Y563718D01*
X635464Y561349D01*
X633651Y559536D01*
X631282Y558554D01*
X628718Y558554D01*
G37*
%LPD*%
%LPC*%
G36*
X333718Y556054D02*
X333718Y556054D01*
X331349Y557036D01*
X329536Y558849D01*
X328554Y561218D01*
X328554Y563782D01*
X328699Y564133D01*
X328729Y564248D01*
X328764Y564361D01*
X328764Y564384D01*
X328770Y564406D01*
X328766Y564524D01*
X328767Y564643D01*
X328761Y564665D01*
X328760Y564688D01*
X328724Y564800D01*
X328692Y564915D01*
X328680Y564934D01*
X328673Y564956D01*
X328606Y565054D01*
X328544Y565155D01*
X328527Y565170D01*
X328514Y565189D01*
X328423Y565264D01*
X328335Y565344D01*
X328314Y565354D01*
X328297Y565368D01*
X328188Y565415D01*
X328081Y565467D01*
X328060Y565470D01*
X328037Y565480D01*
X327853Y565502D01*
X327776Y565514D01*
X327143Y565514D01*
X324575Y566578D01*
X323207Y567947D01*
X323155Y567985D01*
X323110Y568031D01*
X323043Y568069D01*
X322981Y568116D01*
X322921Y568139D01*
X322865Y568170D01*
X322790Y568188D01*
X322717Y568215D01*
X322653Y568220D01*
X322590Y568235D01*
X322513Y568231D01*
X322436Y568237D01*
X322373Y568224D01*
X322309Y568221D01*
X322236Y568195D01*
X322160Y568180D01*
X322103Y568149D01*
X322042Y568128D01*
X321986Y568087D01*
X321911Y568047D01*
X321850Y567988D01*
X321793Y567947D01*
X320425Y566578D01*
X317857Y565514D01*
X314945Y565514D01*
X314881Y565505D01*
X314817Y565506D01*
X314742Y565485D01*
X314666Y565474D01*
X314607Y565448D01*
X314545Y565431D01*
X314479Y565390D01*
X314409Y565358D01*
X314360Y565316D01*
X314305Y565283D01*
X314253Y565225D01*
X314195Y565175D01*
X314159Y565121D01*
X314116Y565073D01*
X314083Y565004D01*
X314040Y564939D01*
X314021Y564877D01*
X313993Y564820D01*
X313982Y564750D01*
X313958Y564669D01*
X313957Y564584D01*
X313946Y564515D01*
X313946Y562468D01*
X312964Y560099D01*
X311151Y558286D01*
X308782Y557304D01*
X306218Y557304D01*
X303849Y558286D01*
X302036Y560099D01*
X301054Y562468D01*
X301054Y565032D01*
X301708Y566610D01*
X301729Y566694D01*
X301760Y566775D01*
X301764Y566830D01*
X301778Y566883D01*
X301775Y566970D01*
X301782Y567056D01*
X301770Y567110D01*
X301769Y567165D01*
X301742Y567247D01*
X301724Y567332D01*
X301698Y567381D01*
X301681Y567433D01*
X301632Y567505D01*
X301592Y567581D01*
X301553Y567620D01*
X301522Y567666D01*
X301455Y567721D01*
X301395Y567783D01*
X301347Y567810D01*
X301305Y567845D01*
X301225Y567879D01*
X301149Y567922D01*
X301096Y567935D01*
X301046Y567957D01*
X300960Y567967D01*
X300875Y567987D01*
X300820Y567984D01*
X300766Y567991D01*
X300680Y567977D01*
X300593Y567973D01*
X300541Y567955D01*
X300487Y567946D01*
X300409Y567909D01*
X300327Y567880D01*
X300286Y567850D01*
X300233Y567825D01*
X300148Y567749D01*
X300078Y567699D01*
X298957Y566578D01*
X296390Y565514D01*
X293610Y565514D01*
X291043Y566578D01*
X289078Y568543D01*
X288014Y571110D01*
X288014Y573890D01*
X289078Y576457D01*
X291043Y578422D01*
X293610Y579486D01*
X296390Y579486D01*
X298957Y578422D01*
X300922Y576457D01*
X301986Y573890D01*
X301986Y571110D01*
X301250Y569334D01*
X301229Y569250D01*
X301198Y569169D01*
X301194Y569114D01*
X301180Y569061D01*
X301183Y568975D01*
X301176Y568888D01*
X301187Y568834D01*
X301189Y568779D01*
X301216Y568697D01*
X301234Y568612D01*
X301259Y568564D01*
X301277Y568511D01*
X301325Y568439D01*
X301366Y568363D01*
X301405Y568324D01*
X301435Y568278D01*
X301502Y568223D01*
X301563Y568161D01*
X301611Y568134D01*
X301653Y568099D01*
X301733Y568065D01*
X301808Y568022D01*
X301862Y568009D01*
X301912Y567988D01*
X301998Y567977D01*
X302083Y567957D01*
X302138Y567960D01*
X302192Y567953D01*
X302278Y567967D01*
X302364Y567971D01*
X302416Y567989D01*
X302470Y567998D01*
X302549Y568035D01*
X302631Y568064D01*
X302672Y568094D01*
X302725Y568119D01*
X302810Y568195D01*
X302880Y568246D01*
X303849Y569214D01*
X306218Y570196D01*
X308483Y570196D01*
X308546Y570205D01*
X308610Y570204D01*
X308685Y570225D01*
X308762Y570236D01*
X308820Y570262D01*
X308882Y570279D01*
X308948Y570320D01*
X309019Y570352D01*
X309067Y570394D01*
X309122Y570427D01*
X309174Y570485D01*
X309233Y570535D01*
X309268Y570589D01*
X309311Y570637D01*
X309345Y570706D01*
X309387Y570771D01*
X309406Y570833D01*
X309434Y570890D01*
X309445Y570960D01*
X309470Y571041D01*
X309471Y571126D01*
X309482Y571195D01*
X309482Y573890D01*
X310545Y576457D01*
X312510Y578422D01*
X315078Y579486D01*
X317857Y579486D01*
X320425Y578422D01*
X321793Y577053D01*
X321845Y577015D01*
X321890Y576969D01*
X321957Y576931D01*
X322019Y576884D01*
X322079Y576862D01*
X322135Y576830D01*
X322210Y576812D01*
X322283Y576785D01*
X322347Y576780D01*
X322409Y576765D01*
X322487Y576769D01*
X322564Y576763D01*
X322627Y576776D01*
X322691Y576779D01*
X322764Y576805D01*
X322840Y576820D01*
X322897Y576851D01*
X322958Y576872D01*
X323014Y576913D01*
X323089Y576953D01*
X323150Y577012D01*
X323207Y577053D01*
X324575Y578422D01*
X327143Y579486D01*
X329922Y579486D01*
X332490Y578422D01*
X334455Y576457D01*
X335518Y573890D01*
X335518Y571110D01*
X335194Y570327D01*
X335164Y570213D01*
X335130Y570099D01*
X335129Y570076D01*
X335124Y570054D01*
X335128Y569936D01*
X335126Y569817D01*
X335132Y569795D01*
X335133Y569772D01*
X335170Y569660D01*
X335201Y569545D01*
X335213Y569526D01*
X335220Y569504D01*
X335287Y569406D01*
X335349Y569305D01*
X335366Y569290D01*
X335379Y569271D01*
X335471Y569196D01*
X335559Y569116D01*
X335579Y569106D01*
X335597Y569092D01*
X335706Y569045D01*
X335812Y568993D01*
X335834Y568990D01*
X335856Y568980D01*
X336041Y568958D01*
X336117Y568946D01*
X336282Y568946D01*
X338651Y567964D01*
X340464Y566151D01*
X341446Y563782D01*
X341446Y561218D01*
X340464Y558849D01*
X338651Y557036D01*
X336282Y556054D01*
X333718Y556054D01*
G37*
%LPD*%
%LPC*%
G36*
X641218Y358554D02*
X641218Y358554D01*
X638849Y359536D01*
X637036Y361349D01*
X636054Y363718D01*
X636054Y366282D01*
X636738Y367932D01*
X636746Y367963D01*
X636760Y367992D01*
X636781Y368100D01*
X636808Y368205D01*
X636807Y368238D01*
X636813Y368269D01*
X636802Y368378D01*
X636799Y368487D01*
X636789Y368518D01*
X636786Y368550D01*
X636745Y368652D01*
X636711Y368755D01*
X636693Y368782D01*
X636681Y368812D01*
X636614Y368898D01*
X636552Y368988D01*
X636528Y369009D01*
X636508Y369034D01*
X636419Y369098D01*
X636335Y369168D01*
X636305Y369180D01*
X636279Y369199D01*
X636176Y369236D01*
X636076Y369279D01*
X636044Y369283D01*
X636013Y369294D01*
X635904Y369300D01*
X635796Y369314D01*
X635764Y369308D01*
X635732Y369310D01*
X635644Y369289D01*
X635517Y369269D01*
X635474Y369248D01*
X635432Y369238D01*
X633782Y368554D01*
X631218Y368554D01*
X628849Y369536D01*
X627036Y371349D01*
X626054Y373718D01*
X626054Y376282D01*
X627036Y378651D01*
X628849Y380464D01*
X631218Y381446D01*
X633782Y381446D01*
X636151Y380464D01*
X637964Y378651D01*
X638946Y376282D01*
X638946Y373718D01*
X638262Y372068D01*
X638254Y372037D01*
X638240Y372008D01*
X638219Y371900D01*
X638192Y371795D01*
X638193Y371762D01*
X638187Y371731D01*
X638198Y371622D01*
X638201Y371513D01*
X638211Y371482D01*
X638214Y371450D01*
X638255Y371348D01*
X638289Y371245D01*
X638307Y371218D01*
X638319Y371188D01*
X638386Y371102D01*
X638448Y371012D01*
X638472Y370991D01*
X638492Y370966D01*
X638581Y370902D01*
X638665Y370832D01*
X638695Y370820D01*
X638721Y370801D01*
X638824Y370764D01*
X638924Y370721D01*
X638956Y370717D01*
X638987Y370706D01*
X639096Y370700D01*
X639204Y370686D01*
X639236Y370692D01*
X639268Y370690D01*
X639356Y370711D01*
X639483Y370731D01*
X639526Y370752D01*
X639568Y370762D01*
X641218Y371446D01*
X643782Y371446D01*
X645432Y370762D01*
X645463Y370754D01*
X645492Y370740D01*
X645600Y370719D01*
X645705Y370692D01*
X645738Y370693D01*
X645769Y370687D01*
X645878Y370698D01*
X645987Y370701D01*
X646018Y370711D01*
X646050Y370714D01*
X646152Y370755D01*
X646255Y370789D01*
X646282Y370807D01*
X646312Y370819D01*
X646398Y370886D01*
X646488Y370948D01*
X646509Y370972D01*
X646534Y370992D01*
X646598Y371081D01*
X646668Y371165D01*
X646680Y371195D01*
X646699Y371221D01*
X646736Y371324D01*
X646779Y371424D01*
X646783Y371456D01*
X646794Y371487D01*
X646800Y371596D01*
X646814Y371704D01*
X646808Y371736D01*
X646810Y371768D01*
X646789Y371856D01*
X646769Y371983D01*
X646748Y372026D01*
X646738Y372068D01*
X646054Y373718D01*
X646054Y376282D01*
X647036Y378651D01*
X648849Y380464D01*
X651218Y381446D01*
X653782Y381446D01*
X656151Y380464D01*
X657964Y378651D01*
X658946Y376282D01*
X658946Y373718D01*
X658262Y372068D01*
X658254Y372037D01*
X658240Y372008D01*
X658219Y371900D01*
X658192Y371795D01*
X658193Y371762D01*
X658187Y371731D01*
X658198Y371622D01*
X658201Y371513D01*
X658211Y371482D01*
X658214Y371450D01*
X658255Y371348D01*
X658289Y371245D01*
X658307Y371218D01*
X658319Y371188D01*
X658386Y371102D01*
X658448Y371012D01*
X658472Y370991D01*
X658492Y370966D01*
X658581Y370902D01*
X658665Y370832D01*
X658695Y370820D01*
X658721Y370801D01*
X658824Y370764D01*
X658924Y370721D01*
X658956Y370717D01*
X658987Y370706D01*
X659096Y370700D01*
X659204Y370686D01*
X659236Y370692D01*
X659268Y370690D01*
X659356Y370711D01*
X659483Y370731D01*
X659526Y370752D01*
X659568Y370762D01*
X661218Y371446D01*
X663782Y371446D01*
X665432Y370762D01*
X665463Y370754D01*
X665492Y370740D01*
X665600Y370719D01*
X665705Y370692D01*
X665738Y370693D01*
X665769Y370687D01*
X665878Y370698D01*
X665987Y370701D01*
X666018Y370711D01*
X666050Y370714D01*
X666152Y370755D01*
X666255Y370789D01*
X666282Y370807D01*
X666312Y370819D01*
X666398Y370886D01*
X666488Y370948D01*
X666509Y370972D01*
X666534Y370992D01*
X666598Y371081D01*
X666668Y371165D01*
X666680Y371195D01*
X666699Y371221D01*
X666736Y371324D01*
X666779Y371424D01*
X666783Y371456D01*
X666794Y371487D01*
X666800Y371596D01*
X666814Y371704D01*
X666808Y371736D01*
X666810Y371768D01*
X666789Y371856D01*
X666769Y371983D01*
X666748Y372026D01*
X666738Y372068D01*
X666054Y373718D01*
X666054Y376282D01*
X667036Y378651D01*
X668849Y380464D01*
X671218Y381446D01*
X673782Y381446D01*
X676151Y380464D01*
X677964Y378651D01*
X678946Y376282D01*
X678946Y373718D01*
X677964Y371349D01*
X676151Y369536D01*
X673782Y368554D01*
X671218Y368554D01*
X669568Y369238D01*
X669537Y369246D01*
X669508Y369260D01*
X669400Y369281D01*
X669295Y369308D01*
X669262Y369307D01*
X669231Y369313D01*
X669122Y369302D01*
X669013Y369299D01*
X668982Y369289D01*
X668950Y369286D01*
X668848Y369245D01*
X668745Y369211D01*
X668718Y369193D01*
X668688Y369181D01*
X668602Y369114D01*
X668512Y369052D01*
X668491Y369028D01*
X668466Y369008D01*
X668402Y368919D01*
X668332Y368835D01*
X668320Y368805D01*
X668301Y368779D01*
X668264Y368676D01*
X668221Y368576D01*
X668217Y368544D01*
X668206Y368513D01*
X668200Y368404D01*
X668186Y368296D01*
X668192Y368264D01*
X668190Y368232D01*
X668211Y368144D01*
X668231Y368017D01*
X668252Y367974D01*
X668262Y367932D01*
X668946Y366282D01*
X668946Y363718D01*
X667964Y361349D01*
X666151Y359536D01*
X663782Y358554D01*
X661218Y358554D01*
X658849Y359536D01*
X657036Y361349D01*
X656054Y363718D01*
X656054Y366282D01*
X656738Y367932D01*
X656746Y367963D01*
X656760Y367992D01*
X656781Y368100D01*
X656808Y368205D01*
X656807Y368238D01*
X656813Y368269D01*
X656802Y368378D01*
X656799Y368487D01*
X656789Y368518D01*
X656786Y368550D01*
X656745Y368652D01*
X656711Y368755D01*
X656693Y368782D01*
X656681Y368812D01*
X656614Y368898D01*
X656552Y368988D01*
X656528Y369009D01*
X656508Y369034D01*
X656419Y369098D01*
X656335Y369168D01*
X656305Y369180D01*
X656279Y369199D01*
X656176Y369236D01*
X656076Y369279D01*
X656044Y369283D01*
X656013Y369294D01*
X655904Y369300D01*
X655796Y369314D01*
X655764Y369308D01*
X655732Y369310D01*
X655644Y369289D01*
X655517Y369269D01*
X655474Y369248D01*
X655432Y369238D01*
X653782Y368554D01*
X651218Y368554D01*
X649568Y369238D01*
X649537Y369246D01*
X649508Y369260D01*
X649400Y369281D01*
X649295Y369308D01*
X649262Y369307D01*
X649231Y369313D01*
X649122Y369302D01*
X649013Y369299D01*
X648982Y369289D01*
X648950Y369286D01*
X648848Y369245D01*
X648745Y369211D01*
X648718Y369193D01*
X648688Y369181D01*
X648602Y369114D01*
X648512Y369052D01*
X648491Y369028D01*
X648466Y369008D01*
X648402Y368919D01*
X648332Y368835D01*
X648320Y368805D01*
X648301Y368779D01*
X648264Y368676D01*
X648221Y368576D01*
X648217Y368544D01*
X648206Y368513D01*
X648200Y368404D01*
X648186Y368296D01*
X648192Y368264D01*
X648190Y368232D01*
X648211Y368144D01*
X648231Y368017D01*
X648252Y367974D01*
X648262Y367932D01*
X648946Y366282D01*
X648946Y363718D01*
X647964Y361349D01*
X646151Y359536D01*
X643782Y358554D01*
X641218Y358554D01*
G37*
%LPD*%
%LPC*%
G36*
X97779Y803869D02*
X97779Y803869D01*
X92750Y805952D01*
X88902Y809800D01*
X86819Y814829D01*
X86819Y820271D01*
X88902Y825300D01*
X92750Y829148D01*
X97779Y831231D01*
X103221Y831231D01*
X108250Y829148D01*
X112098Y825300D01*
X114181Y820271D01*
X114181Y814829D01*
X112098Y809800D01*
X108250Y805952D01*
X103221Y803869D01*
X97779Y803869D01*
G37*
%LPD*%
%LPC*%
G36*
X97779Y648769D02*
X97779Y648769D01*
X92750Y650852D01*
X88902Y654700D01*
X86819Y659729D01*
X86819Y665171D01*
X88902Y670200D01*
X92750Y674048D01*
X97779Y676131D01*
X103221Y676131D01*
X108250Y674048D01*
X112098Y670200D01*
X114181Y665171D01*
X114181Y659729D01*
X112098Y654700D01*
X108250Y650852D01*
X103221Y648769D01*
X97779Y648769D01*
G37*
%LPD*%
%LPC*%
G36*
X408610Y598014D02*
X408610Y598014D01*
X406043Y599078D01*
X404078Y601043D01*
X403014Y603610D01*
X403014Y606390D01*
X404078Y608957D01*
X406043Y610922D01*
X408610Y611986D01*
X411390Y611986D01*
X413957Y610922D01*
X415922Y608957D01*
X416869Y606671D01*
X416885Y606644D01*
X416895Y606613D01*
X416957Y606522D01*
X417013Y606429D01*
X417036Y606406D01*
X417054Y606380D01*
X417139Y606310D01*
X417218Y606236D01*
X417247Y606221D01*
X417272Y606200D01*
X417372Y606157D01*
X417470Y606108D01*
X417502Y606102D01*
X417531Y606089D01*
X417639Y606076D01*
X417747Y606055D01*
X417779Y606058D01*
X417811Y606055D01*
X417919Y606072D01*
X418028Y606082D01*
X418058Y606094D01*
X418089Y606100D01*
X418188Y606147D01*
X418290Y606187D01*
X418315Y606207D01*
X418344Y606221D01*
X418426Y606293D01*
X418512Y606360D01*
X418531Y606387D01*
X418555Y606408D01*
X418602Y606485D01*
X418677Y606589D01*
X418693Y606635D01*
X418704Y606652D01*
X418711Y606663D01*
X418711Y606665D01*
X418715Y606671D01*
X419536Y608651D01*
X421349Y610464D01*
X423718Y611446D01*
X426282Y611446D01*
X428651Y610464D01*
X430464Y608651D01*
X431285Y606671D01*
X431301Y606643D01*
X431311Y606613D01*
X431372Y606523D01*
X431428Y606428D01*
X431452Y606406D01*
X431470Y606380D01*
X431554Y606310D01*
X431634Y606236D01*
X431663Y606221D01*
X431688Y606200D01*
X431788Y606157D01*
X431885Y606108D01*
X431917Y606102D01*
X431947Y606089D01*
X432055Y606076D01*
X432162Y606055D01*
X432195Y606058D01*
X432227Y606055D01*
X432334Y606072D01*
X432443Y606082D01*
X432473Y606094D01*
X432505Y606100D01*
X432604Y606147D01*
X432705Y606187D01*
X432731Y606207D01*
X432760Y606221D01*
X432841Y606293D01*
X432928Y606360D01*
X432946Y606387D01*
X432970Y606408D01*
X433018Y606485D01*
X433093Y606589D01*
X433109Y606635D01*
X433119Y606652D01*
X433127Y606663D01*
X433127Y606665D01*
X433131Y606671D01*
X434078Y608957D01*
X436043Y610922D01*
X438610Y611986D01*
X441390Y611986D01*
X443957Y610922D01*
X445922Y608957D01*
X446869Y606671D01*
X446885Y606644D01*
X446895Y606613D01*
X446957Y606522D01*
X447013Y606429D01*
X447036Y606406D01*
X447054Y606380D01*
X447139Y606310D01*
X447218Y606236D01*
X447247Y606221D01*
X447272Y606200D01*
X447372Y606157D01*
X447470Y606108D01*
X447502Y606102D01*
X447531Y606089D01*
X447639Y606076D01*
X447747Y606055D01*
X447779Y606058D01*
X447811Y606055D01*
X447919Y606072D01*
X448028Y606082D01*
X448058Y606094D01*
X448089Y606100D01*
X448188Y606147D01*
X448290Y606187D01*
X448315Y606207D01*
X448344Y606221D01*
X448426Y606293D01*
X448512Y606360D01*
X448531Y606387D01*
X448555Y606408D01*
X448602Y606485D01*
X448677Y606589D01*
X448693Y606635D01*
X448704Y606652D01*
X448711Y606663D01*
X448711Y606665D01*
X448715Y606671D01*
X449536Y608651D01*
X451349Y610464D01*
X453718Y611446D01*
X456282Y611446D01*
X458651Y610464D01*
X460464Y608651D01*
X461446Y606282D01*
X461446Y603718D01*
X460464Y601349D01*
X458651Y599536D01*
X456282Y598554D01*
X453718Y598554D01*
X451349Y599536D01*
X449536Y601349D01*
X448715Y603329D01*
X448699Y603357D01*
X448689Y603387D01*
X448628Y603477D01*
X448572Y603572D01*
X448548Y603594D01*
X448530Y603620D01*
X448446Y603690D01*
X448366Y603764D01*
X448337Y603779D01*
X448312Y603800D01*
X448212Y603843D01*
X448115Y603892D01*
X448083Y603898D01*
X448053Y603911D01*
X447945Y603924D01*
X447838Y603945D01*
X447805Y603942D01*
X447773Y603945D01*
X447666Y603928D01*
X447557Y603918D01*
X447527Y603906D01*
X447495Y603900D01*
X447396Y603853D01*
X447295Y603813D01*
X447269Y603793D01*
X447240Y603779D01*
X447159Y603707D01*
X447072Y603640D01*
X447054Y603613D01*
X447030Y603592D01*
X446982Y603514D01*
X446907Y603411D01*
X446891Y603365D01*
X446869Y603329D01*
X445922Y601043D01*
X443957Y599078D01*
X441390Y598014D01*
X438610Y598014D01*
X436043Y599078D01*
X434078Y601043D01*
X433131Y603329D01*
X433115Y603356D01*
X433105Y603387D01*
X433043Y603478D01*
X432987Y603571D01*
X432964Y603594D01*
X432946Y603620D01*
X432861Y603690D01*
X432782Y603764D01*
X432753Y603779D01*
X432728Y603800D01*
X432628Y603843D01*
X432530Y603892D01*
X432498Y603898D01*
X432469Y603911D01*
X432361Y603924D01*
X432253Y603945D01*
X432221Y603942D01*
X432189Y603945D01*
X432081Y603928D01*
X431972Y603918D01*
X431942Y603906D01*
X431911Y603900D01*
X431812Y603853D01*
X431710Y603813D01*
X431685Y603793D01*
X431656Y603779D01*
X431574Y603707D01*
X431488Y603640D01*
X431469Y603613D01*
X431445Y603592D01*
X431398Y603515D01*
X431323Y603411D01*
X431307Y603365D01*
X431285Y603329D01*
X430464Y601349D01*
X428651Y599536D01*
X426282Y598554D01*
X423718Y598554D01*
X421349Y599536D01*
X419536Y601349D01*
X418715Y603329D01*
X418699Y603357D01*
X418689Y603387D01*
X418628Y603477D01*
X418572Y603572D01*
X418548Y603594D01*
X418530Y603620D01*
X418446Y603690D01*
X418366Y603764D01*
X418337Y603779D01*
X418312Y603800D01*
X418212Y603843D01*
X418115Y603892D01*
X418083Y603898D01*
X418053Y603911D01*
X417945Y603924D01*
X417838Y603945D01*
X417805Y603942D01*
X417773Y603945D01*
X417666Y603928D01*
X417557Y603918D01*
X417527Y603906D01*
X417495Y603900D01*
X417396Y603853D01*
X417295Y603813D01*
X417269Y603793D01*
X417240Y603779D01*
X417159Y603707D01*
X417072Y603640D01*
X417054Y603613D01*
X417030Y603592D01*
X416982Y603514D01*
X416907Y603411D01*
X416891Y603365D01*
X416869Y603329D01*
X415922Y601043D01*
X413957Y599078D01*
X411390Y598014D01*
X408610Y598014D01*
G37*
%LPD*%
%LPC*%
G36*
X496218Y653554D02*
X496218Y653554D01*
X493849Y654536D01*
X492036Y656349D01*
X491054Y658718D01*
X491054Y661282D01*
X492036Y663651D01*
X493849Y665464D01*
X495363Y666092D01*
X495438Y666136D01*
X495517Y666172D01*
X495559Y666207D01*
X495606Y666235D01*
X495666Y666299D01*
X495732Y666355D01*
X495762Y666401D01*
X495799Y666441D01*
X495838Y666518D01*
X495886Y666591D01*
X495902Y666644D01*
X495927Y666693D01*
X495943Y666778D01*
X495968Y666861D01*
X495969Y666916D01*
X495979Y666970D01*
X495971Y667056D01*
X495972Y667143D01*
X495958Y667196D01*
X495952Y667250D01*
X495920Y667331D01*
X495897Y667415D01*
X495868Y667462D01*
X495848Y667512D01*
X495794Y667581D01*
X495749Y667655D01*
X495708Y667691D01*
X495674Y667735D01*
X495604Y667786D01*
X495539Y667844D01*
X495490Y667868D01*
X495446Y667900D01*
X495364Y667929D01*
X495286Y667967D01*
X495235Y667975D01*
X495180Y667994D01*
X495066Y668001D01*
X494981Y668014D01*
X493610Y668014D01*
X491043Y669078D01*
X489078Y671043D01*
X488014Y673610D01*
X488014Y676390D01*
X489078Y678957D01*
X491043Y680922D01*
X492623Y681577D01*
X492651Y681593D01*
X492682Y681603D01*
X492772Y681665D01*
X492866Y681720D01*
X492888Y681744D01*
X492915Y681762D01*
X492984Y681847D01*
X493059Y681926D01*
X493073Y681955D01*
X493094Y681980D01*
X493137Y682080D01*
X493187Y682178D01*
X493193Y682209D01*
X493205Y682239D01*
X493219Y682347D01*
X493239Y682455D01*
X493236Y682487D01*
X493240Y682519D01*
X493222Y682627D01*
X493212Y682735D01*
X493200Y682765D01*
X493195Y682797D01*
X493148Y682896D01*
X493107Y682997D01*
X493088Y683023D01*
X493074Y683052D01*
X493001Y683134D01*
X492934Y683220D01*
X492908Y683239D01*
X492886Y683263D01*
X492809Y683310D01*
X492705Y683385D01*
X492660Y683401D01*
X492623Y683423D01*
X491043Y684078D01*
X489078Y686043D01*
X488014Y688610D01*
X488014Y691390D01*
X489078Y693957D01*
X491043Y695922D01*
X493610Y696986D01*
X496390Y696986D01*
X498957Y695922D01*
X500922Y693957D01*
X501986Y691390D01*
X501986Y688610D01*
X500922Y686043D01*
X498957Y684078D01*
X497377Y683423D01*
X497349Y683407D01*
X497318Y683397D01*
X497228Y683335D01*
X497134Y683280D01*
X497112Y683256D01*
X497085Y683238D01*
X497016Y683154D01*
X496941Y683074D01*
X496927Y683045D01*
X496906Y683020D01*
X496863Y682920D01*
X496813Y682822D01*
X496807Y682791D01*
X496795Y682761D01*
X496781Y682653D01*
X496761Y682545D01*
X496764Y682513D01*
X496760Y682481D01*
X496778Y682373D01*
X496788Y682265D01*
X496800Y682235D01*
X496805Y682203D01*
X496852Y682104D01*
X496892Y682003D01*
X496912Y681977D01*
X496926Y681948D01*
X496999Y681866D01*
X497066Y681780D01*
X497092Y681761D01*
X497114Y681737D01*
X497191Y681690D01*
X497295Y681615D01*
X497340Y681599D01*
X497377Y681577D01*
X498957Y680922D01*
X500922Y678957D01*
X501986Y676390D01*
X501986Y673610D01*
X500922Y671043D01*
X498957Y669078D01*
X497244Y668368D01*
X497169Y668324D01*
X497090Y668288D01*
X497048Y668252D01*
X497001Y668225D01*
X496942Y668161D01*
X496876Y668105D01*
X496846Y668059D01*
X496808Y668019D01*
X496769Y667942D01*
X496721Y667869D01*
X496705Y667816D01*
X496681Y667767D01*
X496664Y667682D01*
X496639Y667599D01*
X496638Y667544D01*
X496628Y667490D01*
X496636Y667404D01*
X496635Y667317D01*
X496650Y667264D01*
X496655Y667210D01*
X496687Y667129D01*
X496710Y667045D01*
X496739Y666998D01*
X496760Y666948D01*
X496813Y666879D01*
X496859Y666805D01*
X496899Y666769D01*
X496933Y666725D01*
X497004Y666674D01*
X497068Y666616D01*
X497117Y666592D01*
X497162Y666560D01*
X497244Y666531D01*
X497322Y666493D01*
X497372Y666485D01*
X497428Y666466D01*
X497541Y666459D01*
X497626Y666446D01*
X498782Y666446D01*
X501151Y665464D01*
X502964Y663651D01*
X503946Y661282D01*
X503946Y658718D01*
X502964Y656349D01*
X501151Y654536D01*
X498782Y653554D01*
X496218Y653554D01*
G37*
%LPD*%
%LPC*%
G36*
X101218Y66054D02*
X101218Y66054D01*
X98849Y67036D01*
X97036Y68849D01*
X96054Y71218D01*
X96054Y72730D01*
X96050Y72762D01*
X96052Y72794D01*
X96030Y72901D01*
X96014Y73009D01*
X96001Y73039D01*
X95995Y73070D01*
X95943Y73167D01*
X95898Y73266D01*
X95877Y73291D01*
X95862Y73319D01*
X95786Y73397D01*
X95715Y73480D01*
X95688Y73498D01*
X95665Y73521D01*
X95571Y73575D01*
X95479Y73635D01*
X95448Y73644D01*
X95420Y73660D01*
X95314Y73685D01*
X95209Y73717D01*
X95177Y73718D01*
X95146Y73725D01*
X95036Y73720D01*
X94927Y73721D01*
X94896Y73712D01*
X94864Y73711D01*
X94761Y73675D01*
X94655Y73646D01*
X94628Y73629D01*
X94597Y73618D01*
X94524Y73565D01*
X94415Y73498D01*
X94383Y73462D01*
X94348Y73437D01*
X93957Y73045D01*
X91390Y71982D01*
X88610Y71982D01*
X86043Y73045D01*
X84078Y75010D01*
X83014Y77578D01*
X83014Y80357D01*
X84078Y82925D01*
X85447Y84293D01*
X85485Y84345D01*
X85531Y84390D01*
X85569Y84457D01*
X85616Y84519D01*
X85638Y84579D01*
X85670Y84635D01*
X85688Y84710D01*
X85715Y84783D01*
X85720Y84847D01*
X85735Y84909D01*
X85731Y84987D01*
X85737Y85064D01*
X85724Y85127D01*
X85721Y85191D01*
X85695Y85264D01*
X85680Y85340D01*
X85649Y85397D01*
X85628Y85458D01*
X85587Y85514D01*
X85547Y85589D01*
X85488Y85650D01*
X85447Y85707D01*
X84078Y87075D01*
X83014Y89643D01*
X83014Y92422D01*
X84078Y94990D01*
X86043Y96955D01*
X88610Y98018D01*
X91390Y98018D01*
X93957Y96955D01*
X95922Y94990D01*
X96986Y92422D01*
X96986Y89643D01*
X95922Y87075D01*
X94553Y85707D01*
X94515Y85655D01*
X94469Y85610D01*
X94431Y85543D01*
X94384Y85481D01*
X94361Y85421D01*
X94330Y85365D01*
X94312Y85290D01*
X94285Y85217D01*
X94280Y85153D01*
X94265Y85090D01*
X94269Y85013D01*
X94263Y84936D01*
X94276Y84873D01*
X94279Y84809D01*
X94305Y84736D01*
X94320Y84660D01*
X94351Y84603D01*
X94372Y84542D01*
X94413Y84486D01*
X94453Y84411D01*
X94512Y84350D01*
X94553Y84293D01*
X95922Y82925D01*
X96986Y80357D01*
X96986Y78514D01*
X96990Y78482D01*
X96988Y78450D01*
X97010Y78343D01*
X97026Y78235D01*
X97039Y78205D01*
X97045Y78174D01*
X97097Y78077D01*
X97142Y77978D01*
X97163Y77953D01*
X97178Y77925D01*
X97254Y77846D01*
X97325Y77763D01*
X97352Y77746D01*
X97375Y77723D01*
X97470Y77669D01*
X97561Y77609D01*
X97592Y77599D01*
X97620Y77584D01*
X97726Y77558D01*
X97831Y77526D01*
X97863Y77526D01*
X97895Y77519D01*
X98004Y77524D01*
X98113Y77523D01*
X98144Y77531D01*
X98176Y77533D01*
X98279Y77569D01*
X98385Y77598D01*
X98412Y77615D01*
X98443Y77625D01*
X98516Y77679D01*
X98625Y77746D01*
X98657Y77782D01*
X98692Y77807D01*
X98849Y77964D01*
X101218Y78946D01*
X103782Y78946D01*
X106151Y77964D01*
X107964Y76151D01*
X108946Y73782D01*
X108946Y71218D01*
X107964Y68849D01*
X106151Y67036D01*
X103782Y66054D01*
X101218Y66054D01*
G37*
%LPD*%
%LPC*%
G36*
X346218Y653554D02*
X346218Y653554D01*
X343849Y654536D01*
X342036Y656349D01*
X341054Y658718D01*
X341054Y661282D01*
X342036Y663651D01*
X342193Y663808D01*
X342212Y663834D01*
X342237Y663855D01*
X342297Y663947D01*
X342362Y664034D01*
X342373Y664064D01*
X342391Y664091D01*
X342423Y664196D01*
X342462Y664298D01*
X342464Y664330D01*
X342474Y664361D01*
X342475Y664470D01*
X342483Y664579D01*
X342477Y664611D01*
X342477Y664643D01*
X342448Y664748D01*
X342426Y664855D01*
X342411Y664884D01*
X342402Y664915D01*
X342345Y665008D01*
X342293Y665104D01*
X342271Y665127D01*
X342254Y665155D01*
X342173Y665228D01*
X342097Y665306D01*
X342069Y665322D01*
X342045Y665344D01*
X341946Y665391D01*
X341851Y665445D01*
X341820Y665453D01*
X341791Y665467D01*
X341701Y665481D01*
X341577Y665510D01*
X341528Y665508D01*
X341486Y665514D01*
X339643Y665514D01*
X337075Y666578D01*
X335707Y667947D01*
X335655Y667985D01*
X335610Y668031D01*
X335543Y668069D01*
X335481Y668116D01*
X335421Y668138D01*
X335365Y668170D01*
X335290Y668188D01*
X335217Y668215D01*
X335153Y668220D01*
X335091Y668235D01*
X335013Y668231D01*
X334936Y668237D01*
X334873Y668224D01*
X334809Y668221D01*
X334736Y668195D01*
X334660Y668180D01*
X334603Y668149D01*
X334542Y668128D01*
X334486Y668087D01*
X334411Y668047D01*
X334350Y667988D01*
X334293Y667947D01*
X332925Y666578D01*
X330357Y665514D01*
X327578Y665514D01*
X325010Y666578D01*
X323045Y668543D01*
X321982Y671110D01*
X321982Y673890D01*
X323045Y676457D01*
X325010Y678422D01*
X327578Y679486D01*
X330357Y679486D01*
X332925Y678422D01*
X334293Y677053D01*
X334345Y677015D01*
X334390Y676969D01*
X334457Y676931D01*
X334519Y676884D01*
X334579Y676861D01*
X334635Y676830D01*
X334710Y676812D01*
X334783Y676785D01*
X334847Y676780D01*
X334910Y676765D01*
X334987Y676769D01*
X335064Y676763D01*
X335127Y676776D01*
X335191Y676779D01*
X335264Y676805D01*
X335340Y676820D01*
X335397Y676851D01*
X335458Y676872D01*
X335514Y676913D01*
X335589Y676953D01*
X335650Y677012D01*
X335707Y677053D01*
X337075Y678422D01*
X339643Y679486D01*
X342422Y679486D01*
X344990Y678422D01*
X346955Y676457D01*
X348018Y673890D01*
X348018Y671110D01*
X346955Y668543D01*
X346563Y668152D01*
X346544Y668126D01*
X346520Y668105D01*
X346460Y668013D01*
X346394Y667926D01*
X346383Y667896D01*
X346365Y667869D01*
X346333Y667764D01*
X346295Y667662D01*
X346292Y667630D01*
X346283Y667599D01*
X346281Y667490D01*
X346273Y667381D01*
X346279Y667349D01*
X346279Y667317D01*
X346308Y667212D01*
X346330Y667105D01*
X346346Y667076D01*
X346354Y667045D01*
X346412Y666952D01*
X346463Y666856D01*
X346485Y666833D01*
X346502Y666805D01*
X346583Y666732D01*
X346660Y666654D01*
X346688Y666638D01*
X346712Y666616D01*
X346810Y666569D01*
X346905Y666515D01*
X346936Y666507D01*
X346965Y666493D01*
X347055Y666479D01*
X347179Y666450D01*
X347228Y666452D01*
X347270Y666446D01*
X348782Y666446D01*
X351151Y665464D01*
X352964Y663651D01*
X353946Y661282D01*
X353946Y658718D01*
X352964Y656349D01*
X351151Y654536D01*
X348782Y653554D01*
X346218Y653554D01*
G37*
%LPD*%
%LPC*%
G36*
X38718Y21054D02*
X38718Y21054D01*
X36349Y22036D01*
X34536Y23849D01*
X33554Y26218D01*
X33554Y28782D01*
X34536Y31151D01*
X36349Y32964D01*
X37854Y33588D01*
X37956Y33648D01*
X38061Y33704D01*
X38078Y33720D01*
X38097Y33732D01*
X38178Y33818D01*
X38263Y33901D01*
X38274Y33921D01*
X38290Y33937D01*
X38344Y34043D01*
X38402Y34146D01*
X38407Y34168D01*
X38418Y34189D01*
X38440Y34305D01*
X38452Y34357D01*
X38454Y34363D01*
X38454Y34364D01*
X38467Y34421D01*
X38466Y34444D01*
X38470Y34466D01*
X38459Y34584D01*
X38457Y34616D01*
X38458Y34645D01*
X38455Y34653D01*
X38453Y34702D01*
X38445Y34724D01*
X38443Y34747D01*
X38399Y34857D01*
X38398Y34862D01*
X38382Y34916D01*
X38374Y34931D01*
X38360Y34969D01*
X38348Y34986D01*
X38339Y35009D01*
X38275Y35090D01*
X38234Y35156D01*
X38203Y35185D01*
X38179Y35218D01*
X36963Y36434D01*
X36911Y36472D01*
X36866Y36518D01*
X36799Y36557D01*
X36737Y36603D01*
X36677Y36626D01*
X36621Y36657D01*
X36546Y36675D01*
X36473Y36703D01*
X36409Y36708D01*
X36347Y36722D01*
X36269Y36718D01*
X36192Y36724D01*
X36129Y36711D01*
X36065Y36708D01*
X35992Y36683D01*
X35916Y36667D01*
X35859Y36637D01*
X35798Y36616D01*
X35742Y36574D01*
X35667Y36534D01*
X35606Y36475D01*
X35549Y36434D01*
X33651Y34536D01*
X31282Y33554D01*
X28718Y33554D01*
X26349Y34536D01*
X24536Y36349D01*
X23554Y38718D01*
X23554Y41282D01*
X24536Y43651D01*
X26349Y45464D01*
X28718Y46446D01*
X31282Y46446D01*
X33651Y45464D01*
X34607Y44508D01*
X34702Y44437D01*
X34794Y44362D01*
X34815Y44353D01*
X34833Y44339D01*
X34944Y44297D01*
X35053Y44250D01*
X35076Y44247D01*
X35097Y44239D01*
X35215Y44230D01*
X35333Y44216D01*
X35355Y44219D01*
X35378Y44218D01*
X35494Y44242D01*
X35611Y44261D01*
X35632Y44271D01*
X35654Y44275D01*
X35759Y44331D01*
X35866Y44382D01*
X35883Y44397D01*
X35903Y44408D01*
X35988Y44490D01*
X36077Y44569D01*
X36088Y44588D01*
X36105Y44604D01*
X36197Y44767D01*
X36237Y44833D01*
X36243Y44847D01*
X38153Y46757D01*
X40649Y47791D01*
X43351Y47791D01*
X45847Y46757D01*
X47757Y44847D01*
X48791Y42351D01*
X48791Y39649D01*
X47757Y37153D01*
X45847Y35243D01*
X44065Y34505D01*
X43962Y34444D01*
X43858Y34389D01*
X43842Y34373D01*
X43822Y34361D01*
X43741Y34275D01*
X43656Y34192D01*
X43645Y34172D01*
X43629Y34156D01*
X43575Y34050D01*
X43517Y33947D01*
X43512Y33925D01*
X43501Y33904D01*
X43479Y33788D01*
X43452Y33672D01*
X43453Y33649D01*
X43449Y33627D01*
X43460Y33509D01*
X43466Y33391D01*
X43474Y33369D01*
X43476Y33346D01*
X43520Y33236D01*
X43559Y33124D01*
X43571Y33107D01*
X43580Y33084D01*
X43695Y32938D01*
X43740Y32875D01*
X45464Y31151D01*
X46446Y28782D01*
X46446Y26218D01*
X45464Y23849D01*
X43651Y22036D01*
X41282Y21054D01*
X38718Y21054D01*
G37*
%LPD*%
%LPC*%
G36*
X38718Y148554D02*
X38718Y148554D01*
X36349Y149536D01*
X34536Y151349D01*
X33554Y153718D01*
X33554Y156282D01*
X34238Y157932D01*
X34246Y157963D01*
X34260Y157992D01*
X34281Y158100D01*
X34308Y158205D01*
X34307Y158238D01*
X34313Y158269D01*
X34302Y158378D01*
X34299Y158487D01*
X34289Y158518D01*
X34286Y158550D01*
X34245Y158652D01*
X34211Y158755D01*
X34193Y158782D01*
X34181Y158812D01*
X34114Y158898D01*
X34052Y158988D01*
X34028Y159009D01*
X34008Y159034D01*
X33919Y159098D01*
X33835Y159168D01*
X33805Y159180D01*
X33779Y159199D01*
X33676Y159236D01*
X33576Y159279D01*
X33544Y159283D01*
X33513Y159294D01*
X33404Y159300D01*
X33296Y159314D01*
X33264Y159308D01*
X33232Y159310D01*
X33144Y159289D01*
X33017Y159269D01*
X32974Y159248D01*
X32932Y159238D01*
X31282Y158554D01*
X28718Y158554D01*
X26349Y159536D01*
X24536Y161349D01*
X23554Y163718D01*
X23554Y166282D01*
X24536Y168651D01*
X26349Y170464D01*
X28718Y171446D01*
X31282Y171446D01*
X33651Y170464D01*
X34449Y169667D01*
X34544Y169596D01*
X34635Y169520D01*
X34656Y169511D01*
X34674Y169498D01*
X34785Y169456D01*
X34894Y169409D01*
X34917Y169406D01*
X34938Y169398D01*
X35057Y169389D01*
X35174Y169374D01*
X35197Y169378D01*
X35219Y169376D01*
X35336Y169400D01*
X35453Y169419D01*
X35473Y169429D01*
X35496Y169434D01*
X35600Y169489D01*
X35707Y169540D01*
X35724Y169556D01*
X35745Y169566D01*
X35830Y169649D01*
X35918Y169728D01*
X35929Y169746D01*
X35947Y169763D01*
X36039Y169926D01*
X36079Y169991D01*
X36143Y170147D01*
X38053Y172057D01*
X40549Y173091D01*
X43251Y173091D01*
X45747Y172057D01*
X47657Y170147D01*
X48691Y167651D01*
X48691Y164949D01*
X47657Y162453D01*
X45747Y160543D01*
X45591Y160479D01*
X45489Y160418D01*
X45384Y160363D01*
X45368Y160347D01*
X45348Y160335D01*
X45267Y160248D01*
X45182Y160166D01*
X45171Y160146D01*
X45155Y160129D01*
X45102Y160024D01*
X45043Y159920D01*
X45038Y159898D01*
X45028Y159878D01*
X45006Y159761D01*
X44978Y159646D01*
X44979Y159623D01*
X44975Y159601D01*
X44987Y159483D01*
X44993Y159364D01*
X45000Y159343D01*
X45002Y159320D01*
X45046Y159210D01*
X45085Y159098D01*
X45098Y159080D01*
X45107Y159058D01*
X45222Y158911D01*
X45267Y158849D01*
X45464Y158651D01*
X46446Y156282D01*
X46446Y153718D01*
X45464Y151349D01*
X43651Y149536D01*
X41282Y148554D01*
X38718Y148554D01*
G37*
%LPD*%
%LPC*%
G36*
X176218Y208554D02*
X176218Y208554D01*
X173849Y209536D01*
X172036Y211349D01*
X171054Y213718D01*
X171054Y216282D01*
X172036Y218651D01*
X173928Y220543D01*
X173966Y220595D01*
X174012Y220640D01*
X174051Y220707D01*
X174097Y220769D01*
X174120Y220829D01*
X174151Y220885D01*
X174169Y220960D01*
X174197Y221033D01*
X174202Y221097D01*
X174216Y221159D01*
X174212Y221237D01*
X174218Y221314D01*
X174205Y221377D01*
X174202Y221441D01*
X174177Y221514D01*
X174161Y221590D01*
X174131Y221647D01*
X174110Y221708D01*
X174068Y221764D01*
X174028Y221839D01*
X173969Y221900D01*
X173928Y221957D01*
X171957Y223928D01*
X171905Y223966D01*
X171860Y224012D01*
X171793Y224051D01*
X171731Y224097D01*
X171671Y224120D01*
X171615Y224151D01*
X171540Y224169D01*
X171467Y224197D01*
X171403Y224202D01*
X171341Y224216D01*
X171263Y224212D01*
X171186Y224218D01*
X171123Y224205D01*
X171059Y224202D01*
X170986Y224177D01*
X170910Y224161D01*
X170853Y224131D01*
X170792Y224110D01*
X170736Y224068D01*
X170661Y224028D01*
X170600Y223969D01*
X170543Y223928D01*
X168651Y222036D01*
X166282Y221054D01*
X163718Y221054D01*
X161349Y222036D01*
X159536Y223849D01*
X158554Y226218D01*
X158554Y228782D01*
X159536Y231151D01*
X161349Y232964D01*
X163718Y233946D01*
X166282Y233946D01*
X168651Y232964D01*
X170543Y231072D01*
X170595Y231034D01*
X170640Y230988D01*
X170707Y230949D01*
X170769Y230903D01*
X170829Y230880D01*
X170885Y230849D01*
X170960Y230831D01*
X171033Y230803D01*
X171097Y230798D01*
X171160Y230784D01*
X171237Y230788D01*
X171314Y230782D01*
X171377Y230795D01*
X171441Y230798D01*
X171514Y230823D01*
X171590Y230839D01*
X171647Y230869D01*
X171708Y230890D01*
X171764Y230932D01*
X171839Y230972D01*
X171900Y231031D01*
X171957Y231072D01*
X173849Y232964D01*
X176218Y233946D01*
X178782Y233946D01*
X181151Y232964D01*
X182964Y231151D01*
X183946Y228782D01*
X183946Y226218D01*
X182964Y223849D01*
X181072Y221957D01*
X181034Y221905D01*
X180988Y221860D01*
X180949Y221793D01*
X180903Y221731D01*
X180880Y221671D01*
X180849Y221615D01*
X180831Y221540D01*
X180803Y221467D01*
X180798Y221403D01*
X180784Y221341D01*
X180788Y221263D01*
X180782Y221186D01*
X180795Y221123D01*
X180798Y221059D01*
X180823Y220986D01*
X180839Y220910D01*
X180869Y220853D01*
X180890Y220792D01*
X180932Y220736D01*
X180972Y220661D01*
X181031Y220600D01*
X181072Y220543D01*
X182964Y218651D01*
X183946Y216282D01*
X183946Y213718D01*
X182964Y211349D01*
X181151Y209536D01*
X178782Y208554D01*
X176218Y208554D01*
G37*
%LPD*%
%LPC*%
G36*
X573718Y503554D02*
X573718Y503554D01*
X571349Y504536D01*
X569536Y506349D01*
X568554Y508718D01*
X568554Y511282D01*
X569508Y513585D01*
X569516Y513617D01*
X569531Y513645D01*
X569551Y513753D01*
X569578Y513859D01*
X569577Y513891D01*
X569583Y513923D01*
X569573Y514031D01*
X569569Y514140D01*
X569559Y514171D01*
X569556Y514203D01*
X569516Y514305D01*
X569482Y514409D01*
X569464Y514435D01*
X569452Y514465D01*
X569384Y514551D01*
X569323Y514642D01*
X569298Y514662D01*
X569278Y514688D01*
X569190Y514752D01*
X569105Y514821D01*
X569076Y514834D01*
X569050Y514853D01*
X568947Y514889D01*
X568846Y514932D01*
X568814Y514936D01*
X568784Y514947D01*
X568675Y514954D01*
X568566Y514967D01*
X568535Y514962D01*
X568502Y514964D01*
X568414Y514942D01*
X568288Y514922D01*
X568244Y514901D01*
X568203Y514891D01*
X566183Y514054D01*
X563817Y514054D01*
X561632Y514959D01*
X559959Y516632D01*
X559054Y518817D01*
X559054Y521183D01*
X559959Y523368D01*
X561632Y525041D01*
X563817Y525946D01*
X566183Y525946D01*
X568368Y525041D01*
X570041Y523368D01*
X570946Y521183D01*
X570946Y518817D01*
X570109Y516797D01*
X570101Y516766D01*
X570086Y516737D01*
X570066Y516630D01*
X570039Y516524D01*
X570040Y516492D01*
X570034Y516460D01*
X570044Y516351D01*
X570048Y516242D01*
X570058Y516212D01*
X570061Y516179D01*
X570102Y516078D01*
X570135Y515974D01*
X570154Y515947D01*
X570166Y515917D01*
X570233Y515831D01*
X570294Y515741D01*
X570319Y515721D01*
X570339Y515695D01*
X570428Y515631D01*
X570512Y515562D01*
X570542Y515549D01*
X570568Y515530D01*
X570671Y515494D01*
X570771Y515450D01*
X570803Y515446D01*
X570833Y515436D01*
X570943Y515429D01*
X571051Y515416D01*
X571083Y515421D01*
X571115Y515419D01*
X571203Y515440D01*
X571329Y515461D01*
X571373Y515482D01*
X571415Y515492D01*
X573718Y516446D01*
X576282Y516446D01*
X577932Y515762D01*
X577963Y515754D01*
X577992Y515740D01*
X578100Y515719D01*
X578205Y515692D01*
X578238Y515693D01*
X578269Y515687D01*
X578378Y515698D01*
X578487Y515701D01*
X578518Y515711D01*
X578550Y515714D01*
X578652Y515755D01*
X578755Y515789D01*
X578782Y515807D01*
X578812Y515819D01*
X578898Y515886D01*
X578988Y515948D01*
X579009Y515972D01*
X579034Y515992D01*
X579098Y516081D01*
X579168Y516165D01*
X579180Y516195D01*
X579199Y516221D01*
X579236Y516324D01*
X579279Y516424D01*
X579283Y516456D01*
X579294Y516487D01*
X579300Y516596D01*
X579314Y516704D01*
X579308Y516736D01*
X579310Y516768D01*
X579289Y516856D01*
X579269Y516983D01*
X579248Y517026D01*
X579238Y517068D01*
X578554Y518718D01*
X578554Y521282D01*
X579536Y523651D01*
X581349Y525464D01*
X583718Y526446D01*
X586282Y526446D01*
X588651Y525464D01*
X590464Y523651D01*
X591446Y521282D01*
X591446Y518718D01*
X590464Y516349D01*
X588651Y514536D01*
X586282Y513554D01*
X583718Y513554D01*
X582068Y514238D01*
X582037Y514246D01*
X582008Y514260D01*
X581900Y514281D01*
X581795Y514308D01*
X581762Y514307D01*
X581731Y514313D01*
X581622Y514302D01*
X581513Y514299D01*
X581482Y514289D01*
X581450Y514286D01*
X581348Y514245D01*
X581245Y514211D01*
X581218Y514193D01*
X581188Y514181D01*
X581102Y514114D01*
X581012Y514052D01*
X580991Y514028D01*
X580966Y514008D01*
X580902Y513919D01*
X580832Y513835D01*
X580820Y513805D01*
X580801Y513779D01*
X580764Y513676D01*
X580721Y513576D01*
X580717Y513544D01*
X580706Y513513D01*
X580700Y513404D01*
X580686Y513296D01*
X580692Y513264D01*
X580690Y513232D01*
X580711Y513144D01*
X580731Y513017D01*
X580752Y512974D01*
X580762Y512932D01*
X581446Y511282D01*
X581446Y508718D01*
X580464Y506349D01*
X578651Y504536D01*
X576282Y503554D01*
X573718Y503554D01*
G37*
%LPD*%
%LPC*%
G36*
X57578Y8014D02*
X57578Y8014D01*
X55010Y9078D01*
X53045Y11043D01*
X51982Y13610D01*
X51982Y16390D01*
X53045Y18957D01*
X55010Y20922D01*
X57578Y21986D01*
X60357Y21986D01*
X62925Y20922D01*
X64293Y19553D01*
X64345Y19515D01*
X64390Y19469D01*
X64457Y19431D01*
X64519Y19384D01*
X64579Y19361D01*
X64635Y19330D01*
X64710Y19312D01*
X64783Y19285D01*
X64847Y19280D01*
X64910Y19265D01*
X64987Y19269D01*
X65064Y19263D01*
X65127Y19276D01*
X65191Y19279D01*
X65264Y19305D01*
X65340Y19320D01*
X65397Y19351D01*
X65458Y19372D01*
X65514Y19413D01*
X65589Y19453D01*
X65650Y19512D01*
X65707Y19553D01*
X67075Y20922D01*
X69643Y21986D01*
X72422Y21986D01*
X74990Y20922D01*
X76955Y18957D01*
X78018Y16390D01*
X78018Y13610D01*
X76955Y11043D01*
X74990Y9078D01*
X72422Y8014D01*
X69643Y8014D01*
X67075Y9078D01*
X65707Y10447D01*
X65655Y10485D01*
X65610Y10531D01*
X65543Y10569D01*
X65481Y10616D01*
X65421Y10638D01*
X65365Y10670D01*
X65290Y10688D01*
X65217Y10715D01*
X65153Y10720D01*
X65091Y10735D01*
X65013Y10731D01*
X64936Y10737D01*
X64873Y10724D01*
X64809Y10721D01*
X64736Y10695D01*
X64660Y10680D01*
X64603Y10649D01*
X64542Y10628D01*
X64486Y10587D01*
X64411Y10547D01*
X64350Y10488D01*
X64293Y10447D01*
X62925Y9078D01*
X60357Y8014D01*
X57578Y8014D01*
G37*
%LPD*%
%LPC*%
G36*
X327578Y695514D02*
X327578Y695514D01*
X325010Y696578D01*
X323045Y698543D01*
X321982Y701110D01*
X321982Y703890D01*
X323045Y706457D01*
X325010Y708422D01*
X327578Y709486D01*
X330357Y709486D01*
X332925Y708422D01*
X334293Y707053D01*
X334345Y707015D01*
X334390Y706969D01*
X334457Y706931D01*
X334519Y706884D01*
X334579Y706861D01*
X334635Y706830D01*
X334710Y706812D01*
X334783Y706785D01*
X334847Y706780D01*
X334910Y706765D01*
X334987Y706769D01*
X335064Y706763D01*
X335127Y706776D01*
X335191Y706779D01*
X335264Y706805D01*
X335340Y706820D01*
X335397Y706851D01*
X335458Y706872D01*
X335514Y706913D01*
X335589Y706953D01*
X335650Y707012D01*
X335707Y707053D01*
X337075Y708422D01*
X339643Y709486D01*
X342422Y709486D01*
X344990Y708422D01*
X346955Y706457D01*
X348018Y703890D01*
X348018Y701110D01*
X346955Y698543D01*
X344990Y696578D01*
X342422Y695514D01*
X339643Y695514D01*
X337075Y696578D01*
X335707Y697947D01*
X335655Y697985D01*
X335610Y698031D01*
X335543Y698069D01*
X335481Y698116D01*
X335421Y698138D01*
X335365Y698170D01*
X335290Y698188D01*
X335217Y698215D01*
X335153Y698220D01*
X335091Y698235D01*
X335013Y698231D01*
X334936Y698237D01*
X334873Y698224D01*
X334809Y698221D01*
X334736Y698195D01*
X334660Y698180D01*
X334603Y698149D01*
X334542Y698128D01*
X334486Y698087D01*
X334411Y698047D01*
X334350Y697988D01*
X334293Y697947D01*
X332925Y696578D01*
X330357Y695514D01*
X327578Y695514D01*
G37*
%LPD*%
%LPC*%
G36*
X436218Y528554D02*
X436218Y528554D01*
X433849Y529536D01*
X432036Y531349D01*
X431054Y533718D01*
X431054Y536282D01*
X432036Y538651D01*
X433849Y540464D01*
X435829Y541285D01*
X435857Y541301D01*
X435887Y541311D01*
X435977Y541372D01*
X436072Y541428D01*
X436094Y541452D01*
X436120Y541470D01*
X436190Y541554D01*
X436264Y541634D01*
X436279Y541663D01*
X436300Y541688D01*
X436343Y541788D01*
X436392Y541885D01*
X436398Y541917D01*
X436411Y541947D01*
X436424Y542055D01*
X436445Y542162D01*
X436442Y542195D01*
X436445Y542227D01*
X436428Y542334D01*
X436418Y542443D01*
X436406Y542473D01*
X436400Y542505D01*
X436353Y542604D01*
X436313Y542705D01*
X436293Y542731D01*
X436279Y542760D01*
X436207Y542841D01*
X436140Y542928D01*
X436113Y542946D01*
X436092Y542970D01*
X436015Y543018D01*
X435911Y543093D01*
X435865Y543109D01*
X435829Y543131D01*
X433543Y544078D01*
X431578Y546043D01*
X430514Y548610D01*
X430514Y551390D01*
X431578Y553957D01*
X433543Y555922D01*
X436110Y556986D01*
X438890Y556986D01*
X441457Y555922D01*
X443422Y553957D01*
X444486Y551390D01*
X444486Y548610D01*
X443422Y546043D01*
X441457Y544078D01*
X439171Y543131D01*
X439144Y543115D01*
X439113Y543105D01*
X439022Y543043D01*
X438929Y542987D01*
X438906Y542964D01*
X438880Y542946D01*
X438810Y542861D01*
X438736Y542782D01*
X438721Y542753D01*
X438700Y542728D01*
X438657Y542628D01*
X438608Y542530D01*
X438602Y542498D01*
X438589Y542469D01*
X438576Y542361D01*
X438555Y542253D01*
X438558Y542221D01*
X438555Y542189D01*
X438572Y542081D01*
X438582Y541972D01*
X438594Y541942D01*
X438600Y541911D01*
X438647Y541812D01*
X438687Y541710D01*
X438707Y541685D01*
X438721Y541656D01*
X438793Y541574D01*
X438860Y541488D01*
X438887Y541469D01*
X438908Y541445D01*
X438985Y541398D01*
X439089Y541323D01*
X439135Y541307D01*
X439171Y541285D01*
X441151Y540464D01*
X442964Y538651D01*
X443946Y536282D01*
X443946Y533718D01*
X442964Y531349D01*
X441151Y529536D01*
X438782Y528554D01*
X436218Y528554D01*
G37*
%LPD*%
%LPC*%
G36*
X576005Y815474D02*
X576005Y815474D01*
X572504Y816925D01*
X569825Y819604D01*
X568374Y823105D01*
X568374Y826895D01*
X569825Y830396D01*
X572504Y833075D01*
X576005Y834526D01*
X579795Y834526D01*
X583296Y833075D01*
X585975Y830396D01*
X587426Y826895D01*
X587426Y823105D01*
X585975Y819604D01*
X583296Y816925D01*
X579795Y815474D01*
X576005Y815474D01*
G37*
%LPD*%
%LPC*%
G36*
X550605Y815474D02*
X550605Y815474D01*
X547104Y816925D01*
X544425Y819604D01*
X542974Y823105D01*
X542974Y826895D01*
X544425Y830396D01*
X547104Y833075D01*
X550605Y834526D01*
X554395Y834526D01*
X557896Y833075D01*
X560575Y830396D01*
X562026Y826895D01*
X562026Y823105D01*
X560575Y819604D01*
X557896Y816925D01*
X554395Y815474D01*
X550605Y815474D01*
G37*
%LPD*%
%LPC*%
G36*
X626805Y815474D02*
X626805Y815474D01*
X623304Y816925D01*
X620625Y819604D01*
X619174Y823105D01*
X619174Y826895D01*
X620625Y830396D01*
X623304Y833075D01*
X626805Y834526D01*
X630595Y834526D01*
X634096Y833075D01*
X636775Y830396D01*
X638226Y826895D01*
X638226Y823105D01*
X636775Y819604D01*
X634096Y816925D01*
X630595Y815474D01*
X626805Y815474D01*
G37*
%LPD*%
%LPC*%
G36*
X601405Y815474D02*
X601405Y815474D01*
X597904Y816925D01*
X595225Y819604D01*
X593774Y823105D01*
X593774Y826895D01*
X595225Y830396D01*
X597904Y833075D01*
X601405Y834526D01*
X605195Y834526D01*
X608696Y833075D01*
X611375Y830396D01*
X612826Y826895D01*
X612826Y823105D01*
X611375Y819604D01*
X608696Y816925D01*
X605195Y815474D01*
X601405Y815474D01*
G37*
%LPD*%
%LPC*%
G36*
X525205Y815474D02*
X525205Y815474D01*
X521704Y816925D01*
X519025Y819604D01*
X517574Y823105D01*
X517574Y826895D01*
X519025Y830396D01*
X521704Y833075D01*
X525205Y834526D01*
X528995Y834526D01*
X532496Y833075D01*
X535175Y830396D01*
X536626Y826895D01*
X536626Y823105D01*
X535175Y819604D01*
X532496Y816925D01*
X528995Y815474D01*
X525205Y815474D01*
G37*
%LPD*%
%LPC*%
G36*
X499805Y815474D02*
X499805Y815474D01*
X496304Y816925D01*
X493625Y819604D01*
X492174Y823105D01*
X492174Y826895D01*
X493625Y830396D01*
X496304Y833075D01*
X499805Y834526D01*
X503595Y834526D01*
X507096Y833075D01*
X509775Y830396D01*
X511226Y826895D01*
X511226Y823105D01*
X509775Y819604D01*
X507096Y816925D01*
X503595Y815474D01*
X499805Y815474D01*
G37*
%LPD*%
%LPC*%
G36*
X474405Y815474D02*
X474405Y815474D01*
X470904Y816925D01*
X468225Y819604D01*
X466774Y823105D01*
X466774Y826895D01*
X468225Y830396D01*
X470904Y833075D01*
X474405Y834526D01*
X478195Y834526D01*
X481696Y833075D01*
X484375Y830396D01*
X485826Y826895D01*
X485826Y823105D01*
X484375Y819604D01*
X481696Y816925D01*
X478195Y815474D01*
X474405Y815474D01*
G37*
%LPD*%
%LPC*%
G36*
X517305Y232774D02*
X517305Y232774D01*
X513804Y234225D01*
X511125Y236904D01*
X509674Y240405D01*
X509674Y244195D01*
X511125Y247696D01*
X513804Y250375D01*
X517305Y251826D01*
X521095Y251826D01*
X524596Y250375D01*
X527275Y247696D01*
X528726Y244195D01*
X528726Y240405D01*
X527275Y236904D01*
X524596Y234225D01*
X521095Y232774D01*
X517305Y232774D01*
G37*
%LPD*%
%LPC*%
G36*
X905805Y212274D02*
X905805Y212274D01*
X902304Y213725D01*
X899625Y216404D01*
X898174Y219905D01*
X898174Y223695D01*
X899625Y227196D01*
X902304Y229875D01*
X905805Y231326D01*
X909595Y231326D01*
X913096Y229875D01*
X915775Y227196D01*
X917226Y223695D01*
X917226Y219905D01*
X915775Y216404D01*
X913096Y213725D01*
X909595Y212274D01*
X905805Y212274D01*
G37*
%LPD*%
%LPC*%
G36*
X880405Y212274D02*
X880405Y212274D01*
X876904Y213725D01*
X874225Y216404D01*
X872774Y219905D01*
X872774Y223695D01*
X874225Y227196D01*
X876904Y229875D01*
X880405Y231326D01*
X884195Y231326D01*
X887696Y229875D01*
X890375Y227196D01*
X891826Y223695D01*
X891826Y219905D01*
X890375Y216404D01*
X887696Y213725D01*
X884195Y212274D01*
X880405Y212274D01*
G37*
%LPD*%
%LPC*%
G36*
X905805Y796474D02*
X905805Y796474D01*
X902304Y797925D01*
X899625Y800604D01*
X898174Y804105D01*
X898174Y807895D01*
X899625Y811396D01*
X902304Y814075D01*
X905805Y815526D01*
X909595Y815526D01*
X913096Y814075D01*
X915775Y811396D01*
X917226Y807895D01*
X917226Y804105D01*
X915775Y800604D01*
X913096Y797925D01*
X909595Y796474D01*
X905805Y796474D01*
G37*
%LPD*%
%LPC*%
G36*
X880405Y796474D02*
X880405Y796474D01*
X876904Y797925D01*
X874225Y800604D01*
X872774Y804105D01*
X872774Y807895D01*
X874225Y811396D01*
X876904Y814075D01*
X880405Y815526D01*
X884195Y815526D01*
X887696Y814075D01*
X890375Y811396D01*
X891826Y807895D01*
X891826Y804105D01*
X890375Y800604D01*
X887696Y797925D01*
X884195Y796474D01*
X880405Y796474D01*
G37*
%LPD*%
%LPC*%
G36*
X905805Y364674D02*
X905805Y364674D01*
X902304Y366125D01*
X899625Y368804D01*
X898174Y372305D01*
X898174Y376095D01*
X899625Y379596D01*
X902304Y382275D01*
X905805Y383726D01*
X909595Y383726D01*
X913096Y382275D01*
X915775Y379596D01*
X917226Y376095D01*
X917226Y372305D01*
X915775Y368804D01*
X913096Y366125D01*
X909595Y364674D01*
X905805Y364674D01*
G37*
%LPD*%
%LPC*%
G36*
X905805Y186874D02*
X905805Y186874D01*
X902304Y188325D01*
X899625Y191004D01*
X898174Y194505D01*
X898174Y198295D01*
X899625Y201796D01*
X902304Y204475D01*
X905805Y205926D01*
X909595Y205926D01*
X913096Y204475D01*
X915775Y201796D01*
X917226Y198295D01*
X917226Y194505D01*
X915775Y191004D01*
X913096Y188325D01*
X909595Y186874D01*
X905805Y186874D01*
G37*
%LPD*%
%LPC*%
G36*
X880405Y186874D02*
X880405Y186874D01*
X876904Y188325D01*
X874225Y191004D01*
X872774Y194505D01*
X872774Y198295D01*
X874225Y201796D01*
X876904Y204475D01*
X880405Y205926D01*
X884195Y205926D01*
X887696Y204475D01*
X890375Y201796D01*
X891826Y198295D01*
X891826Y194505D01*
X890375Y191004D01*
X887696Y188325D01*
X884195Y186874D01*
X880405Y186874D01*
G37*
%LPD*%
%LPC*%
G36*
X905805Y542474D02*
X905805Y542474D01*
X902304Y543925D01*
X899625Y546604D01*
X898174Y550105D01*
X898174Y553895D01*
X899625Y557396D01*
X902304Y560075D01*
X905805Y561526D01*
X909595Y561526D01*
X913096Y560075D01*
X915775Y557396D01*
X917226Y553895D01*
X917226Y550105D01*
X915775Y546604D01*
X913096Y543925D01*
X909595Y542474D01*
X905805Y542474D01*
G37*
%LPD*%
%LPC*%
G36*
X880405Y542474D02*
X880405Y542474D01*
X876904Y543925D01*
X874225Y546604D01*
X872774Y550105D01*
X872774Y553895D01*
X874225Y557396D01*
X876904Y560075D01*
X880405Y561526D01*
X884195Y561526D01*
X887696Y560075D01*
X890375Y557396D01*
X891826Y553895D01*
X891826Y550105D01*
X890375Y546604D01*
X887696Y543925D01*
X884195Y542474D01*
X880405Y542474D01*
G37*
%LPD*%
%LPC*%
G36*
X148105Y185874D02*
X148105Y185874D01*
X144604Y187325D01*
X141925Y190004D01*
X140474Y193505D01*
X140474Y197295D01*
X141925Y200796D01*
X144604Y203475D01*
X148105Y204926D01*
X151895Y204926D01*
X155396Y203475D01*
X158075Y200796D01*
X159526Y197295D01*
X159526Y193505D01*
X158075Y190004D01*
X155396Y187325D01*
X151895Y185874D01*
X148105Y185874D01*
G37*
%LPD*%
%LPC*%
G36*
X905805Y161474D02*
X905805Y161474D01*
X902304Y162925D01*
X899625Y165604D01*
X898174Y169105D01*
X898174Y172895D01*
X899625Y176396D01*
X902304Y179075D01*
X905805Y180526D01*
X909595Y180526D01*
X913096Y179075D01*
X915775Y176396D01*
X917226Y172895D01*
X917226Y169105D01*
X915775Y165604D01*
X913096Y162925D01*
X909595Y161474D01*
X905805Y161474D01*
G37*
%LPD*%
%LPC*%
G36*
X905805Y771074D02*
X905805Y771074D01*
X902304Y772525D01*
X899625Y775204D01*
X898174Y778705D01*
X898174Y782495D01*
X899625Y785996D01*
X902304Y788675D01*
X905805Y790126D01*
X909595Y790126D01*
X913096Y788675D01*
X915775Y785996D01*
X917226Y782495D01*
X917226Y778705D01*
X915775Y775204D01*
X913096Y772525D01*
X909595Y771074D01*
X905805Y771074D01*
G37*
%LPD*%
%LPC*%
G36*
X880405Y771074D02*
X880405Y771074D01*
X876904Y772525D01*
X874225Y775204D01*
X872774Y778705D01*
X872774Y782495D01*
X874225Y785996D01*
X876904Y788675D01*
X880405Y790126D01*
X884195Y790126D01*
X887696Y788675D01*
X890375Y785996D01*
X891826Y782495D01*
X891826Y778705D01*
X890375Y775204D01*
X887696Y772525D01*
X884195Y771074D01*
X880405Y771074D01*
G37*
%LPD*%
%LPC*%
G36*
X880405Y161474D02*
X880405Y161474D01*
X876904Y162925D01*
X874225Y165604D01*
X872774Y169105D01*
X872774Y172895D01*
X874225Y176396D01*
X876904Y179075D01*
X880405Y180526D01*
X884195Y180526D01*
X887696Y179075D01*
X890375Y176396D01*
X891826Y172895D01*
X891826Y169105D01*
X890375Y165604D01*
X887696Y162925D01*
X884195Y161474D01*
X880405Y161474D01*
G37*
%LPD*%
%LPC*%
G36*
X905805Y136074D02*
X905805Y136074D01*
X902304Y137525D01*
X899625Y140204D01*
X898174Y143705D01*
X898174Y147495D01*
X899625Y150996D01*
X902304Y153675D01*
X905805Y155126D01*
X909595Y155126D01*
X913096Y153675D01*
X915775Y150996D01*
X917226Y147495D01*
X917226Y143705D01*
X915775Y140204D01*
X913096Y137525D01*
X909595Y136074D01*
X905805Y136074D01*
G37*
%LPD*%
%LPC*%
G36*
X880405Y136074D02*
X880405Y136074D01*
X876904Y137525D01*
X874225Y140204D01*
X872774Y143705D01*
X872774Y147495D01*
X874225Y150996D01*
X876904Y153675D01*
X880405Y155126D01*
X884195Y155126D01*
X887696Y153675D01*
X890375Y150996D01*
X891826Y147495D01*
X891826Y143705D01*
X890375Y140204D01*
X887696Y137525D01*
X884195Y136074D01*
X880405Y136074D01*
G37*
%LPD*%
%LPC*%
G36*
X880405Y110674D02*
X880405Y110674D01*
X876904Y112125D01*
X874225Y114804D01*
X872774Y118305D01*
X872774Y122095D01*
X874225Y125596D01*
X876904Y128275D01*
X880405Y129726D01*
X884195Y129726D01*
X887696Y128275D01*
X890375Y125596D01*
X891826Y122095D01*
X891826Y118305D01*
X890375Y114804D01*
X887696Y112125D01*
X884195Y110674D01*
X880405Y110674D01*
G37*
%LPD*%
%LPC*%
G36*
X905805Y745674D02*
X905805Y745674D01*
X902304Y747125D01*
X899625Y749804D01*
X898174Y753305D01*
X898174Y757095D01*
X899625Y760596D01*
X902304Y763275D01*
X905805Y764726D01*
X909595Y764726D01*
X913096Y763275D01*
X915775Y760596D01*
X917226Y757095D01*
X917226Y753305D01*
X915775Y749804D01*
X913096Y747125D01*
X909595Y745674D01*
X905805Y745674D01*
G37*
%LPD*%
%LPC*%
G36*
X880405Y85274D02*
X880405Y85274D01*
X876904Y86725D01*
X874225Y89404D01*
X872774Y92905D01*
X872774Y96695D01*
X874225Y100196D01*
X876904Y102875D01*
X880405Y104326D01*
X884195Y104326D01*
X887696Y102875D01*
X890375Y100196D01*
X891826Y96695D01*
X891826Y92905D01*
X890375Y89404D01*
X887696Y86725D01*
X884195Y85274D01*
X880405Y85274D01*
G37*
%LPD*%
%LPC*%
G36*
X880405Y59874D02*
X880405Y59874D01*
X876904Y61325D01*
X874225Y64004D01*
X872774Y67505D01*
X872774Y71295D01*
X874225Y74796D01*
X876904Y77475D01*
X880405Y78926D01*
X884195Y78926D01*
X887696Y77475D01*
X890375Y74796D01*
X891826Y71295D01*
X891826Y67505D01*
X890375Y64004D01*
X887696Y61325D01*
X884195Y59874D01*
X880405Y59874D01*
G37*
%LPD*%
%LPC*%
G36*
X905805Y517074D02*
X905805Y517074D01*
X902304Y518525D01*
X899625Y521204D01*
X898174Y524705D01*
X898174Y528495D01*
X899625Y531996D01*
X902304Y534675D01*
X905805Y536126D01*
X909595Y536126D01*
X913096Y534675D01*
X915775Y531996D01*
X917226Y528495D01*
X917226Y524705D01*
X915775Y521204D01*
X913096Y518525D01*
X909595Y517074D01*
X905805Y517074D01*
G37*
%LPD*%
%LPC*%
G36*
X905805Y720274D02*
X905805Y720274D01*
X902304Y721725D01*
X899625Y724404D01*
X898174Y727905D01*
X898174Y731695D01*
X899625Y735196D01*
X902304Y737875D01*
X905805Y739326D01*
X909595Y739326D01*
X913096Y737875D01*
X915775Y735196D01*
X917226Y731695D01*
X917226Y727905D01*
X915775Y724404D01*
X913096Y721725D01*
X909595Y720274D01*
X905805Y720274D01*
G37*
%LPD*%
%LPC*%
G36*
X880405Y720274D02*
X880405Y720274D01*
X876904Y721725D01*
X874225Y724404D01*
X872774Y727905D01*
X872774Y731695D01*
X874225Y735196D01*
X876904Y737875D01*
X880405Y739326D01*
X884195Y739326D01*
X887696Y737875D01*
X890375Y735196D01*
X891826Y731695D01*
X891826Y727905D01*
X890375Y724404D01*
X887696Y721725D01*
X884195Y720274D01*
X880405Y720274D01*
G37*
%LPD*%
%LPC*%
G36*
X880405Y517074D02*
X880405Y517074D01*
X876904Y518525D01*
X874225Y521204D01*
X872774Y524705D01*
X872774Y528495D01*
X874225Y531996D01*
X876904Y534675D01*
X880405Y536126D01*
X884195Y536126D01*
X887696Y534675D01*
X890375Y531996D01*
X891826Y528495D01*
X891826Y524705D01*
X890375Y521204D01*
X887696Y518525D01*
X884195Y517074D01*
X880405Y517074D01*
G37*
%LPD*%
%LPC*%
G36*
X880405Y745674D02*
X880405Y745674D01*
X876904Y747125D01*
X874225Y749804D01*
X872774Y753305D01*
X872774Y757095D01*
X874225Y760596D01*
X876904Y763275D01*
X880405Y764726D01*
X884195Y764726D01*
X887696Y763275D01*
X890375Y760596D01*
X891826Y757095D01*
X891826Y753305D01*
X890375Y749804D01*
X887696Y747125D01*
X884195Y745674D01*
X880405Y745674D01*
G37*
%LPD*%
%LPC*%
G36*
X905805Y491674D02*
X905805Y491674D01*
X902304Y493125D01*
X899625Y495804D01*
X898174Y499305D01*
X898174Y503095D01*
X899625Y506596D01*
X902304Y509275D01*
X905805Y510726D01*
X909595Y510726D01*
X913096Y509275D01*
X915775Y506596D01*
X917226Y503095D01*
X917226Y499305D01*
X915775Y495804D01*
X913096Y493125D01*
X909595Y491674D01*
X905805Y491674D01*
G37*
%LPD*%
%LPC*%
G36*
X880405Y491674D02*
X880405Y491674D01*
X876904Y493125D01*
X874225Y495804D01*
X872774Y499305D01*
X872774Y503095D01*
X874225Y506596D01*
X876904Y509275D01*
X880405Y510726D01*
X884195Y510726D01*
X887696Y509275D01*
X890375Y506596D01*
X891826Y503095D01*
X891826Y499305D01*
X890375Y495804D01*
X887696Y493125D01*
X884195Y491674D01*
X880405Y491674D01*
G37*
%LPD*%
%LPC*%
G36*
X905805Y466274D02*
X905805Y466274D01*
X902304Y467725D01*
X899625Y470404D01*
X898174Y473905D01*
X898174Y477695D01*
X899625Y481196D01*
X902304Y483875D01*
X905805Y485326D01*
X909595Y485326D01*
X913096Y483875D01*
X915775Y481196D01*
X917226Y477695D01*
X917226Y473905D01*
X915775Y470404D01*
X913096Y467725D01*
X909595Y466274D01*
X905805Y466274D01*
G37*
%LPD*%
%LPC*%
G36*
X880405Y466274D02*
X880405Y466274D01*
X876904Y467725D01*
X874225Y470404D01*
X872774Y473905D01*
X872774Y477695D01*
X874225Y481196D01*
X876904Y483875D01*
X880405Y485326D01*
X884195Y485326D01*
X887696Y483875D01*
X890375Y481196D01*
X891826Y477695D01*
X891826Y473905D01*
X890375Y470404D01*
X887696Y467725D01*
X884195Y466274D01*
X880405Y466274D01*
G37*
%LPD*%
%LPC*%
G36*
X905805Y694874D02*
X905805Y694874D01*
X902304Y696325D01*
X899625Y699004D01*
X898174Y702505D01*
X898174Y706295D01*
X899625Y709796D01*
X902304Y712475D01*
X905805Y713926D01*
X909595Y713926D01*
X913096Y712475D01*
X915775Y709796D01*
X917226Y706295D01*
X917226Y702505D01*
X915775Y699004D01*
X913096Y696325D01*
X909595Y694874D01*
X905805Y694874D01*
G37*
%LPD*%
%LPC*%
G36*
X880405Y694874D02*
X880405Y694874D01*
X876904Y696325D01*
X874225Y699004D01*
X872774Y702505D01*
X872774Y706295D01*
X874225Y709796D01*
X876904Y712475D01*
X880405Y713926D01*
X884195Y713926D01*
X887696Y712475D01*
X890375Y709796D01*
X891826Y706295D01*
X891826Y702505D01*
X890375Y699004D01*
X887696Y696325D01*
X884195Y694874D01*
X880405Y694874D01*
G37*
%LPD*%
%LPC*%
G36*
X905805Y440874D02*
X905805Y440874D01*
X902304Y442325D01*
X899625Y445004D01*
X898174Y448505D01*
X898174Y452295D01*
X899625Y455796D01*
X902304Y458475D01*
X905805Y459926D01*
X909595Y459926D01*
X913096Y458475D01*
X915775Y455796D01*
X917226Y452295D01*
X917226Y448505D01*
X915775Y445004D01*
X913096Y442325D01*
X909595Y440874D01*
X905805Y440874D01*
G37*
%LPD*%
%LPC*%
G36*
X880405Y440874D02*
X880405Y440874D01*
X876904Y442325D01*
X874225Y445004D01*
X872774Y448505D01*
X872774Y452295D01*
X874225Y455796D01*
X876904Y458475D01*
X880405Y459926D01*
X884195Y459926D01*
X887696Y458475D01*
X890375Y455796D01*
X891826Y452295D01*
X891826Y448505D01*
X890375Y445004D01*
X887696Y442325D01*
X884195Y440874D01*
X880405Y440874D01*
G37*
%LPD*%
%LPC*%
G36*
X905805Y415474D02*
X905805Y415474D01*
X902304Y416925D01*
X899625Y419604D01*
X898174Y423105D01*
X898174Y426895D01*
X899625Y430396D01*
X902304Y433075D01*
X905805Y434526D01*
X909595Y434526D01*
X913096Y433075D01*
X915775Y430396D01*
X917226Y426895D01*
X917226Y423105D01*
X915775Y419604D01*
X913096Y416925D01*
X909595Y415474D01*
X905805Y415474D01*
G37*
%LPD*%
%LPC*%
G36*
X880405Y415474D02*
X880405Y415474D01*
X876904Y416925D01*
X874225Y419604D01*
X872774Y423105D01*
X872774Y426895D01*
X874225Y430396D01*
X876904Y433075D01*
X880405Y434526D01*
X884195Y434526D01*
X887696Y433075D01*
X890375Y430396D01*
X891826Y426895D01*
X891826Y423105D01*
X890375Y419604D01*
X887696Y416925D01*
X884195Y415474D01*
X880405Y415474D01*
G37*
%LPD*%
%LPC*%
G36*
X880405Y390074D02*
X880405Y390074D01*
X876904Y391525D01*
X874225Y394204D01*
X872774Y397705D01*
X872774Y401495D01*
X874225Y404996D01*
X876904Y407675D01*
X880405Y409126D01*
X884195Y409126D01*
X887696Y407675D01*
X890375Y404996D01*
X891826Y401495D01*
X891826Y397705D01*
X890375Y394204D01*
X887696Y391525D01*
X884195Y390074D01*
X880405Y390074D01*
G37*
%LPD*%
%LPC*%
G36*
X905805Y390074D02*
X905805Y390074D01*
X902304Y391525D01*
X899625Y394204D01*
X898174Y397705D01*
X898174Y401495D01*
X899625Y404996D01*
X902304Y407675D01*
X905805Y409126D01*
X909595Y409126D01*
X913096Y407675D01*
X915775Y404996D01*
X917226Y401495D01*
X917226Y397705D01*
X915775Y394204D01*
X913096Y391525D01*
X909595Y390074D01*
X905805Y390074D01*
G37*
%LPD*%
%LPC*%
G36*
X880405Y364674D02*
X880405Y364674D01*
X876904Y366125D01*
X874225Y368804D01*
X872774Y372305D01*
X872774Y376095D01*
X874225Y379596D01*
X876904Y382275D01*
X880405Y383726D01*
X884195Y383726D01*
X887696Y382275D01*
X890375Y379596D01*
X891826Y376095D01*
X891826Y372305D01*
X890375Y368804D01*
X887696Y366125D01*
X884195Y364674D01*
X880405Y364674D01*
G37*
%LPD*%
%LPC*%
G36*
X905805Y339274D02*
X905805Y339274D01*
X902304Y340725D01*
X899625Y343404D01*
X898174Y346905D01*
X898174Y350695D01*
X899625Y354196D01*
X902304Y356875D01*
X905805Y358326D01*
X909595Y358326D01*
X913096Y356875D01*
X915775Y354196D01*
X917226Y350695D01*
X917226Y346905D01*
X915775Y343404D01*
X913096Y340725D01*
X909595Y339274D01*
X905805Y339274D01*
G37*
%LPD*%
%LPC*%
G36*
X905805Y669474D02*
X905805Y669474D01*
X902304Y670925D01*
X899625Y673604D01*
X898174Y677105D01*
X898174Y680895D01*
X899625Y684396D01*
X902304Y687075D01*
X905805Y688526D01*
X909595Y688526D01*
X913096Y687075D01*
X915775Y684396D01*
X917226Y680895D01*
X917226Y677105D01*
X915775Y673604D01*
X913096Y670925D01*
X909595Y669474D01*
X905805Y669474D01*
G37*
%LPD*%
%LPC*%
G36*
X880405Y669474D02*
X880405Y669474D01*
X876904Y670925D01*
X874225Y673604D01*
X872774Y677105D01*
X872774Y680895D01*
X874225Y684396D01*
X876904Y687075D01*
X880405Y688526D01*
X884195Y688526D01*
X887696Y687075D01*
X890375Y684396D01*
X891826Y680895D01*
X891826Y677105D01*
X890375Y673604D01*
X887696Y670925D01*
X884195Y669474D01*
X880405Y669474D01*
G37*
%LPD*%
%LPC*%
G36*
X880405Y339274D02*
X880405Y339274D01*
X876904Y340725D01*
X874225Y343404D01*
X872774Y346905D01*
X872774Y350695D01*
X874225Y354196D01*
X876904Y356875D01*
X880405Y358326D01*
X884195Y358326D01*
X887696Y356875D01*
X890375Y354196D01*
X891826Y350695D01*
X891826Y346905D01*
X890375Y343404D01*
X887696Y340725D01*
X884195Y339274D01*
X880405Y339274D01*
G37*
%LPD*%
%LPC*%
G36*
X905805Y313874D02*
X905805Y313874D01*
X902304Y315325D01*
X899625Y318004D01*
X898174Y321505D01*
X898174Y325295D01*
X899625Y328796D01*
X902304Y331475D01*
X905805Y332926D01*
X909595Y332926D01*
X913096Y331475D01*
X915775Y328796D01*
X917226Y325295D01*
X917226Y321505D01*
X915775Y318004D01*
X913096Y315325D01*
X909595Y313874D01*
X905805Y313874D01*
G37*
%LPD*%
%LPC*%
G36*
X880405Y313874D02*
X880405Y313874D01*
X876904Y315325D01*
X874225Y318004D01*
X872774Y321505D01*
X872774Y325295D01*
X874225Y328796D01*
X876904Y331475D01*
X880405Y332926D01*
X884195Y332926D01*
X887696Y331475D01*
X890375Y328796D01*
X891826Y325295D01*
X891826Y321505D01*
X890375Y318004D01*
X887696Y315325D01*
X884195Y313874D01*
X880405Y313874D01*
G37*
%LPD*%
%LPC*%
G36*
X905805Y644074D02*
X905805Y644074D01*
X902304Y645525D01*
X899625Y648204D01*
X898174Y651705D01*
X898174Y655495D01*
X899625Y658996D01*
X902304Y661675D01*
X905805Y663126D01*
X909595Y663126D01*
X913096Y661675D01*
X915775Y658996D01*
X917226Y655495D01*
X917226Y651705D01*
X915775Y648204D01*
X913096Y645525D01*
X909595Y644074D01*
X905805Y644074D01*
G37*
%LPD*%
%LPC*%
G36*
X880405Y644074D02*
X880405Y644074D01*
X876904Y645525D01*
X874225Y648204D01*
X872774Y651705D01*
X872774Y655495D01*
X874225Y658996D01*
X876904Y661675D01*
X880405Y663126D01*
X884195Y663126D01*
X887696Y661675D01*
X890375Y658996D01*
X891826Y655495D01*
X891826Y651705D01*
X890375Y648204D01*
X887696Y645525D01*
X884195Y644074D01*
X880405Y644074D01*
G37*
%LPD*%
%LPC*%
G36*
X905805Y288474D02*
X905805Y288474D01*
X902304Y289925D01*
X899625Y292604D01*
X898174Y296105D01*
X898174Y299895D01*
X899625Y303396D01*
X902304Y306075D01*
X905805Y307526D01*
X909595Y307526D01*
X913096Y306075D01*
X915775Y303396D01*
X917226Y299895D01*
X917226Y296105D01*
X915775Y292604D01*
X913096Y289925D01*
X909595Y288474D01*
X905805Y288474D01*
G37*
%LPD*%
%LPC*%
G36*
X880405Y288474D02*
X880405Y288474D01*
X876904Y289925D01*
X874225Y292604D01*
X872774Y296105D01*
X872774Y299895D01*
X874225Y303396D01*
X876904Y306075D01*
X880405Y307526D01*
X884195Y307526D01*
X887696Y306075D01*
X890375Y303396D01*
X891826Y299895D01*
X891826Y296105D01*
X890375Y292604D01*
X887696Y289925D01*
X884195Y288474D01*
X880405Y288474D01*
G37*
%LPD*%
%LPC*%
G36*
X905805Y263074D02*
X905805Y263074D01*
X902304Y264525D01*
X899625Y267204D01*
X898174Y270705D01*
X898174Y274495D01*
X899625Y277996D01*
X902304Y280675D01*
X905805Y282126D01*
X909595Y282126D01*
X913096Y280675D01*
X915775Y277996D01*
X917226Y274495D01*
X917226Y270705D01*
X915775Y267204D01*
X913096Y264525D01*
X909595Y263074D01*
X905805Y263074D01*
G37*
%LPD*%
%LPC*%
G36*
X880405Y263074D02*
X880405Y263074D01*
X876904Y264525D01*
X874225Y267204D01*
X872774Y270705D01*
X872774Y274495D01*
X874225Y277996D01*
X876904Y280675D01*
X880405Y282126D01*
X884195Y282126D01*
X887696Y280675D01*
X890375Y277996D01*
X891826Y274495D01*
X891826Y270705D01*
X890375Y267204D01*
X887696Y264525D01*
X884195Y263074D01*
X880405Y263074D01*
G37*
%LPD*%
%LPC*%
G36*
X905805Y618674D02*
X905805Y618674D01*
X902304Y620125D01*
X899625Y622804D01*
X898174Y626305D01*
X898174Y630095D01*
X899625Y633596D01*
X902304Y636275D01*
X905805Y637726D01*
X909595Y637726D01*
X913096Y636275D01*
X915775Y633596D01*
X917226Y630095D01*
X917226Y626305D01*
X915775Y622804D01*
X913096Y620125D01*
X909595Y618674D01*
X905805Y618674D01*
G37*
%LPD*%
%LPC*%
G36*
X880405Y618674D02*
X880405Y618674D01*
X876904Y620125D01*
X874225Y622804D01*
X872774Y626305D01*
X872774Y630095D01*
X874225Y633596D01*
X876904Y636275D01*
X880405Y637726D01*
X884195Y637726D01*
X887696Y636275D01*
X890375Y633596D01*
X891826Y630095D01*
X891826Y626305D01*
X890375Y622804D01*
X887696Y620125D01*
X884195Y618674D01*
X880405Y618674D01*
G37*
%LPD*%
%LPC*%
G36*
X542705Y258174D02*
X542705Y258174D01*
X539204Y259625D01*
X536525Y262304D01*
X535074Y265805D01*
X535074Y269595D01*
X536525Y273096D01*
X539204Y275775D01*
X542705Y277226D01*
X546495Y277226D01*
X549996Y275775D01*
X552675Y273096D01*
X554126Y269595D01*
X554126Y265805D01*
X552675Y262304D01*
X549996Y259625D01*
X546495Y258174D01*
X542705Y258174D01*
G37*
%LPD*%
%LPC*%
G36*
X517305Y258174D02*
X517305Y258174D01*
X513804Y259625D01*
X511125Y262304D01*
X509674Y265805D01*
X509674Y269595D01*
X511125Y273096D01*
X513804Y275775D01*
X517305Y277226D01*
X521095Y277226D01*
X524596Y275775D01*
X527275Y273096D01*
X528726Y269595D01*
X528726Y265805D01*
X527275Y262304D01*
X524596Y259625D01*
X521095Y258174D01*
X517305Y258174D01*
G37*
%LPD*%
%LPC*%
G36*
X593505Y258174D02*
X593505Y258174D01*
X590004Y259625D01*
X587325Y262304D01*
X585874Y265805D01*
X585874Y269595D01*
X587325Y273096D01*
X590004Y275775D01*
X593505Y277226D01*
X597295Y277226D01*
X600796Y275775D01*
X603475Y273096D01*
X604926Y269595D01*
X604926Y265805D01*
X603475Y262304D01*
X600796Y259625D01*
X597295Y258174D01*
X593505Y258174D01*
G37*
%LPD*%
%LPC*%
G36*
X568105Y258174D02*
X568105Y258174D01*
X564604Y259625D01*
X561925Y262304D01*
X560474Y265805D01*
X560474Y269595D01*
X561925Y273096D01*
X564604Y275775D01*
X568105Y277226D01*
X571895Y277226D01*
X575396Y275775D01*
X578075Y273096D01*
X579526Y269595D01*
X579526Y265805D01*
X578075Y262304D01*
X575396Y259625D01*
X571895Y258174D01*
X568105Y258174D01*
G37*
%LPD*%
%LPC*%
G36*
X905805Y593274D02*
X905805Y593274D01*
X902304Y594725D01*
X899625Y597404D01*
X898174Y600905D01*
X898174Y604695D01*
X899625Y608196D01*
X902304Y610875D01*
X905805Y612326D01*
X909595Y612326D01*
X913096Y610875D01*
X915775Y608196D01*
X917226Y604695D01*
X917226Y600905D01*
X915775Y597404D01*
X913096Y594725D01*
X909595Y593274D01*
X905805Y593274D01*
G37*
%LPD*%
%LPC*%
G36*
X880405Y593274D02*
X880405Y593274D01*
X876904Y594725D01*
X874225Y597404D01*
X872774Y600905D01*
X872774Y604695D01*
X874225Y608196D01*
X876904Y610875D01*
X880405Y612326D01*
X884195Y612326D01*
X887696Y610875D01*
X890375Y608196D01*
X891826Y604695D01*
X891826Y600905D01*
X890375Y597404D01*
X887696Y594725D01*
X884195Y593274D01*
X880405Y593274D01*
G37*
%LPD*%
%LPC*%
G36*
X905805Y237674D02*
X905805Y237674D01*
X902304Y239125D01*
X899625Y241804D01*
X898174Y245305D01*
X898174Y249095D01*
X899625Y252596D01*
X902304Y255275D01*
X905805Y256726D01*
X909595Y256726D01*
X913096Y255275D01*
X915775Y252596D01*
X917226Y249095D01*
X917226Y245305D01*
X915775Y241804D01*
X913096Y239125D01*
X909595Y237674D01*
X905805Y237674D01*
G37*
%LPD*%
%LPC*%
G36*
X880405Y237674D02*
X880405Y237674D01*
X876904Y239125D01*
X874225Y241804D01*
X872774Y245305D01*
X872774Y249095D01*
X874225Y252596D01*
X876904Y255275D01*
X880405Y256726D01*
X884195Y256726D01*
X887696Y255275D01*
X890375Y252596D01*
X891826Y249095D01*
X891826Y245305D01*
X890375Y241804D01*
X887696Y239125D01*
X884195Y237674D01*
X880405Y237674D01*
G37*
%LPD*%
%LPC*%
G36*
X618905Y232774D02*
X618905Y232774D01*
X615404Y234225D01*
X612725Y236904D01*
X611274Y240405D01*
X611274Y244195D01*
X612725Y247696D01*
X615404Y250375D01*
X618905Y251826D01*
X622695Y251826D01*
X626196Y250375D01*
X628875Y247696D01*
X630326Y244195D01*
X630326Y240405D01*
X628875Y236904D01*
X626196Y234225D01*
X622695Y232774D01*
X618905Y232774D01*
G37*
%LPD*%
%LPC*%
G36*
X593505Y232774D02*
X593505Y232774D01*
X590004Y234225D01*
X587325Y236904D01*
X585874Y240405D01*
X585874Y244195D01*
X587325Y247696D01*
X590004Y250375D01*
X593505Y251826D01*
X597295Y251826D01*
X600796Y250375D01*
X603475Y247696D01*
X604926Y244195D01*
X604926Y240405D01*
X603475Y236904D01*
X600796Y234225D01*
X597295Y232774D01*
X593505Y232774D01*
G37*
%LPD*%
%LPC*%
G36*
X905805Y567874D02*
X905805Y567874D01*
X902304Y569325D01*
X899625Y572004D01*
X898174Y575505D01*
X898174Y579295D01*
X899625Y582796D01*
X902304Y585475D01*
X905805Y586926D01*
X909595Y586926D01*
X913096Y585475D01*
X915775Y582796D01*
X917226Y579295D01*
X917226Y575505D01*
X915775Y572004D01*
X913096Y569325D01*
X909595Y567874D01*
X905805Y567874D01*
G37*
%LPD*%
%LPC*%
G36*
X880405Y567874D02*
X880405Y567874D01*
X876904Y569325D01*
X874225Y572004D01*
X872774Y575505D01*
X872774Y579295D01*
X874225Y582796D01*
X876904Y585475D01*
X880405Y586926D01*
X884195Y586926D01*
X887696Y585475D01*
X890375Y582796D01*
X891826Y579295D01*
X891826Y575505D01*
X890375Y572004D01*
X887696Y569325D01*
X884195Y567874D01*
X880405Y567874D01*
G37*
%LPD*%
%LPC*%
G36*
X568105Y232774D02*
X568105Y232774D01*
X564604Y234225D01*
X561925Y236904D01*
X560474Y240405D01*
X560474Y244195D01*
X561925Y247696D01*
X564604Y250375D01*
X568105Y251826D01*
X571895Y251826D01*
X575396Y250375D01*
X578075Y247696D01*
X579526Y244195D01*
X579526Y240405D01*
X578075Y236904D01*
X575396Y234225D01*
X571895Y232774D01*
X568105Y232774D01*
G37*
%LPD*%
%LPC*%
G36*
X542705Y232774D02*
X542705Y232774D01*
X539204Y234225D01*
X536525Y236904D01*
X535074Y240405D01*
X535074Y244195D01*
X536525Y247696D01*
X539204Y250375D01*
X542705Y251826D01*
X546495Y251826D01*
X549996Y250375D01*
X552675Y247696D01*
X554126Y244195D01*
X554126Y240405D01*
X552675Y236904D01*
X549996Y234225D01*
X546495Y232774D01*
X542705Y232774D01*
G37*
%LPD*%
%LPC*%
G36*
X141218Y571054D02*
X141218Y571054D01*
X138849Y572036D01*
X137036Y573849D01*
X136054Y576218D01*
X136054Y578782D01*
X137036Y581151D01*
X138546Y582662D01*
X138584Y582713D01*
X138631Y582758D01*
X138669Y582825D01*
X138715Y582887D01*
X138738Y582947D01*
X138770Y583003D01*
X138787Y583079D01*
X138815Y583151D01*
X138820Y583215D01*
X138835Y583278D01*
X138831Y583355D01*
X138837Y583432D01*
X138823Y583495D01*
X138820Y583559D01*
X138795Y583632D01*
X138779Y583708D01*
X138749Y583765D01*
X138728Y583826D01*
X138686Y583882D01*
X138646Y583957D01*
X138587Y584018D01*
X138546Y584075D01*
X136578Y586043D01*
X135514Y588610D01*
X135514Y591390D01*
X136578Y593957D01*
X138543Y595922D01*
X141110Y596986D01*
X143890Y596986D01*
X146457Y595922D01*
X148422Y593957D01*
X149486Y591390D01*
X149486Y588610D01*
X148422Y586043D01*
X146454Y584075D01*
X146416Y584023D01*
X146369Y583979D01*
X146331Y583911D01*
X146285Y583849D01*
X146262Y583789D01*
X146230Y583733D01*
X146213Y583658D01*
X146185Y583585D01*
X146180Y583521D01*
X146165Y583459D01*
X146169Y583381D01*
X146163Y583304D01*
X146177Y583241D01*
X146180Y583177D01*
X146205Y583104D01*
X146221Y583028D01*
X146251Y582971D01*
X146272Y582911D01*
X146314Y582854D01*
X146354Y582779D01*
X146413Y582718D01*
X146454Y582662D01*
X147964Y581151D01*
X148946Y578782D01*
X148946Y576218D01*
X147964Y573849D01*
X146151Y572036D01*
X143782Y571054D01*
X141218Y571054D01*
G37*
%LPD*%
%LPC*%
G36*
X205321Y675904D02*
X205321Y675904D01*
X201849Y677342D01*
X199192Y679999D01*
X197754Y683471D01*
X197754Y687229D01*
X199192Y690701D01*
X201849Y693358D01*
X205321Y694796D01*
X209079Y694796D01*
X212551Y693358D01*
X215208Y690701D01*
X216646Y687229D01*
X216646Y683471D01*
X215208Y679999D01*
X212551Y677342D01*
X209079Y675904D01*
X205321Y675904D01*
G37*
%LPD*%
%LPC*%
G36*
X205321Y762304D02*
X205321Y762304D01*
X201849Y763742D01*
X199192Y766399D01*
X197754Y769871D01*
X197754Y773629D01*
X199192Y777101D01*
X201849Y779758D01*
X205321Y781196D01*
X209079Y781196D01*
X212551Y779758D01*
X215208Y777101D01*
X216646Y773629D01*
X216646Y769871D01*
X215208Y766399D01*
X212551Y763742D01*
X209079Y762304D01*
X205321Y762304D01*
G37*
%LPD*%
%LPC*%
G36*
X573618Y613554D02*
X573618Y613554D01*
X571249Y614536D01*
X569436Y616349D01*
X568454Y618718D01*
X568454Y621282D01*
X569436Y623651D01*
X571249Y625464D01*
X573618Y626446D01*
X576182Y626446D01*
X578551Y625464D01*
X580493Y623522D01*
X580545Y623484D01*
X580590Y623438D01*
X580657Y623399D01*
X580719Y623353D01*
X580779Y623330D01*
X580835Y623299D01*
X580910Y623281D01*
X580983Y623253D01*
X581047Y623248D01*
X581109Y623234D01*
X581187Y623238D01*
X581264Y623232D01*
X581327Y623245D01*
X581391Y623248D01*
X581464Y623273D01*
X581540Y623289D01*
X581597Y623319D01*
X581658Y623340D01*
X581714Y623382D01*
X581789Y623422D01*
X581850Y623481D01*
X581907Y623522D01*
X583849Y625464D01*
X586218Y626446D01*
X588782Y626446D01*
X591151Y625464D01*
X592964Y623651D01*
X593946Y621282D01*
X593946Y618718D01*
X592964Y616349D01*
X591151Y614536D01*
X588782Y613554D01*
X586218Y613554D01*
X583849Y614536D01*
X581907Y616478D01*
X581855Y616516D01*
X581810Y616562D01*
X581743Y616601D01*
X581681Y616647D01*
X581621Y616670D01*
X581565Y616701D01*
X581490Y616719D01*
X581417Y616747D01*
X581353Y616752D01*
X581290Y616766D01*
X581213Y616762D01*
X581136Y616768D01*
X581073Y616755D01*
X581009Y616752D01*
X580936Y616727D01*
X580860Y616711D01*
X580803Y616681D01*
X580742Y616660D01*
X580686Y616618D01*
X580611Y616578D01*
X580550Y616519D01*
X580493Y616478D01*
X578551Y614536D01*
X576182Y613554D01*
X573618Y613554D01*
G37*
%LPD*%
%LPC*%
G36*
X157121Y686604D02*
X157121Y686604D01*
X153833Y687966D01*
X151316Y690483D01*
X149954Y693771D01*
X149954Y697329D01*
X151316Y700617D01*
X153833Y703134D01*
X157121Y704496D01*
X160679Y704496D01*
X163967Y703134D01*
X166484Y700617D01*
X167846Y697329D01*
X167846Y693771D01*
X166484Y690483D01*
X163967Y687966D01*
X160679Y686604D01*
X157121Y686604D01*
G37*
%LPD*%
%LPC*%
G36*
X131721Y775504D02*
X131721Y775504D01*
X128433Y776866D01*
X125916Y779383D01*
X124554Y782671D01*
X124554Y786229D01*
X125916Y789517D01*
X128433Y792034D01*
X131721Y793396D01*
X135279Y793396D01*
X138567Y792034D01*
X141084Y789517D01*
X142446Y786229D01*
X142446Y782671D01*
X141084Y779383D01*
X138567Y776866D01*
X135279Y775504D01*
X131721Y775504D01*
G37*
%LPD*%
%LPC*%
G36*
X157121Y762804D02*
X157121Y762804D01*
X153833Y764166D01*
X151316Y766683D01*
X149954Y769971D01*
X149954Y773529D01*
X151316Y776817D01*
X153833Y779334D01*
X157121Y780696D01*
X160679Y780696D01*
X163967Y779334D01*
X166484Y776817D01*
X167846Y773529D01*
X167846Y769971D01*
X166484Y766683D01*
X163967Y764166D01*
X160679Y762804D01*
X157121Y762804D01*
G37*
%LPD*%
%LPC*%
G36*
X131721Y750104D02*
X131721Y750104D01*
X128433Y751466D01*
X125916Y753983D01*
X124554Y757271D01*
X124554Y760829D01*
X125916Y764117D01*
X128433Y766634D01*
X131721Y767996D01*
X135279Y767996D01*
X138567Y766634D01*
X141084Y764117D01*
X142446Y760829D01*
X142446Y757271D01*
X141084Y753983D01*
X138567Y751466D01*
X135279Y750104D01*
X131721Y750104D01*
G37*
%LPD*%
%LPC*%
G36*
X157121Y737404D02*
X157121Y737404D01*
X153833Y738766D01*
X151316Y741283D01*
X149954Y744571D01*
X149954Y748129D01*
X151316Y751417D01*
X153833Y753934D01*
X157121Y755296D01*
X160679Y755296D01*
X163967Y753934D01*
X166484Y751417D01*
X167846Y748129D01*
X167846Y744571D01*
X166484Y741283D01*
X163967Y738766D01*
X160679Y737404D01*
X157121Y737404D01*
G37*
%LPD*%
%LPC*%
G36*
X131721Y724704D02*
X131721Y724704D01*
X128433Y726066D01*
X125916Y728583D01*
X124554Y731871D01*
X124554Y735429D01*
X125916Y738717D01*
X128433Y741234D01*
X131721Y742596D01*
X135279Y742596D01*
X138567Y741234D01*
X141084Y738717D01*
X142446Y735429D01*
X142446Y731871D01*
X141084Y728583D01*
X138567Y726066D01*
X135279Y724704D01*
X131721Y724704D01*
G37*
%LPD*%
%LPC*%
G36*
X157121Y712004D02*
X157121Y712004D01*
X153833Y713366D01*
X151316Y715883D01*
X149954Y719171D01*
X149954Y722729D01*
X151316Y726017D01*
X153833Y728534D01*
X157121Y729896D01*
X160679Y729896D01*
X163967Y728534D01*
X166484Y726017D01*
X167846Y722729D01*
X167846Y719171D01*
X166484Y715883D01*
X163967Y713366D01*
X160679Y712004D01*
X157121Y712004D01*
G37*
%LPD*%
%LPC*%
G36*
X131721Y699304D02*
X131721Y699304D01*
X128433Y700666D01*
X125916Y703183D01*
X124554Y706471D01*
X124554Y710029D01*
X125916Y713317D01*
X128433Y715834D01*
X131721Y717196D01*
X135279Y717196D01*
X138567Y715834D01*
X141084Y713317D01*
X142446Y710029D01*
X142446Y706471D01*
X141084Y703183D01*
X138567Y700666D01*
X135279Y699304D01*
X131721Y699304D01*
G37*
%LPD*%
%LPC*%
G36*
X148967Y353952D02*
X148967Y353952D01*
X146782Y354857D01*
X145109Y356530D01*
X144204Y358715D01*
X144204Y361081D01*
X145109Y363266D01*
X146782Y364938D01*
X146868Y364974D01*
X146896Y364991D01*
X146926Y365001D01*
X147017Y365062D01*
X147111Y365118D01*
X147133Y365141D01*
X147159Y365159D01*
X147229Y365244D01*
X147304Y365323D01*
X147318Y365352D01*
X147339Y365377D01*
X147382Y365477D01*
X147431Y365575D01*
X147437Y365607D01*
X147450Y365636D01*
X147463Y365745D01*
X147484Y365852D01*
X147481Y365884D01*
X147485Y365916D01*
X147467Y366024D01*
X147457Y366133D01*
X147445Y366163D01*
X147440Y366195D01*
X147393Y366293D01*
X147352Y366395D01*
X147332Y366420D01*
X147319Y366449D01*
X147246Y366531D01*
X147179Y366617D01*
X147153Y366636D01*
X147131Y366660D01*
X147054Y366707D01*
X146950Y366782D01*
X146904Y366798D01*
X146868Y366821D01*
X146349Y367036D01*
X144536Y368849D01*
X143554Y371218D01*
X143554Y373782D01*
X144536Y376151D01*
X146349Y377964D01*
X148718Y378946D01*
X151282Y378946D01*
X153651Y377964D01*
X155464Y376151D01*
X156446Y373782D01*
X156446Y371218D01*
X155464Y368849D01*
X153651Y367036D01*
X153282Y366883D01*
X153254Y366866D01*
X153223Y366856D01*
X153133Y366795D01*
X153039Y366739D01*
X153017Y366715D01*
X152990Y366697D01*
X152921Y366613D01*
X152846Y366533D01*
X152831Y366504D01*
X152811Y366480D01*
X152768Y366379D01*
X152718Y366282D01*
X152712Y366250D01*
X152700Y366220D01*
X152686Y366112D01*
X152666Y366005D01*
X152669Y365973D01*
X152665Y365941D01*
X152682Y365833D01*
X152693Y365724D01*
X152705Y365694D01*
X152710Y365662D01*
X152757Y365563D01*
X152797Y365462D01*
X152817Y365436D01*
X152831Y365407D01*
X152904Y365326D01*
X152971Y365240D01*
X152997Y365221D01*
X153018Y365197D01*
X153096Y365149D01*
X153200Y365075D01*
X153245Y365058D01*
X153282Y365036D01*
X153518Y364938D01*
X155190Y363266D01*
X156095Y361081D01*
X156095Y358715D01*
X155190Y356530D01*
X153518Y354857D01*
X151332Y353952D01*
X148967Y353952D01*
G37*
%LPD*%
%LPC*%
G36*
X148718Y321054D02*
X148718Y321054D01*
X146349Y322036D01*
X144536Y323849D01*
X143554Y326218D01*
X143554Y328782D01*
X144536Y331151D01*
X146349Y332964D01*
X146868Y333179D01*
X146896Y333196D01*
X146926Y333206D01*
X147017Y333267D01*
X147111Y333323D01*
X147133Y333347D01*
X147159Y333365D01*
X147229Y333449D01*
X147304Y333529D01*
X147318Y333558D01*
X147339Y333583D01*
X147382Y333683D01*
X147431Y333780D01*
X147437Y333812D01*
X147450Y333842D01*
X147463Y333950D01*
X147484Y334057D01*
X147481Y334089D01*
X147485Y334122D01*
X147467Y334229D01*
X147457Y334338D01*
X147445Y334368D01*
X147440Y334400D01*
X147393Y334499D01*
X147352Y334600D01*
X147332Y334625D01*
X147318Y334655D01*
X147246Y334736D01*
X147179Y334822D01*
X147152Y334841D01*
X147131Y334865D01*
X147054Y334912D01*
X146950Y334987D01*
X146904Y335004D01*
X146868Y335026D01*
X146782Y335062D01*
X145109Y336734D01*
X144204Y338919D01*
X144204Y341285D01*
X145109Y343470D01*
X146782Y345143D01*
X148967Y346048D01*
X151332Y346048D01*
X153518Y345143D01*
X155190Y343470D01*
X156095Y341285D01*
X156095Y338919D01*
X155190Y336734D01*
X153518Y335062D01*
X153282Y334964D01*
X153254Y334947D01*
X153223Y334937D01*
X153133Y334876D01*
X153039Y334820D01*
X153017Y334797D01*
X152990Y334779D01*
X152921Y334694D01*
X152846Y334615D01*
X152831Y334586D01*
X152811Y334561D01*
X152768Y334460D01*
X152718Y334363D01*
X152712Y334331D01*
X152700Y334302D01*
X152686Y334193D01*
X152666Y334086D01*
X152669Y334054D01*
X152665Y334022D01*
X152682Y333914D01*
X152693Y333805D01*
X152705Y333775D01*
X152710Y333743D01*
X152757Y333645D01*
X152797Y333543D01*
X152817Y333518D01*
X152831Y333489D01*
X152904Y333407D01*
X152971Y333321D01*
X152997Y333302D01*
X153018Y333278D01*
X153096Y333231D01*
X153200Y333156D01*
X153245Y333140D01*
X153282Y333117D01*
X153651Y332964D01*
X155464Y331151D01*
X156446Y328782D01*
X156446Y326218D01*
X155464Y323849D01*
X153651Y322036D01*
X151282Y321054D01*
X148718Y321054D01*
G37*
%LPD*%
%LPC*%
G36*
X346110Y565514D02*
X346110Y565514D01*
X343543Y566578D01*
X341578Y568543D01*
X340514Y571110D01*
X340514Y573890D01*
X341578Y576457D01*
X343543Y578422D01*
X346110Y579486D01*
X348890Y579486D01*
X351457Y578422D01*
X353422Y576457D01*
X354486Y573890D01*
X354486Y571110D01*
X353422Y568543D01*
X351457Y566578D01*
X348890Y565514D01*
X346110Y565514D01*
G37*
%LPD*%
%LPC*%
G36*
X223610Y803014D02*
X223610Y803014D01*
X221043Y804078D01*
X219078Y806043D01*
X218014Y808610D01*
X218014Y811390D01*
X219078Y813957D01*
X221043Y815922D01*
X223610Y816986D01*
X226390Y816986D01*
X228957Y815922D01*
X230922Y813957D01*
X231986Y811390D01*
X231986Y808610D01*
X230922Y806043D01*
X228957Y804078D01*
X226390Y803014D01*
X223610Y803014D01*
G37*
%LPD*%
%LPC*%
G36*
X598610Y663014D02*
X598610Y663014D01*
X596043Y664078D01*
X594078Y666043D01*
X593014Y668610D01*
X593014Y671390D01*
X594078Y673957D01*
X596043Y675922D01*
X598610Y676986D01*
X601390Y676986D01*
X603957Y675922D01*
X605922Y673957D01*
X606986Y671390D01*
X606986Y668610D01*
X605922Y666043D01*
X603957Y664078D01*
X601390Y663014D01*
X598610Y663014D01*
G37*
%LPD*%
%LPC*%
G36*
X453610Y538014D02*
X453610Y538014D01*
X451043Y539078D01*
X449078Y541043D01*
X448014Y543610D01*
X448014Y546390D01*
X449078Y548957D01*
X451043Y550922D01*
X453610Y551986D01*
X456390Y551986D01*
X458957Y550922D01*
X460922Y548957D01*
X461986Y546390D01*
X461986Y543610D01*
X460922Y541043D01*
X458957Y539078D01*
X456390Y538014D01*
X453610Y538014D01*
G37*
%LPD*%
%LPC*%
G36*
X583610Y653014D02*
X583610Y653014D01*
X581043Y654078D01*
X579078Y656043D01*
X578014Y658610D01*
X578014Y661390D01*
X579078Y663957D01*
X581043Y665922D01*
X583610Y666986D01*
X586390Y666986D01*
X588957Y665922D01*
X590922Y663957D01*
X591986Y661390D01*
X591986Y658610D01*
X590922Y656043D01*
X588957Y654078D01*
X586390Y653014D01*
X583610Y653014D01*
G37*
%LPD*%
%LPC*%
G36*
X398610Y728014D02*
X398610Y728014D01*
X396043Y729078D01*
X394078Y731043D01*
X393014Y733610D01*
X393014Y736390D01*
X394078Y738957D01*
X396043Y740922D01*
X398610Y741986D01*
X401390Y741986D01*
X403957Y740922D01*
X405922Y738957D01*
X406986Y736390D01*
X406986Y733610D01*
X405922Y731043D01*
X403957Y729078D01*
X401390Y728014D01*
X398610Y728014D01*
G37*
%LPD*%
%LPC*%
G36*
X463610Y273014D02*
X463610Y273014D01*
X461043Y274078D01*
X459078Y276043D01*
X458014Y278610D01*
X458014Y281390D01*
X459078Y283957D01*
X461043Y285922D01*
X463610Y286986D01*
X466390Y286986D01*
X468957Y285922D01*
X470922Y283957D01*
X471986Y281390D01*
X471986Y278610D01*
X470922Y276043D01*
X468957Y274078D01*
X466390Y273014D01*
X463610Y273014D01*
G37*
%LPD*%
%LPC*%
G36*
X58610Y233014D02*
X58610Y233014D01*
X56043Y234078D01*
X54078Y236043D01*
X53014Y238610D01*
X53014Y241390D01*
X54078Y243957D01*
X56043Y245922D01*
X58610Y246986D01*
X61390Y246986D01*
X63957Y245922D01*
X65922Y243957D01*
X66986Y241390D01*
X66986Y238610D01*
X65922Y236043D01*
X63957Y234078D01*
X61390Y233014D01*
X58610Y233014D01*
G37*
%LPD*%
%LPC*%
G36*
X463610Y253014D02*
X463610Y253014D01*
X461043Y254078D01*
X459078Y256043D01*
X458014Y258610D01*
X458014Y261390D01*
X459078Y263957D01*
X461043Y265922D01*
X463610Y266986D01*
X466390Y266986D01*
X468957Y265922D01*
X470922Y263957D01*
X471986Y261390D01*
X471986Y258610D01*
X470922Y256043D01*
X468957Y254078D01*
X466390Y253014D01*
X463610Y253014D01*
G37*
%LPD*%
%LPC*%
G36*
X348610Y483014D02*
X348610Y483014D01*
X346043Y484078D01*
X344078Y486043D01*
X343014Y488610D01*
X343014Y491390D01*
X344078Y493957D01*
X346043Y495922D01*
X348610Y496986D01*
X351390Y496986D01*
X353957Y495922D01*
X355922Y493957D01*
X356986Y491390D01*
X356986Y488610D01*
X355922Y486043D01*
X353957Y484078D01*
X351390Y483014D01*
X348610Y483014D01*
G37*
%LPD*%
%LPC*%
G36*
X323610Y458014D02*
X323610Y458014D01*
X321043Y459078D01*
X319078Y461043D01*
X318014Y463610D01*
X318014Y466390D01*
X319078Y468957D01*
X321043Y470922D01*
X323610Y471986D01*
X326390Y471986D01*
X328957Y470922D01*
X330922Y468957D01*
X331986Y466390D01*
X331986Y463610D01*
X330922Y461043D01*
X328957Y459078D01*
X326390Y458014D01*
X323610Y458014D01*
G37*
%LPD*%
%LPC*%
G36*
X40649Y72209D02*
X40649Y72209D01*
X38153Y73243D01*
X36243Y75153D01*
X35209Y77649D01*
X35209Y80351D01*
X36243Y82847D01*
X38153Y84757D01*
X40649Y85791D01*
X43351Y85791D01*
X45847Y84757D01*
X47757Y82847D01*
X48791Y80351D01*
X48791Y77649D01*
X47757Y75153D01*
X45847Y73243D01*
X43351Y72209D01*
X40649Y72209D01*
G37*
%LPD*%
%LPC*%
G36*
X40549Y197509D02*
X40549Y197509D01*
X38053Y198543D01*
X36143Y200453D01*
X35109Y202949D01*
X35109Y205651D01*
X36143Y208147D01*
X38053Y210057D01*
X40549Y211091D01*
X43251Y211091D01*
X45747Y210057D01*
X47657Y208147D01*
X48691Y205651D01*
X48691Y202949D01*
X47657Y200453D01*
X45747Y198543D01*
X43251Y197509D01*
X40549Y197509D01*
G37*
%LPD*%
%LPC*%
G36*
X278718Y816054D02*
X278718Y816054D01*
X276349Y817036D01*
X274536Y818849D01*
X273554Y821218D01*
X273554Y823782D01*
X274536Y826151D01*
X276349Y827964D01*
X278718Y828946D01*
X281282Y828946D01*
X283651Y827964D01*
X285464Y826151D01*
X286446Y823782D01*
X286446Y821218D01*
X285464Y818849D01*
X283651Y817036D01*
X281282Y816054D01*
X278718Y816054D01*
G37*
%LPD*%
%LPC*%
G36*
X328718Y813554D02*
X328718Y813554D01*
X326349Y814536D01*
X324536Y816349D01*
X323554Y818718D01*
X323554Y821282D01*
X324536Y823651D01*
X326349Y825464D01*
X328718Y826446D01*
X331282Y826446D01*
X333651Y825464D01*
X335464Y823651D01*
X336446Y821282D01*
X336446Y818718D01*
X335464Y816349D01*
X333651Y814536D01*
X331282Y813554D01*
X328718Y813554D01*
G37*
%LPD*%
%LPC*%
G36*
X398718Y33554D02*
X398718Y33554D01*
X396349Y34536D01*
X394536Y36349D01*
X393554Y38718D01*
X393554Y41282D01*
X394536Y43651D01*
X396349Y45464D01*
X398718Y46446D01*
X401282Y46446D01*
X403651Y45464D01*
X405464Y43651D01*
X406446Y41282D01*
X406446Y38718D01*
X405464Y36349D01*
X403651Y34536D01*
X401282Y33554D01*
X398718Y33554D01*
G37*
%LPD*%
%LPC*%
G36*
X273718Y33554D02*
X273718Y33554D01*
X271349Y34536D01*
X269536Y36349D01*
X268554Y38718D01*
X268554Y41282D01*
X269536Y43651D01*
X271349Y45464D01*
X273718Y46446D01*
X276282Y46446D01*
X278651Y45464D01*
X280464Y43651D01*
X281446Y41282D01*
X281446Y38718D01*
X280464Y36349D01*
X278651Y34536D01*
X276282Y33554D01*
X273718Y33554D01*
G37*
%LPD*%
%LPC*%
G36*
X251218Y792304D02*
X251218Y792304D01*
X248849Y793286D01*
X247036Y795099D01*
X246054Y797468D01*
X246054Y800032D01*
X247036Y802401D01*
X248849Y804214D01*
X251218Y805196D01*
X253782Y805196D01*
X256151Y804214D01*
X257964Y802401D01*
X258946Y800032D01*
X258946Y797468D01*
X257964Y795099D01*
X256151Y793286D01*
X253782Y792304D01*
X251218Y792304D01*
G37*
%LPD*%
%LPC*%
G36*
X108718Y31054D02*
X108718Y31054D01*
X106349Y32036D01*
X104536Y33849D01*
X103554Y36218D01*
X103554Y38782D01*
X104536Y41151D01*
X106349Y42964D01*
X108718Y43946D01*
X111282Y43946D01*
X113651Y42964D01*
X115464Y41151D01*
X116446Y38782D01*
X116446Y36218D01*
X115464Y33849D01*
X113651Y32036D01*
X111282Y31054D01*
X108718Y31054D01*
G37*
%LPD*%
%LPC*%
G36*
X561218Y761054D02*
X561218Y761054D01*
X558849Y762036D01*
X557036Y763849D01*
X556054Y766218D01*
X556054Y768782D01*
X557036Y771151D01*
X558849Y772964D01*
X561218Y773946D01*
X563782Y773946D01*
X566151Y772964D01*
X567964Y771151D01*
X568946Y768782D01*
X568946Y766218D01*
X567964Y763849D01*
X566151Y762036D01*
X563782Y761054D01*
X561218Y761054D01*
G37*
%LPD*%
%LPC*%
G36*
X563718Y648554D02*
X563718Y648554D01*
X561349Y649536D01*
X559536Y651349D01*
X558554Y653718D01*
X558554Y656282D01*
X559536Y658651D01*
X561349Y660464D01*
X563718Y661446D01*
X566282Y661446D01*
X568651Y660464D01*
X570464Y658651D01*
X571446Y656282D01*
X571446Y653718D01*
X570464Y651349D01*
X568651Y649536D01*
X566282Y648554D01*
X563718Y648554D01*
G37*
%LPD*%
%LPC*%
G36*
X338718Y716054D02*
X338718Y716054D01*
X336349Y717036D01*
X334536Y718849D01*
X333554Y721218D01*
X333554Y723782D01*
X334536Y726151D01*
X336349Y727964D01*
X338718Y728946D01*
X341282Y728946D01*
X343651Y727964D01*
X345464Y726151D01*
X346446Y723782D01*
X346446Y721218D01*
X345464Y718849D01*
X343651Y717036D01*
X341282Y716054D01*
X338718Y716054D01*
G37*
%LPD*%
%LPC*%
G36*
X398718Y693554D02*
X398718Y693554D01*
X396349Y694536D01*
X394536Y696349D01*
X393554Y698718D01*
X393554Y701282D01*
X394536Y703651D01*
X396349Y705464D01*
X398718Y706446D01*
X401282Y706446D01*
X403651Y705464D01*
X405464Y703651D01*
X406446Y701282D01*
X406446Y698718D01*
X405464Y696349D01*
X403651Y694536D01*
X401282Y693554D01*
X398718Y693554D01*
G37*
%LPD*%
%LPC*%
G36*
X368718Y688554D02*
X368718Y688554D01*
X366349Y689536D01*
X364536Y691349D01*
X363554Y693718D01*
X363554Y696282D01*
X364536Y698651D01*
X366349Y700464D01*
X368718Y701446D01*
X371282Y701446D01*
X373651Y700464D01*
X375464Y698651D01*
X376446Y696282D01*
X376446Y693718D01*
X375464Y691349D01*
X373651Y689536D01*
X371282Y688554D01*
X368718Y688554D01*
G37*
%LPD*%
%LPC*%
G36*
X563418Y683154D02*
X563418Y683154D01*
X561049Y684136D01*
X559236Y685949D01*
X558254Y688318D01*
X558254Y690882D01*
X559236Y693251D01*
X561049Y695064D01*
X563418Y696046D01*
X565982Y696046D01*
X568351Y695064D01*
X570164Y693251D01*
X571146Y690882D01*
X571146Y688318D01*
X570164Y685949D01*
X568351Y684136D01*
X565982Y683154D01*
X563418Y683154D01*
G37*
%LPD*%
%LPC*%
G36*
X238718Y663554D02*
X238718Y663554D01*
X236349Y664536D01*
X234536Y666349D01*
X233554Y668718D01*
X233554Y671282D01*
X234536Y673651D01*
X236349Y675464D01*
X238718Y676446D01*
X241282Y676446D01*
X243651Y675464D01*
X245464Y673651D01*
X246446Y671282D01*
X246446Y668718D01*
X245464Y666349D01*
X243651Y664536D01*
X241282Y663554D01*
X238718Y663554D01*
G37*
%LPD*%
%LPC*%
G36*
X253718Y641054D02*
X253718Y641054D01*
X251349Y642036D01*
X249536Y643849D01*
X248554Y646218D01*
X248554Y648782D01*
X249536Y651151D01*
X251349Y652964D01*
X253718Y653946D01*
X256282Y653946D01*
X258651Y652964D01*
X260464Y651151D01*
X261446Y648782D01*
X261446Y646218D01*
X260464Y643849D01*
X258651Y642036D01*
X256282Y641054D01*
X253718Y641054D01*
G37*
%LPD*%
%LPC*%
G36*
X473718Y636054D02*
X473718Y636054D01*
X471349Y637036D01*
X469536Y638849D01*
X468554Y641218D01*
X468554Y643782D01*
X469536Y646151D01*
X471349Y647964D01*
X473718Y648946D01*
X476282Y648946D01*
X478651Y647964D01*
X480464Y646151D01*
X481446Y643782D01*
X481446Y641218D01*
X480464Y638849D01*
X478651Y637036D01*
X476282Y636054D01*
X473718Y636054D01*
G37*
%LPD*%
%LPC*%
G36*
X498718Y626054D02*
X498718Y626054D01*
X496349Y627036D01*
X494536Y628849D01*
X493554Y631218D01*
X493554Y633782D01*
X494536Y636151D01*
X496349Y637964D01*
X498718Y638946D01*
X501282Y638946D01*
X503651Y637964D01*
X505464Y636151D01*
X506446Y633782D01*
X506446Y631218D01*
X505464Y628849D01*
X503651Y627036D01*
X501282Y626054D01*
X498718Y626054D01*
G37*
%LPD*%
%LPC*%
G36*
X88718Y611054D02*
X88718Y611054D01*
X86349Y612036D01*
X84536Y613849D01*
X83554Y616218D01*
X83554Y618782D01*
X84536Y621151D01*
X86349Y622964D01*
X88718Y623946D01*
X91282Y623946D01*
X93651Y622964D01*
X95464Y621151D01*
X96446Y618782D01*
X96446Y616218D01*
X95464Y613849D01*
X93651Y612036D01*
X91282Y611054D01*
X88718Y611054D01*
G37*
%LPD*%
%LPC*%
G36*
X13718Y611054D02*
X13718Y611054D01*
X11349Y612036D01*
X9536Y613849D01*
X8554Y616218D01*
X8554Y618782D01*
X9536Y621151D01*
X11349Y622964D01*
X13718Y623946D01*
X16282Y623946D01*
X18651Y622964D01*
X20464Y621151D01*
X21446Y618782D01*
X21446Y616218D01*
X20464Y613849D01*
X18651Y612036D01*
X16282Y611054D01*
X13718Y611054D01*
G37*
%LPD*%
%LPC*%
G36*
X233718Y603554D02*
X233718Y603554D01*
X231349Y604536D01*
X229536Y606349D01*
X228554Y608718D01*
X228554Y611282D01*
X229536Y613651D01*
X231349Y615464D01*
X233718Y616446D01*
X236282Y616446D01*
X238651Y615464D01*
X240464Y613651D01*
X241446Y611282D01*
X241446Y608718D01*
X240464Y606349D01*
X238651Y604536D01*
X236282Y603554D01*
X233718Y603554D01*
G37*
%LPD*%
%LPC*%
G36*
X248718Y588554D02*
X248718Y588554D01*
X246349Y589536D01*
X244536Y591349D01*
X243554Y593718D01*
X243554Y596282D01*
X244536Y598651D01*
X246349Y600464D01*
X248718Y601446D01*
X251282Y601446D01*
X253651Y600464D01*
X255464Y598651D01*
X256446Y596282D01*
X256446Y593718D01*
X255464Y591349D01*
X253651Y589536D01*
X251282Y588554D01*
X248718Y588554D01*
G37*
%LPD*%
%LPC*%
G36*
X233718Y588554D02*
X233718Y588554D01*
X231349Y589536D01*
X229536Y591349D01*
X228554Y593718D01*
X228554Y596282D01*
X229536Y598651D01*
X231349Y600464D01*
X233718Y601446D01*
X236282Y601446D01*
X238651Y600464D01*
X240464Y598651D01*
X241446Y596282D01*
X241446Y593718D01*
X240464Y591349D01*
X238651Y589536D01*
X236282Y588554D01*
X233718Y588554D01*
G37*
%LPD*%
%LPC*%
G36*
X48718Y581054D02*
X48718Y581054D01*
X46349Y582036D01*
X44536Y583849D01*
X43554Y586218D01*
X43554Y588782D01*
X44536Y591151D01*
X46349Y592964D01*
X48718Y593946D01*
X51282Y593946D01*
X53651Y592964D01*
X55464Y591151D01*
X56446Y588782D01*
X56446Y586218D01*
X55464Y583849D01*
X53651Y582036D01*
X51282Y581054D01*
X48718Y581054D01*
G37*
%LPD*%
%LPC*%
G36*
X68718Y561054D02*
X68718Y561054D01*
X66349Y562036D01*
X64536Y563849D01*
X63554Y566218D01*
X63554Y568782D01*
X64536Y571151D01*
X66349Y572964D01*
X68718Y573946D01*
X71282Y573946D01*
X73651Y572964D01*
X75464Y571151D01*
X76446Y568782D01*
X76446Y566218D01*
X75464Y563849D01*
X73651Y562036D01*
X71282Y561054D01*
X68718Y561054D01*
G37*
%LPD*%
%LPC*%
G36*
X98718Y561054D02*
X98718Y561054D01*
X96349Y562036D01*
X94536Y563849D01*
X93554Y566218D01*
X93554Y568782D01*
X94536Y571151D01*
X96349Y572964D01*
X98718Y573946D01*
X101282Y573946D01*
X103651Y572964D01*
X105464Y571151D01*
X106446Y568782D01*
X106446Y566218D01*
X105464Y563849D01*
X103651Y562036D01*
X101282Y561054D01*
X98718Y561054D01*
G37*
%LPD*%
%LPC*%
G36*
X128718Y561054D02*
X128718Y561054D01*
X126349Y562036D01*
X124536Y563849D01*
X123554Y566218D01*
X123554Y568782D01*
X124536Y571151D01*
X126349Y572964D01*
X128718Y573946D01*
X131282Y573946D01*
X133651Y572964D01*
X135464Y571151D01*
X136446Y568782D01*
X136446Y566218D01*
X135464Y563849D01*
X133651Y562036D01*
X131282Y561054D01*
X128718Y561054D01*
G37*
%LPD*%
%LPC*%
G36*
X38718Y561054D02*
X38718Y561054D01*
X36349Y562036D01*
X34536Y563849D01*
X33554Y566218D01*
X33554Y568782D01*
X34536Y571151D01*
X36349Y572964D01*
X38718Y573946D01*
X41282Y573946D01*
X43651Y572964D01*
X45464Y571151D01*
X46446Y568782D01*
X46446Y566218D01*
X45464Y563849D01*
X43651Y562036D01*
X41282Y561054D01*
X38718Y561054D01*
G37*
%LPD*%
%LPC*%
G36*
X243718Y553554D02*
X243718Y553554D01*
X241349Y554536D01*
X239536Y556349D01*
X238554Y558718D01*
X238554Y561282D01*
X239536Y563651D01*
X241349Y565464D01*
X243718Y566446D01*
X246282Y566446D01*
X248651Y565464D01*
X250464Y563651D01*
X251446Y561282D01*
X251446Y558718D01*
X250464Y556349D01*
X248651Y554536D01*
X246282Y553554D01*
X243718Y553554D01*
G37*
%LPD*%
%LPC*%
G36*
X213718Y553554D02*
X213718Y553554D01*
X211349Y554536D01*
X209536Y556349D01*
X208554Y558718D01*
X208554Y561282D01*
X209536Y563651D01*
X211349Y565464D01*
X213718Y566446D01*
X216282Y566446D01*
X218651Y565464D01*
X220464Y563651D01*
X221446Y561282D01*
X221446Y558718D01*
X220464Y556349D01*
X218651Y554536D01*
X216282Y553554D01*
X213718Y553554D01*
G37*
%LPD*%
%LPC*%
G36*
X258718Y538554D02*
X258718Y538554D01*
X256349Y539536D01*
X254536Y541349D01*
X253554Y543718D01*
X253554Y546282D01*
X254536Y548651D01*
X256349Y550464D01*
X258718Y551446D01*
X261282Y551446D01*
X263651Y550464D01*
X265464Y548651D01*
X266446Y546282D01*
X266446Y543718D01*
X265464Y541349D01*
X263651Y539536D01*
X261282Y538554D01*
X258718Y538554D01*
G37*
%LPD*%
%LPC*%
G36*
X243718Y538554D02*
X243718Y538554D01*
X241349Y539536D01*
X239536Y541349D01*
X238554Y543718D01*
X238554Y546282D01*
X239536Y548651D01*
X241349Y550464D01*
X243718Y551446D01*
X246282Y551446D01*
X248651Y550464D01*
X250464Y548651D01*
X251446Y546282D01*
X251446Y543718D01*
X250464Y541349D01*
X248651Y539536D01*
X246282Y538554D01*
X243718Y538554D01*
G37*
%LPD*%
%LPC*%
G36*
X213718Y538554D02*
X213718Y538554D01*
X211349Y539536D01*
X209536Y541349D01*
X208554Y543718D01*
X208554Y546282D01*
X209536Y548651D01*
X211349Y550464D01*
X213718Y551446D01*
X216282Y551446D01*
X218651Y550464D01*
X220464Y548651D01*
X221446Y546282D01*
X221446Y543718D01*
X220464Y541349D01*
X218651Y539536D01*
X216282Y538554D01*
X213718Y538554D01*
G37*
%LPD*%
%LPC*%
G36*
X126218Y538554D02*
X126218Y538554D01*
X123849Y539536D01*
X122036Y541349D01*
X121054Y543718D01*
X121054Y546282D01*
X122036Y548651D01*
X123849Y550464D01*
X126218Y551446D01*
X128782Y551446D01*
X131151Y550464D01*
X132964Y548651D01*
X133946Y546282D01*
X133946Y543718D01*
X132964Y541349D01*
X131151Y539536D01*
X128782Y538554D01*
X126218Y538554D01*
G37*
%LPD*%
%LPC*%
G36*
X93718Y538554D02*
X93718Y538554D01*
X91349Y539536D01*
X89536Y541349D01*
X88554Y543718D01*
X88554Y546282D01*
X89536Y548651D01*
X91349Y550464D01*
X93718Y551446D01*
X96282Y551446D01*
X98651Y550464D01*
X100464Y548651D01*
X101446Y546282D01*
X101446Y543718D01*
X100464Y541349D01*
X98651Y539536D01*
X96282Y538554D01*
X93718Y538554D01*
G37*
%LPD*%
%LPC*%
G36*
X756218Y531054D02*
X756218Y531054D01*
X753849Y532036D01*
X752036Y533849D01*
X751054Y536218D01*
X751054Y538782D01*
X752036Y541151D01*
X753849Y542964D01*
X756218Y543946D01*
X758782Y543946D01*
X761151Y542964D01*
X762964Y541151D01*
X763946Y538782D01*
X763946Y536218D01*
X762964Y533849D01*
X761151Y532036D01*
X758782Y531054D01*
X756218Y531054D01*
G37*
%LPD*%
%LPC*%
G36*
X773718Y531054D02*
X773718Y531054D01*
X771349Y532036D01*
X769536Y533849D01*
X768554Y536218D01*
X768554Y538782D01*
X769536Y541151D01*
X771349Y542964D01*
X773718Y543946D01*
X776282Y543946D01*
X778651Y542964D01*
X780464Y541151D01*
X781446Y538782D01*
X781446Y536218D01*
X780464Y533849D01*
X778651Y532036D01*
X776282Y531054D01*
X773718Y531054D01*
G37*
%LPD*%
%LPC*%
G36*
X273718Y326054D02*
X273718Y326054D01*
X271349Y327036D01*
X269536Y328849D01*
X268554Y331218D01*
X268554Y333782D01*
X269536Y336151D01*
X271349Y337964D01*
X273718Y338946D01*
X276282Y338946D01*
X278651Y337964D01*
X280464Y336151D01*
X281446Y333782D01*
X281446Y331218D01*
X280464Y328849D01*
X278651Y327036D01*
X276282Y326054D01*
X273718Y326054D01*
G37*
%LPD*%
%LPC*%
G36*
X243718Y326054D02*
X243718Y326054D01*
X241349Y327036D01*
X239536Y328849D01*
X238554Y331218D01*
X238554Y333782D01*
X239536Y336151D01*
X241349Y337964D01*
X243718Y338946D01*
X246282Y338946D01*
X248651Y337964D01*
X250464Y336151D01*
X251446Y333782D01*
X251446Y331218D01*
X250464Y328849D01*
X248651Y327036D01*
X246282Y326054D01*
X243718Y326054D01*
G37*
%LPD*%
%LPC*%
G36*
X166218Y326054D02*
X166218Y326054D01*
X163849Y327036D01*
X162036Y328849D01*
X161054Y331218D01*
X161054Y333782D01*
X162036Y336151D01*
X163849Y337964D01*
X166218Y338946D01*
X168782Y338946D01*
X171151Y337964D01*
X172964Y336151D01*
X173946Y333782D01*
X173946Y331218D01*
X172964Y328849D01*
X171151Y327036D01*
X168782Y326054D01*
X166218Y326054D01*
G37*
%LPD*%
%LPC*%
G36*
X411218Y323554D02*
X411218Y323554D01*
X408849Y324536D01*
X407036Y326349D01*
X406054Y328718D01*
X406054Y331282D01*
X407036Y333651D01*
X408849Y335464D01*
X411218Y336446D01*
X413782Y336446D01*
X416151Y335464D01*
X417964Y333651D01*
X418946Y331282D01*
X418946Y328718D01*
X417964Y326349D01*
X416151Y324536D01*
X413782Y323554D01*
X411218Y323554D01*
G37*
%LPD*%
%LPC*%
G36*
X465818Y463854D02*
X465818Y463854D01*
X463449Y464836D01*
X461636Y466649D01*
X460654Y469018D01*
X460654Y471582D01*
X461636Y473951D01*
X463449Y475764D01*
X465818Y476746D01*
X468382Y476746D01*
X470751Y475764D01*
X472564Y473951D01*
X473546Y471582D01*
X473546Y469018D01*
X472564Y466649D01*
X470751Y464836D01*
X468382Y463854D01*
X465818Y463854D01*
G37*
%LPD*%
%LPC*%
G36*
X571218Y308554D02*
X571218Y308554D01*
X568849Y309536D01*
X567036Y311349D01*
X566054Y313718D01*
X566054Y316282D01*
X567036Y318651D01*
X568849Y320464D01*
X571218Y321446D01*
X573782Y321446D01*
X576151Y320464D01*
X577964Y318651D01*
X578946Y316282D01*
X578946Y313718D01*
X577964Y311349D01*
X576151Y309536D01*
X573782Y308554D01*
X571218Y308554D01*
G37*
%LPD*%
%LPC*%
G36*
X618718Y298554D02*
X618718Y298554D01*
X616349Y299536D01*
X614536Y301349D01*
X613554Y303718D01*
X613554Y306282D01*
X614536Y308651D01*
X616349Y310464D01*
X618718Y311446D01*
X621282Y311446D01*
X623651Y310464D01*
X625464Y308651D01*
X626446Y306282D01*
X626446Y303718D01*
X625464Y301349D01*
X623651Y299536D01*
X621282Y298554D01*
X618718Y298554D01*
G37*
%LPD*%
%LPC*%
G36*
X468718Y448554D02*
X468718Y448554D01*
X466349Y449536D01*
X464536Y451349D01*
X463554Y453718D01*
X463554Y456282D01*
X464536Y458651D01*
X466349Y460464D01*
X468718Y461446D01*
X471282Y461446D01*
X473651Y460464D01*
X475464Y458651D01*
X476446Y456282D01*
X476446Y453718D01*
X475464Y451349D01*
X473651Y449536D01*
X471282Y448554D01*
X468718Y448554D01*
G37*
%LPD*%
%LPC*%
G36*
X396218Y448554D02*
X396218Y448554D01*
X393849Y449536D01*
X392036Y451349D01*
X391054Y453718D01*
X391054Y456282D01*
X392036Y458651D01*
X393849Y460464D01*
X396218Y461446D01*
X398782Y461446D01*
X401151Y460464D01*
X402964Y458651D01*
X403946Y456282D01*
X403946Y453718D01*
X402964Y451349D01*
X401151Y449536D01*
X398782Y448554D01*
X396218Y448554D01*
G37*
%LPD*%
%LPC*%
G36*
X213718Y523554D02*
X213718Y523554D01*
X211349Y524536D01*
X209536Y526349D01*
X208554Y528718D01*
X208554Y531282D01*
X209536Y533651D01*
X211349Y535464D01*
X213718Y536446D01*
X216282Y536446D01*
X218651Y535464D01*
X220464Y533651D01*
X221446Y531282D01*
X221446Y528718D01*
X220464Y526349D01*
X218651Y524536D01*
X216282Y523554D01*
X213718Y523554D01*
G37*
%LPD*%
%LPC*%
G36*
X383718Y286054D02*
X383718Y286054D01*
X381349Y287036D01*
X379536Y288849D01*
X378554Y291218D01*
X378554Y293782D01*
X379536Y296151D01*
X381349Y297964D01*
X383718Y298946D01*
X386282Y298946D01*
X388651Y297964D01*
X390464Y296151D01*
X391446Y293782D01*
X391446Y291218D01*
X390464Y288849D01*
X388651Y287036D01*
X386282Y286054D01*
X383718Y286054D01*
G37*
%LPD*%
%LPC*%
G36*
X213718Y493554D02*
X213718Y493554D01*
X211349Y494536D01*
X209536Y496349D01*
X208554Y498718D01*
X208554Y501282D01*
X209536Y503651D01*
X211349Y505464D01*
X213718Y506446D01*
X216282Y506446D01*
X218651Y505464D01*
X220464Y503651D01*
X221446Y501282D01*
X221446Y498718D01*
X220464Y496349D01*
X218651Y494536D01*
X216282Y493554D01*
X213718Y493554D01*
G37*
%LPD*%
%LPC*%
G36*
X166218Y268554D02*
X166218Y268554D01*
X163849Y269536D01*
X162036Y271349D01*
X161054Y273718D01*
X161054Y276282D01*
X162036Y278651D01*
X163849Y280464D01*
X166218Y281446D01*
X168782Y281446D01*
X171151Y280464D01*
X172964Y278651D01*
X173946Y276282D01*
X173946Y273718D01*
X172964Y271349D01*
X171151Y269536D01*
X168782Y268554D01*
X166218Y268554D01*
G37*
%LPD*%
%LPC*%
G36*
X243718Y523554D02*
X243718Y523554D01*
X241349Y524536D01*
X239536Y526349D01*
X238554Y528718D01*
X238554Y531282D01*
X239536Y533651D01*
X241349Y535464D01*
X243718Y536446D01*
X246282Y536446D01*
X248651Y535464D01*
X250464Y533651D01*
X251446Y531282D01*
X251446Y528718D01*
X250464Y526349D01*
X248651Y524536D01*
X246282Y523554D01*
X243718Y523554D01*
G37*
%LPD*%
%LPC*%
G36*
X338718Y446054D02*
X338718Y446054D01*
X336349Y447036D01*
X334536Y448849D01*
X333554Y451218D01*
X333554Y453782D01*
X334536Y456151D01*
X336349Y457964D01*
X338718Y458946D01*
X341282Y458946D01*
X343651Y457964D01*
X345464Y456151D01*
X346446Y453782D01*
X346446Y451218D01*
X345464Y448849D01*
X343651Y447036D01*
X341282Y446054D01*
X338718Y446054D01*
G37*
%LPD*%
%LPC*%
G36*
X420818Y483854D02*
X420818Y483854D01*
X418449Y484836D01*
X416636Y486649D01*
X415654Y489018D01*
X415654Y491582D01*
X416636Y493951D01*
X418449Y495764D01*
X420818Y496746D01*
X423382Y496746D01*
X425751Y495764D01*
X427564Y493951D01*
X428546Y491582D01*
X428546Y489018D01*
X427564Y486649D01*
X425751Y484836D01*
X423382Y483854D01*
X420818Y483854D01*
G37*
%LPD*%
%LPC*%
G36*
X228718Y478554D02*
X228718Y478554D01*
X226349Y479536D01*
X224536Y481349D01*
X223554Y483718D01*
X223554Y486282D01*
X224536Y488651D01*
X226349Y490464D01*
X228718Y491446D01*
X231282Y491446D01*
X233651Y490464D01*
X235464Y488651D01*
X236446Y486282D01*
X236446Y483718D01*
X235464Y481349D01*
X233651Y479536D01*
X231282Y478554D01*
X228718Y478554D01*
G37*
%LPD*%
%LPC*%
G36*
X178718Y416054D02*
X178718Y416054D01*
X176349Y417036D01*
X174536Y418849D01*
X173554Y421218D01*
X173554Y423782D01*
X174536Y426151D01*
X176349Y427964D01*
X178718Y428946D01*
X181282Y428946D01*
X183651Y427964D01*
X185464Y426151D01*
X186446Y423782D01*
X186446Y421218D01*
X185464Y418849D01*
X183651Y417036D01*
X181282Y416054D01*
X178718Y416054D01*
G37*
%LPD*%
%LPC*%
G36*
X693718Y413554D02*
X693718Y413554D01*
X691349Y414536D01*
X689536Y416349D01*
X688554Y418718D01*
X688554Y421282D01*
X689536Y423651D01*
X691349Y425464D01*
X693718Y426446D01*
X696282Y426446D01*
X698651Y425464D01*
X700464Y423651D01*
X701446Y421282D01*
X701446Y418718D01*
X700464Y416349D01*
X698651Y414536D01*
X696282Y413554D01*
X693718Y413554D01*
G37*
%LPD*%
%LPC*%
G36*
X208718Y398554D02*
X208718Y398554D01*
X206349Y399536D01*
X204536Y401349D01*
X203554Y403718D01*
X203554Y406282D01*
X204536Y408651D01*
X206349Y410464D01*
X208718Y411446D01*
X211282Y411446D01*
X213651Y410464D01*
X215464Y408651D01*
X216446Y406282D01*
X216446Y403718D01*
X215464Y401349D01*
X213651Y399536D01*
X211282Y398554D01*
X208718Y398554D01*
G37*
%LPD*%
%LPC*%
G36*
X213718Y478554D02*
X213718Y478554D01*
X211349Y479536D01*
X209536Y481349D01*
X208554Y483718D01*
X208554Y486282D01*
X209536Y488651D01*
X211349Y490464D01*
X213718Y491446D01*
X216282Y491446D01*
X218651Y490464D01*
X220464Y488651D01*
X221446Y486282D01*
X221446Y483718D01*
X220464Y481349D01*
X218651Y479536D01*
X216282Y478554D01*
X213718Y478554D01*
G37*
%LPD*%
%LPC*%
G36*
X213718Y508554D02*
X213718Y508554D01*
X211349Y509536D01*
X209536Y511349D01*
X208554Y513718D01*
X208554Y516282D01*
X209536Y518651D01*
X211349Y520464D01*
X213718Y521446D01*
X216282Y521446D01*
X218651Y520464D01*
X220464Y518651D01*
X221446Y516282D01*
X221446Y513718D01*
X220464Y511349D01*
X218651Y509536D01*
X216282Y508554D01*
X213718Y508554D01*
G37*
%LPD*%
%LPC*%
G36*
X243718Y508554D02*
X243718Y508554D01*
X241349Y509536D01*
X239536Y511349D01*
X238554Y513718D01*
X238554Y516282D01*
X239536Y518651D01*
X241349Y520464D01*
X243718Y521446D01*
X246282Y521446D01*
X248651Y520464D01*
X250464Y518651D01*
X251446Y516282D01*
X251446Y513718D01*
X250464Y511349D01*
X248651Y509536D01*
X246282Y508554D01*
X243718Y508554D01*
G37*
%LPD*%
%LPC*%
G36*
X103718Y233554D02*
X103718Y233554D01*
X101349Y234536D01*
X99536Y236349D01*
X98554Y238718D01*
X98554Y241282D01*
X99536Y243651D01*
X101349Y245464D01*
X103718Y246446D01*
X106282Y246446D01*
X108651Y245464D01*
X110464Y243651D01*
X111446Y241282D01*
X111446Y238718D01*
X110464Y236349D01*
X108651Y234536D01*
X106282Y233554D01*
X103718Y233554D01*
G37*
%LPD*%
%LPC*%
G36*
X258718Y523554D02*
X258718Y523554D01*
X256349Y524536D01*
X254536Y526349D01*
X253554Y528718D01*
X253554Y531282D01*
X254536Y533651D01*
X256349Y535464D01*
X258718Y536446D01*
X261282Y536446D01*
X263651Y535464D01*
X265464Y533651D01*
X266446Y531282D01*
X266446Y528718D01*
X265464Y526349D01*
X263651Y524536D01*
X261282Y523554D01*
X258718Y523554D01*
G37*
%LPD*%
%LPC*%
G36*
X696218Y518554D02*
X696218Y518554D01*
X693849Y519536D01*
X692036Y521349D01*
X691054Y523718D01*
X691054Y526282D01*
X692036Y528651D01*
X693849Y530464D01*
X696218Y531446D01*
X698782Y531446D01*
X701151Y530464D01*
X702964Y528651D01*
X703946Y526282D01*
X703946Y523718D01*
X702964Y521349D01*
X701151Y519536D01*
X698782Y518554D01*
X696218Y518554D01*
G37*
%LPD*%
%LPC*%
G36*
X58718Y521054D02*
X58718Y521054D01*
X56349Y522036D01*
X54536Y523849D01*
X53554Y526218D01*
X53554Y528782D01*
X54536Y531151D01*
X56349Y532964D01*
X58718Y533946D01*
X61282Y533946D01*
X63651Y532964D01*
X65464Y531151D01*
X66446Y528782D01*
X66446Y526218D01*
X65464Y523849D01*
X63651Y522036D01*
X61282Y521054D01*
X58718Y521054D01*
G37*
%LPD*%
%LPC*%
G36*
X333718Y346054D02*
X333718Y346054D01*
X331349Y347036D01*
X329536Y348849D01*
X328554Y351218D01*
X328554Y353782D01*
X329536Y356151D01*
X331349Y357964D01*
X333718Y358946D01*
X336282Y358946D01*
X338651Y357964D01*
X340464Y356151D01*
X341446Y353782D01*
X341446Y351218D01*
X340464Y348849D01*
X338651Y347036D01*
X336282Y346054D01*
X333718Y346054D01*
G37*
%LPD*%
%LPC*%
G36*
X293718Y346054D02*
X293718Y346054D01*
X291349Y347036D01*
X289536Y348849D01*
X288554Y351218D01*
X288554Y353782D01*
X289536Y356151D01*
X291349Y357964D01*
X293718Y358946D01*
X296282Y358946D01*
X298651Y357964D01*
X300464Y356151D01*
X301446Y353782D01*
X301446Y351218D01*
X300464Y348849D01*
X298651Y347036D01*
X296282Y346054D01*
X293718Y346054D01*
G37*
%LPD*%
%LPC*%
G36*
X463718Y523554D02*
X463718Y523554D01*
X461349Y524536D01*
X459536Y526349D01*
X458554Y528718D01*
X458554Y531282D01*
X459536Y533651D01*
X461349Y535464D01*
X463718Y536446D01*
X466282Y536446D01*
X468651Y535464D01*
X470464Y533651D01*
X471446Y531282D01*
X471446Y528718D01*
X470464Y526349D01*
X468651Y524536D01*
X466282Y523554D01*
X463718Y523554D01*
G37*
%LPD*%
%LPC*%
G36*
X83718Y468554D02*
X83718Y468554D01*
X81349Y469536D01*
X79536Y471349D01*
X78554Y473718D01*
X78554Y476282D01*
X79536Y478651D01*
X81349Y480464D01*
X83718Y481446D01*
X86282Y481446D01*
X88651Y480464D01*
X90464Y478651D01*
X91446Y476282D01*
X91446Y473718D01*
X90464Y471349D01*
X88651Y469536D01*
X86282Y468554D01*
X83718Y468554D01*
G37*
%LPD*%
%LPC*%
G36*
X13718Y466054D02*
X13718Y466054D01*
X11349Y467036D01*
X9536Y468849D01*
X8554Y471218D01*
X8554Y473782D01*
X9536Y476151D01*
X11349Y477964D01*
X13718Y478946D01*
X16282Y478946D01*
X18651Y477964D01*
X20464Y476151D01*
X21446Y473782D01*
X21446Y471218D01*
X20464Y468849D01*
X18651Y467036D01*
X16282Y466054D01*
X13718Y466054D01*
G37*
%LPD*%
%LPC*%
G36*
X381218Y556054D02*
X381218Y556054D01*
X378849Y557036D01*
X377036Y558849D01*
X376054Y561218D01*
X376054Y563782D01*
X377036Y566151D01*
X378849Y567964D01*
X381218Y568946D01*
X383782Y568946D01*
X386151Y567964D01*
X387964Y566151D01*
X388946Y563782D01*
X388946Y561218D01*
X387964Y558849D01*
X386151Y557036D01*
X383782Y556054D01*
X381218Y556054D01*
G37*
%LPD*%
%LPC*%
G36*
X606218Y133554D02*
X606218Y133554D01*
X603849Y134536D01*
X602036Y136349D01*
X601054Y138718D01*
X601054Y141282D01*
X602036Y143651D01*
X603849Y145464D01*
X606218Y146446D01*
X608782Y146446D01*
X611151Y145464D01*
X612964Y143651D01*
X613946Y141282D01*
X613946Y138718D01*
X612964Y136349D01*
X611151Y134536D01*
X608782Y133554D01*
X606218Y133554D01*
G37*
%LPD*%
%LPC*%
G36*
X533718Y131054D02*
X533718Y131054D01*
X531349Y132036D01*
X529536Y133849D01*
X528554Y136218D01*
X528554Y138782D01*
X529536Y141151D01*
X531349Y142964D01*
X533718Y143946D01*
X536282Y143946D01*
X538651Y142964D01*
X540464Y141151D01*
X541446Y138782D01*
X541446Y136218D01*
X540464Y133849D01*
X538651Y132036D01*
X536282Y131054D01*
X533718Y131054D01*
G37*
%LPD*%
%LPC*%
G36*
X476218Y131054D02*
X476218Y131054D01*
X473849Y132036D01*
X472036Y133849D01*
X471054Y136218D01*
X471054Y138782D01*
X472036Y141151D01*
X473849Y142964D01*
X476218Y143946D01*
X478782Y143946D01*
X481151Y142964D01*
X482964Y141151D01*
X483946Y138782D01*
X483946Y136218D01*
X482964Y133849D01*
X481151Y132036D01*
X478782Y131054D01*
X476218Y131054D01*
G37*
%LPD*%
%LPC*%
G36*
X258718Y123554D02*
X258718Y123554D01*
X256349Y124536D01*
X254536Y126349D01*
X253554Y128718D01*
X253554Y131282D01*
X254536Y133651D01*
X256349Y135464D01*
X258718Y136446D01*
X261282Y136446D01*
X263651Y135464D01*
X265464Y133651D01*
X266446Y131282D01*
X266446Y128718D01*
X265464Y126349D01*
X263651Y124536D01*
X261282Y123554D01*
X258718Y123554D01*
G37*
%LPD*%
%LPC*%
G36*
X188718Y123554D02*
X188718Y123554D01*
X186349Y124536D01*
X184536Y126349D01*
X183554Y128718D01*
X183554Y131282D01*
X184536Y133651D01*
X186349Y135464D01*
X188718Y136446D01*
X191282Y136446D01*
X193651Y135464D01*
X195464Y133651D01*
X196446Y131282D01*
X196446Y128718D01*
X195464Y126349D01*
X193651Y124536D01*
X191282Y123554D01*
X188718Y123554D01*
G37*
%LPD*%
%LPC*%
G36*
X353718Y326054D02*
X353718Y326054D01*
X351349Y327036D01*
X349536Y328849D01*
X348554Y331218D01*
X348554Y333782D01*
X349536Y336151D01*
X351349Y337964D01*
X353718Y338946D01*
X356282Y338946D01*
X358651Y337964D01*
X360464Y336151D01*
X361446Y333782D01*
X361446Y331218D01*
X360464Y328849D01*
X358651Y327036D01*
X356282Y326054D01*
X353718Y326054D01*
G37*
%LPD*%
%LPC*%
G36*
X791218Y531054D02*
X791218Y531054D01*
X788849Y532036D01*
X787036Y533849D01*
X786054Y536218D01*
X786054Y538782D01*
X787036Y541151D01*
X788849Y542964D01*
X791218Y543946D01*
X793782Y543946D01*
X796151Y542964D01*
X797964Y541151D01*
X798946Y538782D01*
X798946Y536218D01*
X797964Y533849D01*
X796151Y532036D01*
X793782Y531054D01*
X791218Y531054D01*
G37*
%LPD*%
%LPC*%
G36*
X181218Y66054D02*
X181218Y66054D01*
X178849Y67036D01*
X177036Y68849D01*
X176054Y71218D01*
X176054Y73782D01*
X177036Y76151D01*
X178849Y77964D01*
X181218Y78946D01*
X183782Y78946D01*
X186151Y77964D01*
X187964Y76151D01*
X188946Y73782D01*
X188946Y71218D01*
X187964Y68849D01*
X186151Y67036D01*
X183782Y66054D01*
X181218Y66054D01*
G37*
%LPD*%
%LPC*%
G36*
X313718Y326054D02*
X313718Y326054D01*
X311349Y327036D01*
X309536Y328849D01*
X308554Y331218D01*
X308554Y333782D01*
X309536Y336151D01*
X311349Y337964D01*
X313718Y338946D01*
X316282Y338946D01*
X318651Y337964D01*
X320464Y336151D01*
X321446Y333782D01*
X321446Y331218D01*
X320464Y328849D01*
X318651Y327036D01*
X316282Y326054D01*
X313718Y326054D01*
G37*
%LPD*%
%LPC*%
G36*
X721218Y531054D02*
X721218Y531054D01*
X718849Y532036D01*
X717036Y533849D01*
X716054Y536218D01*
X716054Y538782D01*
X717036Y541151D01*
X718849Y542964D01*
X721218Y543946D01*
X723782Y543946D01*
X726151Y542964D01*
X727964Y541151D01*
X728946Y538782D01*
X728946Y536218D01*
X727964Y533849D01*
X726151Y532036D01*
X723782Y531054D01*
X721218Y531054D01*
G37*
%LPD*%
%LPC*%
G36*
X196218Y51054D02*
X196218Y51054D01*
X193849Y52036D01*
X192036Y53849D01*
X191054Y56218D01*
X191054Y58782D01*
X192036Y61151D01*
X193849Y62964D01*
X196218Y63946D01*
X198782Y63946D01*
X201151Y62964D01*
X202964Y61151D01*
X203946Y58782D01*
X203946Y56218D01*
X202964Y53849D01*
X201151Y52036D01*
X198782Y51054D01*
X196218Y51054D01*
G37*
%LPD*%
%LPC*%
G36*
X738718Y531054D02*
X738718Y531054D01*
X736349Y532036D01*
X734536Y533849D01*
X733554Y536218D01*
X733554Y538782D01*
X734536Y541151D01*
X736349Y542964D01*
X738718Y543946D01*
X741282Y543946D01*
X743651Y542964D01*
X745464Y541151D01*
X746446Y538782D01*
X746446Y536218D01*
X745464Y533849D01*
X743651Y532036D01*
X741282Y531054D01*
X738718Y531054D01*
G37*
%LPD*%
%LPC*%
G36*
X358718Y33554D02*
X358718Y33554D01*
X356349Y34536D01*
X354536Y36349D01*
X353554Y38718D01*
X353554Y41282D01*
X354536Y43651D01*
X356349Y45464D01*
X358718Y46446D01*
X361282Y46446D01*
X363651Y45464D01*
X365464Y43651D01*
X366446Y41282D01*
X366446Y38718D01*
X365464Y36349D01*
X363651Y34536D01*
X361282Y33554D01*
X358718Y33554D01*
G37*
%LPD*%
%LPC*%
G36*
X318718Y33554D02*
X318718Y33554D01*
X316349Y34536D01*
X314536Y36349D01*
X313554Y38718D01*
X313554Y41282D01*
X314536Y43651D01*
X316349Y45464D01*
X318718Y46446D01*
X321282Y46446D01*
X323651Y45464D01*
X325464Y43651D01*
X326446Y41282D01*
X326446Y38718D01*
X325464Y36349D01*
X323651Y34536D01*
X321282Y33554D01*
X318718Y33554D01*
G37*
%LPD*%
%LPC*%
G36*
X543817Y514054D02*
X543817Y514054D01*
X541632Y514959D01*
X539959Y516632D01*
X539054Y518817D01*
X539054Y521183D01*
X539959Y523368D01*
X541632Y525041D01*
X543817Y525946D01*
X546183Y525946D01*
X548368Y525041D01*
X550041Y523368D01*
X550946Y521183D01*
X550946Y518817D01*
X550041Y516632D01*
X548368Y514959D01*
X546183Y514054D01*
X543817Y514054D01*
G37*
%LPD*%
%LPC*%
G36*
X483817Y514054D02*
X483817Y514054D01*
X481632Y514959D01*
X479959Y516632D01*
X479054Y518817D01*
X479054Y521183D01*
X479959Y523368D01*
X481632Y525041D01*
X483817Y525946D01*
X486183Y525946D01*
X488368Y525041D01*
X490041Y523368D01*
X490946Y521183D01*
X490946Y518817D01*
X490041Y516632D01*
X488368Y514959D01*
X486183Y514054D01*
X483817Y514054D01*
G37*
%LPD*%
%LPC*%
G36*
X301317Y726554D02*
X301317Y726554D01*
X299132Y727459D01*
X297459Y729132D01*
X296554Y731317D01*
X296554Y733683D01*
X297459Y735868D01*
X299132Y737541D01*
X301317Y738446D01*
X303683Y738446D01*
X305868Y737541D01*
X307541Y735868D01*
X308446Y733683D01*
X308446Y731317D01*
X307541Y729132D01*
X305868Y727459D01*
X303683Y726554D01*
X301317Y726554D01*
G37*
%LPD*%
%LPC*%
G36*
X503817Y514054D02*
X503817Y514054D01*
X501632Y514959D01*
X499959Y516632D01*
X499054Y518817D01*
X499054Y521183D01*
X499959Y523368D01*
X501632Y525041D01*
X503817Y525946D01*
X506183Y525946D01*
X508368Y525041D01*
X510041Y523368D01*
X510946Y521183D01*
X510946Y518817D01*
X510041Y516632D01*
X508368Y514959D01*
X506183Y514054D01*
X503817Y514054D01*
G37*
%LPD*%
%LPC*%
G36*
X553817Y504054D02*
X553817Y504054D01*
X551632Y504959D01*
X549959Y506632D01*
X549054Y508817D01*
X549054Y511183D01*
X549959Y513368D01*
X551632Y515041D01*
X553817Y515946D01*
X556183Y515946D01*
X558368Y515041D01*
X560041Y513368D01*
X560946Y511183D01*
X560946Y508817D01*
X560041Y506632D01*
X558368Y504959D01*
X556183Y504054D01*
X553817Y504054D01*
G37*
%LPD*%
%LPC*%
G36*
X909699Y122199D02*
X909699Y122199D01*
X909699Y130171D01*
X910079Y130111D01*
X911600Y129616D01*
X913025Y128890D01*
X914319Y127950D01*
X915450Y126819D01*
X916390Y125525D01*
X917116Y124100D01*
X917611Y122579D01*
X917671Y122199D01*
X909699Y122199D01*
G37*
%LPD*%
%LPC*%
G36*
X909699Y96799D02*
X909699Y96799D01*
X909699Y104771D01*
X910079Y104711D01*
X911600Y104216D01*
X913025Y103490D01*
X914319Y102550D01*
X915450Y101419D01*
X916390Y100125D01*
X917116Y98700D01*
X917611Y97179D01*
X917671Y96799D01*
X909699Y96799D01*
G37*
%LPD*%
%LPC*%
G36*
X622799Y269699D02*
X622799Y269699D01*
X622799Y277671D01*
X623179Y277611D01*
X624700Y277116D01*
X626125Y276390D01*
X627419Y275450D01*
X628550Y274319D01*
X629490Y273025D01*
X630216Y271600D01*
X630711Y270079D01*
X630771Y269699D01*
X622799Y269699D01*
G37*
%LPD*%
%LPC*%
G36*
X897729Y122199D02*
X897729Y122199D01*
X897745Y122296D01*
X897745Y122297D01*
X897789Y122579D01*
X898284Y124100D01*
X899010Y125525D01*
X899950Y126819D01*
X901081Y127950D01*
X902375Y128890D01*
X903800Y129616D01*
X905321Y130111D01*
X905701Y130171D01*
X905701Y122199D01*
X897729Y122199D01*
G37*
%LPD*%
%LPC*%
G36*
X909699Y118201D02*
X909699Y118201D01*
X917671Y118201D01*
X917611Y117821D01*
X917116Y116300D01*
X916390Y114875D01*
X915450Y113581D01*
X914319Y112450D01*
X913025Y111510D01*
X911600Y110784D01*
X910079Y110289D01*
X909699Y110229D01*
X909699Y118201D01*
G37*
%LPD*%
%LPC*%
G36*
X897729Y96799D02*
X897729Y96799D01*
X897789Y97179D01*
X898284Y98700D01*
X899010Y100125D01*
X899950Y101419D01*
X901081Y102550D01*
X902375Y103490D01*
X903800Y104216D01*
X905321Y104711D01*
X905701Y104771D01*
X905701Y96799D01*
X897729Y96799D01*
G37*
%LPD*%
%LPC*%
G36*
X909699Y92801D02*
X909699Y92801D01*
X917671Y92801D01*
X917611Y92421D01*
X917116Y90900D01*
X916390Y89475D01*
X915450Y88181D01*
X914319Y87050D01*
X913025Y86110D01*
X911600Y85384D01*
X910079Y84889D01*
X909699Y84829D01*
X909699Y92801D01*
G37*
%LPD*%
%LPC*%
G36*
X610829Y269699D02*
X610829Y269699D01*
X610889Y270079D01*
X611384Y271600D01*
X612110Y273025D01*
X613050Y274319D01*
X614181Y275450D01*
X615475Y276390D01*
X616900Y277116D01*
X618421Y277611D01*
X618801Y277671D01*
X618801Y269699D01*
X610829Y269699D01*
G37*
%LPD*%
%LPC*%
G36*
X622799Y265701D02*
X622799Y265701D01*
X630771Y265701D01*
X630711Y265321D01*
X630216Y263800D01*
X629490Y262375D01*
X628550Y261081D01*
X627419Y259950D01*
X626125Y259010D01*
X624700Y258284D01*
X623179Y257789D01*
X622799Y257729D01*
X622799Y265701D01*
G37*
%LPD*%
%LPC*%
G36*
X905321Y110289D02*
X905321Y110289D01*
X903800Y110784D01*
X902375Y111510D01*
X901081Y112450D01*
X899950Y113581D01*
X899010Y114875D01*
X898284Y116300D01*
X897789Y117821D01*
X897729Y118201D01*
X905701Y118201D01*
X905701Y110229D01*
X905321Y110289D01*
G37*
%LPD*%
%LPC*%
G36*
X905321Y84889D02*
X905321Y84889D01*
X903800Y85384D01*
X902375Y86110D01*
X901081Y87050D01*
X899950Y88181D01*
X899010Y89475D01*
X898284Y90900D01*
X897789Y92421D01*
X897729Y92801D01*
X905701Y92801D01*
X905701Y84829D01*
X905321Y84889D01*
G37*
%LPD*%
%LPC*%
G36*
X618421Y257789D02*
X618421Y257789D01*
X616900Y258284D01*
X615475Y259010D01*
X614181Y259950D01*
X613050Y261081D01*
X612110Y262375D01*
X611384Y263800D01*
X610889Y265321D01*
X610829Y265701D01*
X618801Y265701D01*
X618801Y257729D01*
X618421Y257789D01*
G37*
%LPD*%
%LPC*%
G36*
X209199Y799149D02*
X209199Y799149D01*
X209199Y807040D01*
X209561Y806983D01*
X211070Y806492D01*
X212484Y805772D01*
X213767Y804839D01*
X214889Y803717D01*
X215822Y802434D01*
X216542Y801020D01*
X217033Y799511D01*
X217090Y799149D01*
X209199Y799149D01*
G37*
%LPD*%
%LPC*%
G36*
X209199Y712749D02*
X209199Y712749D01*
X209199Y720640D01*
X209561Y720583D01*
X211070Y720092D01*
X212484Y719372D01*
X213767Y718439D01*
X214889Y717317D01*
X215822Y716034D01*
X216542Y714620D01*
X217033Y713111D01*
X217090Y712749D01*
X209199Y712749D01*
G37*
%LPD*%
%LPC*%
G36*
X197310Y799149D02*
X197310Y799149D01*
X197367Y799511D01*
X197858Y801020D01*
X198578Y802434D01*
X199511Y803717D01*
X200633Y804839D01*
X201916Y805772D01*
X203330Y806492D01*
X204839Y806983D01*
X205201Y807040D01*
X205201Y799149D01*
X197310Y799149D01*
G37*
%LPD*%
%LPC*%
G36*
X197310Y712749D02*
X197310Y712749D01*
X197367Y713111D01*
X197858Y714620D01*
X198578Y716034D01*
X199511Y717317D01*
X200633Y718439D01*
X201916Y719372D01*
X203330Y720092D01*
X204839Y720583D01*
X205201Y720640D01*
X205201Y712749D01*
X197310Y712749D01*
G37*
%LPD*%
%LPC*%
G36*
X209199Y795151D02*
X209199Y795151D01*
X217090Y795151D01*
X217033Y794789D01*
X216542Y793280D01*
X215822Y791866D01*
X214889Y790583D01*
X213767Y789461D01*
X212484Y788528D01*
X211070Y787808D01*
X209561Y787317D01*
X209199Y787260D01*
X209199Y795151D01*
G37*
%LPD*%
%LPC*%
G36*
X209199Y708751D02*
X209199Y708751D01*
X217090Y708751D01*
X217033Y708389D01*
X216542Y706880D01*
X215822Y705466D01*
X214889Y704183D01*
X213767Y703061D01*
X212484Y702128D01*
X211070Y701408D01*
X209561Y700917D01*
X209199Y700860D01*
X209199Y708751D01*
G37*
%LPD*%
%LPC*%
G36*
X204839Y787317D02*
X204839Y787317D01*
X203330Y787808D01*
X201916Y788528D01*
X200633Y789461D01*
X199511Y790583D01*
X198578Y791866D01*
X197858Y793280D01*
X197367Y794789D01*
X197310Y795151D01*
X205201Y795151D01*
X205201Y787260D01*
X204839Y787317D01*
G37*
%LPD*%
%LPC*%
G36*
X204839Y700917D02*
X204839Y700917D01*
X203330Y701408D01*
X201916Y702128D01*
X200633Y703061D01*
X199511Y704183D01*
X198578Y705466D01*
X197858Y706880D01*
X197367Y708389D01*
X197310Y708751D01*
X205201Y708751D01*
X205201Y700860D01*
X204839Y700917D01*
G37*
%LPD*%
%LPC*%
G36*
X207199Y797149D02*
X207199Y797149D01*
X207199Y797151D01*
X207201Y797151D01*
X207201Y797149D01*
X207199Y797149D01*
G37*
%LPD*%
%LPC*%
G36*
X907699Y120199D02*
X907699Y120199D01*
X907699Y120201D01*
X907701Y120201D01*
X907701Y120199D01*
X907699Y120199D01*
G37*
%LPD*%
%LPC*%
G36*
X907699Y94799D02*
X907699Y94799D01*
X907699Y94801D01*
X907701Y94801D01*
X907701Y94799D01*
X907699Y94799D01*
G37*
%LPD*%
%LPC*%
G36*
X620799Y267699D02*
X620799Y267699D01*
X620799Y267701D01*
X620801Y267701D01*
X620801Y267699D01*
X620799Y267699D01*
G37*
%LPD*%
%LPC*%
G36*
X207199Y710749D02*
X207199Y710749D01*
X207199Y710751D01*
X207201Y710751D01*
X207201Y710749D01*
X207199Y710749D01*
G37*
%LPD*%
D10*
X100000Y284341D03*
X100000Y415659D03*
D11*
X100500Y817550D03*
X100500Y662450D03*
D12*
X133500Y784450D03*
X158900Y771750D03*
X133500Y759050D03*
X158900Y746350D03*
X133500Y733650D03*
X158900Y720950D03*
X158900Y695550D03*
X133500Y708250D03*
D13*
X207200Y797150D03*
X207200Y771750D03*
X207200Y710750D03*
X207200Y685350D03*
D14*
X150000Y144600D03*
X150000Y170000D03*
X150000Y195400D03*
X476300Y825000D03*
X501700Y825000D03*
X527100Y825000D03*
X552500Y825000D03*
X577900Y825000D03*
X603300Y825000D03*
X628700Y825000D03*
X620800Y267700D03*
X620800Y242300D03*
X595400Y267700D03*
X595400Y242300D03*
X570000Y267700D03*
X570000Y242300D03*
X544600Y267700D03*
X544600Y242300D03*
X519200Y267700D03*
X519200Y242300D03*
X882300Y806000D03*
X907700Y806000D03*
X882300Y780600D03*
X907700Y780600D03*
X882300Y755200D03*
X907700Y755200D03*
X882300Y729800D03*
X907700Y729800D03*
X882300Y704400D03*
X907700Y704400D03*
X882300Y679000D03*
X907700Y679000D03*
X882300Y653600D03*
X907700Y653600D03*
X882300Y628200D03*
X907700Y628200D03*
X882300Y602800D03*
X907700Y602800D03*
X882300Y577400D03*
X907700Y577400D03*
X882300Y552000D03*
X907700Y552000D03*
X882300Y526600D03*
X907700Y526600D03*
X882300Y501200D03*
X907700Y501200D03*
X882300Y475800D03*
X907700Y475800D03*
X882300Y450400D03*
X907700Y450400D03*
X882300Y425000D03*
X907700Y425000D03*
X882300Y399600D03*
X907700Y399600D03*
X882300Y374200D03*
X907700Y374200D03*
X882300Y348800D03*
X907700Y348800D03*
X882300Y323400D03*
X907700Y323400D03*
X882300Y298000D03*
X907700Y298000D03*
X882300Y272600D03*
X907700Y272600D03*
X882300Y247200D03*
X907700Y247200D03*
X882300Y221800D03*
X907700Y221800D03*
X882300Y196400D03*
X907700Y196400D03*
X882300Y171000D03*
X907700Y171000D03*
X882300Y145600D03*
X907700Y145600D03*
X882300Y120200D03*
X907700Y120200D03*
X882300Y94800D03*
X907700Y94800D03*
X882300Y69400D03*
X907700Y69400D03*
D15*
X437500Y550000D03*
X410000Y605000D03*
X455000Y545000D03*
X440000Y605000D03*
X400000Y735000D03*
X350000Y490000D03*
X282500Y780000D03*
X295000Y572500D03*
X355000Y780000D03*
X325000Y465000D03*
X630000Y580000D03*
X585000Y660000D03*
X495000Y690000D03*
X615000Y580000D03*
X495000Y675000D03*
X600000Y580000D03*
D16*
X245000Y545000D03*
X215000Y545000D03*
D15*
X142500Y590000D03*
D16*
X235000Y595000D03*
X260000Y530000D03*
X215000Y500000D03*
X245000Y515000D03*
X215000Y530000D03*
D15*
X600000Y670000D03*
D16*
X167500Y332500D03*
X280000Y822500D03*
X330000Y820000D03*
X400000Y700000D03*
X240000Y670000D03*
X255000Y647500D03*
X180000Y422500D03*
D17*
X302500Y732500D03*
D16*
X562500Y767500D03*
X620000Y305000D03*
X695000Y420000D03*
X697500Y525000D03*
X340000Y452500D03*
X382500Y562500D03*
X412500Y330000D03*
X260000Y130000D03*
X190000Y130000D03*
X177500Y227500D03*
X177500Y215000D03*
X165000Y227500D03*
X110000Y37500D03*
X110000Y10000D03*
X102500Y72500D03*
X40000Y27500D03*
X30000Y40000D03*
X40000Y155000D03*
X30000Y165000D03*
X275000Y40000D03*
X320000Y40000D03*
X360000Y40000D03*
X400000Y40000D03*
X182500Y72500D03*
X197500Y57500D03*
X477500Y137500D03*
X535000Y137500D03*
X607500Y140000D03*
X167500Y275000D03*
X210000Y405000D03*
X500000Y632500D03*
X497500Y660000D03*
X564700Y689600D03*
X574900Y620000D03*
X422100Y490300D03*
X312500Y792500D03*
X325000Y792500D03*
X340000Y792500D03*
X355000Y792500D03*
X370000Y780000D03*
X370000Y792500D03*
X252500Y798750D03*
X295000Y792500D03*
X340000Y722500D03*
X370000Y695000D03*
X347500Y660000D03*
X307500Y563750D03*
X335000Y562500D03*
X355000Y332500D03*
X315000Y332500D03*
X275000Y332500D03*
X245000Y332500D03*
X335000Y352500D03*
X295000Y352500D03*
X230000Y485000D03*
X215000Y485000D03*
X215000Y515000D03*
X245000Y530000D03*
X260000Y545000D03*
X245000Y560000D03*
X215000Y560000D03*
X235000Y610000D03*
X250000Y595000D03*
X142500Y577500D03*
X40000Y567500D03*
X70000Y567500D03*
X100000Y567500D03*
X130000Y567500D03*
X565000Y655000D03*
X645000Y580000D03*
X630000Y565000D03*
X587500Y620000D03*
X572500Y315000D03*
X85000Y475000D03*
X15000Y472500D03*
X15000Y617500D03*
X90000Y617500D03*
X397500Y455000D03*
X467100Y470300D03*
X465000Y530000D03*
X585000Y520000D03*
X475000Y642500D03*
X575000Y510000D03*
X525000Y520000D03*
X385000Y292500D03*
X95000Y545000D03*
X127500Y545000D03*
X60000Y527500D03*
X50000Y587500D03*
X425000Y605000D03*
X455000Y605000D03*
X437500Y535000D03*
X150000Y327500D03*
X85000Y337500D03*
X97500Y330000D03*
X107500Y337500D03*
X107500Y362500D03*
X97500Y370000D03*
X85000Y362500D03*
X150000Y372500D03*
X40000Y495000D03*
X40000Y545000D03*
D18*
X280000Y170000D03*
X310000Y200000D03*
X280000Y230000D03*
X340000Y230000D03*
X370000Y260000D03*
X340000Y290000D03*
X280000Y290000D03*
X310000Y260000D03*
X250000Y260000D03*
D16*
X360000Y830000D03*
X400000Y720000D03*
X252500Y757500D03*
X242500Y647500D03*
X160000Y422500D03*
X587500Y767500D03*
X572500Y300000D03*
X712500Y420000D03*
X685000Y525000D03*
X340000Y465000D03*
X377500Y525000D03*
X432500Y330000D03*
X310000Y110000D03*
X457500Y137500D03*
X552500Y137500D03*
X652500Y137500D03*
X507500Y217500D03*
X572500Y217500D03*
X637500Y205000D03*
X180000Y490000D03*
X180000Y515000D03*
X180000Y540000D03*
X180000Y565000D03*
X180000Y590000D03*
X180000Y615000D03*
X520000Y632500D03*
X575000Y580000D03*
X177500Y202500D03*
D19*
X447500Y682500D03*
D15*
X225000Y810000D03*
X297500Y780000D03*
D17*
X150150Y359898D03*
X150150Y340102D03*
D16*
X250000Y376898D03*
D20*
X200000Y326898D01*
D21*
X257500Y15000D02*
X864800Y15000D01*
X257500Y15000D02*
X245000Y27500D01*
X245000Y147500D01*
D20*
X200000Y170000D02*
X200000Y326898D01*
X200000Y170000D02*
X200000Y165000D01*
X200000Y170000D02*
X150000Y170000D01*
D21*
X200000Y165000D02*
X227500Y165000D01*
X245000Y147500D01*
X907700Y69400D02*
X907700Y57900D01*
X864800Y15000D01*
D15*
X60000Y240000D03*
D16*
X105000Y240000D03*
D15*
X155000Y40000D03*
D21*
X150000Y45000D01*
X150000Y144600D01*
D15*
X316468Y572500D03*
X311778Y780130D03*
X328533Y572500D03*
X326032Y779999D03*
X340000Y780000D03*
X347500Y572500D03*
X328968Y672500D03*
X341033Y702500D03*
X341033Y672500D03*
X328968Y702500D03*
X71033Y15000D03*
X90000Y78968D03*
X58968Y15000D03*
X90000Y91033D03*
X465000Y280000D03*
X465000Y260000D03*
D17*
X505000Y520000D03*
X495000Y510000D03*
X485000Y520000D03*
X515000Y510000D03*
X535000Y510000D03*
X545000Y520000D03*
X555000Y510000D03*
X565000Y520000D03*
D16*
X585000Y417500D03*
X575000Y425000D03*
X565000Y417500D03*
X555000Y425000D03*
X545000Y417500D03*
X535000Y425000D03*
X672500Y375000D03*
X652500Y375000D03*
X662500Y365000D03*
X642500Y365000D03*
X632500Y375000D03*
X525000Y417500D03*
X515000Y425000D03*
X505000Y417500D03*
X495000Y425000D03*
X470000Y455000D03*
X792500Y537500D03*
X495000Y470000D03*
X775000Y537500D03*
X505000Y480000D03*
X757500Y537500D03*
X495000Y490000D03*
X740000Y537500D03*
X505000Y500000D03*
X722500Y537500D03*
D17*
X97500Y354993D03*
X97500Y345008D03*
M02*
