G04 EAGLE Gerber RS-274X export*
G75*
%MOMM*%
%FSLAX34Y34*%
%LPD*%
%INSilkscreen Bottom*%
%IPPOS*%
%AMOC8*
5,1,8,0,0,1.08239X$1,22.5*%
G01*
%ADD10C,0.101600*%


D10*
X174785Y356658D02*
X174785Y368342D01*
X171540Y368342D01*
X171427Y368340D01*
X171314Y368334D01*
X171201Y368324D01*
X171088Y368310D01*
X170976Y368293D01*
X170865Y368271D01*
X170755Y368246D01*
X170645Y368216D01*
X170537Y368183D01*
X170430Y368146D01*
X170324Y368106D01*
X170220Y368061D01*
X170117Y368013D01*
X170016Y367962D01*
X169917Y367907D01*
X169820Y367849D01*
X169725Y367787D01*
X169632Y367722D01*
X169542Y367654D01*
X169454Y367583D01*
X169368Y367508D01*
X169285Y367431D01*
X169205Y367351D01*
X169128Y367268D01*
X169053Y367182D01*
X168982Y367094D01*
X168914Y367004D01*
X168849Y366911D01*
X168787Y366816D01*
X168729Y366719D01*
X168674Y366620D01*
X168623Y366519D01*
X168575Y366416D01*
X168530Y366312D01*
X168490Y366206D01*
X168453Y366099D01*
X168420Y365991D01*
X168390Y365881D01*
X168365Y365771D01*
X168343Y365660D01*
X168326Y365548D01*
X168312Y365435D01*
X168302Y365322D01*
X168296Y365209D01*
X168294Y365096D01*
X168296Y364983D01*
X168302Y364870D01*
X168312Y364757D01*
X168326Y364644D01*
X168343Y364532D01*
X168365Y364421D01*
X168390Y364311D01*
X168420Y364201D01*
X168453Y364093D01*
X168490Y363986D01*
X168530Y363880D01*
X168575Y363776D01*
X168623Y363673D01*
X168674Y363572D01*
X168729Y363473D01*
X168787Y363376D01*
X168849Y363281D01*
X168914Y363188D01*
X168982Y363098D01*
X169053Y363010D01*
X169128Y362924D01*
X169205Y362841D01*
X169285Y362761D01*
X169368Y362684D01*
X169454Y362609D01*
X169542Y362538D01*
X169632Y362470D01*
X169725Y362405D01*
X169820Y362343D01*
X169917Y362285D01*
X170016Y362230D01*
X170117Y362179D01*
X170220Y362131D01*
X170324Y362086D01*
X170430Y362046D01*
X170537Y362009D01*
X170645Y361976D01*
X170755Y361946D01*
X170865Y361921D01*
X170976Y361899D01*
X171088Y361882D01*
X171201Y361868D01*
X171314Y361858D01*
X171427Y361852D01*
X171540Y361850D01*
X171540Y361851D02*
X174785Y361851D01*
X170891Y361851D02*
X168294Y356658D01*
X163429Y356658D02*
X160184Y356658D01*
X160071Y356660D01*
X159958Y356666D01*
X159845Y356676D01*
X159732Y356690D01*
X159620Y356707D01*
X159509Y356729D01*
X159399Y356754D01*
X159289Y356784D01*
X159181Y356817D01*
X159074Y356854D01*
X158968Y356894D01*
X158864Y356939D01*
X158761Y356987D01*
X158660Y357038D01*
X158561Y357093D01*
X158464Y357151D01*
X158369Y357213D01*
X158276Y357278D01*
X158186Y357346D01*
X158098Y357417D01*
X158012Y357492D01*
X157929Y357569D01*
X157849Y357649D01*
X157772Y357732D01*
X157697Y357818D01*
X157626Y357906D01*
X157558Y357996D01*
X157493Y358089D01*
X157431Y358184D01*
X157373Y358281D01*
X157318Y358380D01*
X157267Y358481D01*
X157219Y358584D01*
X157174Y358688D01*
X157134Y358794D01*
X157097Y358901D01*
X157064Y359009D01*
X157034Y359119D01*
X157009Y359229D01*
X156987Y359340D01*
X156970Y359452D01*
X156956Y359565D01*
X156946Y359678D01*
X156940Y359791D01*
X156938Y359904D01*
X156940Y360017D01*
X156946Y360130D01*
X156956Y360243D01*
X156970Y360356D01*
X156987Y360468D01*
X157009Y360579D01*
X157034Y360689D01*
X157064Y360799D01*
X157097Y360907D01*
X157134Y361014D01*
X157174Y361120D01*
X157219Y361224D01*
X157267Y361327D01*
X157318Y361428D01*
X157373Y361527D01*
X157431Y361624D01*
X157493Y361719D01*
X157558Y361812D01*
X157626Y361902D01*
X157697Y361990D01*
X157772Y362076D01*
X157849Y362159D01*
X157929Y362239D01*
X158012Y362316D01*
X158098Y362391D01*
X158186Y362462D01*
X158276Y362530D01*
X158369Y362595D01*
X158464Y362657D01*
X158561Y362715D01*
X158660Y362770D01*
X158761Y362821D01*
X158864Y362869D01*
X158968Y362914D01*
X159074Y362954D01*
X159181Y362991D01*
X159289Y363024D01*
X159399Y363054D01*
X159509Y363079D01*
X159620Y363101D01*
X159732Y363118D01*
X159845Y363132D01*
X159958Y363142D01*
X160071Y363148D01*
X160184Y363150D01*
X159534Y368342D02*
X163429Y368342D01*
X159534Y368342D02*
X159433Y368340D01*
X159333Y368334D01*
X159233Y368324D01*
X159133Y368311D01*
X159034Y368293D01*
X158935Y368272D01*
X158838Y368247D01*
X158741Y368218D01*
X158646Y368185D01*
X158552Y368149D01*
X158460Y368109D01*
X158369Y368066D01*
X158280Y368019D01*
X158193Y367969D01*
X158107Y367915D01*
X158024Y367858D01*
X157944Y367798D01*
X157865Y367735D01*
X157789Y367668D01*
X157716Y367599D01*
X157646Y367527D01*
X157578Y367453D01*
X157513Y367376D01*
X157452Y367296D01*
X157393Y367214D01*
X157338Y367130D01*
X157286Y367044D01*
X157237Y366956D01*
X157192Y366866D01*
X157150Y366774D01*
X157112Y366681D01*
X157078Y366586D01*
X157047Y366491D01*
X157020Y366394D01*
X156997Y366296D01*
X156977Y366197D01*
X156962Y366097D01*
X156950Y365997D01*
X156942Y365897D01*
X156938Y365796D01*
X156938Y365696D01*
X156942Y365595D01*
X156950Y365495D01*
X156962Y365395D01*
X156977Y365295D01*
X156997Y365196D01*
X157020Y365098D01*
X157047Y365001D01*
X157078Y364906D01*
X157112Y364811D01*
X157150Y364718D01*
X157192Y364626D01*
X157237Y364536D01*
X157286Y364448D01*
X157338Y364362D01*
X157393Y364278D01*
X157452Y364196D01*
X157513Y364116D01*
X157578Y364039D01*
X157646Y363965D01*
X157716Y363893D01*
X157789Y363824D01*
X157865Y363757D01*
X157944Y363694D01*
X158024Y363634D01*
X158107Y363577D01*
X158193Y363523D01*
X158280Y363473D01*
X158369Y363426D01*
X158460Y363383D01*
X158552Y363343D01*
X158646Y363307D01*
X158741Y363274D01*
X158838Y363245D01*
X158935Y363220D01*
X159034Y363199D01*
X159133Y363181D01*
X159233Y363168D01*
X159333Y363158D01*
X159433Y363152D01*
X159534Y363150D01*
X159534Y363149D02*
X162131Y363149D01*
X152000Y359904D02*
X151998Y360017D01*
X151992Y360130D01*
X151982Y360243D01*
X151968Y360356D01*
X151951Y360468D01*
X151929Y360579D01*
X151904Y360689D01*
X151874Y360799D01*
X151841Y360907D01*
X151804Y361014D01*
X151764Y361120D01*
X151719Y361224D01*
X151671Y361327D01*
X151620Y361428D01*
X151565Y361527D01*
X151507Y361624D01*
X151445Y361719D01*
X151380Y361812D01*
X151312Y361902D01*
X151241Y361990D01*
X151166Y362076D01*
X151089Y362159D01*
X151009Y362239D01*
X150926Y362316D01*
X150840Y362391D01*
X150752Y362462D01*
X150662Y362530D01*
X150569Y362595D01*
X150474Y362657D01*
X150377Y362715D01*
X150278Y362770D01*
X150177Y362821D01*
X150074Y362869D01*
X149970Y362914D01*
X149864Y362954D01*
X149757Y362991D01*
X149649Y363024D01*
X149539Y363054D01*
X149429Y363079D01*
X149318Y363101D01*
X149206Y363118D01*
X149093Y363132D01*
X148980Y363142D01*
X148867Y363148D01*
X148754Y363150D01*
X148641Y363148D01*
X148528Y363142D01*
X148415Y363132D01*
X148302Y363118D01*
X148190Y363101D01*
X148079Y363079D01*
X147969Y363054D01*
X147859Y363024D01*
X147751Y362991D01*
X147644Y362954D01*
X147538Y362914D01*
X147434Y362869D01*
X147331Y362821D01*
X147230Y362770D01*
X147131Y362715D01*
X147034Y362657D01*
X146939Y362595D01*
X146846Y362530D01*
X146756Y362462D01*
X146668Y362391D01*
X146582Y362316D01*
X146499Y362239D01*
X146419Y362159D01*
X146342Y362076D01*
X146267Y361990D01*
X146196Y361902D01*
X146128Y361812D01*
X146063Y361719D01*
X146001Y361624D01*
X145943Y361527D01*
X145888Y361428D01*
X145837Y361327D01*
X145789Y361224D01*
X145744Y361120D01*
X145704Y361014D01*
X145667Y360907D01*
X145634Y360799D01*
X145604Y360689D01*
X145579Y360579D01*
X145557Y360468D01*
X145540Y360356D01*
X145526Y360243D01*
X145516Y360130D01*
X145510Y360017D01*
X145508Y359904D01*
X145510Y359791D01*
X145516Y359678D01*
X145526Y359565D01*
X145540Y359452D01*
X145557Y359340D01*
X145579Y359229D01*
X145604Y359119D01*
X145634Y359009D01*
X145667Y358901D01*
X145704Y358794D01*
X145744Y358688D01*
X145789Y358584D01*
X145837Y358481D01*
X145888Y358380D01*
X145943Y358281D01*
X146001Y358184D01*
X146063Y358089D01*
X146128Y357996D01*
X146196Y357906D01*
X146267Y357818D01*
X146342Y357732D01*
X146419Y357649D01*
X146499Y357569D01*
X146582Y357492D01*
X146668Y357417D01*
X146756Y357346D01*
X146846Y357278D01*
X146939Y357213D01*
X147034Y357151D01*
X147131Y357093D01*
X147230Y357038D01*
X147331Y356987D01*
X147434Y356939D01*
X147538Y356894D01*
X147644Y356854D01*
X147751Y356817D01*
X147859Y356784D01*
X147969Y356754D01*
X148079Y356729D01*
X148190Y356707D01*
X148302Y356690D01*
X148415Y356676D01*
X148528Y356666D01*
X148641Y356660D01*
X148754Y356658D01*
X148867Y356660D01*
X148980Y356666D01*
X149093Y356676D01*
X149206Y356690D01*
X149318Y356707D01*
X149429Y356729D01*
X149539Y356754D01*
X149649Y356784D01*
X149757Y356817D01*
X149864Y356854D01*
X149970Y356894D01*
X150074Y356939D01*
X150177Y356987D01*
X150278Y357038D01*
X150377Y357093D01*
X150474Y357151D01*
X150569Y357213D01*
X150662Y357278D01*
X150752Y357346D01*
X150840Y357417D01*
X150926Y357492D01*
X151009Y357569D01*
X151089Y357649D01*
X151166Y357732D01*
X151241Y357818D01*
X151312Y357906D01*
X151380Y357996D01*
X151445Y358089D01*
X151507Y358184D01*
X151565Y358281D01*
X151620Y358380D01*
X151671Y358481D01*
X151719Y358584D01*
X151764Y358688D01*
X151804Y358794D01*
X151841Y358901D01*
X151874Y359009D01*
X151904Y359119D01*
X151929Y359229D01*
X151951Y359340D01*
X151968Y359452D01*
X151982Y359565D01*
X151992Y359678D01*
X151998Y359791D01*
X152000Y359904D01*
X151350Y365746D02*
X151348Y365847D01*
X151342Y365947D01*
X151332Y366047D01*
X151319Y366147D01*
X151301Y366246D01*
X151280Y366345D01*
X151255Y366442D01*
X151226Y366539D01*
X151193Y366634D01*
X151157Y366728D01*
X151117Y366820D01*
X151074Y366911D01*
X151027Y367000D01*
X150977Y367087D01*
X150923Y367173D01*
X150866Y367256D01*
X150806Y367336D01*
X150743Y367415D01*
X150676Y367491D01*
X150607Y367564D01*
X150535Y367634D01*
X150461Y367702D01*
X150384Y367767D01*
X150304Y367828D01*
X150222Y367887D01*
X150138Y367942D01*
X150052Y367994D01*
X149964Y368043D01*
X149874Y368088D01*
X149782Y368130D01*
X149689Y368168D01*
X149594Y368202D01*
X149499Y368233D01*
X149402Y368260D01*
X149304Y368283D01*
X149205Y368303D01*
X149105Y368318D01*
X149005Y368330D01*
X148905Y368338D01*
X148804Y368342D01*
X148704Y368342D01*
X148603Y368338D01*
X148503Y368330D01*
X148403Y368318D01*
X148303Y368303D01*
X148204Y368283D01*
X148106Y368260D01*
X148009Y368233D01*
X147914Y368202D01*
X147819Y368168D01*
X147726Y368130D01*
X147634Y368088D01*
X147544Y368043D01*
X147456Y367994D01*
X147370Y367942D01*
X147286Y367887D01*
X147204Y367828D01*
X147124Y367767D01*
X147047Y367702D01*
X146973Y367634D01*
X146901Y367564D01*
X146832Y367491D01*
X146765Y367415D01*
X146702Y367336D01*
X146642Y367256D01*
X146585Y367173D01*
X146531Y367087D01*
X146481Y367000D01*
X146434Y366911D01*
X146391Y366820D01*
X146351Y366728D01*
X146315Y366634D01*
X146282Y366539D01*
X146253Y366442D01*
X146228Y366345D01*
X146207Y366246D01*
X146189Y366147D01*
X146176Y366047D01*
X146166Y365947D01*
X146160Y365847D01*
X146158Y365746D01*
X146160Y365645D01*
X146166Y365545D01*
X146176Y365445D01*
X146189Y365345D01*
X146207Y365246D01*
X146228Y365147D01*
X146253Y365050D01*
X146282Y364953D01*
X146315Y364858D01*
X146351Y364764D01*
X146391Y364672D01*
X146434Y364581D01*
X146481Y364492D01*
X146531Y364405D01*
X146585Y364319D01*
X146642Y364236D01*
X146702Y364156D01*
X146765Y364077D01*
X146832Y364001D01*
X146901Y363928D01*
X146973Y363858D01*
X147047Y363790D01*
X147124Y363725D01*
X147204Y363664D01*
X147286Y363605D01*
X147370Y363550D01*
X147456Y363498D01*
X147544Y363449D01*
X147634Y363404D01*
X147726Y363362D01*
X147819Y363324D01*
X147914Y363290D01*
X148009Y363259D01*
X148106Y363232D01*
X148204Y363209D01*
X148303Y363189D01*
X148403Y363174D01*
X148503Y363162D01*
X148603Y363154D01*
X148704Y363150D01*
X148804Y363150D01*
X148905Y363154D01*
X149005Y363162D01*
X149105Y363174D01*
X149205Y363189D01*
X149304Y363209D01*
X149402Y363232D01*
X149499Y363259D01*
X149594Y363290D01*
X149689Y363324D01*
X149782Y363362D01*
X149874Y363404D01*
X149964Y363449D01*
X150052Y363498D01*
X150138Y363550D01*
X150222Y363605D01*
X150304Y363664D01*
X150384Y363725D01*
X150461Y363790D01*
X150535Y363858D01*
X150607Y363928D01*
X150676Y364001D01*
X150743Y364077D01*
X150806Y364156D01*
X150866Y364236D01*
X150923Y364319D01*
X150977Y364405D01*
X151027Y364492D01*
X151074Y364581D01*
X151117Y364672D01*
X151157Y364764D01*
X151193Y364858D01*
X151226Y364953D01*
X151255Y365050D01*
X151280Y365147D01*
X151301Y365246D01*
X151319Y365345D01*
X151332Y365445D01*
X151342Y365545D01*
X151348Y365645D01*
X151350Y365746D01*
X174785Y343342D02*
X174785Y331658D01*
X174785Y343342D02*
X171540Y343342D01*
X171427Y343340D01*
X171314Y343334D01*
X171201Y343324D01*
X171088Y343310D01*
X170976Y343293D01*
X170865Y343271D01*
X170755Y343246D01*
X170645Y343216D01*
X170537Y343183D01*
X170430Y343146D01*
X170324Y343106D01*
X170220Y343061D01*
X170117Y343013D01*
X170016Y342962D01*
X169917Y342907D01*
X169820Y342849D01*
X169725Y342787D01*
X169632Y342722D01*
X169542Y342654D01*
X169454Y342583D01*
X169368Y342508D01*
X169285Y342431D01*
X169205Y342351D01*
X169128Y342268D01*
X169053Y342182D01*
X168982Y342094D01*
X168914Y342004D01*
X168849Y341911D01*
X168787Y341816D01*
X168729Y341719D01*
X168674Y341620D01*
X168623Y341519D01*
X168575Y341416D01*
X168530Y341312D01*
X168490Y341206D01*
X168453Y341099D01*
X168420Y340991D01*
X168390Y340881D01*
X168365Y340771D01*
X168343Y340660D01*
X168326Y340548D01*
X168312Y340435D01*
X168302Y340322D01*
X168296Y340209D01*
X168294Y340096D01*
X168296Y339983D01*
X168302Y339870D01*
X168312Y339757D01*
X168326Y339644D01*
X168343Y339532D01*
X168365Y339421D01*
X168390Y339311D01*
X168420Y339201D01*
X168453Y339093D01*
X168490Y338986D01*
X168530Y338880D01*
X168575Y338776D01*
X168623Y338673D01*
X168674Y338572D01*
X168729Y338473D01*
X168787Y338376D01*
X168849Y338281D01*
X168914Y338188D01*
X168982Y338098D01*
X169053Y338010D01*
X169128Y337924D01*
X169205Y337841D01*
X169285Y337761D01*
X169368Y337684D01*
X169454Y337609D01*
X169542Y337538D01*
X169632Y337470D01*
X169725Y337405D01*
X169820Y337343D01*
X169917Y337285D01*
X170016Y337230D01*
X170117Y337179D01*
X170220Y337131D01*
X170324Y337086D01*
X170430Y337046D01*
X170537Y337009D01*
X170645Y336976D01*
X170755Y336946D01*
X170865Y336921D01*
X170976Y336899D01*
X171088Y336882D01*
X171201Y336868D01*
X171314Y336858D01*
X171427Y336852D01*
X171540Y336850D01*
X171540Y336851D02*
X174785Y336851D01*
X170891Y336851D02*
X168294Y331658D01*
X163429Y331658D02*
X160184Y331658D01*
X160071Y331660D01*
X159958Y331666D01*
X159845Y331676D01*
X159732Y331690D01*
X159620Y331707D01*
X159509Y331729D01*
X159399Y331754D01*
X159289Y331784D01*
X159181Y331817D01*
X159074Y331854D01*
X158968Y331894D01*
X158864Y331939D01*
X158761Y331987D01*
X158660Y332038D01*
X158561Y332093D01*
X158464Y332151D01*
X158369Y332213D01*
X158276Y332278D01*
X158186Y332346D01*
X158098Y332417D01*
X158012Y332492D01*
X157929Y332569D01*
X157849Y332649D01*
X157772Y332732D01*
X157697Y332818D01*
X157626Y332906D01*
X157558Y332996D01*
X157493Y333089D01*
X157431Y333184D01*
X157373Y333281D01*
X157318Y333380D01*
X157267Y333481D01*
X157219Y333584D01*
X157174Y333688D01*
X157134Y333794D01*
X157097Y333901D01*
X157064Y334009D01*
X157034Y334119D01*
X157009Y334229D01*
X156987Y334340D01*
X156970Y334452D01*
X156956Y334565D01*
X156946Y334678D01*
X156940Y334791D01*
X156938Y334904D01*
X156940Y335017D01*
X156946Y335130D01*
X156956Y335243D01*
X156970Y335356D01*
X156987Y335468D01*
X157009Y335579D01*
X157034Y335689D01*
X157064Y335799D01*
X157097Y335907D01*
X157134Y336014D01*
X157174Y336120D01*
X157219Y336224D01*
X157267Y336327D01*
X157318Y336428D01*
X157373Y336527D01*
X157431Y336624D01*
X157493Y336719D01*
X157558Y336812D01*
X157626Y336902D01*
X157697Y336990D01*
X157772Y337076D01*
X157849Y337159D01*
X157929Y337239D01*
X158012Y337316D01*
X158098Y337391D01*
X158186Y337462D01*
X158276Y337530D01*
X158369Y337595D01*
X158464Y337657D01*
X158561Y337715D01*
X158660Y337770D01*
X158761Y337821D01*
X158864Y337869D01*
X158968Y337914D01*
X159074Y337954D01*
X159181Y337991D01*
X159289Y338024D01*
X159399Y338054D01*
X159509Y338079D01*
X159620Y338101D01*
X159732Y338118D01*
X159845Y338132D01*
X159958Y338142D01*
X160071Y338148D01*
X160184Y338150D01*
X159534Y343342D02*
X163429Y343342D01*
X159534Y343342D02*
X159433Y343340D01*
X159333Y343334D01*
X159233Y343324D01*
X159133Y343311D01*
X159034Y343293D01*
X158935Y343272D01*
X158838Y343247D01*
X158741Y343218D01*
X158646Y343185D01*
X158552Y343149D01*
X158460Y343109D01*
X158369Y343066D01*
X158280Y343019D01*
X158193Y342969D01*
X158107Y342915D01*
X158024Y342858D01*
X157944Y342798D01*
X157865Y342735D01*
X157789Y342668D01*
X157716Y342599D01*
X157646Y342527D01*
X157578Y342453D01*
X157513Y342376D01*
X157452Y342296D01*
X157393Y342214D01*
X157338Y342130D01*
X157286Y342044D01*
X157237Y341956D01*
X157192Y341866D01*
X157150Y341774D01*
X157112Y341681D01*
X157078Y341586D01*
X157047Y341491D01*
X157020Y341394D01*
X156997Y341296D01*
X156977Y341197D01*
X156962Y341097D01*
X156950Y340997D01*
X156942Y340897D01*
X156938Y340796D01*
X156938Y340696D01*
X156942Y340595D01*
X156950Y340495D01*
X156962Y340395D01*
X156977Y340295D01*
X156997Y340196D01*
X157020Y340098D01*
X157047Y340001D01*
X157078Y339906D01*
X157112Y339811D01*
X157150Y339718D01*
X157192Y339626D01*
X157237Y339536D01*
X157286Y339448D01*
X157338Y339362D01*
X157393Y339278D01*
X157452Y339196D01*
X157513Y339116D01*
X157578Y339039D01*
X157646Y338965D01*
X157716Y338893D01*
X157789Y338824D01*
X157865Y338757D01*
X157944Y338694D01*
X158024Y338634D01*
X158107Y338577D01*
X158193Y338523D01*
X158280Y338473D01*
X158369Y338426D01*
X158460Y338383D01*
X158552Y338343D01*
X158646Y338307D01*
X158741Y338274D01*
X158838Y338245D01*
X158935Y338220D01*
X159034Y338199D01*
X159133Y338181D01*
X159233Y338168D01*
X159333Y338158D01*
X159433Y338152D01*
X159534Y338150D01*
X159534Y338149D02*
X162131Y338149D01*
X149403Y336851D02*
X145508Y336851D01*
X149403Y336851D02*
X149502Y336853D01*
X149602Y336859D01*
X149701Y336868D01*
X149799Y336881D01*
X149897Y336898D01*
X149995Y336919D01*
X150091Y336944D01*
X150186Y336972D01*
X150280Y337004D01*
X150373Y337039D01*
X150465Y337078D01*
X150555Y337121D01*
X150643Y337166D01*
X150730Y337216D01*
X150814Y337268D01*
X150897Y337324D01*
X150977Y337382D01*
X151055Y337444D01*
X151130Y337509D01*
X151203Y337577D01*
X151273Y337647D01*
X151341Y337720D01*
X151406Y337795D01*
X151468Y337873D01*
X151526Y337953D01*
X151582Y338036D01*
X151634Y338120D01*
X151684Y338207D01*
X151729Y338295D01*
X151772Y338385D01*
X151811Y338477D01*
X151846Y338570D01*
X151878Y338664D01*
X151906Y338759D01*
X151931Y338855D01*
X151952Y338953D01*
X151969Y339051D01*
X151982Y339149D01*
X151991Y339248D01*
X151997Y339348D01*
X151999Y339447D01*
X151999Y340096D01*
X152000Y340096D02*
X151998Y340209D01*
X151992Y340322D01*
X151982Y340435D01*
X151968Y340548D01*
X151951Y340660D01*
X151929Y340771D01*
X151904Y340881D01*
X151874Y340991D01*
X151841Y341099D01*
X151804Y341206D01*
X151764Y341312D01*
X151719Y341416D01*
X151671Y341519D01*
X151620Y341620D01*
X151565Y341719D01*
X151507Y341816D01*
X151445Y341911D01*
X151380Y342004D01*
X151312Y342094D01*
X151241Y342182D01*
X151166Y342268D01*
X151089Y342351D01*
X151009Y342431D01*
X150926Y342508D01*
X150840Y342583D01*
X150752Y342654D01*
X150662Y342722D01*
X150569Y342787D01*
X150474Y342849D01*
X150377Y342907D01*
X150278Y342962D01*
X150177Y343013D01*
X150074Y343061D01*
X149970Y343106D01*
X149864Y343146D01*
X149757Y343183D01*
X149649Y343216D01*
X149539Y343246D01*
X149429Y343271D01*
X149318Y343293D01*
X149206Y343310D01*
X149093Y343324D01*
X148980Y343334D01*
X148867Y343340D01*
X148754Y343342D01*
X148641Y343340D01*
X148528Y343334D01*
X148415Y343324D01*
X148302Y343310D01*
X148190Y343293D01*
X148079Y343271D01*
X147969Y343246D01*
X147859Y343216D01*
X147751Y343183D01*
X147644Y343146D01*
X147538Y343106D01*
X147434Y343061D01*
X147331Y343013D01*
X147230Y342962D01*
X147131Y342907D01*
X147034Y342849D01*
X146939Y342787D01*
X146846Y342722D01*
X146756Y342654D01*
X146668Y342583D01*
X146582Y342508D01*
X146499Y342431D01*
X146419Y342351D01*
X146342Y342268D01*
X146267Y342182D01*
X146196Y342094D01*
X146128Y342004D01*
X146063Y341911D01*
X146001Y341816D01*
X145943Y341719D01*
X145888Y341620D01*
X145837Y341519D01*
X145789Y341416D01*
X145744Y341312D01*
X145704Y341206D01*
X145667Y341099D01*
X145634Y340991D01*
X145604Y340881D01*
X145579Y340771D01*
X145557Y340660D01*
X145540Y340548D01*
X145526Y340435D01*
X145516Y340322D01*
X145510Y340209D01*
X145508Y340096D01*
X145508Y336851D01*
X145510Y336708D01*
X145516Y336565D01*
X145526Y336422D01*
X145540Y336280D01*
X145557Y336138D01*
X145579Y335996D01*
X145604Y335855D01*
X145634Y335715D01*
X145667Y335576D01*
X145704Y335438D01*
X145745Y335301D01*
X145789Y335165D01*
X145838Y335030D01*
X145890Y334897D01*
X145945Y334765D01*
X146005Y334635D01*
X146068Y334506D01*
X146134Y334379D01*
X146204Y334255D01*
X146277Y334132D01*
X146354Y334011D01*
X146434Y333892D01*
X146517Y333776D01*
X146603Y333661D01*
X146692Y333550D01*
X146785Y333440D01*
X146880Y333334D01*
X146979Y333230D01*
X147080Y333129D01*
X147184Y333030D01*
X147290Y332935D01*
X147400Y332842D01*
X147511Y332753D01*
X147626Y332667D01*
X147742Y332584D01*
X147861Y332504D01*
X147982Y332427D01*
X148104Y332354D01*
X148229Y332284D01*
X148356Y332218D01*
X148485Y332155D01*
X148615Y332095D01*
X148747Y332040D01*
X148880Y331988D01*
X149015Y331939D01*
X149151Y331895D01*
X149288Y331854D01*
X149426Y331817D01*
X149565Y331784D01*
X149705Y331754D01*
X149846Y331729D01*
X149988Y331707D01*
X150130Y331690D01*
X150272Y331676D01*
X150415Y331666D01*
X150558Y331660D01*
X150701Y331658D01*
M02*
