G04 EAGLE Gerber RS-274X export*
G75*
%MOMM*%
%FSLAX34Y34*%
%LPD*%
%INSolderpaste Top*%
%IPPOS*%
%AMOC8*
5,1,8,0,0,1.08239X$1,22.5*%
G01*
%ADD10R,1.100000X1.000000*%
%ADD11R,1.300000X1.500000*%
%ADD12R,1.000000X1.100000*%
%ADD13R,1.500000X1.300000*%
%ADD14R,1.450000X0.400000*%
%ADD15R,1.500000X1.800000*%
%ADD16R,0.700000X1.500000*%
%ADD17R,1.250000X0.300000*%
%ADD18R,3.000000X0.900000*%
%ADD19R,0.889000X0.787400*%
%ADD20R,0.900000X0.800000*%
%ADD21R,1.000000X0.300000*%
%ADD22R,0.600000X0.300000*%
%ADD23R,0.700000X0.540000*%
%ADD24R,1.000000X0.400000*%
%ADD25R,1.750000X0.600000*%
%ADD26R,1.500000X0.800000*%
%ADD27R,1.000000X1.450000*%
%ADD28R,1.400000X0.800000*%
%ADD29R,1.550000X1.000000*%
%ADD30R,1.050000X0.570000*%
%ADD31R,1.500000X0.300000*%
%ADD32R,0.300000X1.500000*%
%ADD33R,2.235200X1.219200*%
%ADD34R,2.200000X3.600000*%
%ADD35R,2.000000X1.600000*%
%ADD36R,1.300000X1.100000*%
%ADD37R,0.560000X0.260000*%
%ADD38R,0.260000X0.560000*%
%ADD39R,0.400000X0.400000*%
%ADD40R,0.800000X0.800000*%
%ADD41R,1.300000X1.550000*%

G36*
X560065Y669377D02*
X560065Y669377D01*
X560131Y669379D01*
X560174Y669397D01*
X560221Y669405D01*
X560278Y669439D01*
X560338Y669464D01*
X560373Y669495D01*
X560414Y669520D01*
X560456Y669571D01*
X560504Y669615D01*
X560526Y669657D01*
X560555Y669694D01*
X560576Y669756D01*
X560607Y669815D01*
X560615Y669869D01*
X560627Y669906D01*
X560626Y669946D01*
X560634Y670000D01*
X560634Y690000D01*
X560623Y690065D01*
X560621Y690131D01*
X560603Y690174D01*
X560595Y690221D01*
X560561Y690278D01*
X560536Y690338D01*
X560505Y690373D01*
X560480Y690414D01*
X560429Y690456D01*
X560385Y690504D01*
X560343Y690526D01*
X560306Y690555D01*
X560244Y690576D01*
X560185Y690607D01*
X560131Y690615D01*
X560094Y690627D01*
X560054Y690626D01*
X560000Y690634D01*
X540000Y690634D01*
X539935Y690623D01*
X539869Y690621D01*
X539826Y690603D01*
X539779Y690595D01*
X539722Y690561D01*
X539662Y690536D01*
X539627Y690505D01*
X539586Y690480D01*
X539545Y690429D01*
X539496Y690385D01*
X539474Y690343D01*
X539445Y690306D01*
X539424Y690244D01*
X539393Y690185D01*
X539385Y690131D01*
X539373Y690094D01*
X539374Y690054D01*
X539366Y690000D01*
X539366Y670000D01*
X539377Y669935D01*
X539379Y669869D01*
X539397Y669826D01*
X539405Y669779D01*
X539439Y669722D01*
X539464Y669662D01*
X539495Y669627D01*
X539520Y669586D01*
X539571Y669545D01*
X539615Y669496D01*
X539657Y669474D01*
X539694Y669445D01*
X539756Y669424D01*
X539815Y669393D01*
X539869Y669385D01*
X539906Y669373D01*
X539946Y669374D01*
X540000Y669366D01*
X560000Y669366D01*
X560065Y669377D01*
G37*
G36*
X310065Y741877D02*
X310065Y741877D01*
X310131Y741879D01*
X310174Y741897D01*
X310221Y741905D01*
X310278Y741939D01*
X310338Y741964D01*
X310373Y741995D01*
X310414Y742020D01*
X310456Y742071D01*
X310504Y742115D01*
X310526Y742157D01*
X310555Y742194D01*
X310576Y742256D01*
X310607Y742315D01*
X310615Y742369D01*
X310627Y742406D01*
X310626Y742446D01*
X310634Y742500D01*
X310634Y750000D01*
X310623Y750065D01*
X310621Y750131D01*
X310603Y750174D01*
X310595Y750221D01*
X310561Y750278D01*
X310536Y750338D01*
X310505Y750373D01*
X310480Y750414D01*
X310429Y750456D01*
X310385Y750504D01*
X310343Y750526D01*
X310306Y750555D01*
X310244Y750576D01*
X310185Y750607D01*
X310131Y750615D01*
X310094Y750627D01*
X310054Y750626D01*
X310000Y750634D01*
X302500Y750634D01*
X302435Y750623D01*
X302369Y750621D01*
X302326Y750603D01*
X302279Y750595D01*
X302222Y750561D01*
X302162Y750536D01*
X302127Y750505D01*
X302086Y750480D01*
X302045Y750429D01*
X301996Y750385D01*
X301974Y750343D01*
X301945Y750306D01*
X301924Y750244D01*
X301893Y750185D01*
X301885Y750131D01*
X301873Y750094D01*
X301874Y750054D01*
X301866Y750000D01*
X301866Y742500D01*
X301877Y742435D01*
X301879Y742369D01*
X301897Y742326D01*
X301905Y742279D01*
X301939Y742222D01*
X301964Y742162D01*
X301995Y742127D01*
X302020Y742086D01*
X302071Y742045D01*
X302115Y741996D01*
X302157Y741974D01*
X302194Y741945D01*
X302256Y741924D01*
X302315Y741893D01*
X302369Y741885D01*
X302406Y741873D01*
X302446Y741874D01*
X302500Y741866D01*
X310000Y741866D01*
X310065Y741877D01*
G37*
G36*
X297565Y741877D02*
X297565Y741877D01*
X297631Y741879D01*
X297674Y741897D01*
X297721Y741905D01*
X297778Y741939D01*
X297838Y741964D01*
X297873Y741995D01*
X297914Y742020D01*
X297956Y742071D01*
X298004Y742115D01*
X298026Y742157D01*
X298055Y742194D01*
X298076Y742256D01*
X298107Y742315D01*
X298115Y742369D01*
X298127Y742406D01*
X298126Y742446D01*
X298134Y742500D01*
X298134Y750000D01*
X298123Y750065D01*
X298121Y750131D01*
X298103Y750174D01*
X298095Y750221D01*
X298061Y750278D01*
X298036Y750338D01*
X298005Y750373D01*
X297980Y750414D01*
X297929Y750456D01*
X297885Y750504D01*
X297843Y750526D01*
X297806Y750555D01*
X297744Y750576D01*
X297685Y750607D01*
X297631Y750615D01*
X297594Y750627D01*
X297554Y750626D01*
X297500Y750634D01*
X290000Y750634D01*
X289935Y750623D01*
X289869Y750621D01*
X289826Y750603D01*
X289779Y750595D01*
X289722Y750561D01*
X289662Y750536D01*
X289627Y750505D01*
X289586Y750480D01*
X289545Y750429D01*
X289496Y750385D01*
X289474Y750343D01*
X289445Y750306D01*
X289424Y750244D01*
X289393Y750185D01*
X289385Y750131D01*
X289373Y750094D01*
X289374Y750054D01*
X289366Y750000D01*
X289366Y742500D01*
X289377Y742435D01*
X289379Y742369D01*
X289397Y742326D01*
X289405Y742279D01*
X289439Y742222D01*
X289464Y742162D01*
X289495Y742127D01*
X289520Y742086D01*
X289571Y742045D01*
X289615Y741996D01*
X289657Y741974D01*
X289694Y741945D01*
X289756Y741924D01*
X289815Y741893D01*
X289869Y741885D01*
X289906Y741873D01*
X289946Y741874D01*
X290000Y741866D01*
X297500Y741866D01*
X297565Y741877D01*
G37*
G36*
X297565Y729377D02*
X297565Y729377D01*
X297631Y729379D01*
X297674Y729397D01*
X297721Y729405D01*
X297778Y729439D01*
X297838Y729464D01*
X297873Y729495D01*
X297914Y729520D01*
X297956Y729571D01*
X298004Y729615D01*
X298026Y729657D01*
X298055Y729694D01*
X298076Y729756D01*
X298107Y729815D01*
X298115Y729869D01*
X298127Y729906D01*
X298126Y729946D01*
X298134Y730000D01*
X298134Y737500D01*
X298123Y737565D01*
X298121Y737631D01*
X298103Y737674D01*
X298095Y737721D01*
X298061Y737778D01*
X298036Y737838D01*
X298005Y737873D01*
X297980Y737914D01*
X297929Y737956D01*
X297885Y738004D01*
X297843Y738026D01*
X297806Y738055D01*
X297744Y738076D01*
X297685Y738107D01*
X297631Y738115D01*
X297594Y738127D01*
X297554Y738126D01*
X297500Y738134D01*
X290000Y738134D01*
X289935Y738123D01*
X289869Y738121D01*
X289826Y738103D01*
X289779Y738095D01*
X289722Y738061D01*
X289662Y738036D01*
X289627Y738005D01*
X289586Y737980D01*
X289545Y737929D01*
X289496Y737885D01*
X289474Y737843D01*
X289445Y737806D01*
X289424Y737744D01*
X289393Y737685D01*
X289385Y737631D01*
X289373Y737594D01*
X289374Y737554D01*
X289366Y737500D01*
X289366Y730000D01*
X289377Y729935D01*
X289379Y729869D01*
X289397Y729826D01*
X289405Y729779D01*
X289439Y729722D01*
X289464Y729662D01*
X289495Y729627D01*
X289520Y729586D01*
X289571Y729545D01*
X289615Y729496D01*
X289657Y729474D01*
X289694Y729445D01*
X289756Y729424D01*
X289815Y729393D01*
X289869Y729385D01*
X289906Y729373D01*
X289946Y729374D01*
X290000Y729366D01*
X297500Y729366D01*
X297565Y729377D01*
G37*
G36*
X310065Y729377D02*
X310065Y729377D01*
X310131Y729379D01*
X310174Y729397D01*
X310221Y729405D01*
X310278Y729439D01*
X310338Y729464D01*
X310373Y729495D01*
X310414Y729520D01*
X310456Y729571D01*
X310504Y729615D01*
X310526Y729657D01*
X310555Y729694D01*
X310576Y729756D01*
X310607Y729815D01*
X310615Y729869D01*
X310627Y729906D01*
X310626Y729946D01*
X310634Y730000D01*
X310634Y737500D01*
X310623Y737565D01*
X310621Y737631D01*
X310603Y737674D01*
X310595Y737721D01*
X310561Y737778D01*
X310536Y737838D01*
X310505Y737873D01*
X310480Y737914D01*
X310429Y737956D01*
X310385Y738004D01*
X310343Y738026D01*
X310306Y738055D01*
X310244Y738076D01*
X310185Y738107D01*
X310131Y738115D01*
X310094Y738127D01*
X310054Y738126D01*
X310000Y738134D01*
X302500Y738134D01*
X302435Y738123D01*
X302369Y738121D01*
X302326Y738103D01*
X302279Y738095D01*
X302222Y738061D01*
X302162Y738036D01*
X302127Y738005D01*
X302086Y737980D01*
X302045Y737929D01*
X301996Y737885D01*
X301974Y737843D01*
X301945Y737806D01*
X301924Y737744D01*
X301893Y737685D01*
X301885Y737631D01*
X301873Y737594D01*
X301874Y737554D01*
X301866Y737500D01*
X301866Y730000D01*
X301877Y729935D01*
X301879Y729869D01*
X301897Y729826D01*
X301905Y729779D01*
X301939Y729722D01*
X301964Y729662D01*
X301995Y729627D01*
X302020Y729586D01*
X302071Y729545D01*
X302115Y729496D01*
X302157Y729474D01*
X302194Y729445D01*
X302256Y729424D01*
X302315Y729393D01*
X302369Y729385D01*
X302406Y729373D01*
X302446Y729374D01*
X302500Y729366D01*
X310000Y729366D01*
X310065Y729377D01*
G37*
G36*
X308747Y756587D02*
X308747Y756587D01*
X308742Y756594D01*
X308749Y756600D01*
X308749Y764400D01*
X308713Y764447D01*
X308706Y764442D01*
X308700Y764449D01*
X306300Y764449D01*
X306253Y764413D01*
X306258Y764406D01*
X306251Y764400D01*
X306251Y756600D01*
X306287Y756553D01*
X306294Y756558D01*
X306300Y756551D01*
X308700Y756551D01*
X308747Y756587D01*
G37*
G36*
X303747Y756587D02*
X303747Y756587D01*
X303742Y756594D01*
X303749Y756600D01*
X303749Y764400D01*
X303713Y764447D01*
X303706Y764442D01*
X303700Y764449D01*
X301300Y764449D01*
X301253Y764413D01*
X301258Y764406D01*
X301251Y764400D01*
X301251Y756600D01*
X301287Y756553D01*
X301294Y756558D01*
X301300Y756551D01*
X303700Y756551D01*
X303747Y756587D01*
G37*
G36*
X293747Y756587D02*
X293747Y756587D01*
X293742Y756594D01*
X293749Y756600D01*
X293749Y764400D01*
X293713Y764447D01*
X293706Y764442D01*
X293700Y764449D01*
X291300Y764449D01*
X291253Y764413D01*
X291258Y764406D01*
X291251Y764400D01*
X291251Y756600D01*
X291287Y756553D01*
X291294Y756558D01*
X291300Y756551D01*
X293700Y756551D01*
X293747Y756587D01*
G37*
G36*
X288747Y756587D02*
X288747Y756587D01*
X288742Y756594D01*
X288749Y756600D01*
X288749Y764400D01*
X288713Y764447D01*
X288706Y764442D01*
X288700Y764449D01*
X286300Y764449D01*
X286253Y764413D01*
X286258Y764406D01*
X286251Y764400D01*
X286251Y756600D01*
X286287Y756553D01*
X286294Y756558D01*
X286300Y756551D01*
X288700Y756551D01*
X288747Y756587D01*
G37*
G36*
X298747Y756587D02*
X298747Y756587D01*
X298742Y756594D01*
X298749Y756600D01*
X298749Y764400D01*
X298713Y764447D01*
X298706Y764442D01*
X298700Y764449D01*
X296300Y764449D01*
X296253Y764413D01*
X296258Y764406D01*
X296251Y764400D01*
X296251Y756600D01*
X296287Y756553D01*
X296294Y756558D01*
X296300Y756551D01*
X298700Y756551D01*
X298747Y756587D01*
G37*
G36*
X313747Y756587D02*
X313747Y756587D01*
X313742Y756594D01*
X313749Y756600D01*
X313749Y764400D01*
X313713Y764447D01*
X313706Y764442D01*
X313700Y764449D01*
X311300Y764449D01*
X311253Y764413D01*
X311258Y764406D01*
X311251Y764400D01*
X311251Y756600D01*
X311287Y756553D01*
X311294Y756558D01*
X311300Y756551D01*
X313700Y756551D01*
X313747Y756587D01*
G37*
G36*
X283447Y751287D02*
X283447Y751287D01*
X283442Y751294D01*
X283449Y751300D01*
X283449Y753700D01*
X283413Y753747D01*
X283406Y753742D01*
X283400Y753749D01*
X275600Y753749D01*
X275553Y753713D01*
X275558Y753706D01*
X275551Y753700D01*
X275551Y751300D01*
X275587Y751253D01*
X275594Y751258D01*
X275600Y751251D01*
X283400Y751251D01*
X283447Y751287D01*
G37*
G36*
X324447Y751287D02*
X324447Y751287D01*
X324442Y751294D01*
X324449Y751300D01*
X324449Y753700D01*
X324413Y753747D01*
X324406Y753742D01*
X324400Y753749D01*
X316600Y753749D01*
X316553Y753713D01*
X316558Y753706D01*
X316551Y753700D01*
X316551Y751300D01*
X316587Y751253D01*
X316594Y751258D01*
X316600Y751251D01*
X324400Y751251D01*
X324447Y751287D01*
G37*
G36*
X283447Y746287D02*
X283447Y746287D01*
X283442Y746294D01*
X283449Y746300D01*
X283449Y748700D01*
X283413Y748747D01*
X283406Y748742D01*
X283400Y748749D01*
X275600Y748749D01*
X275553Y748713D01*
X275558Y748706D01*
X275551Y748700D01*
X275551Y746300D01*
X275587Y746253D01*
X275594Y746258D01*
X275600Y746251D01*
X283400Y746251D01*
X283447Y746287D01*
G37*
G36*
X324447Y746287D02*
X324447Y746287D01*
X324442Y746294D01*
X324449Y746300D01*
X324449Y748700D01*
X324413Y748747D01*
X324406Y748742D01*
X324400Y748749D01*
X316600Y748749D01*
X316553Y748713D01*
X316558Y748706D01*
X316551Y748700D01*
X316551Y746300D01*
X316587Y746253D01*
X316594Y746258D01*
X316600Y746251D01*
X324400Y746251D01*
X324447Y746287D01*
G37*
G36*
X283447Y741287D02*
X283447Y741287D01*
X283442Y741294D01*
X283449Y741300D01*
X283449Y743700D01*
X283413Y743747D01*
X283406Y743742D01*
X283400Y743749D01*
X275600Y743749D01*
X275553Y743713D01*
X275558Y743706D01*
X275551Y743700D01*
X275551Y741300D01*
X275587Y741253D01*
X275594Y741258D01*
X275600Y741251D01*
X283400Y741251D01*
X283447Y741287D01*
G37*
G36*
X324447Y741287D02*
X324447Y741287D01*
X324442Y741294D01*
X324449Y741300D01*
X324449Y743700D01*
X324413Y743747D01*
X324406Y743742D01*
X324400Y743749D01*
X316600Y743749D01*
X316553Y743713D01*
X316558Y743706D01*
X316551Y743700D01*
X316551Y741300D01*
X316587Y741253D01*
X316594Y741258D01*
X316600Y741251D01*
X324400Y741251D01*
X324447Y741287D01*
G37*
G36*
X324447Y736287D02*
X324447Y736287D01*
X324442Y736294D01*
X324449Y736300D01*
X324449Y738700D01*
X324413Y738747D01*
X324406Y738742D01*
X324400Y738749D01*
X316600Y738749D01*
X316553Y738713D01*
X316558Y738706D01*
X316551Y738700D01*
X316551Y736300D01*
X316587Y736253D01*
X316594Y736258D01*
X316600Y736251D01*
X324400Y736251D01*
X324447Y736287D01*
G37*
G36*
X283447Y736287D02*
X283447Y736287D01*
X283442Y736294D01*
X283449Y736300D01*
X283449Y738700D01*
X283413Y738747D01*
X283406Y738742D01*
X283400Y738749D01*
X275600Y738749D01*
X275553Y738713D01*
X275558Y738706D01*
X275551Y738700D01*
X275551Y736300D01*
X275587Y736253D01*
X275594Y736258D01*
X275600Y736251D01*
X283400Y736251D01*
X283447Y736287D01*
G37*
G36*
X324447Y731287D02*
X324447Y731287D01*
X324442Y731294D01*
X324449Y731300D01*
X324449Y733700D01*
X324413Y733747D01*
X324406Y733742D01*
X324400Y733749D01*
X316600Y733749D01*
X316553Y733713D01*
X316558Y733706D01*
X316551Y733700D01*
X316551Y731300D01*
X316587Y731253D01*
X316594Y731258D01*
X316600Y731251D01*
X324400Y731251D01*
X324447Y731287D01*
G37*
G36*
X283447Y731287D02*
X283447Y731287D01*
X283442Y731294D01*
X283449Y731300D01*
X283449Y733700D01*
X283413Y733747D01*
X283406Y733742D01*
X283400Y733749D01*
X275600Y733749D01*
X275553Y733713D01*
X275558Y733706D01*
X275551Y733700D01*
X275551Y731300D01*
X275587Y731253D01*
X275594Y731258D01*
X275600Y731251D01*
X283400Y731251D01*
X283447Y731287D01*
G37*
G36*
X324447Y726287D02*
X324447Y726287D01*
X324442Y726294D01*
X324449Y726300D01*
X324449Y728700D01*
X324413Y728747D01*
X324406Y728742D01*
X324400Y728749D01*
X316600Y728749D01*
X316553Y728713D01*
X316558Y728706D01*
X316551Y728700D01*
X316551Y726300D01*
X316587Y726253D01*
X316594Y726258D01*
X316600Y726251D01*
X324400Y726251D01*
X324447Y726287D01*
G37*
G36*
X283447Y726287D02*
X283447Y726287D01*
X283442Y726294D01*
X283449Y726300D01*
X283449Y728700D01*
X283413Y728747D01*
X283406Y728742D01*
X283400Y728749D01*
X275600Y728749D01*
X275553Y728713D01*
X275558Y728706D01*
X275551Y728700D01*
X275551Y726300D01*
X275587Y726253D01*
X275594Y726258D01*
X275600Y726251D01*
X283400Y726251D01*
X283447Y726287D01*
G37*
G36*
X303747Y715587D02*
X303747Y715587D01*
X303742Y715594D01*
X303749Y715600D01*
X303749Y723400D01*
X303713Y723447D01*
X303706Y723442D01*
X303700Y723449D01*
X301300Y723449D01*
X301253Y723413D01*
X301258Y723406D01*
X301251Y723400D01*
X301251Y715600D01*
X301287Y715553D01*
X301294Y715558D01*
X301300Y715551D01*
X303700Y715551D01*
X303747Y715587D01*
G37*
G36*
X298747Y715587D02*
X298747Y715587D01*
X298742Y715594D01*
X298749Y715600D01*
X298749Y723400D01*
X298713Y723447D01*
X298706Y723442D01*
X298700Y723449D01*
X296300Y723449D01*
X296253Y723413D01*
X296258Y723406D01*
X296251Y723400D01*
X296251Y715600D01*
X296287Y715553D01*
X296294Y715558D01*
X296300Y715551D01*
X298700Y715551D01*
X298747Y715587D01*
G37*
G36*
X308747Y715587D02*
X308747Y715587D01*
X308742Y715594D01*
X308749Y715600D01*
X308749Y723400D01*
X308713Y723447D01*
X308706Y723442D01*
X308700Y723449D01*
X306300Y723449D01*
X306253Y723413D01*
X306258Y723406D01*
X306251Y723400D01*
X306251Y715600D01*
X306287Y715553D01*
X306294Y715558D01*
X306300Y715551D01*
X308700Y715551D01*
X308747Y715587D01*
G37*
G36*
X313747Y715587D02*
X313747Y715587D01*
X313742Y715594D01*
X313749Y715600D01*
X313749Y723400D01*
X313713Y723447D01*
X313706Y723442D01*
X313700Y723449D01*
X311300Y723449D01*
X311253Y723413D01*
X311258Y723406D01*
X311251Y723400D01*
X311251Y715600D01*
X311287Y715553D01*
X311294Y715558D01*
X311300Y715551D01*
X313700Y715551D01*
X313747Y715587D01*
G37*
G36*
X293747Y715587D02*
X293747Y715587D01*
X293742Y715594D01*
X293749Y715600D01*
X293749Y723400D01*
X293713Y723447D01*
X293706Y723442D01*
X293700Y723449D01*
X291300Y723449D01*
X291253Y723413D01*
X291258Y723406D01*
X291251Y723400D01*
X291251Y715600D01*
X291287Y715553D01*
X291294Y715558D01*
X291300Y715551D01*
X293700Y715551D01*
X293747Y715587D01*
G37*
G36*
X288747Y715587D02*
X288747Y715587D01*
X288742Y715594D01*
X288749Y715600D01*
X288749Y723400D01*
X288713Y723447D01*
X288706Y723442D01*
X288700Y723449D01*
X286300Y723449D01*
X286253Y723413D01*
X286258Y723406D01*
X286251Y723400D01*
X286251Y715600D01*
X286287Y715553D01*
X286294Y715558D01*
X286300Y715551D01*
X288700Y715551D01*
X288747Y715587D01*
G37*
D10*
X296500Y810000D03*
X313500Y810000D03*
X261500Y810000D03*
X278500Y810000D03*
X161500Y465000D03*
X178500Y465000D03*
D11*
X160500Y440000D03*
X179500Y440000D03*
D10*
X583500Y725000D03*
X566500Y725000D03*
D11*
X584500Y750000D03*
X565500Y750000D03*
D12*
X262500Y771500D03*
X262500Y788500D03*
X360000Y728500D03*
X360000Y711500D03*
D11*
X300500Y835000D03*
X319500Y835000D03*
D13*
X240000Y770500D03*
X240000Y789500D03*
X382500Y729500D03*
X382500Y710500D03*
D10*
X266500Y660000D03*
X283500Y660000D03*
D12*
X245000Y698500D03*
X245000Y681500D03*
D14*
X47150Y198300D03*
X47150Y172300D03*
D15*
X19900Y222140D03*
D16*
X19900Y185300D03*
D15*
X19900Y148460D03*
D17*
X47150Y191800D03*
X47150Y185300D03*
X47150Y178800D03*
D18*
X142120Y360000D03*
X142120Y385000D03*
X142120Y340000D03*
X142120Y315000D03*
D19*
X240160Y357594D03*
X240160Y376898D03*
X219840Y367246D03*
D20*
X220000Y414500D03*
X220000Y395500D03*
X241000Y405000D03*
D12*
X266500Y635000D03*
X283500Y635000D03*
X261500Y410000D03*
X278500Y410000D03*
X161500Y565000D03*
X178500Y565000D03*
X161500Y590000D03*
X178500Y590000D03*
X161500Y615000D03*
X178500Y615000D03*
X161500Y515000D03*
X178500Y515000D03*
X161500Y540000D03*
X178500Y540000D03*
X161500Y490000D03*
X178500Y490000D03*
X346500Y810000D03*
X363500Y810000D03*
D10*
X460000Y643500D03*
X460000Y626500D03*
D12*
X408500Y490000D03*
X391500Y490000D03*
X198500Y300000D03*
X181500Y300000D03*
X181500Y275000D03*
X198500Y275000D03*
X198500Y250000D03*
X181500Y250000D03*
X261500Y360000D03*
X278500Y360000D03*
X278500Y385000D03*
X261500Y385000D03*
D21*
X196500Y350000D03*
X196500Y345000D03*
D22*
X198500Y340000D03*
X198500Y335000D03*
D23*
X190000Y336200D03*
D22*
X181500Y335000D03*
X181500Y340000D03*
D21*
X183500Y345000D03*
D24*
X183500Y350500D03*
D25*
X15000Y590000D03*
X15000Y579000D03*
X15000Y568000D03*
X15000Y557000D03*
X15000Y546000D03*
X15000Y535000D03*
X15000Y524000D03*
X15000Y513000D03*
D13*
X16250Y602000D03*
X16250Y487500D03*
D26*
X92250Y604500D03*
D27*
X107250Y601250D03*
D28*
X98750Y485000D03*
D29*
X123000Y489000D03*
D30*
X512500Y660000D03*
X587500Y660000D03*
X512500Y672700D03*
X512500Y685400D03*
X512500Y698100D03*
X587500Y672700D03*
X587500Y685400D03*
X587500Y698100D03*
D31*
X610000Y405000D03*
X610000Y410000D03*
X610000Y415000D03*
X610000Y420000D03*
X610000Y425000D03*
X610000Y430000D03*
X610000Y435000D03*
X610000Y440000D03*
X610000Y445000D03*
X610000Y450000D03*
X610000Y455000D03*
X610000Y460000D03*
X610000Y465000D03*
X610000Y470000D03*
X610000Y475000D03*
X610000Y480000D03*
X610000Y485000D03*
X610000Y490000D03*
X610000Y495000D03*
X610000Y500000D03*
X610000Y505000D03*
X610000Y510000D03*
X610000Y515000D03*
X610000Y520000D03*
X610000Y525000D03*
D32*
X590000Y545000D03*
X585000Y545000D03*
X580000Y545000D03*
X575000Y545000D03*
X570000Y545000D03*
X565000Y545000D03*
X560000Y545000D03*
X555000Y545000D03*
X550000Y545000D03*
X545000Y545000D03*
X540000Y545000D03*
X535000Y545000D03*
X530000Y545000D03*
X525000Y545000D03*
X520000Y545000D03*
X515000Y545000D03*
X510000Y545000D03*
X505000Y545000D03*
X500000Y545000D03*
X495000Y545000D03*
X490000Y545000D03*
X485000Y545000D03*
X480000Y545000D03*
X475000Y545000D03*
X470000Y545000D03*
D31*
X450000Y525000D03*
X450000Y520000D03*
X450000Y515000D03*
X450000Y510000D03*
X450000Y505000D03*
X450000Y500000D03*
X450000Y495000D03*
X450000Y490000D03*
X450000Y485000D03*
X450000Y480000D03*
X450000Y475000D03*
X450000Y470000D03*
X450000Y465000D03*
X450000Y460000D03*
X450000Y455000D03*
X450000Y450000D03*
X450000Y445000D03*
X450000Y440000D03*
X450000Y435000D03*
X450000Y430000D03*
X450000Y425000D03*
X450000Y420000D03*
X450000Y415000D03*
X450000Y410000D03*
X450000Y405000D03*
D32*
X470000Y385000D03*
X475000Y385000D03*
X480000Y385000D03*
X485000Y385000D03*
X490000Y385000D03*
X495000Y385000D03*
X500000Y385000D03*
X505000Y385000D03*
X510000Y385000D03*
X515000Y385000D03*
X520000Y385000D03*
X525000Y385000D03*
X530000Y385000D03*
X535000Y385000D03*
X540000Y385000D03*
X545000Y385000D03*
X550000Y385000D03*
X555000Y385000D03*
X560000Y385000D03*
X565000Y385000D03*
X570000Y385000D03*
X575000Y385000D03*
X580000Y385000D03*
X585000Y385000D03*
X590000Y385000D03*
D33*
X199012Y228114D03*
X199012Y205000D03*
X199012Y181886D03*
D34*
X260990Y205000D03*
D13*
X210000Y149500D03*
X210000Y130500D03*
X240000Y149500D03*
X240000Y130500D03*
D14*
X47250Y73000D03*
X47250Y47000D03*
D15*
X20000Y96840D03*
D16*
X20000Y60000D03*
D15*
X20000Y23160D03*
D17*
X47250Y66500D03*
X47250Y60000D03*
X47250Y53500D03*
D10*
X546500Y340000D03*
X563500Y340000D03*
D11*
X540500Y317500D03*
X559500Y317500D03*
X519500Y615000D03*
X500500Y615000D03*
D10*
X518500Y590000D03*
X501500Y590000D03*
D13*
X395000Y525500D03*
X395000Y544500D03*
D12*
X420000Y526500D03*
X420000Y543500D03*
D13*
X360000Y464500D03*
X360000Y445500D03*
D12*
X385000Y463500D03*
X385000Y446500D03*
D11*
X437000Y347500D03*
X418000Y347500D03*
D10*
X451000Y370000D03*
X434000Y370000D03*
D11*
X585500Y317500D03*
X604500Y317500D03*
D10*
X581500Y340000D03*
X598500Y340000D03*
D13*
X660000Y530500D03*
X660000Y549500D03*
X575000Y580500D03*
X575000Y599500D03*
X695000Y454500D03*
X695000Y435500D03*
D12*
X672500Y453500D03*
X672500Y436500D03*
X558500Y295000D03*
X541500Y295000D03*
X278500Y835000D03*
X261500Y835000D03*
D35*
X190000Y376000D03*
X190000Y404000D03*
X110000Y214000D03*
X110000Y186000D03*
X110000Y126000D03*
X110000Y154000D03*
D36*
X285500Y698250D03*
X285500Y681750D03*
X264500Y698250D03*
X264500Y681750D03*
D37*
X167000Y80000D03*
X167000Y75000D03*
X167000Y70000D03*
X167000Y65000D03*
X167000Y60000D03*
X167000Y55000D03*
X167000Y50000D03*
D38*
X175000Y42000D03*
X180000Y42000D03*
X185000Y42000D03*
X190000Y42000D03*
X195000Y42000D03*
X200000Y42000D03*
X205000Y42000D03*
D37*
X213000Y50000D03*
X213000Y55000D03*
X213000Y60000D03*
X213000Y65000D03*
X213000Y70000D03*
X213000Y75000D03*
X213000Y80000D03*
D38*
X205000Y88000D03*
X200000Y88000D03*
X195000Y88000D03*
X190000Y88000D03*
X185000Y88000D03*
X180000Y88000D03*
X175000Y88000D03*
D37*
X180000Y77500D03*
X190000Y77500D03*
X200000Y77500D03*
X180000Y72500D03*
X190000Y72500D03*
X200000Y72500D03*
X180000Y67500D03*
X190000Y67500D03*
X200000Y67500D03*
X180000Y62500D03*
X190000Y62500D03*
X200000Y62500D03*
X180000Y57500D03*
X190000Y57500D03*
X200000Y57500D03*
X180000Y52500D03*
X190000Y52500D03*
X200000Y52500D03*
D39*
X169000Y86000D03*
D21*
X131500Y85000D03*
X131500Y80000D03*
D22*
X133500Y75000D03*
X133500Y70000D03*
D23*
X125000Y71200D03*
D22*
X116500Y70000D03*
X116500Y75000D03*
D21*
X118500Y80000D03*
D24*
X118500Y85500D03*
D11*
X144500Y25000D03*
X125500Y25000D03*
D10*
X138500Y50000D03*
X121500Y50000D03*
D40*
X275000Y52500D03*
X275000Y67500D03*
X320000Y52500D03*
X320000Y67500D03*
X360000Y52500D03*
X360000Y67500D03*
X400000Y52500D03*
X400000Y67500D03*
D10*
X325000Y101500D03*
X325000Y118500D03*
X350000Y101500D03*
X350000Y118500D03*
X375000Y101500D03*
X375000Y118500D03*
X400000Y101500D03*
X400000Y118500D03*
X360000Y531500D03*
X360000Y548500D03*
X335000Y531500D03*
X335000Y548500D03*
X310000Y531500D03*
X310000Y548500D03*
X310000Y626500D03*
X310000Y643500D03*
X335000Y626500D03*
X335000Y643500D03*
X435000Y626500D03*
X435000Y643500D03*
X360000Y626500D03*
X360000Y643500D03*
X385000Y626500D03*
X385000Y643500D03*
X410000Y626500D03*
X410000Y643500D03*
D12*
X171500Y25000D03*
X188500Y25000D03*
D41*
X502500Y40250D03*
X502500Y119750D03*
X457500Y40250D03*
X457500Y119750D03*
D10*
X493500Y205000D03*
X476500Y205000D03*
D12*
X493500Y180000D03*
X476500Y180000D03*
X476500Y155000D03*
X493500Y155000D03*
D41*
X597500Y40250D03*
X597500Y119750D03*
X552500Y40250D03*
X552500Y119750D03*
D10*
X558500Y205000D03*
X541500Y205000D03*
D12*
X558500Y180000D03*
X541500Y180000D03*
X541500Y155000D03*
X558500Y155000D03*
D41*
X697500Y40250D03*
X697500Y119750D03*
X652500Y40250D03*
X652500Y119750D03*
D10*
X623500Y205000D03*
X606500Y205000D03*
D12*
X623500Y180000D03*
X606500Y180000D03*
X606500Y155000D03*
X623500Y155000D03*
D36*
X440500Y308250D03*
X440500Y291750D03*
X419500Y308250D03*
X419500Y291750D03*
D12*
X400000Y308500D03*
X400000Y291500D03*
X603500Y295000D03*
X586500Y295000D03*
D10*
X460000Y698500D03*
X460000Y681500D03*
M02*
