G04 EAGLE Gerber RS-274X export*
G75*
%MOMM*%
%FSLAX34Y34*%
%LPD*%
%INSoldermask Top*%
%IPPOS*%
%AMOC8*
5,1,8,0,0,1.08239X$1,22.5*%
G01*
%ADD10C,5.203200*%
%ADD11R,1.303200X1.203200*%
%ADD12R,1.503200X1.703200*%
%ADD13R,1.203200X1.303200*%
%ADD14R,1.703200X1.503200*%
%ADD15R,1.653200X0.603200*%
%ADD16C,1.053200*%
%ADD17R,1.700000X2.000000*%
%ADD18R,1.700000X2.700000*%
%ADD19C,3.530600*%
%ADD20R,3.203200X1.103200*%
%ADD21R,1.092200X0.990600*%
%ADD22R,1.103200X1.003200*%
%ADD23R,1.203200X0.503200*%
%ADD24R,0.803200X0.503200*%
%ADD25R,0.903200X0.743200*%
%ADD26R,1.203200X0.603200*%
%ADD27C,3.453200*%
%ADD28P,2.768970X8X292.500000*%
%ADD29P,1.853918X8X292.500000*%
%ADD30P,1.962157X8X292.500000*%
%ADD31R,1.953200X0.803200*%
%ADD32R,1.703200X1.003200*%
%ADD33R,1.203200X1.653200*%
%ADD34R,1.603200X1.003200*%
%ADD35R,1.753200X1.203200*%
%ADD36R,1.253200X0.773200*%
%ADD37R,1.703200X0.503200*%
%ADD38R,0.503200X1.703200*%
%ADD39R,0.503200X1.053200*%
%ADD40R,1.053200X0.503200*%
%ADD41R,2.753200X2.753200*%
%ADD42R,2.438400X1.422400*%
%ADD43R,2.403200X3.803200*%
%ADD44R,2.203200X1.803200*%
%ADD45R,1.503200X1.303200*%
%ADD46C,1.828800*%
%ADD47R,0.600000X0.300000*%
%ADD48R,0.300000X0.600000*%
%ADD49R,0.500000X0.500000*%
%ADD50R,1.003200X1.003200*%
%ADD51R,1.503200X1.753200*%
%ADD52P,1.979475X8X202.500000*%
%ADD53P,1.979475X8X292.500000*%

G36*
X575465Y659377D02*
X575465Y659377D01*
X575531Y659379D01*
X575574Y659397D01*
X575621Y659405D01*
X575678Y659439D01*
X575738Y659464D01*
X575773Y659495D01*
X575814Y659520D01*
X575856Y659571D01*
X575904Y659615D01*
X575926Y659657D01*
X575955Y659694D01*
X575976Y659756D01*
X576007Y659815D01*
X576015Y659869D01*
X576027Y659906D01*
X576026Y659946D01*
X576034Y660000D01*
X576034Y698100D01*
X576023Y698165D01*
X576021Y698231D01*
X576003Y698274D01*
X575995Y698321D01*
X575961Y698378D01*
X575936Y698438D01*
X575905Y698473D01*
X575880Y698514D01*
X575829Y698556D01*
X575785Y698604D01*
X575743Y698626D01*
X575706Y698655D01*
X575644Y698676D01*
X575585Y698707D01*
X575531Y698715D01*
X575494Y698727D01*
X575454Y698726D01*
X575400Y698734D01*
X537300Y698734D01*
X537258Y698727D01*
X537216Y698729D01*
X537149Y698707D01*
X537079Y698695D01*
X537043Y698673D01*
X537002Y698660D01*
X536929Y698606D01*
X536886Y698580D01*
X536873Y698564D01*
X536852Y698548D01*
X524152Y685848D01*
X524127Y685814D01*
X524096Y685785D01*
X524064Y685722D01*
X524023Y685664D01*
X524013Y685623D01*
X523993Y685585D01*
X523980Y685496D01*
X523968Y685447D01*
X523970Y685426D01*
X523966Y685400D01*
X523966Y660000D01*
X523977Y659935D01*
X523979Y659869D01*
X523997Y659826D01*
X524005Y659779D01*
X524039Y659722D01*
X524064Y659662D01*
X524095Y659627D01*
X524120Y659586D01*
X524171Y659545D01*
X524215Y659496D01*
X524257Y659474D01*
X524294Y659445D01*
X524356Y659424D01*
X524415Y659393D01*
X524469Y659385D01*
X524506Y659373D01*
X524546Y659374D01*
X524600Y659366D01*
X575400Y659366D01*
X575465Y659377D01*
G37*
D10*
X760000Y50000D03*
X760000Y800000D03*
D11*
X296500Y810000D03*
X313500Y810000D03*
X261500Y810000D03*
X278500Y810000D03*
X161500Y465000D03*
X178500Y465000D03*
D12*
X160500Y440000D03*
X179500Y440000D03*
D11*
X583500Y725000D03*
X566500Y725000D03*
D12*
X584500Y750000D03*
X565500Y750000D03*
D13*
X262500Y771500D03*
X262500Y788500D03*
X360000Y728500D03*
X360000Y711500D03*
D12*
X300500Y835000D03*
X319500Y835000D03*
D14*
X240000Y770500D03*
X240000Y789500D03*
X382500Y729500D03*
X382500Y710500D03*
D11*
X266500Y660000D03*
X283500Y660000D03*
D13*
X245000Y698500D03*
X245000Y681500D03*
D15*
X47150Y185300D03*
X47150Y191800D03*
X47150Y198300D03*
X47150Y178800D03*
X47150Y172300D03*
D16*
X41900Y204300D03*
X41900Y166300D03*
D17*
X19900Y222140D03*
X19900Y148460D03*
D18*
X19900Y185300D03*
D19*
X100000Y284341D03*
X100000Y415659D03*
D20*
X142120Y360000D03*
X142120Y385000D03*
X142120Y340000D03*
X142120Y315000D03*
D21*
X240160Y357594D03*
X240160Y376898D03*
X219840Y367246D03*
D22*
X220000Y414500D03*
X220000Y395500D03*
X241000Y405000D03*
D13*
X266500Y635000D03*
X283500Y635000D03*
X261500Y410000D03*
X278500Y410000D03*
X161500Y565000D03*
X178500Y565000D03*
X161500Y590000D03*
X178500Y590000D03*
X161500Y615000D03*
X178500Y615000D03*
X161500Y515000D03*
X178500Y515000D03*
X161500Y540000D03*
X178500Y540000D03*
X161500Y490000D03*
X178500Y490000D03*
X346500Y810000D03*
X363500Y810000D03*
D11*
X460000Y643500D03*
X460000Y626500D03*
D13*
X408500Y490000D03*
X391500Y490000D03*
X198500Y300000D03*
X181500Y300000D03*
X181500Y275000D03*
X198500Y275000D03*
X198500Y250000D03*
X181500Y250000D03*
X261500Y360000D03*
X278500Y360000D03*
X278500Y385000D03*
X261500Y385000D03*
D23*
X196500Y350000D03*
X196500Y345000D03*
D24*
X198500Y340000D03*
X198500Y335000D03*
D25*
X190000Y336200D03*
D24*
X181500Y335000D03*
X181500Y340000D03*
D23*
X183500Y345000D03*
D26*
X183500Y350500D03*
D27*
X70000Y797150D03*
X70000Y682850D03*
D28*
X100500Y817550D03*
X100500Y662450D03*
D29*
X133500Y784450D03*
X158900Y771750D03*
X133500Y759050D03*
X158900Y746350D03*
X133500Y733650D03*
X158900Y720950D03*
X158900Y695550D03*
X133500Y708250D03*
D30*
X207200Y797150D03*
X207200Y771750D03*
X207200Y710750D03*
X207200Y685350D03*
D31*
X15000Y590000D03*
X15000Y579000D03*
X15000Y568000D03*
X15000Y557000D03*
X15000Y546000D03*
X15000Y535000D03*
X15000Y524000D03*
X15000Y513000D03*
D14*
X16250Y602000D03*
X16250Y487500D03*
D32*
X92250Y604500D03*
D33*
X107250Y601250D03*
D34*
X98750Y485000D03*
D35*
X123000Y489000D03*
D36*
X512500Y660000D03*
X587500Y660000D03*
X512500Y672700D03*
X512500Y685400D03*
X512500Y698100D03*
X587500Y672700D03*
X587500Y685400D03*
X587500Y698100D03*
D37*
X610000Y405000D03*
X610000Y410000D03*
X610000Y415000D03*
X610000Y420000D03*
X610000Y425000D03*
X610000Y430000D03*
X610000Y435000D03*
X610000Y440000D03*
X610000Y445000D03*
X610000Y450000D03*
X610000Y455000D03*
X610000Y460000D03*
X610000Y465000D03*
X610000Y470000D03*
X610000Y475000D03*
X610000Y480000D03*
X610000Y485000D03*
X610000Y490000D03*
X610000Y495000D03*
X610000Y500000D03*
X610000Y505000D03*
X610000Y510000D03*
X610000Y515000D03*
X610000Y520000D03*
X610000Y525000D03*
D38*
X590000Y545000D03*
X585000Y545000D03*
X580000Y545000D03*
X575000Y545000D03*
X570000Y545000D03*
X565000Y545000D03*
X560000Y545000D03*
X555000Y545000D03*
X550000Y545000D03*
X545000Y545000D03*
X540000Y545000D03*
X535000Y545000D03*
X530000Y545000D03*
X525000Y545000D03*
X520000Y545000D03*
X515000Y545000D03*
X510000Y545000D03*
X505000Y545000D03*
X500000Y545000D03*
X495000Y545000D03*
X490000Y545000D03*
X485000Y545000D03*
X480000Y545000D03*
X475000Y545000D03*
X470000Y545000D03*
D37*
X450000Y525000D03*
X450000Y520000D03*
X450000Y515000D03*
X450000Y510000D03*
X450000Y505000D03*
X450000Y500000D03*
X450000Y495000D03*
X450000Y490000D03*
X450000Y485000D03*
X450000Y480000D03*
X450000Y475000D03*
X450000Y470000D03*
X450000Y465000D03*
X450000Y460000D03*
X450000Y455000D03*
X450000Y450000D03*
X450000Y445000D03*
X450000Y440000D03*
X450000Y435000D03*
X450000Y430000D03*
X450000Y425000D03*
X450000Y420000D03*
X450000Y415000D03*
X450000Y410000D03*
X450000Y405000D03*
D38*
X470000Y385000D03*
X475000Y385000D03*
X480000Y385000D03*
X485000Y385000D03*
X490000Y385000D03*
X495000Y385000D03*
X500000Y385000D03*
X505000Y385000D03*
X510000Y385000D03*
X515000Y385000D03*
X520000Y385000D03*
X525000Y385000D03*
X530000Y385000D03*
X535000Y385000D03*
X540000Y385000D03*
X545000Y385000D03*
X550000Y385000D03*
X555000Y385000D03*
X560000Y385000D03*
X565000Y385000D03*
X570000Y385000D03*
X575000Y385000D03*
X580000Y385000D03*
X585000Y385000D03*
X590000Y385000D03*
D39*
X287500Y760500D03*
X292500Y760500D03*
X297500Y760500D03*
X302500Y760500D03*
X307500Y760500D03*
X312500Y760500D03*
D40*
X320500Y752500D03*
X320500Y747500D03*
X320500Y742500D03*
X320500Y737500D03*
X320500Y732500D03*
X320500Y727500D03*
X279500Y727500D03*
X279500Y732500D03*
X279500Y737500D03*
X279500Y742500D03*
X279500Y747500D03*
X279500Y752500D03*
D39*
X312500Y719500D03*
X307500Y719500D03*
X302500Y719500D03*
X297500Y719500D03*
X292500Y719500D03*
X287500Y719500D03*
D41*
X300000Y740000D03*
D42*
X199012Y228114D03*
X199012Y205000D03*
X199012Y181886D03*
D43*
X260990Y205000D03*
D14*
X210000Y149500D03*
X210000Y130500D03*
X240000Y149500D03*
X240000Y130500D03*
D15*
X47250Y60000D03*
X47250Y66500D03*
X47250Y73000D03*
X47250Y53500D03*
X47250Y47000D03*
D16*
X42000Y79000D03*
X42000Y41000D03*
D17*
X20000Y96840D03*
X20000Y23160D03*
D18*
X20000Y60000D03*
D11*
X546500Y340000D03*
X563500Y340000D03*
D12*
X540500Y317500D03*
X559500Y317500D03*
X519500Y615000D03*
X500500Y615000D03*
D11*
X518500Y590000D03*
X501500Y590000D03*
D14*
X395000Y525500D03*
X395000Y544500D03*
D13*
X420000Y526500D03*
X420000Y543500D03*
D14*
X360000Y464500D03*
X360000Y445500D03*
D13*
X385000Y463500D03*
X385000Y446500D03*
D12*
X437000Y347500D03*
X418000Y347500D03*
D11*
X451000Y370000D03*
X434000Y370000D03*
D12*
X585500Y317500D03*
X604500Y317500D03*
D11*
X581500Y340000D03*
X598500Y340000D03*
D14*
X660000Y530500D03*
X660000Y549500D03*
X575000Y580500D03*
X575000Y599500D03*
X695000Y454500D03*
X695000Y435500D03*
D13*
X672500Y453500D03*
X672500Y436500D03*
X558500Y295000D03*
X541500Y295000D03*
X278500Y835000D03*
X261500Y835000D03*
D44*
X190000Y376000D03*
X190000Y404000D03*
X110000Y214000D03*
X110000Y186000D03*
X110000Y126000D03*
X110000Y154000D03*
D45*
X285500Y698250D03*
X285500Y681750D03*
X264500Y698250D03*
X264500Y681750D03*
D46*
X158128Y144600D02*
X141872Y144600D01*
X141872Y170000D02*
X158128Y170000D01*
X158128Y195400D02*
X141872Y195400D01*
D47*
X167000Y80000D03*
X167000Y75000D03*
X167000Y70000D03*
X167000Y65000D03*
X167000Y60000D03*
X167000Y55000D03*
X167000Y50000D03*
D48*
X175000Y42000D03*
X180000Y42000D03*
X185000Y42000D03*
X190000Y42000D03*
X195000Y42000D03*
X200000Y42000D03*
X205000Y42000D03*
D47*
X213000Y50000D03*
X213000Y55000D03*
X213000Y60000D03*
X213000Y65000D03*
X213000Y70000D03*
X213000Y75000D03*
X213000Y80000D03*
D48*
X205000Y88000D03*
X200000Y88000D03*
X195000Y88000D03*
X190000Y88000D03*
X185000Y88000D03*
X180000Y88000D03*
X175000Y88000D03*
D49*
X168975Y86025D03*
D47*
X180000Y77500D03*
X190000Y77500D03*
X200000Y77500D03*
X180000Y72500D03*
X190000Y72500D03*
X200000Y72500D03*
X180000Y67500D03*
X190000Y67500D03*
X200000Y67500D03*
X180000Y62500D03*
X190000Y62500D03*
X200000Y62500D03*
X180000Y57500D03*
X190000Y57500D03*
X200000Y57500D03*
X180000Y52500D03*
X190000Y52500D03*
X200000Y52500D03*
D23*
X131500Y85000D03*
X131500Y80000D03*
D24*
X133500Y75000D03*
X133500Y70000D03*
D25*
X125000Y71200D03*
D24*
X116500Y70000D03*
X116500Y75000D03*
D23*
X118500Y80000D03*
D26*
X118500Y85500D03*
D12*
X144500Y25000D03*
X125500Y25000D03*
D11*
X138500Y50000D03*
X121500Y50000D03*
D50*
X275000Y52500D03*
X275000Y67500D03*
X320000Y52500D03*
X320000Y67500D03*
X360000Y52500D03*
X360000Y67500D03*
X400000Y52500D03*
X400000Y67500D03*
D11*
X325000Y101500D03*
X325000Y118500D03*
X350000Y101500D03*
X350000Y118500D03*
X375000Y101500D03*
X375000Y118500D03*
X400000Y101500D03*
X400000Y118500D03*
X360000Y531500D03*
X360000Y548500D03*
X335000Y531500D03*
X335000Y548500D03*
X310000Y531500D03*
X310000Y548500D03*
X310000Y626500D03*
X310000Y643500D03*
X335000Y626500D03*
X335000Y643500D03*
X435000Y626500D03*
X435000Y643500D03*
X360000Y626500D03*
X360000Y643500D03*
X385000Y626500D03*
X385000Y643500D03*
X410000Y626500D03*
X410000Y643500D03*
D13*
X171500Y25000D03*
X188500Y25000D03*
D46*
X476300Y816872D02*
X476300Y833128D01*
X501700Y833128D02*
X501700Y816872D01*
X527100Y816872D02*
X527100Y833128D01*
X552500Y833128D02*
X552500Y816872D01*
X577900Y816872D02*
X577900Y833128D01*
X603300Y833128D02*
X603300Y816872D01*
X628700Y816872D02*
X628700Y833128D01*
D51*
X502500Y40250D03*
X502500Y119750D03*
X457500Y40250D03*
X457500Y119750D03*
D11*
X493500Y205000D03*
X476500Y205000D03*
D13*
X493500Y180000D03*
X476500Y180000D03*
X476500Y155000D03*
X493500Y155000D03*
D51*
X597500Y40250D03*
X597500Y119750D03*
X552500Y40250D03*
X552500Y119750D03*
D11*
X558500Y205000D03*
X541500Y205000D03*
D13*
X558500Y180000D03*
X541500Y180000D03*
X541500Y155000D03*
X558500Y155000D03*
D51*
X697500Y40250D03*
X697500Y119750D03*
X652500Y40250D03*
X652500Y119750D03*
D11*
X623500Y205000D03*
X606500Y205000D03*
D13*
X623500Y180000D03*
X606500Y180000D03*
X606500Y155000D03*
X623500Y155000D03*
D52*
X620800Y267700D03*
X620800Y242300D03*
X595400Y267700D03*
X595400Y242300D03*
X570000Y267700D03*
X570000Y242300D03*
X544600Y267700D03*
X544600Y242300D03*
X519200Y267700D03*
X519200Y242300D03*
D45*
X440500Y308250D03*
X440500Y291750D03*
X419500Y308250D03*
X419500Y291750D03*
D13*
X400000Y308500D03*
X400000Y291500D03*
D53*
X882300Y806000D03*
X907700Y806000D03*
X882300Y780600D03*
X907700Y780600D03*
X882300Y755200D03*
X907700Y755200D03*
X882300Y729800D03*
X907700Y729800D03*
X882300Y704400D03*
X907700Y704400D03*
X882300Y679000D03*
X907700Y679000D03*
X882300Y653600D03*
X907700Y653600D03*
X882300Y628200D03*
X907700Y628200D03*
X882300Y602800D03*
X907700Y602800D03*
X882300Y577400D03*
X907700Y577400D03*
X882300Y552000D03*
X907700Y552000D03*
X882300Y526600D03*
X907700Y526600D03*
X882300Y501200D03*
X907700Y501200D03*
X882300Y475800D03*
X907700Y475800D03*
X882300Y450400D03*
X907700Y450400D03*
X882300Y425000D03*
X907700Y425000D03*
X882300Y399600D03*
X907700Y399600D03*
X882300Y374200D03*
X907700Y374200D03*
X882300Y348800D03*
X907700Y348800D03*
X882300Y323400D03*
X907700Y323400D03*
X882300Y298000D03*
X907700Y298000D03*
X882300Y272600D03*
X907700Y272600D03*
X882300Y247200D03*
X907700Y247200D03*
X882300Y221800D03*
X907700Y221800D03*
X882300Y196400D03*
X907700Y196400D03*
X882300Y171000D03*
X907700Y171000D03*
X882300Y145600D03*
X907700Y145600D03*
X882300Y120200D03*
X907700Y120200D03*
X882300Y94800D03*
X907700Y94800D03*
X882300Y69400D03*
X907700Y69400D03*
D13*
X603500Y295000D03*
X586500Y295000D03*
D11*
X460000Y698500D03*
X460000Y681500D03*
M02*
